<svg width="705" height="157" viewBox="0 0 705 157" fill="none" xmlns="http://www.w3.org/2000/svg">
<path d="M30 0.5H658C674.292 0.5 687.5 13.7076 687.5 30V107C687.5 123.292 674.292 136.5 658 136.5H30C13.7076 136.5 0.5 123.292 0.5 107V30C0.5 13.7076 13.7076 0.5 30 0.5Z" stroke="#FFAA52"/>
<path d="M58 32.5H675C691.292 32.5 704.5 45.7076 704.5 62V127C704.5 143.292 691.292 156.5 675 156.5H58C41.7076 156.5 28.5 143.292 28.5 127V62C28.5 45.7076 41.7076 32.5 58 32.5Z" stroke="#98BC61"/>
<path d="M213.291 57.6H226.891C228.058 57.6 229.291 57.7333 230.591 58C231.891 58.2667 233.174 58.7 234.441 59.3C235.741 59.8667 236.974 60.6167 238.141 61.55C239.341 62.4833 240.391 63.6167 241.291 64.95C242.191 66.25 242.908 67.7667 243.441 69.5C243.974 71.2 244.241 73.1333 244.241 75.3C244.241 77.4667 243.974 79.4167 243.441 81.15C242.908 82.85 242.191 84.3667 241.291 85.7C240.391 87 239.341 88.1167 238.141 89.05C236.974 89.9833 235.741 90.75 234.441 91.35C233.174 91.9167 231.891 92.3333 230.591 92.6C229.291 92.8667 228.058 93 226.891 93H213.291V57.6ZM217.491 89.1H225.491C227.524 89.1 229.408 88.8333 231.141 88.3C232.874 87.7667 234.374 86.95 235.641 85.85C236.908 84.7167 237.908 83.2833 238.641 81.55C239.374 79.8167 239.741 77.7333 239.741 75.3C239.741 72.8667 239.374 70.7833 238.641 69.05C237.908 67.3167 236.908 65.9 235.641 64.8C234.374 63.6667 232.874 62.8333 231.141 62.3C229.408 61.7667 227.524 61.5 225.491 61.5H217.491V89.1ZM271.202 88.75C269.802 90.55 268.268 91.8167 266.602 92.55C264.935 93.25 263.002 93.6 260.802 93.6C258.968 93.6 257.318 93.2833 255.852 92.65C254.385 91.9833 253.135 91.1 252.102 90C251.102 88.9 250.318 87.6 249.752 86.1C249.218 84.6 248.952 83 248.952 81.3C248.952 79.5 249.252 77.85 249.852 76.35C250.452 74.8167 251.285 73.5167 252.352 72.45C253.418 71.35 254.685 70.5 256.152 69.9C257.618 69.3 259.218 69 260.952 69C262.585 69 264.085 69.2833 265.452 69.85C266.818 70.3833 267.985 71.1833 268.952 72.25C269.952 73.2833 270.718 74.5667 271.252 76.1C271.785 77.6 272.052 79.3167 272.052 81.25V82.5H253.152C253.218 83.5 253.452 84.4667 253.852 85.4C254.285 86.3 254.835 87.1 255.502 87.8C256.168 88.4667 256.952 89 257.852 89.4C258.752 89.8 259.735 90 260.802 90C262.502 90 263.935 89.7 265.102 89.1C266.268 88.5 267.318 87.6167 268.252 86.45L271.202 88.75ZM267.852 79.2C267.785 77.2 267.135 75.6 265.902 74.4C264.668 73.2 262.968 72.6 260.802 72.6C258.635 72.6 256.885 73.2 255.552 74.4C254.218 75.6 253.418 77.2 253.152 79.2H267.852ZM278.585 86.85C279.351 87.8167 280.185 88.5833 281.085 89.15C282.018 89.7167 283.185 90 284.585 90C285.185 90 285.785 89.9333 286.385 89.8C287.018 89.6667 287.585 89.45 288.085 89.15C288.585 88.85 288.985 88.4833 289.285 88.05C289.585 87.5833 289.735 87.0333 289.735 86.4C289.735 85.7667 289.585 85.25 289.285 84.85C289.018 84.45 288.651 84.1167 288.185 83.85C287.718 83.55 287.185 83.3167 286.585 83.15C285.985 82.9833 285.368 82.8333 284.735 82.7C283.635 82.4667 282.585 82.2 281.585 81.9C280.585 81.6 279.701 81.2167 278.935 80.75C278.201 80.25 277.601 79.6167 277.135 78.85C276.701 78.0833 276.485 77.1 276.485 75.9C276.485 74.7667 276.735 73.7667 277.235 72.9C277.735 72.0333 278.401 71.3167 279.235 70.75C280.068 70.1833 281.001 69.75 282.035 69.45C283.068 69.15 284.135 69 285.235 69C286.901 69 288.435 69.3333 289.835 70C291.268 70.6667 292.385 71.75 293.185 73.25L289.935 75.4C289.435 74.5667 288.768 73.9 287.935 73.4C287.135 72.8667 286.151 72.6 284.985 72.6C284.451 72.6 283.901 72.6667 283.335 72.8C282.801 72.9333 282.318 73.1333 281.885 73.4C281.451 73.6667 281.085 74.0167 280.785 74.45C280.518 74.85 280.385 75.3167 280.385 75.85C280.385 76.35 280.535 76.7833 280.835 77.15C281.168 77.4833 281.601 77.7833 282.135 78.05C282.701 78.3167 283.335 78.55 284.035 78.75C284.768 78.95 285.518 79.1167 286.285 79.25C287.318 79.45 288.301 79.7167 289.235 80.05C290.168 80.35 290.985 80.7667 291.685 81.3C292.385 81.8333 292.935 82.5 293.335 83.3C293.735 84.1 293.935 85.0833 293.935 86.25C293.935 87.5833 293.668 88.7167 293.135 89.65C292.601 90.5833 291.885 91.35 290.985 91.95C290.118 92.5167 289.118 92.9333 287.985 93.2C286.885 93.4667 285.751 93.6 284.585 93.6C282.585 93.6 280.851 93.3 279.385 92.7C277.951 92.0667 276.651 90.9167 275.485 89.25L278.585 86.85ZM299.724 69.6H303.624V93H299.724V69.6ZM298.824 60.45C298.824 59.6833 299.09 59.0167 299.624 58.45C300.19 57.8833 300.874 57.6 301.674 57.6C302.474 57.6 303.14 57.8833 303.674 58.45C304.24 59.0167 304.524 59.6833 304.524 60.45C304.524 61.2833 304.257 61.9667 303.724 62.5C303.19 63.0333 302.507 63.3 301.674 63.3C300.84 63.3 300.157 63.0333 299.624 62.5C299.09 61.9667 298.824 61.2833 298.824 60.45ZM334.736 91.95C334.736 96.2167 333.636 99.45 331.436 101.65C329.269 103.883 326.119 105 321.986 105C319.686 105 317.602 104.667 315.736 104C313.902 103.333 312.152 102.183 310.486 100.55L313.286 97.35C314.519 98.6833 315.819 99.6833 317.186 100.35C318.586 101.05 320.186 101.4 321.986 101.4C323.719 101.4 325.152 101.133 326.286 100.6C327.452 100.1 328.369 99.4 329.036 98.5C329.702 97.6333 330.169 96.6333 330.436 95.5C330.702 94.3667 330.836 93.1833 330.836 91.95V88.95H330.736C329.802 90.45 328.586 91.55 327.086 92.25C325.586 92.95 324.052 93.3 322.486 93.3C320.652 93.3 318.969 93 317.436 92.4C315.902 91.8 314.586 90.9667 313.486 89.9C312.386 88.8333 311.536 87.5667 310.936 86.1C310.336 84.6333 310.036 83.0333 310.036 81.3C310.036 79.4 310.336 77.6833 310.936 76.15C311.536 74.6167 312.369 73.3333 313.436 72.3C314.536 71.2333 315.852 70.4167 317.386 69.85C318.919 69.2833 320.619 69 322.486 69C323.286 69 324.086 69.1 324.886 69.3C325.686 69.4667 326.452 69.75 327.186 70.15C327.952 70.5167 328.636 71 329.236 71.6C329.836 72.1667 330.336 72.8333 330.736 73.6H330.836V69.6H334.736V91.95ZM314.236 81.3C314.236 82.5 314.452 83.6167 314.886 84.65C315.319 85.65 315.902 86.5333 316.636 87.3C317.402 88.0333 318.286 88.6167 319.286 89.05C320.286 89.4833 321.352 89.7 322.486 89.7C323.819 89.7 325.002 89.4667 326.036 89C327.069 88.5333 327.936 87.9167 328.636 87.15C329.369 86.35 329.919 85.45 330.286 84.45C330.652 83.4167 330.836 82.3333 330.836 81.2C330.836 79.9333 330.636 78.7833 330.236 77.75C329.836 76.6833 329.269 75.7667 328.536 75C327.802 74.2333 326.919 73.65 325.886 73.25C324.852 72.8167 323.719 72.6 322.486 72.6C321.252 72.6 320.119 72.8333 319.086 73.3C318.086 73.7333 317.219 74.35 316.486 75.15C315.786 75.9167 315.236 76.8333 314.836 77.9C314.436 78.9333 314.236 80.0667 314.236 81.3ZM341.952 75.15C341.952 74.0833 341.919 73.0833 341.852 72.15C341.785 71.2167 341.752 70.3667 341.752 69.6H345.452C345.452 70.2333 345.469 70.8667 345.502 71.5C345.535 72.1333 345.552 72.7833 345.552 73.45H345.652C345.919 72.8833 346.285 72.3333 346.752 71.8C347.252 71.2667 347.835 70.8 348.502 70.4C349.169 69.9667 349.919 69.6333 350.752 69.4C351.585 69.1333 352.485 69 353.452 69C354.985 69 356.302 69.2333 357.402 69.7C358.535 70.1667 359.469 70.8167 360.202 71.65C360.935 72.4833 361.469 73.5 361.802 74.7C362.169 75.8667 362.352 77.15 362.352 78.55V93H358.452V78.95C358.452 76.9833 358.019 75.4333 357.152 74.3C356.285 73.1667 354.935 72.6 353.102 72.6C351.835 72.6 350.735 72.8167 349.802 73.25C348.902 73.6833 348.152 74.3 347.552 75.1C346.985 75.9 346.552 76.85 346.252 77.95C345.985 79.05 345.852 80.2667 345.852 81.6V93H341.952V75.15ZM384.351 57.6H394.851C396.485 57.6 398.035 57.7667 399.501 58.1C401.001 58.4 402.318 58.9333 403.451 59.7C404.618 60.4333 405.535 61.4333 406.201 62.7C406.901 63.9333 407.251 65.4667 407.251 67.3C407.251 69.2333 406.885 70.8333 406.151 72.1C405.418 73.3667 404.468 74.3667 403.301 75.1C402.168 75.8333 400.918 76.35 399.551 76.65C398.185 76.95 396.885 77.1 395.651 77.1H388.551V93H384.351V57.6ZM388.551 73.2H395.651C397.751 73.2 399.451 72.7333 400.751 71.8C402.085 70.8333 402.751 69.35 402.751 67.35C402.751 65.35 402.085 63.8833 400.751 62.95C399.451 61.9833 397.751 61.5 395.651 61.5H388.551V73.2ZM413.29 75.15C413.29 74.0833 413.257 73.0833 413.19 72.15C413.123 71.2167 413.09 70.3667 413.09 69.6H416.79C416.79 70.2333 416.807 70.8667 416.84 71.5C416.873 72.1333 416.89 72.7833 416.89 73.45H416.99C417.257 72.8833 417.623 72.3333 418.09 71.8C418.59 71.2667 419.173 70.8 419.84 70.4C420.507 69.9667 421.257 69.6333 422.09 69.4C422.923 69.1333 423.823 69 424.79 69C425.057 69 425.323 69.0167 425.59 69.05C425.857 69.0833 426.123 69.15 426.39 69.25L426.14 73.2C425.473 73 424.773 72.9 424.04 72.9C421.64 72.9 419.89 73.6833 418.79 75.25C417.723 76.7833 417.19 78.9 417.19 81.6V93H413.29V75.15ZM428.639 81.3C428.639 79.4667 428.956 77.8 429.589 76.3C430.222 74.8 431.089 73.5167 432.189 72.45C433.289 71.35 434.606 70.5 436.139 69.9C437.672 69.3 439.339 69 441.139 69C442.939 69 444.606 69.3 446.139 69.9C447.672 70.5 448.989 71.35 450.089 72.45C451.189 73.5167 452.056 74.8 452.689 76.3C453.322 77.8 453.639 79.4667 453.639 81.3C453.639 83.1333 453.322 84.8 452.689 86.3C452.056 87.8 451.189 89.1 450.089 90.2C448.989 91.2667 447.672 92.1 446.139 92.7C444.606 93.3 442.939 93.6 441.139 93.6C439.339 93.6 437.672 93.3 436.139 92.7C434.606 92.1 433.289 91.2667 432.189 90.2C431.089 89.1 430.222 87.8 429.589 86.3C428.956 84.8 428.639 83.1333 428.639 81.3ZM432.839 81.3C432.839 82.5333 433.022 83.6833 433.389 84.75C433.789 85.7833 434.356 86.7 435.089 87.5C435.822 88.2667 436.689 88.8833 437.689 89.35C438.722 89.7833 439.872 90 441.139 90C442.406 90 443.539 89.7833 444.539 89.35C445.572 88.8833 446.456 88.2667 447.189 87.5C447.922 86.7 448.472 85.7833 448.839 84.75C449.239 83.6833 449.439 82.5333 449.439 81.3C449.439 80.0667 449.239 78.9333 448.839 77.9C448.472 76.8333 447.922 75.9167 447.189 75.15C446.456 74.35 445.572 73.7333 444.539 73.3C443.539 72.8333 442.406 72.6 441.139 72.6C439.872 72.6 438.722 72.8333 437.689 73.3C436.689 73.7333 435.822 74.35 435.089 75.15C434.356 75.9167 433.789 76.8333 433.389 77.9C433.022 78.9333 432.839 80.0667 432.839 81.3ZM476.327 75.45C475.493 74.45 474.593 73.7333 473.627 73.3C472.66 72.8333 471.593 72.6 470.427 72.6C469.127 72.6 467.977 72.8333 466.977 73.3C465.977 73.7333 465.143 74.35 464.477 75.15C463.843 75.95 463.36 76.8833 463.027 77.95C462.693 78.9833 462.527 80.1 462.527 81.3C462.527 82.5 462.71 83.6333 463.077 84.7C463.477 85.7333 464.01 86.65 464.677 87.45C465.377 88.25 466.21 88.8833 467.177 89.35C468.143 89.7833 469.227 90 470.427 90C472.993 90 474.977 89.0333 476.377 87.1L479.277 89.85C478.143 91.15 476.81 92.1 475.277 92.7C473.743 93.3 472.127 93.6 470.427 93.6C468.627 93.6 466.977 93.3 465.477 92.7C463.977 92.1 462.693 91.25 461.627 90.15C460.593 89.05 459.777 87.75 459.177 86.25C458.61 84.75 458.327 83.1 458.327 81.3C458.327 79.5333 458.61 77.9 459.177 76.4C459.777 74.9 460.61 73.6 461.677 72.5C462.743 71.4 464.01 70.55 465.477 69.95C466.977 69.3167 468.627 69 470.427 69C472.16 69 473.793 69.3 475.327 69.9C476.893 70.5 478.26 71.4333 479.427 72.7L476.327 75.45ZM504.698 88.75C503.298 90.55 501.764 91.8167 500.098 92.55C498.431 93.25 496.498 93.6 494.298 93.6C492.464 93.6 490.814 93.2833 489.348 92.65C487.881 91.9833 486.631 91.1 485.598 90C484.598 88.9 483.814 87.6 483.248 86.1C482.714 84.6 482.448 83 482.448 81.3C482.448 79.5 482.748 77.85 483.348 76.35C483.948 74.8167 484.781 73.5167 485.848 72.45C486.914 71.35 488.181 70.5 489.648 69.9C491.114 69.3 492.714 69 494.448 69C496.081 69 497.581 69.2833 498.948 69.85C500.314 70.3833 501.481 71.1833 502.448 72.25C503.448 73.2833 504.214 74.5667 504.748 76.1C505.281 77.6 505.548 79.3167 505.548 81.25V82.5H486.648C486.714 83.5 486.948 84.4667 487.348 85.4C487.781 86.3 488.331 87.1 488.998 87.8C489.664 88.4667 490.448 89 491.348 89.4C492.248 89.8 493.231 90 494.298 90C495.998 90 497.431 89.7 498.598 89.1C499.764 88.5 500.814 87.6167 501.748 86.45L504.698 88.75ZM501.348 79.2C501.281 77.2 500.631 75.6 499.398 74.4C498.164 73.2 496.464 72.6 494.298 72.6C492.131 72.6 490.381 73.2 489.048 74.4C487.714 75.6 486.914 77.2 486.648 79.2H501.348ZM512.081 86.85C512.848 87.8167 513.681 88.5833 514.581 89.15C515.514 89.7167 516.681 90 518.081 90C518.681 90 519.281 89.9333 519.881 89.8C520.514 89.6667 521.081 89.45 521.581 89.15C522.081 88.85 522.481 88.4833 522.781 88.05C523.081 87.5833 523.231 87.0333 523.231 86.4C523.231 85.7667 523.081 85.25 522.781 84.85C522.514 84.45 522.148 84.1167 521.681 83.85C521.214 83.55 520.681 83.3167 520.081 83.15C519.481 82.9833 518.864 82.8333 518.231 82.7C517.131 82.4667 516.081 82.2 515.081 81.9C514.081 81.6 513.198 81.2167 512.431 80.75C511.698 80.25 511.098 79.6167 510.631 78.85C510.198 78.0833 509.981 77.1 509.981 75.9C509.981 74.7667 510.231 73.7667 510.731 72.9C511.231 72.0333 511.898 71.3167 512.731 70.75C513.564 70.1833 514.498 69.75 515.531 69.45C516.564 69.15 517.631 69 518.731 69C520.398 69 521.931 69.3333 523.331 70C524.764 70.6667 525.881 71.75 526.681 73.25L523.431 75.4C522.931 74.5667 522.264 73.9 521.431 73.4C520.631 72.8667 519.648 72.6 518.481 72.6C517.948 72.6 517.398 72.6667 516.831 72.8C516.298 72.9333 515.814 73.1333 515.381 73.4C514.948 73.6667 514.581 74.0167 514.281 74.45C514.014 74.85 513.881 75.3167 513.881 75.85C513.881 76.35 514.031 76.7833 514.331 77.15C514.664 77.4833 515.098 77.7833 515.631 78.05C516.198 78.3167 516.831 78.55 517.531 78.75C518.264 78.95 519.014 79.1167 519.781 79.25C520.814 79.45 521.798 79.7167 522.731 80.05C523.664 80.35 524.481 80.7667 525.181 81.3C525.881 81.8333 526.431 82.5 526.831 83.3C527.231 84.1 527.431 85.0833 527.431 86.25C527.431 87.5833 527.164 88.7167 526.631 89.65C526.098 90.5833 525.381 91.35 524.481 91.95C523.614 92.5167 522.614 92.9333 521.481 93.2C520.381 93.4667 519.248 93.6 518.081 93.6C516.081 93.6 514.348 93.3 512.881 92.7C511.448 92.0667 510.148 90.9167 508.981 89.25L512.081 86.85ZM533.37 86.85C534.137 87.8167 534.97 88.5833 535.87 89.15C536.803 89.7167 537.97 90 539.37 90C539.97 90 540.57 89.9333 541.17 89.8C541.803 89.6667 542.37 89.45 542.87 89.15C543.37 88.85 543.77 88.4833 544.07 88.05C544.37 87.5833 544.52 87.0333 544.52 86.4C544.52 85.7667 544.37 85.25 544.07 84.85C543.803 84.45 543.437 84.1167 542.97 83.85C542.503 83.55 541.97 83.3167 541.37 83.15C540.77 82.9833 540.153 82.8333 539.52 82.7C538.42 82.4667 537.37 82.2 536.37 81.9C535.37 81.6 534.487 81.2167 533.72 80.75C532.987 80.25 532.387 79.6167 531.92 78.85C531.487 78.0833 531.27 77.1 531.27 75.9C531.27 74.7667 531.52 73.7667 532.02 72.9C532.52 72.0333 533.187 71.3167 534.02 70.75C534.853 70.1833 535.787 69.75 536.82 69.45C537.853 69.15 538.92 69 540.02 69C541.687 69 543.22 69.3333 544.62 70C546.053 70.6667 547.17 71.75 547.97 73.25L544.72 75.4C544.22 74.5667 543.553 73.9 542.72 73.4C541.92 72.8667 540.937 72.6 539.77 72.6C539.237 72.6 538.687 72.6667 538.12 72.8C537.587 72.9333 537.103 73.1333 536.67 73.4C536.237 73.6667 535.87 74.0167 535.57 74.45C535.303 74.85 535.17 75.3167 535.17 75.85C535.17 76.35 535.32 76.7833 535.62 77.15C535.953 77.4833 536.387 77.7833 536.92 78.05C537.487 78.3167 538.12 78.55 538.82 78.75C539.553 78.95 540.303 79.1167 541.07 79.25C542.103 79.45 543.087 79.7167 544.02 80.05C544.953 80.35 545.77 80.7667 546.47 81.3C547.17 81.8333 547.72 82.5 548.12 83.3C548.52 84.1 548.72 85.0833 548.72 86.25C548.72 87.5833 548.453 88.7167 547.92 89.65C547.387 90.5833 546.67 91.35 545.77 91.95C544.903 92.5167 543.903 92.9333 542.77 93.2C541.67 93.4667 540.537 93.6 539.37 93.6C537.37 93.6 535.637 93.3 534.17 92.7C532.737 92.0667 531.437 90.9167 530.27 89.25L533.37 86.85Z" fill="#683C09"/>
<rect x="145" y="109" width="300" height="9" fill="#98BC61" fill-opacity="0.45"/>
</svg>
