<svg width="705" height="204" viewBox="0 0 705 204" fill="none" xmlns="http://www.w3.org/2000/svg">
<path d="M30 0.5H658C674.292 0.5 687.5 13.7076 687.5 30V107C687.5 123.292 674.292 136.5 658 136.5H30C13.7076 136.5 0.5 123.292 0.5 107V30C0.5 13.7076 13.7076 0.5 30 0.5Z" stroke="#FFAA52"/>
<path d="M58 32.5H675C691.292 32.5 704.5 45.7076 704.5 62V127C704.5 143.292 691.292 156.5 675 156.5H58C41.7076 156.5 28.5 143.292 28.5 127V62C28.5 45.7076 41.7076 32.5 58 32.5Z" stroke="#98BC61"/>
<path d="M216.274 79.5C216.274 81.4333 216.024 83.2667 215.524 85C215.058 86.7333 214.291 88.2667 213.224 89.6C212.191 90.9 210.824 91.95 209.124 92.75C207.424 93.5167 205.358 93.9 202.924 93.9C200.491 93.9 198.424 93.5167 196.724 92.75C195.024 91.95 193.641 90.9 192.574 89.6C191.541 88.2667 190.774 86.7333 190.274 85C189.808 83.2667 189.574 81.4333 189.574 79.5V57.6H193.774V78.9C193.774 80.3333 193.924 81.7167 194.224 83.05C194.524 84.3833 195.024 85.5667 195.724 86.6C196.424 87.6333 197.358 88.4667 198.524 89.1C199.691 89.7 201.158 90 202.924 90C204.691 90 206.158 89.7 207.324 89.1C208.491 88.4667 209.424 87.6333 210.124 86.6C210.824 85.5667 211.324 84.3833 211.624 83.05C211.924 81.7167 212.074 80.3333 212.074 78.9V57.6H216.274V79.5ZM224.729 86.85C225.496 87.8167 226.329 88.5833 227.229 89.15C228.163 89.7167 229.329 90 230.729 90C231.329 90 231.929 89.9333 232.529 89.8C233.163 89.6667 233.729 89.45 234.229 89.15C234.729 88.85 235.129 88.4833 235.429 88.05C235.729 87.5833 235.879 87.0333 235.879 86.4C235.879 85.7667 235.729 85.25 235.429 84.85C235.163 84.45 234.796 84.1167 234.329 83.85C233.863 83.55 233.329 83.3167 232.729 83.15C232.129 82.9833 231.513 82.8333 230.879 82.7C229.779 82.4667 228.729 82.2 227.729 81.9C226.729 81.6 225.846 81.2167 225.079 80.75C224.346 80.25 223.746 79.6167 223.279 78.85C222.846 78.0833 222.629 77.1 222.629 75.9C222.629 74.7667 222.879 73.7667 223.379 72.9C223.879 72.0333 224.546 71.3167 225.379 70.75C226.213 70.1833 227.146 69.75 228.179 69.45C229.213 69.15 230.279 69 231.379 69C233.046 69 234.579 69.3333 235.979 70C237.413 70.6667 238.529 71.75 239.329 73.25L236.079 75.4C235.579 74.5667 234.913 73.9 234.079 73.4C233.279 72.8667 232.296 72.6 231.129 72.6C230.596 72.6 230.046 72.6667 229.479 72.8C228.946 72.9333 228.463 73.1333 228.029 73.4C227.596 73.6667 227.229 74.0167 226.929 74.45C226.663 74.85 226.529 75.3167 226.529 75.85C226.529 76.35 226.679 76.7833 226.979 77.15C227.313 77.4833 227.746 77.7833 228.279 78.05C228.846 78.3167 229.479 78.55 230.179 78.75C230.913 78.95 231.663 79.1167 232.429 79.25C233.463 79.45 234.446 79.7167 235.379 80.05C236.313 80.35 237.129 80.7667 237.829 81.3C238.529 81.8333 239.079 82.5 239.479 83.3C239.879 84.1 240.079 85.0833 240.079 86.25C240.079 87.5833 239.813 88.7167 239.279 89.65C238.746 90.5833 238.029 91.35 237.129 91.95C236.263 92.5167 235.263 92.9333 234.129 93.2C233.029 93.4667 231.896 93.6 230.729 93.6C228.729 93.6 226.996 93.3 225.529 92.7C224.096 92.0667 222.796 90.9167 221.629 89.25L224.729 86.85ZM266.418 88.75C265.018 90.55 263.485 91.8167 261.818 92.55C260.152 93.25 258.218 93.6 256.018 93.6C254.185 93.6 252.535 93.2833 251.068 92.65C249.602 91.9833 248.352 91.1 247.318 90C246.318 88.9 245.535 87.6 244.968 86.1C244.435 84.6 244.168 83 244.168 81.3C244.168 79.5 244.468 77.85 245.068 76.35C245.668 74.8167 246.502 73.5167 247.568 72.45C248.635 71.35 249.902 70.5 251.368 69.9C252.835 69.3 254.435 69 256.168 69C257.802 69 259.302 69.2833 260.668 69.85C262.035 70.3833 263.202 71.1833 264.168 72.25C265.168 73.2833 265.935 74.5667 266.468 76.1C267.002 77.6 267.268 79.3167 267.268 81.25V82.5H248.368C248.435 83.5 248.668 84.4667 249.068 85.4C249.502 86.3 250.052 87.1 250.718 87.8C251.385 88.4667 252.168 89 253.068 89.4C253.968 89.8 254.952 90 256.018 90C257.718 90 259.152 89.7 260.318 89.1C261.485 88.5 262.535 87.6167 263.468 86.45L266.418 88.75ZM263.068 79.2C263.002 77.2 262.352 75.6 261.118 74.4C259.885 73.2 258.185 72.6 256.018 72.6C253.852 72.6 252.102 73.2 250.768 74.4C249.435 75.6 248.635 77.2 248.368 79.2H263.068ZM273.302 75.15C273.302 74.0833 273.268 73.0833 273.202 72.15C273.135 71.2167 273.102 70.3667 273.102 69.6H276.802C276.802 70.2333 276.818 70.8667 276.852 71.5C276.885 72.1333 276.902 72.7833 276.902 73.45H277.002C277.268 72.8833 277.635 72.3333 278.102 71.8C278.602 71.2667 279.185 70.8 279.852 70.4C280.518 69.9667 281.268 69.6333 282.102 69.4C282.935 69.1333 283.835 69 284.802 69C285.068 69 285.335 69.0167 285.602 69.05C285.868 69.0833 286.135 69.15 286.402 69.25L286.152 73.2C285.485 73 284.785 72.9 284.052 72.9C281.652 72.9 279.902 73.6833 278.802 75.25C277.735 76.7833 277.202 78.9 277.202 81.6V93H273.302V75.15ZM305.496 57.6H327.446V61.5H309.696V73.2H326.196V77.1H309.696V93H305.496V57.6ZM353.479 88.75C352.079 90.55 350.546 91.8167 348.879 92.55C347.212 93.25 345.279 93.6 343.079 93.6C341.246 93.6 339.596 93.2833 338.129 92.65C336.662 91.9833 335.412 91.1 334.379 90C333.379 88.9 332.596 87.6 332.029 86.1C331.496 84.6 331.229 83 331.229 81.3C331.229 79.5 331.529 77.85 332.129 76.35C332.729 74.8167 333.562 73.5167 334.629 72.45C335.696 71.35 336.962 70.5 338.429 69.9C339.896 69.3 341.496 69 343.229 69C344.862 69 346.362 69.2833 347.729 69.85C349.096 70.3833 350.262 71.1833 351.229 72.25C352.229 73.2833 352.996 74.5667 353.529 76.1C354.062 77.6 354.329 79.3167 354.329 81.25V82.5H335.429C335.496 83.5 335.729 84.4667 336.129 85.4C336.562 86.3 337.112 87.1 337.779 87.8C338.446 88.4667 339.229 89 340.129 89.4C341.029 89.8 342.012 90 343.079 90C344.779 90 346.212 89.7 347.379 89.1C348.546 88.5 349.596 87.6167 350.529 86.45L353.479 88.75ZM350.129 79.2C350.062 77.2 349.412 75.6 348.179 74.4C346.946 73.2 345.246 72.6 343.079 72.6C340.912 72.6 339.162 73.2 337.829 74.4C336.496 75.6 335.696 77.2 335.429 79.2H350.129ZM381.262 88.75C379.862 90.55 378.329 91.8167 376.662 92.55C374.995 93.25 373.062 93.6 370.862 93.6C369.029 93.6 367.379 93.2833 365.912 92.65C364.445 91.9833 363.195 91.1 362.162 90C361.162 88.9 360.379 87.6 359.812 86.1C359.279 84.6 359.012 83 359.012 81.3C359.012 79.5 359.312 77.85 359.912 76.35C360.512 74.8167 361.345 73.5167 362.412 72.45C363.479 71.35 364.745 70.5 366.212 69.9C367.679 69.3 369.279 69 371.012 69C372.645 69 374.145 69.2833 375.512 69.85C376.879 70.3833 378.045 71.1833 379.012 72.25C380.012 73.2833 380.779 74.5667 381.312 76.1C381.845 77.6 382.112 79.3167 382.112 81.25V82.5H363.212C363.279 83.5 363.512 84.4667 363.912 85.4C364.345 86.3 364.895 87.1 365.562 87.8C366.229 88.4667 367.012 89 367.912 89.4C368.812 89.8 369.795 90 370.862 90C372.562 90 373.995 89.7 375.162 89.1C376.329 88.5 377.379 87.6167 378.312 86.45L381.262 88.75ZM377.912 79.2C377.845 77.2 377.195 75.6 375.962 74.4C374.729 73.2 373.029 72.6 370.862 72.6C368.695 72.6 366.945 73.2 365.612 74.4C364.279 75.6 363.479 77.2 363.212 79.2H377.912ZM407.595 88.85H407.495C406.762 90.1833 405.595 91.3167 403.995 92.25C402.429 93.15 400.595 93.6 398.495 93.6C396.862 93.6 395.329 93.3 393.895 92.7C392.462 92.0667 391.212 91.2 390.145 90.1C389.112 89 388.295 87.7 387.695 86.2C387.095 84.7 386.795 83.0667 386.795 81.3C386.795 79.5333 387.095 77.9 387.695 76.4C388.295 74.9 389.129 73.6 390.195 72.5C391.262 71.4 392.545 70.55 394.045 69.95C395.579 69.3167 397.262 69 399.095 69C400.795 69 402.345 69.35 403.745 70.05C405.179 70.75 406.429 71.7333 407.495 73H407.595V55.2H411.495V93H407.595V88.85ZM407.595 81.3C407.595 80.0667 407.395 78.9333 406.995 77.9C406.629 76.8333 406.079 75.9167 405.345 75.15C404.612 74.35 403.729 73.7333 402.695 73.3C401.695 72.8333 400.562 72.6 399.295 72.6C398.029 72.6 396.879 72.8333 395.845 73.3C394.845 73.7333 393.979 74.35 393.245 75.15C392.512 75.9167 391.945 76.8333 391.545 77.9C391.179 78.9333 390.995 80.0667 390.995 81.3C390.995 82.5333 391.179 83.6833 391.545 84.75C391.945 85.7833 392.512 86.7 393.245 87.5C393.979 88.2667 394.845 88.8833 395.845 89.35C396.879 89.7833 398.029 90 399.295 90C400.562 90 401.695 89.7833 402.695 89.35C403.729 88.8833 404.612 88.2667 405.345 87.5C406.079 86.7 406.629 85.7833 406.995 84.75C407.395 83.6833 407.595 82.5333 407.595 81.3ZM418.561 55.2H422.461V73H422.561C423.627 71.7333 424.861 70.75 426.261 70.05C427.694 69.35 429.261 69 430.961 69C432.794 69 434.461 69.3167 435.961 69.95C437.494 70.55 438.794 71.4 439.861 72.5C440.927 73.6 441.761 74.9 442.361 76.4C442.961 77.9 443.261 79.5333 443.261 81.3C443.261 83.0667 442.961 84.7 442.361 86.2C441.761 87.7 440.927 89 439.861 90.1C438.827 91.2 437.594 92.0667 436.161 92.7C434.727 93.3 433.194 93.6 431.561 93.6C429.461 93.6 427.611 93.15 426.011 92.25C424.444 91.3167 423.294 90.1833 422.561 88.85H422.461V93H418.561V55.2ZM422.461 81.3C422.461 82.5333 422.644 83.6833 423.011 84.75C423.411 85.7833 423.977 86.7 424.711 87.5C425.444 88.2667 426.311 88.8833 427.311 89.35C428.344 89.7833 429.494 90 430.761 90C432.027 90 433.161 89.7833 434.161 89.35C435.194 88.8833 436.077 88.2667 436.811 87.5C437.544 86.7 438.094 85.7833 438.461 84.75C438.861 83.6833 439.061 82.5333 439.061 81.3C439.061 80.0667 438.861 78.9333 438.461 77.9C438.094 76.8333 437.544 75.9167 436.811 75.15C436.077 74.35 435.194 73.7333 434.161 73.3C433.161 72.8333 432.027 72.6 430.761 72.6C429.494 72.6 428.344 72.8333 427.311 73.3C426.311 73.7333 425.444 74.35 424.711 75.15C423.977 75.9167 423.411 76.8333 423.011 77.9C422.644 78.9333 422.461 80.0667 422.461 81.3ZM449.027 72.6C450.227 71.3667 451.644 70.4667 453.277 69.9C454.944 69.3 456.627 69 458.327 69C461.794 69 464.294 69.8167 465.827 71.45C467.36 73.0833 468.127 75.5667 468.127 78.9V88.95C468.127 89.6167 468.16 90.3167 468.227 91.05C468.294 91.75 468.377 92.4 468.477 93H464.727C464.594 92.4667 464.51 91.8833 464.477 91.25C464.477 90.5833 464.477 90 464.477 89.5H464.377C463.61 90.7 462.577 91.6833 461.277 92.45C460.01 93.2167 458.477 93.6 456.677 93.6C455.477 93.6 454.344 93.45 453.277 93.15C452.244 92.85 451.327 92.4167 450.527 91.85C449.76 91.25 449.144 90.5167 448.677 89.65C448.21 88.7833 447.977 87.7833 447.977 86.65C447.977 84.7167 448.477 83.2 449.477 82.1C450.477 81 451.71 80.1833 453.177 79.65C454.677 79.1167 456.277 78.7833 457.977 78.65C459.71 78.5167 461.294 78.45 462.727 78.45H464.227V77.75C464.227 76.05 463.71 74.7667 462.677 73.9C461.677 73.0333 460.26 72.6 458.427 72.6C457.16 72.6 455.91 72.8167 454.677 73.25C453.477 73.65 452.41 74.2833 451.477 75.15L449.027 72.6ZM460.327 81.75C457.827 81.75 455.844 82.1 454.377 82.8C452.91 83.5 452.177 84.65 452.177 86.25C452.177 87.7167 452.66 88.7667 453.627 89.4C454.627 90 455.86 90.3 457.327 90.3C458.46 90.3 459.444 90.1167 460.277 89.75C461.144 89.35 461.86 88.8333 462.427 88.2C462.994 87.5667 463.427 86.8333 463.727 86C464.027 85.1333 464.194 84.2167 464.227 83.25V81.75H460.327ZM491.905 75.45C491.071 74.45 490.171 73.7333 489.205 73.3C488.238 72.8333 487.171 72.6 486.005 72.6C484.705 72.6 483.555 72.8333 482.555 73.3C481.555 73.7333 480.721 74.35 480.055 75.15C479.421 75.95 478.938 76.8833 478.605 77.95C478.271 78.9833 478.105 80.1 478.105 81.3C478.105 82.5 478.288 83.6333 478.655 84.7C479.055 85.7333 479.588 86.65 480.255 87.45C480.955 88.25 481.788 88.8833 482.755 89.35C483.721 89.7833 484.805 90 486.005 90C488.571 90 490.555 89.0333 491.955 87.1L494.855 89.85C493.721 91.15 492.388 92.1 490.855 92.7C489.321 93.3 487.705 93.6 486.005 93.6C484.205 93.6 482.555 93.3 481.055 92.7C479.555 92.1 478.271 91.25 477.205 90.15C476.171 89.05 475.355 87.75 474.755 86.25C474.188 84.75 473.905 83.1 473.905 81.3C473.905 79.5333 474.188 77.9 474.755 76.4C475.355 74.9 476.188 73.6 477.255 72.5C478.321 71.4 479.588 70.55 481.055 69.95C482.555 69.3167 484.205 69 486.005 69C487.738 69 489.371 69.3 490.905 69.9C492.471 70.5 493.838 71.4333 495.005 72.7L491.905 75.45ZM499.376 55.2H503.276V79.9L513.926 69.6H519.476L508.176 80.25L520.626 93H514.876L503.276 80.7V93H499.376V55.2Z" fill="#683C09"/>
<rect x="145" y="109" width="300" height="9" fill="#98BC61" fill-opacity="0.45"/>
<path d="M251.646 181.025L255.196 179.825L255.671 181.275L252.146 182.475L254.371 185.45L253.146 186.4L250.896 183.325L248.721 186.4L247.471 185.45L249.646 182.475L246.121 181.275L246.596 179.825L250.146 181.025V177.3H251.646V181.025ZM259.929 192.15C260.346 192.15 260.696 192.3 260.979 192.6C261.279 192.883 261.429 193.233 261.429 193.65C261.429 194.067 261.271 194.425 260.954 194.725C260.654 195.008 260.312 195.15 259.929 195.15C259.546 195.15 259.196 195.008 258.879 194.725C258.579 194.425 258.429 194.067 258.429 193.65C258.429 193.233 258.571 192.883 258.854 192.6C259.154 192.3 259.512 192.15 259.929 192.15ZM273.737 196.05C273.387 193.9 271.837 191.225 268.937 189.025C267.487 187.925 266.062 187.225 264.687 186.95V185.9C267.462 185.275 270.212 183.325 272.012 180.775C272.912 179.5 273.487 178.2 273.737 176.85H274.787C275.212 179.4 277.212 182.175 279.837 184.05C281.137 184.975 282.487 185.6 283.887 185.9V186.95C281.062 187.525 277.837 189.975 276.262 192.5C275.462 193.775 274.962 194.95 274.787 196.05H273.737ZM274.087 195.45H274.437C274.687 192.85 275.462 190.025 276.337 188.55C278.012 187.6 281.037 186.8 283.237 186.65V186.3C281.037 186.125 277.887 185.275 276.337 184.35C275.462 182.85 274.687 180.1 274.437 177.5H274.087C273.887 179.85 273.137 182.675 272.187 184.35C270.587 185.275 267.587 186.125 265.287 186.3V186.65C267.562 186.825 270.487 187.6 272.187 188.55C273.112 190.175 273.887 193.05 274.087 195.45ZM432.16 196.05C431.81 193.9 430.26 191.225 427.36 189.025C425.91 187.925 424.485 187.225 423.11 186.95V185.9C425.885 185.275 428.635 183.325 430.435 180.775C431.335 179.5 431.91 178.2 432.16 176.85H433.21C433.635 179.4 435.635 182.175 438.26 184.05C439.56 184.975 440.91 185.6 442.31 185.9V186.95C439.485 187.525 436.26 189.975 434.685 192.5C433.885 193.775 433.385 194.95 433.21 196.05H432.16ZM432.51 195.45H432.86C433.11 192.85 433.885 190.025 434.76 188.55C436.435 187.6 439.46 186.8 441.66 186.65V186.3C439.46 186.125 436.31 185.275 434.76 184.35C433.885 182.85 433.11 180.1 432.86 177.5H432.51C432.31 179.85 431.56 182.675 430.61 184.35C429.01 185.275 426.01 186.125 423.71 186.3V186.65C425.985 186.825 428.91 187.6 430.61 188.55C431.535 190.175 432.31 193.05 432.51 195.45ZM447.063 192.15C447.48 192.15 447.83 192.3 448.113 192.6C448.413 192.883 448.563 193.233 448.563 193.65C448.563 194.067 448.405 194.425 448.088 194.725C447.788 195.008 447.446 195.15 447.063 195.15C446.68 195.15 446.33 195.008 446.013 194.725C445.713 194.425 445.563 194.067 445.563 193.65C445.563 193.233 445.705 192.883 445.988 192.6C446.288 192.3 446.646 192.15 447.063 192.15ZM456.846 181.025L460.396 179.825L460.871 181.275L457.346 182.475L459.571 185.45L458.346 186.4L456.096 183.325L453.921 186.4L452.671 185.45L454.846 182.475L451.321 181.275L451.796 179.825L455.346 181.025V177.3H456.846V181.025Z" fill="#683C09"/>
<path d="M293.998 177.3H300.798C301.381 177.3 301.998 177.367 302.648 177.5C303.298 177.633 303.94 177.85 304.573 178.15C305.223 178.433 305.84 178.808 306.423 179.275C307.023 179.742 307.548 180.308 307.998 180.975C308.448 181.625 308.806 182.383 309.073 183.25C309.34 184.1 309.473 185.067 309.473 186.15C309.473 187.233 309.34 188.208 309.073 189.075C308.806 189.925 308.448 190.683 307.998 191.35C307.548 192 307.023 192.558 306.423 193.025C305.84 193.492 305.223 193.875 304.573 194.175C303.94 194.458 303.298 194.667 302.648 194.8C301.998 194.933 301.381 195 300.798 195H293.998V177.3ZM296.098 193.05H300.098C301.115 193.05 302.056 192.917 302.923 192.65C303.79 192.383 304.54 191.975 305.173 191.425C305.806 190.858 306.306 190.142 306.673 189.275C307.04 188.408 307.223 187.367 307.223 186.15C307.223 184.933 307.04 183.892 306.673 183.025C306.306 182.158 305.806 181.45 305.173 180.9C304.54 180.333 303.79 179.917 302.923 179.65C302.056 179.383 301.115 179.25 300.098 179.25H296.098V193.05ZM312.853 177.3H314.953V195H312.853V177.3ZM327.747 180.425C327.397 179.858 326.931 179.45 326.347 179.2C325.764 178.933 325.156 178.8 324.522 178.8C324.056 178.8 323.597 178.858 323.147 178.975C322.697 179.092 322.289 179.267 321.922 179.5C321.572 179.733 321.289 180.042 321.072 180.425C320.856 180.808 320.747 181.258 320.747 181.775C320.747 182.175 320.806 182.533 320.922 182.85C321.056 183.15 321.264 183.425 321.547 183.675C321.831 183.925 322.214 184.158 322.697 184.375C323.181 184.592 323.772 184.808 324.472 185.025C325.156 185.242 325.814 185.475 326.447 185.725C327.097 185.975 327.664 186.292 328.147 186.675C328.647 187.058 329.039 187.542 329.322 188.125C329.622 188.692 329.772 189.408 329.772 190.275C329.772 191.158 329.597 191.925 329.247 192.575C328.897 193.225 328.431 193.767 327.847 194.2C327.281 194.617 326.622 194.925 325.872 195.125C325.122 195.342 324.347 195.45 323.547 195.45C323.031 195.45 322.514 195.4 321.997 195.3C321.481 195.217 320.981 195.083 320.497 194.9C320.031 194.7 319.589 194.45 319.172 194.15C318.756 193.833 318.397 193.45 318.097 193L319.897 191.525C320.281 192.175 320.814 192.667 321.497 193C322.181 193.333 322.906 193.5 323.672 193.5C324.122 193.5 324.572 193.433 325.022 193.3C325.489 193.167 325.906 192.975 326.272 192.725C326.639 192.458 326.939 192.133 327.172 191.75C327.406 191.367 327.522 190.925 327.522 190.425C327.522 189.875 327.431 189.433 327.247 189.1C327.064 188.75 326.781 188.45 326.397 188.2C326.014 187.95 325.531 187.725 324.947 187.525C324.364 187.325 323.681 187.092 322.897 186.825C322.264 186.625 321.681 186.4 321.147 186.15C320.614 185.883 320.147 185.567 319.747 185.2C319.364 184.817 319.056 184.367 318.822 183.85C318.606 183.317 318.497 182.683 318.497 181.95C318.497 181.1 318.664 180.358 318.997 179.725C319.331 179.092 319.781 178.567 320.347 178.15C320.914 177.717 321.556 177.392 322.272 177.175C322.989 176.958 323.739 176.85 324.522 176.85C325.522 176.85 326.431 177.008 327.247 177.325C328.081 177.625 328.822 178.158 329.472 178.925L327.747 180.425ZM345.639 180.95C345.106 180.233 344.447 179.7 343.664 179.35C342.881 178.983 342.064 178.8 341.214 178.8C340.231 178.8 339.322 179 338.489 179.4C337.672 179.8 336.964 180.342 336.364 181.025C335.764 181.692 335.297 182.475 334.964 183.375C334.631 184.258 334.464 185.183 334.464 186.15C334.464 187.183 334.631 188.15 334.964 189.05C335.297 189.933 335.756 190.708 336.339 191.375C336.939 192.025 337.647 192.542 338.464 192.925C339.297 193.308 340.214 193.5 341.214 193.5C342.297 193.5 343.264 193.292 344.114 192.875C344.964 192.442 345.706 191.825 346.339 191.025L347.914 192.35C347.114 193.417 346.147 194.2 345.014 194.7C343.897 195.2 342.631 195.45 341.214 195.45C339.947 195.45 338.764 195.217 337.664 194.75C336.564 194.283 335.606 193.642 334.789 192.825C333.989 191.992 333.356 191.008 332.889 189.875C332.439 188.742 332.214 187.5 332.214 186.15C332.214 184.85 332.431 183.633 332.864 182.5C333.314 181.367 333.939 180.383 334.739 179.55C335.539 178.717 336.489 178.058 337.589 177.575C338.689 177.092 339.897 176.85 341.214 176.85C342.414 176.85 343.564 177.067 344.664 177.5C345.781 177.933 346.714 178.642 347.464 179.625L345.639 180.95ZM359.067 195.45C357.717 195.45 356.475 195.217 355.342 194.75C354.225 194.283 353.25 193.642 352.417 192.825C351.6 191.992 350.958 191.008 350.492 189.875C350.042 188.725 349.817 187.483 349.817 186.15C349.817 184.817 350.042 183.583 350.492 182.45C350.958 181.3 351.6 180.317 352.417 179.5C353.25 178.667 354.225 178.017 355.342 177.55C356.475 177.083 357.717 176.85 359.067 176.85C360.417 176.85 361.65 177.083 362.767 177.55C363.9 178.017 364.875 178.667 365.692 179.5C366.525 180.317 367.167 181.3 367.617 182.45C368.083 183.583 368.317 184.817 368.317 186.15C368.317 187.483 368.083 188.725 367.617 189.875C367.167 191.008 366.525 191.992 365.692 192.825C364.875 193.642 363.9 194.283 362.767 194.75C361.65 195.217 360.417 195.45 359.067 195.45ZM359.067 193.5C360.1 193.5 361.042 193.308 361.892 192.925C362.758 192.542 363.5 192.017 364.117 191.35C364.733 190.683 365.208 189.908 365.542 189.025C365.892 188.125 366.067 187.167 366.067 186.15C366.067 185.133 365.892 184.183 365.542 183.3C365.208 182.4 364.733 181.617 364.117 180.95C363.5 180.283 362.758 179.758 361.892 179.375C361.042 178.992 360.1 178.8 359.067 178.8C358.033 178.8 357.083 178.992 356.217 179.375C355.367 179.758 354.633 180.283 354.017 180.95C353.4 181.617 352.917 182.4 352.567 183.3C352.233 184.183 352.067 185.133 352.067 186.15C352.067 187.167 352.233 188.125 352.567 189.025C352.917 189.908 353.4 190.683 354.017 191.35C354.633 192.017 355.367 192.542 356.217 192.925C357.083 193.308 358.033 193.5 359.067 193.5ZM369.266 177.3H371.641L377.091 191.85H377.141L382.766 177.3H384.991L378.066 195H376.041L369.266 177.3ZM386.974 177.3H398.099V179.25H389.074V184.8H397.499V186.75H389.074V193.05H398.549V195H386.974V177.3ZM401.794 177.3H406.319C407.169 177.3 408.01 177.35 408.844 177.45C409.694 177.55 410.452 177.767 411.119 178.1C411.785 178.433 412.327 178.925 412.744 179.575C413.16 180.208 413.369 181.075 413.369 182.175C413.369 183.475 412.977 184.525 412.194 185.325C411.41 186.125 410.327 186.633 408.944 186.85L413.969 195H411.394L406.594 187.05H403.894V195H401.794V177.3ZM403.894 185.1H405.769C406.352 185.1 406.952 185.083 407.569 185.05C408.202 185.017 408.777 184.908 409.294 184.725C409.827 184.542 410.26 184.258 410.594 183.875C410.944 183.475 411.119 182.908 411.119 182.175C411.119 181.542 410.994 181.033 410.744 180.65C410.494 180.267 410.16 179.975 409.744 179.775C409.344 179.558 408.885 179.417 408.369 179.35C407.869 179.283 407.36 179.25 406.844 179.25H403.894V185.1Z" fill="#FFAA52"/>
</svg>
