<svg width="356" height="81" viewBox="0 0 356 81" fill="none" xmlns="http://www.w3.org/2000/svg">
<circle cx="49.7705" cy="41.8361" r="38.2295" fill="#ED7608" fill-opacity="0.4"/>
<circle cx="38.2295" cy="38.2295" r="37.2295" stroke="#98BC61" stroke-width="2"/>
<path d="M80.05 71.84C78.22 72.86 76.285 73.61 74.245 74.09C72.235 74.57 70.195 74.81 68.125 74.81C65.635 74.81 63.355 74.405 61.285 73.595C59.215 72.785 57.415 71.645 55.885 70.175C54.385 68.705 53.215 66.95 52.375 64.91C51.535 62.84 51.115 60.56 51.115 58.07C51.115 55.55 51.55 53.27 52.42 51.23C53.32 49.16 54.55 47.405 56.11 45.965C57.67 44.495 59.485 43.355 61.555 42.545C63.625 41.735 65.86 41.33 68.26 41.33C70.36 41.33 72.37 41.645 74.29 42.275C76.24 42.905 77.98 43.985 79.51 45.515L76.675 48.485C75.595 47.315 74.275 46.415 72.715 45.785C71.185 45.155 69.61 44.84 67.99 44.84C66.16 44.84 64.465 45.17 62.905 45.83C61.345 46.49 59.98 47.405 58.81 48.575C57.67 49.745 56.77 51.14 56.11 52.76C55.48 54.38 55.165 56.15 55.165 58.07C55.165 59.96 55.48 61.715 56.11 63.335C56.77 64.955 57.67 66.365 58.81 67.565C59.98 68.735 61.375 69.65 62.995 70.31C64.615 70.97 66.4 71.3 68.35 71.3C69.64 71.3 70.99 71.15 72.4 70.85C73.81 70.52 75.1 70.055 76.27 69.455V59.69H68.935V56.18H80.05V71.84ZM86.1394 63.47C86.1394 61.82 86.4244 60.32 86.9944 58.97C87.5644 57.62 88.3444 56.465 89.3344 55.505C90.3244 54.515 91.5094 53.75 92.8894 53.21C94.2694 52.67 95.7694 52.4 97.3894 52.4C99.0094 52.4 100.509 52.67 101.889 53.21C103.269 53.75 104.454 54.515 105.444 55.505C106.434 56.465 107.214 57.62 107.784 58.97C108.354 60.32 108.639 61.82 108.639 63.47C108.639 65.12 108.354 66.62 107.784 67.97C107.214 69.32 106.434 70.49 105.444 71.48C104.454 72.44 103.269 73.19 101.889 73.73C100.509 74.27 99.0094 74.54 97.3894 74.54C95.7694 74.54 94.2694 74.27 92.8894 73.73C91.5094 73.19 90.3244 72.44 89.3344 71.48C88.3444 70.49 87.5644 69.32 86.9944 67.97C86.4244 66.62 86.1394 65.12 86.1394 63.47ZM89.9194 63.47C89.9194 64.58 90.0844 65.615 90.4144 66.575C90.7744 67.505 91.2844 68.33 91.9444 69.05C92.6044 69.74 93.3844 70.295 94.2844 70.715C95.2144 71.105 96.2494 71.3 97.3894 71.3C98.5294 71.3 99.5494 71.105 100.449 70.715C101.379 70.295 102.174 69.74 102.834 69.05C103.494 68.33 103.989 67.505 104.319 66.575C104.679 65.615 104.859 64.58 104.859 63.47C104.859 62.36 104.679 61.34 104.319 60.41C103.989 59.45 103.494 58.625 102.834 57.935C102.174 57.215 101.379 56.66 100.449 56.27C99.5494 55.85 98.5294 55.64 97.3894 55.64C96.2494 55.64 95.2144 55.85 94.2844 56.27C93.3844 56.66 92.6044 57.215 91.9444 57.935C91.2844 58.625 90.7744 59.45 90.4144 60.41C90.0844 61.34 89.9194 62.36 89.9194 63.47ZM113.803 55.64C114.883 54.53 116.158 53.72 117.628 53.21C119.128 52.67 120.643 52.4 122.173 52.4C125.293 52.4 127.543 53.135 128.923 54.605C130.303 56.075 130.993 58.31 130.993 61.31V70.355C130.993 70.955 131.023 71.585 131.083 72.245C131.143 72.875 131.218 73.46 131.308 74H127.933C127.813 73.52 127.738 72.995 127.708 72.425C127.708 71.825 127.708 71.3 127.708 70.85H127.618C126.928 71.93 125.998 72.815 124.828 73.505C123.688 74.195 122.308 74.54 120.688 74.54C119.608 74.54 118.588 74.405 117.628 74.135C116.698 73.865 115.873 73.475 115.153 72.965C114.463 72.425 113.908 71.765 113.488 70.985C113.068 70.205 112.858 69.305 112.858 68.285C112.858 66.545 113.308 65.18 114.208 64.19C115.108 63.2 116.218 62.465 117.538 61.985C118.888 61.505 120.328 61.205 121.858 61.085C123.418 60.965 124.843 60.905 126.133 60.905H127.483V60.275C127.483 58.745 127.018 57.59 126.088 56.81C125.188 56.03 123.913 55.64 122.263 55.64C121.123 55.64 119.998 55.835 118.888 56.225C117.808 56.585 116.848 57.155 116.008 57.935L113.803 55.64ZM123.973 63.875C121.723 63.875 119.938 64.19 118.618 64.82C117.298 65.45 116.638 66.485 116.638 67.925C116.638 69.245 117.073 70.19 117.943 70.76C118.843 71.3 119.953 71.57 121.273 71.57C122.293 71.57 123.178 71.405 123.928 71.075C124.708 70.715 125.353 70.25 125.863 69.68C126.373 69.11 126.763 68.45 127.033 67.7C127.303 66.92 127.453 66.095 127.483 65.225V63.875H123.973ZM137.723 39.98H141.233V74H137.723V39.98Z" fill="black"/>
</svg>
