<svg width="705" height="208" viewBox="0 0 705 208" fill="none" xmlns="http://www.w3.org/2000/svg">
<path d="M30 0.5H658C674.292 0.5 687.5 13.7076 687.5 30V107C687.5 123.292 674.292 136.5 658 136.5H30C13.7076 136.5 0.5 123.292 0.5 107V30C0.5 13.7076 13.7076 0.5 30 0.5Z" stroke="#FFAA52"/>
<path d="M58 32.5H675C691.292 32.5 704.5 45.7076 704.5 62V127C704.5 143.292 691.292 156.5 675 156.5H58C41.7076 156.5 28.5 143.292 28.5 127V62C28.5 45.7076 41.7076 32.5 58 32.5Z" stroke="#98BC61"/>
<path d="M304.617 57.6H310.867L322.867 85.35H322.967L335.067 57.6H341.167V93H336.967V63.3H336.867L324.167 93H321.617L308.917 63.3H308.817V93H304.617V57.6ZM345.128 57.6H349.878L360.778 86.7H360.878L372.128 57.6H376.578L362.728 93H358.678L345.128 57.6ZM380.545 57.6H391.045C392.678 57.6 394.228 57.7667 395.695 58.1C397.195 58.4 398.511 58.9333 399.645 59.7C400.811 60.4333 401.728 61.4333 402.395 62.7C403.095 63.9333 403.445 65.4667 403.445 67.3C403.445 69.2333 403.078 70.8333 402.345 72.1C401.611 73.3667 400.661 74.3667 399.495 75.1C398.361 75.8333 397.111 76.35 395.745 76.65C394.378 76.95 393.078 77.1 391.845 77.1H384.745V93H380.545V57.6ZM384.745 73.2H391.845C393.945 73.2 395.645 72.7333 396.945 71.8C398.278 70.8333 398.945 69.35 398.945 67.35C398.945 65.35 398.278 63.8833 396.945 62.95C395.645 61.9833 393.945 61.5 391.845 61.5H384.745V73.2Z" fill="#683C09"/>
<rect x="273" y="109" width="87" height="9" fill="#98BC61" fill-opacity="0.45"/>
<path d="M267.516 181.025L271.066 179.825L271.541 181.275L268.016 182.475L270.241 185.45L269.016 186.4L266.766 183.325L264.591 186.4L263.341 185.45L265.516 182.475L261.991 181.275L262.466 179.825L266.016 181.025V177.3H267.516V181.025ZM275.8 192.15C276.216 192.15 276.566 192.3 276.85 192.6C277.15 192.883 277.3 193.233 277.3 193.65C277.3 194.067 277.141 194.425 276.825 194.725C276.525 195.008 276.183 195.15 275.8 195.15C275.416 195.15 275.066 195.008 274.75 194.725C274.45 194.425 274.3 194.067 274.3 193.65C274.3 193.233 274.441 192.883 274.725 192.6C275.025 192.3 275.383 192.15 275.8 192.15ZM289.608 196.05C289.258 193.9 287.708 191.225 284.808 189.025C283.358 187.925 281.933 187.225 280.558 186.95V185.9C283.333 185.275 286.083 183.325 287.883 180.775C288.783 179.5 289.358 178.2 289.608 176.85H290.658C291.083 179.4 293.083 182.175 295.708 184.05C297.008 184.975 298.358 185.6 299.758 185.9V186.95C296.933 187.525 293.708 189.975 292.133 192.5C291.333 193.775 290.833 194.95 290.658 196.05H289.608ZM289.958 195.45H290.308C290.558 192.85 291.333 190.025 292.208 188.55C293.883 187.6 296.908 186.8 299.108 186.65V186.3C296.908 186.125 293.758 185.275 292.208 184.35C291.333 182.85 290.558 180.1 290.308 177.5H289.958C289.758 179.85 289.008 182.675 288.058 184.35C286.458 185.275 283.458 186.125 281.158 186.3V186.65C283.433 186.825 286.358 187.6 288.058 188.55C288.983 190.175 289.758 193.05 289.958 195.45ZM413.289 196.05C412.939 193.9 411.389 191.225 408.489 189.025C407.039 187.925 405.614 187.225 404.239 186.95V185.9C407.014 185.275 409.764 183.325 411.564 180.775C412.464 179.5 413.039 178.2 413.289 176.85H414.339C414.764 179.4 416.764 182.175 419.389 184.05C420.689 184.975 422.039 185.6 423.439 185.9V186.95C420.614 187.525 417.389 189.975 415.814 192.5C415.014 193.775 414.514 194.95 414.339 196.05H413.289ZM413.639 195.45H413.989C414.239 192.85 415.014 190.025 415.889 188.55C417.564 187.6 420.589 186.8 422.789 186.65V186.3C420.589 186.125 417.439 185.275 415.889 184.35C415.014 182.85 414.239 180.1 413.989 177.5H413.639C413.439 179.85 412.689 182.675 411.739 184.35C410.139 185.275 407.139 186.125 404.839 186.3V186.65C407.114 186.825 410.039 187.6 411.739 188.55C412.664 190.175 413.439 193.05 413.639 195.45ZM428.192 192.15C428.609 192.15 428.959 192.3 429.242 192.6C429.542 192.883 429.692 193.233 429.692 193.65C429.692 194.067 429.534 194.425 429.217 194.725C428.917 195.008 428.576 195.15 428.192 195.15C427.809 195.15 427.459 195.008 427.142 194.725C426.842 194.425 426.692 194.067 426.692 193.65C426.692 193.233 426.834 192.883 427.117 192.6C427.417 192.3 427.776 192.15 428.192 192.15ZM437.975 181.025L441.525 179.825L442 181.275L438.475 182.475L440.7 185.45L439.475 186.4L437.225 183.325L435.05 186.4L433.8 185.45L435.975 182.475L432.45 181.275L432.925 179.825L436.475 181.025V177.3H437.975V181.025Z" fill="#683C09"/>
<path d="M309.869 177.3H316.669C317.252 177.3 317.869 177.367 318.519 177.5C319.169 177.633 319.81 177.85 320.444 178.15C321.094 178.433 321.71 178.808 322.294 179.275C322.894 179.742 323.419 180.308 323.869 180.975C324.319 181.625 324.677 182.383 324.944 183.25C325.21 184.1 325.344 185.067 325.344 186.15C325.344 187.233 325.21 188.208 324.944 189.075C324.677 189.925 324.319 190.683 323.869 191.35C323.419 192 322.894 192.558 322.294 193.025C321.71 193.492 321.094 193.875 320.444 194.175C319.81 194.458 319.169 194.667 318.519 194.8C317.869 194.933 317.252 195 316.669 195H309.869V177.3ZM311.969 193.05H315.969C316.985 193.05 317.927 192.917 318.794 192.65C319.66 192.383 320.41 191.975 321.044 191.425C321.677 190.858 322.177 190.142 322.544 189.275C322.91 188.408 323.094 187.367 323.094 186.15C323.094 184.933 322.91 183.892 322.544 183.025C322.177 182.158 321.677 181.45 321.044 180.9C320.41 180.333 319.66 179.917 318.794 179.65C317.927 179.383 316.985 179.25 315.969 179.25H311.969V193.05ZM328.724 177.3H339.849V179.25H330.824V184.8H339.249V186.75H330.824V193.05H340.299V195H328.724V177.3ZM343.543 177.3H354.518V179.25H345.643V185.1H353.893V187.05H345.643V195H343.543V177.3ZM357.435 177.3H359.535V195H357.435V177.3ZM363.929 177.3H366.579L376.829 192H376.879V177.3H378.979V195H376.329L366.079 180.3H366.029V195H363.929V177.3ZM383.387 177.3H394.512V179.25H385.487V184.8H393.912V186.75H385.487V193.05H394.962V195H383.387V177.3Z" fill="#FFAA52"/>
</svg>
