<svg width="278" height="86" viewBox="0 0 278 86" fill="none" xmlns="http://www.w3.org/2000/svg">
<circle cx="49.7705" cy="41.836" r="38.2295" fill="#ED7608" fill-opacity="0.4"/>
<circle cx="38.2295" cy="38.2295" r="37.2295" stroke="#98BC61" stroke-width="2"/>
<path d="M74.5902 68.72C72.4302 68.72 70.4435 68.3467 68.6302 67.6C66.8435 66.8533 65.2835 65.8267 63.9502 64.52C62.6435 63.1867 61.6168 61.6133 60.8702 59.8C60.1502 57.96 59.7902 55.9733 59.7902 53.84C59.7902 51.7067 60.1502 49.7333 60.8702 47.92C61.6168 46.08 62.6435 44.5067 63.9502 43.2C65.2835 41.8667 66.8435 40.8267 68.6302 40.08C70.4435 39.3333 72.4302 38.96 74.5902 38.96C76.7502 38.96 78.7235 39.3333 80.5102 40.08C82.3235 40.8267 83.8835 41.8667 85.1902 43.2C86.5235 44.5067 87.5502 46.08 88.2702 47.92C89.0168 49.7333 89.3902 51.7067 89.3902 53.84C89.3902 55.9733 89.0168 57.96 88.2702 59.8C87.5502 61.6133 86.5235 63.1867 85.1902 64.52C83.8835 65.8267 82.3235 66.8533 80.5102 67.6C78.7235 68.3467 76.7502 68.72 74.5902 68.72ZM74.5902 65.6C76.2435 65.6 77.7502 65.2933 79.1102 64.68C80.4968 64.0667 81.6835 63.2267 82.6702 62.16C83.6568 61.0933 84.4168 59.8533 84.9502 58.44C85.5102 57 85.7902 55.4667 85.7902 53.84C85.7902 52.2133 85.5102 50.6933 84.9502 49.28C84.4168 47.84 83.6568 46.5867 82.6702 45.52C81.6835 44.4533 80.4968 43.6133 79.1102 43C77.7502 42.3867 76.2435 42.08 74.5902 42.08C72.9368 42.08 71.4168 42.3867 70.0302 43C68.6702 43.6133 67.4968 44.4533 66.5102 45.52C65.5235 46.5867 64.7502 47.84 64.1902 49.28C63.6568 50.6933 63.3902 52.2133 63.3902 53.84C63.3902 55.4667 63.6568 57 64.1902 58.44C64.7502 59.8533 65.5235 61.0933 66.5102 62.16C67.4968 63.2267 68.6702 64.0667 70.0302 64.68C71.4168 65.2933 72.9368 65.6 74.5902 65.6ZM94.0695 37.76H97.1895V52H97.2695C98.1229 50.9867 99.1095 50.2 100.23 49.64C101.376 49.08 102.63 48.8 103.99 48.8C105.456 48.8 106.79 49.0533 107.99 49.56C109.216 50.04 110.256 50.72 111.11 51.6C111.963 52.48 112.63 53.52 113.11 54.72C113.59 55.92 113.83 57.2267 113.83 58.64C113.83 60.0533 113.59 61.36 113.11 62.56C112.63 63.76 111.963 64.8 111.11 65.68C110.283 66.56 109.296 67.2533 108.15 67.76C107.003 68.24 105.776 68.48 104.47 68.48C102.79 68.48 101.31 68.12 100.03 67.4C98.7762 66.6533 97.8562 65.7467 97.2695 64.68H97.1895V68H94.0695V37.76ZM97.1895 58.64C97.1895 59.6267 97.3362 60.5467 97.6295 61.4C97.9495 62.2267 98.4029 62.96 98.9895 63.6C99.5762 64.2133 100.27 64.7067 101.07 65.08C101.896 65.4267 102.816 65.6 103.83 65.6C104.843 65.6 105.75 65.4267 106.55 65.08C107.376 64.7067 108.083 64.2133 108.67 63.6C109.256 62.96 109.696 62.2267 109.99 61.4C110.31 60.5467 110.47 59.6267 110.47 58.64C110.47 57.6533 110.31 56.7467 109.99 55.92C109.696 55.0667 109.256 54.3333 108.67 53.72C108.083 53.08 107.376 52.5867 106.55 52.24C105.75 51.8667 104.843 51.68 103.83 51.68C102.816 51.68 101.896 51.8667 101.07 52.24C100.27 52.5867 99.5762 53.08 98.9895 53.72C98.4029 54.3333 97.9495 55.0667 97.6295 55.92C97.3362 56.7467 97.1895 57.6533 97.1895 58.64ZM122.083 72.2C122.083 72.68 122.003 73.2267 121.843 73.84C121.709 74.48 121.443 75.0667 121.043 75.6C120.643 76.16 120.069 76.6267 119.323 77C118.603 77.4 117.669 77.6 116.523 77.6C116.149 77.6 115.789 77.5733 115.443 77.52C115.069 77.4667 114.709 77.36 114.363 77.2L114.723 74.48C115.229 74.64 115.736 74.72 116.243 74.72C116.829 74.72 117.296 74.6133 117.643 74.4C118.016 74.1867 118.296 73.8933 118.483 73.52C118.669 73.1733 118.789 72.76 118.843 72.28C118.923 71.8 118.963 71.2933 118.963 70.76V49.28H122.083V72.2ZM118.243 41.96C118.243 41.3467 118.456 40.8133 118.883 40.36C119.336 39.9067 119.883 39.68 120.523 39.68C121.163 39.68 121.696 39.9067 122.123 40.36C122.576 40.8133 122.803 41.3467 122.803 41.96C122.803 42.6267 122.589 43.1733 122.163 43.6C121.736 44.0267 121.189 44.24 120.523 44.24C119.856 44.24 119.309 44.0267 118.883 43.6C118.456 43.1733 118.243 42.6267 118.243 41.96ZM145.012 64.6C143.892 66.04 142.665 67.0533 141.332 67.64C139.999 68.2 138.452 68.48 136.692 68.48C135.225 68.48 133.905 68.2267 132.732 67.72C131.559 67.1867 130.559 66.48 129.732 65.6C128.932 64.72 128.305 63.68 127.852 62.48C127.425 61.28 127.212 60 127.212 58.64C127.212 57.2 127.452 55.88 127.932 54.68C128.412 53.4533 129.079 52.4133 129.932 51.56C130.785 50.68 131.799 50 132.972 49.52C134.145 49.04 135.425 48.8 136.812 48.8C138.119 48.8 139.319 49.0267 140.412 49.48C141.505 49.9067 142.439 50.5467 143.212 51.4C144.012 52.2267 144.625 53.2533 145.052 54.48C145.479 55.68 145.692 57.0533 145.692 58.6V59.6H130.572C130.625 60.4 130.812 61.1733 131.132 61.92C131.479 62.64 131.919 63.28 132.452 63.84C132.985 64.3733 133.612 64.8 134.332 65.12C135.052 65.44 135.839 65.6 136.692 65.6C138.052 65.6 139.199 65.36 140.132 64.88C141.065 64.4 141.905 63.6933 142.652 62.76L145.012 64.6ZM142.332 56.96C142.279 55.36 141.759 54.08 140.772 53.12C139.785 52.16 138.425 51.68 136.692 51.68C134.959 51.68 133.559 52.16 132.492 53.12C131.425 54.08 130.785 55.36 130.572 56.96H142.332ZM163.839 53.96C163.172 53.16 162.452 52.5867 161.679 52.24C160.905 51.8667 160.052 51.68 159.119 51.68C158.079 51.68 157.159 51.8667 156.359 52.24C155.559 52.5867 154.892 53.08 154.359 53.72C153.852 54.36 153.465 55.1067 153.199 55.96C152.932 56.7867 152.799 57.68 152.799 58.64C152.799 59.6 152.945 60.5067 153.239 61.36C153.559 62.1867 153.985 62.92 154.519 63.56C155.079 64.2 155.745 64.7067 156.519 65.08C157.292 65.4267 158.159 65.6 159.119 65.6C161.172 65.6 162.759 64.8267 163.879 63.28L166.199 65.48C165.292 66.52 164.225 67.28 162.999 67.76C161.772 68.24 160.479 68.48 159.119 68.48C157.679 68.48 156.359 68.24 155.159 67.76C153.959 67.28 152.932 66.6 152.079 65.72C151.252 64.84 150.599 63.8 150.119 62.6C149.665 61.4 149.439 60.08 149.439 58.64C149.439 57.2267 149.665 55.92 150.119 54.72C150.599 53.52 151.265 52.48 152.119 51.6C152.972 50.72 153.985 50.04 155.159 49.56C156.359 49.0533 157.679 48.8 159.119 48.8C160.505 48.8 161.812 49.04 163.039 49.52C164.292 50 165.385 50.7467 166.319 51.76L163.839 53.96ZM180.055 51.92H174.535V61.28C174.535 61.8933 174.549 62.4667 174.575 63C174.602 63.5067 174.709 63.96 174.895 64.36C175.082 64.7333 175.362 65.04 175.735 65.28C176.109 65.4933 176.642 65.6 177.335 65.6C177.789 65.6 178.255 65.5467 178.735 65.44C179.215 65.3333 179.669 65.1733 180.095 64.96L180.215 67.8C179.682 68.04 179.082 68.2133 178.415 68.32C177.775 68.4267 177.162 68.48 176.575 68.48C175.455 68.48 174.562 68.3333 173.895 68.04C173.229 67.7467 172.709 67.3333 172.335 66.8C171.962 66.2667 171.709 65.6133 171.575 64.84C171.469 64.04 171.415 63.16 171.415 62.2V51.92H167.335V49.28H171.415V43.96H174.535V49.28H180.055V51.92ZM184.197 49.28H187.317V68H184.197V49.28ZM183.477 41.96C183.477 41.3467 183.69 40.8133 184.117 40.36C184.57 39.9067 185.117 39.68 185.757 39.68C186.397 39.68 186.93 39.9067 187.357 40.36C187.81 40.8133 188.037 41.3467 188.037 41.96C188.037 42.6267 187.824 43.1733 187.397 43.6C186.97 44.0267 186.424 44.24 185.757 44.24C185.09 44.24 184.544 44.0267 184.117 43.6C183.69 43.1733 183.477 42.6267 183.477 41.96ZM202.046 68H198.606L190.966 49.28H194.606L200.446 63.96H200.526L206.086 49.28H209.446L202.046 68ZM229.543 64.6C228.423 66.04 227.197 67.0533 225.863 67.64C224.53 68.2 222.983 68.48 221.223 68.48C219.757 68.48 218.437 68.2267 217.263 67.72C216.09 67.1867 215.09 66.48 214.263 65.6C213.463 64.72 212.837 63.68 212.383 62.48C211.957 61.28 211.743 60 211.743 58.64C211.743 57.2 211.983 55.88 212.463 54.68C212.943 53.4533 213.61 52.4133 214.463 51.56C215.317 50.68 216.33 50 217.503 49.52C218.677 49.04 219.957 48.8 221.343 48.8C222.65 48.8 223.85 49.0267 224.943 49.48C226.037 49.9067 226.97 50.5467 227.743 51.4C228.543 52.2267 229.157 53.2533 229.583 54.48C230.01 55.68 230.223 57.0533 230.223 58.6V59.6H215.103C215.157 60.4 215.343 61.1733 215.663 61.92C216.01 62.64 216.45 63.28 216.983 63.84C217.517 64.3733 218.143 64.8 218.863 65.12C219.583 65.44 220.37 65.6 221.223 65.6C222.583 65.6 223.73 65.36 224.663 64.88C225.597 64.4 226.437 63.6933 227.183 62.76L229.543 64.6ZM226.863 56.96C226.81 55.36 226.29 54.08 225.303 53.12C224.317 52.16 222.957 51.68 221.223 51.68C219.49 51.68 218.09 52.16 217.023 53.12C215.957 54.08 215.317 55.36 215.103 56.96H226.863Z" fill="black"/>
</svg>
