<svg width="705" height="157" viewBox="0 0 705 157" fill="none" xmlns="http://www.w3.org/2000/svg">
<path d="M30 0.5H658C674.292 0.5 687.5 13.7076 687.5 30V107C687.5 123.292 674.292 136.5 658 136.5H30C13.7076 136.5 0.5 123.292 0.5 107V30C0.5 13.7076 13.7076 0.5 30 0.5Z" stroke="#FFAA52"/>
<path d="M58 32.5H675C691.292 32.5 704.5 45.7076 704.5 62V127C704.5 143.292 691.292 156.5 675 156.5H58C41.7076 156.5 28.5 143.292 28.5 127V62C28.5 45.7076 41.7076 32.5 58 32.5Z" stroke="#98BC61"/>
<path d="M192.603 57.6H203.103C204.736 57.6 206.286 57.7667 207.753 58.1C209.253 58.4 210.57 58.9333 211.703 59.7C212.87 60.4333 213.786 61.4333 214.453 62.7C215.153 63.9333 215.503 65.4667 215.503 67.3C215.503 69.2333 215.136 70.8333 214.403 72.1C213.67 73.3667 212.72 74.3667 211.553 75.1C210.42 75.8333 209.17 76.35 207.803 76.65C206.436 76.95 205.136 77.1 203.903 77.1H196.803V93H192.603V57.6ZM196.803 73.2H203.903C206.003 73.2 207.703 72.7333 209.003 71.8C210.336 70.8333 211.003 69.35 211.003 67.35C211.003 65.35 210.336 63.8833 209.003 62.95C207.703 61.9833 206.003 61.5 203.903 61.5H196.803V73.2ZM221.542 75.15C221.542 74.0833 221.508 73.0833 221.442 72.15C221.375 71.2167 221.342 70.3667 221.342 69.6H225.042C225.042 70.2333 225.058 70.8667 225.092 71.5C225.125 72.1333 225.142 72.7833 225.142 73.45H225.242C225.508 72.8833 225.875 72.3333 226.342 71.8C226.842 71.2667 227.425 70.8 228.092 70.4C228.758 69.9667 229.508 69.6333 230.342 69.4C231.175 69.1333 232.075 69 233.042 69C233.308 69 233.575 69.0167 233.842 69.05C234.108 69.0833 234.375 69.15 234.642 69.25L234.392 73.2C233.725 73 233.025 72.9 232.292 72.9C229.892 72.9 228.142 73.6833 227.042 75.25C225.975 76.7833 225.442 78.9 225.442 81.6V93H221.542V75.15ZM236.891 81.3C236.891 79.4667 237.208 77.8 237.841 76.3C238.474 74.8 239.341 73.5167 240.441 72.45C241.541 71.35 242.858 70.5 244.391 69.9C245.924 69.3 247.591 69 249.391 69C251.191 69 252.858 69.3 254.391 69.9C255.924 70.5 257.241 71.35 258.341 72.45C259.441 73.5167 260.308 74.8 260.941 76.3C261.574 77.8 261.891 79.4667 261.891 81.3C261.891 83.1333 261.574 84.8 260.941 86.3C260.308 87.8 259.441 89.1 258.341 90.2C257.241 91.2667 255.924 92.1 254.391 92.7C252.858 93.3 251.191 93.6 249.391 93.6C247.591 93.6 245.924 93.3 244.391 92.7C242.858 92.1 241.541 91.2667 240.441 90.2C239.341 89.1 238.474 87.8 237.841 86.3C237.208 84.8 236.891 83.1333 236.891 81.3ZM241.091 81.3C241.091 82.5333 241.274 83.6833 241.641 84.75C242.041 85.7833 242.608 86.7 243.341 87.5C244.074 88.2667 244.941 88.8833 245.941 89.35C246.974 89.7833 248.124 90 249.391 90C250.658 90 251.791 89.7833 252.791 89.35C253.824 88.8833 254.708 88.2667 255.441 87.5C256.174 86.7 256.724 85.7833 257.091 84.75C257.491 83.6833 257.691 82.5333 257.691 81.3C257.691 80.0667 257.491 78.9333 257.091 77.9C256.724 76.8333 256.174 75.9167 255.441 75.15C254.708 74.35 253.824 73.7333 252.791 73.3C251.791 72.8333 250.658 72.6 249.391 72.6C248.124 72.6 246.974 72.8333 245.941 73.3C244.941 73.7333 244.074 74.35 243.341 75.15C242.608 75.9167 242.041 76.8333 241.641 77.9C241.274 78.9333 241.091 80.0667 241.091 81.3ZM272.179 98.25C272.179 98.85 272.079 99.5333 271.879 100.3C271.712 101.1 271.379 101.833 270.879 102.5C270.379 103.2 269.662 103.783 268.729 104.25C267.829 104.75 266.662 105 265.229 105C264.762 105 264.312 104.967 263.879 104.9C263.412 104.833 262.962 104.7 262.529 104.5L262.979 101.1C263.612 101.3 264.245 101.4 264.879 101.4C265.612 101.4 266.195 101.267 266.629 101C267.095 100.733 267.445 100.367 267.679 99.9C267.912 99.4667 268.062 98.95 268.129 98.35C268.229 97.75 268.279 97.1167 268.279 96.45V69.6H272.179V98.25ZM267.379 60.45C267.379 59.6833 267.645 59.0167 268.179 58.45C268.745 57.8833 269.429 57.6 270.229 57.6C271.029 57.6 271.695 57.8833 272.229 58.45C272.795 59.0167 273.079 59.6833 273.079 60.45C273.079 61.2833 272.812 61.9667 272.279 62.5C271.745 63.0333 271.062 63.3 270.229 63.3C269.395 63.3 268.712 63.0333 268.179 62.5C267.645 61.9667 267.379 61.2833 267.379 60.45ZM300.84 88.75C299.44 90.55 297.907 91.8167 296.24 92.55C294.574 93.25 292.64 93.6 290.44 93.6C288.607 93.6 286.957 93.2833 285.49 92.65C284.024 91.9833 282.774 91.1 281.74 90C280.74 88.9 279.957 87.6 279.39 86.1C278.857 84.6 278.59 83 278.59 81.3C278.59 79.5 278.89 77.85 279.49 76.35C280.09 74.8167 280.924 73.5167 281.99 72.45C283.057 71.35 284.324 70.5 285.79 69.9C287.257 69.3 288.857 69 290.59 69C292.224 69 293.724 69.2833 295.09 69.85C296.457 70.3833 297.624 71.1833 298.59 72.25C299.59 73.2833 300.357 74.5667 300.89 76.1C301.424 77.6 301.69 79.3167 301.69 81.25V82.5H282.79C282.857 83.5 283.09 84.4667 283.49 85.4C283.924 86.3 284.474 87.1 285.14 87.8C285.807 88.4667 286.59 89 287.49 89.4C288.39 89.8 289.374 90 290.44 90C292.14 90 293.574 89.7 294.74 89.1C295.907 88.5 296.957 87.6167 297.89 86.45L300.84 88.75ZM297.49 79.2C297.424 77.2 296.774 75.6 295.54 74.4C294.307 73.2 292.607 72.6 290.44 72.6C288.274 72.6 286.524 73.2 285.19 74.4C283.857 75.6 283.057 77.2 282.79 79.2H297.49ZM324.373 75.45C323.54 74.45 322.64 73.7333 321.673 73.3C320.707 72.8333 319.64 72.6 318.473 72.6C317.173 72.6 316.023 72.8333 315.023 73.3C314.023 73.7333 313.19 74.35 312.523 75.15C311.89 75.95 311.407 76.8833 311.073 77.95C310.74 78.9833 310.573 80.1 310.573 81.3C310.573 82.5 310.757 83.6333 311.123 84.7C311.523 85.7333 312.057 86.65 312.723 87.45C313.423 88.25 314.257 88.8833 315.223 89.35C316.19 89.7833 317.273 90 318.473 90C321.04 90 323.023 89.0333 324.423 87.1L327.323 89.85C326.19 91.15 324.857 92.1 323.323 92.7C321.79 93.3 320.173 93.6 318.473 93.6C316.673 93.6 315.023 93.3 313.523 92.7C312.023 92.1 310.74 91.25 309.673 90.15C308.64 89.05 307.823 87.75 307.223 86.25C306.657 84.75 306.373 83.1 306.373 81.3C306.373 79.5333 306.657 77.9 307.223 76.4C307.823 74.9 308.657 73.6 309.723 72.5C310.79 71.4 312.057 70.55 313.523 69.95C315.023 69.3167 316.673 69 318.473 69C320.207 69 321.84 69.3 323.373 69.9C324.94 70.5 326.307 71.4333 327.473 72.7L324.373 75.45ZM344.645 72.9H337.745V84.6C337.745 85.3667 337.761 86.0833 337.795 86.75C337.828 87.3833 337.961 87.95 338.195 88.45C338.428 88.9167 338.778 89.3 339.245 89.6C339.711 89.8667 340.378 90 341.245 90C341.811 90 342.395 89.9333 342.995 89.8C343.595 89.6667 344.161 89.4667 344.695 89.2L344.845 92.75C344.178 93.05 343.428 93.2667 342.595 93.4C341.795 93.5333 341.028 93.6 340.295 93.6C338.895 93.6 337.778 93.4167 336.945 93.05C336.111 92.6833 335.461 92.1667 334.995 91.5C334.528 90.8333 334.211 90.0167 334.045 89.05C333.911 88.05 333.845 86.95 333.845 85.75V72.9H328.745V69.6H333.845V62.95H337.745V69.6H344.645V72.9ZM380.489 93.9C377.789 93.9 375.305 93.4333 373.039 92.5C370.805 91.5667 368.855 90.2833 367.189 88.65C365.555 86.9833 364.272 85.0167 363.339 82.75C362.439 80.45 361.989 77.9667 361.989 75.3C361.989 72.6333 362.439 70.1667 363.339 67.9C364.272 65.6 365.555 63.6333 367.189 62C368.855 60.3333 370.805 59.0333 373.039 58.1C375.305 57.1667 377.789 56.7 380.489 56.7C383.189 56.7 385.655 57.1667 387.889 58.1C390.155 59.0333 392.105 60.3333 393.739 62C395.405 63.6333 396.689 65.6 397.589 67.9C398.522 70.1667 398.989 72.6333 398.989 75.3C398.989 77.9667 398.522 80.45 397.589 82.75C396.689 85.0167 395.405 86.9833 393.739 88.65C392.105 90.2833 390.155 91.5667 387.889 92.5C385.655 93.4333 383.189 93.9 380.489 93.9ZM380.489 90C382.555 90 384.439 89.6167 386.139 88.85C387.872 88.0833 389.355 87.0333 390.589 85.7C391.822 84.3667 392.772 82.8167 393.439 81.05C394.139 79.25 394.489 77.3333 394.489 75.3C394.489 73.2667 394.139 71.3667 393.439 69.6C392.772 67.8 391.822 66.2333 390.589 64.9C389.355 63.5667 387.872 62.5167 386.139 61.75C384.439 60.9833 382.555 60.6 380.489 60.6C378.422 60.6 376.522 60.9833 374.789 61.75C373.089 62.5167 371.622 63.5667 370.389 64.9C369.155 66.2333 368.189 67.8 367.489 69.6C366.822 71.3667 366.489 73.2667 366.489 75.3C366.489 77.3333 366.822 79.25 367.489 81.05C368.189 82.8167 369.155 84.3667 370.389 85.7C371.622 87.0333 373.089 88.0833 374.789 88.85C376.522 89.6167 378.422 90 380.489 90ZM415.688 93H411.388L401.838 69.6H406.388L413.688 87.95H413.788L420.738 69.6H424.938L415.688 93ZM450.059 88.75C448.659 90.55 447.126 91.8167 445.459 92.55C443.792 93.25 441.859 93.6 439.659 93.6C437.826 93.6 436.176 93.2833 434.709 92.65C433.242 91.9833 431.992 91.1 430.959 90C429.959 88.9 429.176 87.6 428.609 86.1C428.076 84.6 427.809 83 427.809 81.3C427.809 79.5 428.109 77.85 428.709 76.35C429.309 74.8167 430.142 73.5167 431.209 72.45C432.276 71.35 433.542 70.5 435.009 69.9C436.476 69.3 438.076 69 439.809 69C441.442 69 442.942 69.2833 444.309 69.85C445.676 70.3833 446.842 71.1833 447.809 72.25C448.809 73.2833 449.576 74.5667 450.109 76.1C450.642 77.6 450.909 79.3167 450.909 81.25V82.5H432.009C432.076 83.5 432.309 84.4667 432.709 85.4C433.142 86.3 433.692 87.1 434.359 87.8C435.026 88.4667 435.809 89 436.709 89.4C437.609 89.8 438.592 90 439.659 90C441.359 90 442.792 89.7 443.959 89.1C445.126 88.5 446.176 87.6167 447.109 86.45L450.059 88.75ZM446.709 79.2C446.642 77.2 445.992 75.6 444.759 74.4C443.526 73.2 441.826 72.6 439.659 72.6C437.492 72.6 435.742 73.2 434.409 74.4C433.076 75.6 432.276 77.2 432.009 79.2H446.709ZM456.942 75.15C456.942 74.0833 456.909 73.0833 456.842 72.15C456.776 71.2167 456.742 70.3667 456.742 69.6H460.442C460.442 70.2333 460.459 70.8667 460.492 71.5C460.526 72.1333 460.542 72.7833 460.542 73.45H460.642C460.909 72.8833 461.276 72.3333 461.742 71.8C462.242 71.2667 462.826 70.8 463.492 70.4C464.159 69.9667 464.909 69.6333 465.742 69.4C466.576 69.1333 467.476 69 468.442 69C468.709 69 468.976 69.0167 469.242 69.05C469.509 69.0833 469.776 69.15 470.042 69.25L469.792 73.2C469.126 73 468.426 72.9 467.692 72.9C465.292 72.9 463.542 73.6833 462.442 75.25C461.376 76.7833 460.842 78.9 460.842 81.6V93H456.942V75.15ZM485.17 93H480.87L471.32 69.6H475.87L483.17 87.95H483.27L490.22 69.6H494.42L485.17 93ZM498.991 69.6H502.891V93H498.991V69.6ZM498.091 60.45C498.091 59.6833 498.358 59.0167 498.891 58.45C499.458 57.8833 500.141 57.6 500.941 57.6C501.741 57.6 502.408 57.8833 502.941 58.45C503.508 59.0167 503.791 59.6833 503.791 60.45C503.791 61.2833 503.525 61.9667 502.991 62.5C502.458 63.0333 501.775 63.3 500.941 63.3C500.108 63.3 499.425 63.0333 498.891 62.5C498.358 61.9667 498.091 61.2833 498.091 60.45ZM531.553 88.75C530.153 90.55 528.62 91.8167 526.953 92.55C525.286 93.25 523.353 93.6 521.153 93.6C519.32 93.6 517.67 93.2833 516.203 92.65C514.736 91.9833 513.486 91.1 512.453 90C511.453 88.9 510.67 87.6 510.103 86.1C509.57 84.6 509.303 83 509.303 81.3C509.303 79.5 509.603 77.85 510.203 76.35C510.803 74.8167 511.636 73.5167 512.703 72.45C513.77 71.35 515.036 70.5 516.503 69.9C517.97 69.3 519.57 69 521.303 69C522.936 69 524.436 69.2833 525.803 69.85C527.17 70.3833 528.336 71.1833 529.303 72.25C530.303 73.2833 531.07 74.5667 531.603 76.1C532.136 77.6 532.403 79.3167 532.403 81.25V82.5H513.503C513.57 83.5 513.803 84.4667 514.203 85.4C514.636 86.3 515.186 87.1 515.853 87.8C516.52 88.4667 517.303 89 518.203 89.4C519.103 89.8 520.086 90 521.153 90C522.853 90 524.286 89.7 525.453 89.1C526.62 88.5 527.67 87.6167 528.603 86.45L531.553 88.75ZM528.203 79.2C528.136 77.2 527.486 75.6 526.253 74.4C525.02 73.2 523.32 72.6 521.153 72.6C518.986 72.6 517.236 73.2 515.903 74.4C514.57 75.6 513.77 77.2 513.503 79.2H528.203ZM563.536 93H559.686L553.036 75H552.936L547.036 93H543.036L535.436 69.6H539.736L545.086 87.6H545.186L551.236 69.6H555.336L561.486 87.6H561.586L566.886 69.6H571.086L563.536 93Z" fill="black"/>
<rect x="145" y="109" width="300" height="9" fill="#98BC61" fill-opacity="0.45"/>
</svg>
