<svg width="307" height="110" viewBox="0 0 307 110" fill="none" xmlns="http://www.w3.org/2000/svg">
<circle cx="61.7705" cy="41.8361" r="38.2295" fill="#ED7608" fill-opacity="0.4"/>
<circle cx="50.2295" cy="38.2295" r="37.2295" stroke="#98BC61" stroke-width="2"/>
<path d="M72.4258 37.14H81.8758C83.3458 37.14 84.7408 37.29 86.0608 37.59C87.4108 37.86 88.5958 38.34 89.6158 39.03C90.6658 39.69 91.4908 40.59 92.0908 41.73C92.7208 42.84 93.0358 44.22 93.0358 45.87C93.0358 47.61 92.7058 49.05 92.0458 50.19C91.3858 51.33 90.5308 52.23 89.4808 52.89C88.4608 53.55 87.3358 54.015 86.1058 54.285C84.8758 54.555 83.7058 54.69 82.5958 54.69H76.2058V69H72.4258V37.14ZM76.2058 51.18H82.5958C84.4858 51.18 86.0158 50.76 87.1858 49.92C88.3858 49.05 88.9858 47.715 88.9858 45.915C88.9858 44.115 88.3858 42.795 87.1858 41.955C86.0158 41.085 84.4858 40.65 82.5958 40.65H76.2058V51.18ZM98.4706 52.935C98.4706 51.975 98.4406 51.075 98.3806 50.235C98.3206 49.395 98.2906 48.63 98.2906 47.94H101.621C101.621 48.51 101.636 49.08 101.666 49.65C101.696 50.22 101.711 50.805 101.711 51.405H101.801C102.041 50.895 102.371 50.4 102.791 49.92C103.241 49.44 103.766 49.02 104.366 48.66C104.966 48.27 105.641 47.97 106.391 47.76C107.141 47.52 107.951 47.4 108.821 47.4C109.061 47.4 109.301 47.415 109.541 47.445C109.781 47.475 110.021 47.535 110.261 47.625L110.036 51.18C109.436 51 108.806 50.91 108.146 50.91C105.986 50.91 104.411 51.615 103.421 53.025C102.461 54.405 101.981 56.31 101.981 58.74V69H98.4706V52.935ZM112.285 58.47C112.285 56.82 112.57 55.32 113.14 53.97C113.71 52.62 114.49 51.465 115.48 50.505C116.47 49.515 117.655 48.75 119.035 48.21C120.415 47.67 121.915 47.4 123.535 47.4C125.155 47.4 126.655 47.67 128.035 48.21C129.415 48.75 130.6 49.515 131.59 50.505C132.58 51.465 133.36 52.62 133.93 53.97C134.5 55.32 134.785 56.82 134.785 58.47C134.785 60.12 134.5 61.62 133.93 62.97C133.36 64.32 132.58 65.49 131.59 66.48C130.6 67.44 129.415 68.19 128.035 68.73C126.655 69.27 125.155 69.54 123.535 69.54C121.915 69.54 120.415 69.27 119.035 68.73C117.655 68.19 116.47 67.44 115.48 66.48C114.49 65.49 113.71 64.32 113.14 62.97C112.57 61.62 112.285 60.12 112.285 58.47ZM116.065 58.47C116.065 59.58 116.23 60.615 116.56 61.575C116.92 62.505 117.43 63.33 118.09 64.05C118.75 64.74 119.53 65.295 120.43 65.715C121.36 66.105 122.395 66.3 123.535 66.3C124.675 66.3 125.695 66.105 126.595 65.715C127.525 65.295 128.32 64.74 128.98 64.05C129.64 63.33 130.135 62.505 130.465 61.575C130.825 60.615 131.005 59.58 131.005 58.47C131.005 57.36 130.825 56.34 130.465 55.41C130.135 54.45 129.64 53.625 128.98 52.935C128.32 52.215 127.525 51.66 126.595 51.27C125.695 50.85 124.675 50.64 123.535 50.64C122.395 50.64 121.36 50.85 120.43 51.27C119.53 51.66 118.75 52.215 118.09 52.935C117.43 53.625 116.92 54.45 116.56 55.41C116.23 56.34 116.065 57.36 116.065 58.47ZM140.039 34.98H143.549V51H143.639C144.599 49.86 145.709 48.975 146.969 48.345C148.259 47.715 149.669 47.4 151.199 47.4C152.849 47.4 154.349 47.685 155.699 48.255C157.079 48.795 158.249 49.56 159.209 50.55C160.169 51.54 160.919 52.71 161.459 54.06C161.999 55.41 162.269 56.88 162.269 58.47C162.269 60.06 161.999 61.53 161.459 62.88C160.919 64.23 160.169 65.4 159.209 66.39C158.279 67.38 157.169 68.16 155.879 68.73C154.589 69.27 153.209 69.54 151.739 69.54C149.849 69.54 148.184 69.135 146.744 68.325C145.334 67.485 144.299 66.465 143.639 65.265H143.549V69H140.039V34.98ZM143.549 58.47C143.549 59.58 143.714 60.615 144.044 61.575C144.404 62.505 144.914 63.33 145.574 64.05C146.234 64.74 147.014 65.295 147.914 65.715C148.844 66.105 149.879 66.3 151.019 66.3C152.159 66.3 153.179 66.105 154.079 65.715C155.009 65.295 155.804 64.74 156.464 64.05C157.124 63.33 157.619 62.505 157.949 61.575C158.309 60.615 158.489 59.58 158.489 58.47C158.489 57.36 158.309 56.34 157.949 55.41C157.619 54.45 157.124 53.625 156.464 52.935C155.804 52.215 155.009 51.66 154.079 51.27C153.179 50.85 152.159 50.64 151.019 50.64C149.879 50.64 148.844 50.85 147.914 51.27C147.014 51.66 146.234 52.215 145.574 52.935C144.914 53.625 144.404 54.45 144.044 55.41C143.714 56.34 143.549 57.36 143.549 58.47ZM168.043 34.98H171.553V69H168.043V34.98ZM197.349 65.175C196.089 66.795 194.709 67.935 193.209 68.595C191.709 69.225 189.969 69.54 187.989 69.54C186.339 69.54 184.854 69.255 183.534 68.685C182.214 68.085 181.089 67.29 180.159 66.3C179.259 65.31 178.554 64.14 178.044 62.79C177.564 61.44 177.324 60 177.324 58.47C177.324 56.85 177.594 55.365 178.134 54.015C178.674 52.635 179.424 51.465 180.384 50.505C181.344 49.515 182.484 48.75 183.804 48.21C185.124 47.67 186.564 47.4 188.124 47.4C189.594 47.4 190.944 47.655 192.174 48.165C193.404 48.645 194.454 49.365 195.324 50.325C196.224 51.255 196.914 52.41 197.394 53.79C197.874 55.14 198.114 56.685 198.114 58.425V59.55H181.104C181.164 60.45 181.374 61.32 181.734 62.16C182.124 62.97 182.619 63.69 183.219 64.32C183.819 64.92 184.524 65.4 185.334 65.76C186.144 66.12 187.029 66.3 187.989 66.3C189.519 66.3 190.809 66.03 191.859 65.49C192.909 64.95 193.854 64.155 194.694 63.105L197.349 65.175ZM194.334 56.58C194.274 54.78 193.689 53.34 192.579 52.26C191.469 51.18 189.939 50.64 187.989 50.64C186.039 50.64 184.464 51.18 183.264 52.26C182.064 53.34 181.344 54.78 181.104 56.58H194.334ZM203.544 52.935C203.544 51.975 203.514 51.075 203.454 50.235C203.394 49.395 203.364 48.63 203.364 47.94H206.694C206.694 48.51 206.709 49.08 206.739 49.65C206.769 50.22 206.784 50.805 206.784 51.405H206.874C207.114 50.895 207.444 50.4 207.864 49.92C208.314 49.44 208.839 49.02 209.439 48.66C210.039 48.27 210.714 47.97 211.464 47.76C212.214 47.52 213.024 47.4 213.894 47.4C215.034 47.4 215.979 47.55 216.729 47.85C217.509 48.12 218.154 48.465 218.664 48.885C219.174 49.275 219.564 49.71 219.834 50.19C220.134 50.64 220.374 51.045 220.554 51.405C221.334 50.145 222.234 49.17 223.254 48.48C224.274 47.76 225.594 47.4 227.214 47.4C228.714 47.4 229.974 47.61 230.994 48.03C232.014 48.42 232.839 49.005 233.469 49.785C234.099 50.535 234.549 51.465 234.819 52.575C235.089 53.655 235.224 54.87 235.224 56.22V69H231.714V56.4C231.714 55.68 231.639 54.975 231.489 54.285C231.339 53.595 231.069 52.98 230.679 52.44C230.289 51.9 229.764 51.465 229.104 51.135C228.444 50.805 227.604 50.64 226.584 50.64C225.834 50.64 225.129 50.79 224.469 51.09C223.809 51.39 223.224 51.81 222.714 52.35C222.234 52.89 221.844 53.55 221.544 54.33C221.274 55.08 221.139 55.92 221.139 56.85V69H217.629V57.075C217.629 54.735 217.314 53.085 216.684 52.125C216.054 51.135 215.019 50.64 213.579 50.64C212.439 50.64 211.449 50.835 210.609 51.225C209.799 51.615 209.124 52.17 208.584 52.89C208.074 53.61 207.684 54.465 207.414 55.455C207.174 56.445 207.054 57.54 207.054 58.74V69H203.544V52.935Z" fill="#683C09"/>
</svg>
