<svg width="705" height="204" viewBox="0 0 705 204" fill="none" xmlns="http://www.w3.org/2000/svg">
<path d="M30 0.5H658C674.292 0.5 687.5 13.7076 687.5 30V107C687.5 123.292 674.292 136.5 658 136.5H30C13.7076 136.5 0.5 123.292 0.5 107V30C0.5 13.7076 13.7076 0.5 30 0.5Z" stroke="#FFAA52"/>
<path d="M58 32.5H675C691.292 32.5 704.5 45.7076 704.5 62V127C704.5 143.292 691.292 156.5 675 156.5H58C41.7076 156.5 28.5 143.292 28.5 127V62C28.5 45.7076 41.7076 32.5 58 32.5Z" stroke="#98BC61"/>
<path d="M252.088 79.5C252.088 81.4333 251.838 83.2667 251.338 85C250.871 86.7333 250.104 88.2667 249.038 89.6C248.004 90.9 246.638 91.95 244.938 92.75C243.238 93.5167 241.171 93.9 238.738 93.9C236.304 93.9 234.238 93.5167 232.538 92.75C230.838 91.95 229.454 90.9 228.388 89.6C227.354 88.2667 226.588 86.7333 226.088 85C225.621 83.2667 225.388 81.4333 225.388 79.5V57.6H229.588V78.9C229.588 80.3333 229.738 81.7167 230.038 83.05C230.338 84.3833 230.838 85.5667 231.538 86.6C232.238 87.6333 233.171 88.4667 234.338 89.1C235.504 89.7 236.971 90 238.738 90C240.504 90 241.971 89.7 243.138 89.1C244.304 88.4667 245.238 87.6333 245.938 86.6C246.638 85.5667 247.138 84.3833 247.438 83.05C247.738 81.7167 247.888 80.3333 247.888 78.9V57.6H252.088V79.5ZM260.543 86.85C261.309 87.8167 262.143 88.5833 263.043 89.15C263.976 89.7167 265.143 90 266.543 90C267.143 90 267.743 89.9333 268.343 89.8C268.976 89.6667 269.543 89.45 270.043 89.15C270.543 88.85 270.943 88.4833 271.243 88.05C271.543 87.5833 271.693 87.0333 271.693 86.4C271.693 85.7667 271.543 85.25 271.243 84.85C270.976 84.45 270.609 84.1167 270.143 83.85C269.676 83.55 269.143 83.3167 268.543 83.15C267.943 82.9833 267.326 82.8333 266.693 82.7C265.593 82.4667 264.543 82.2 263.543 81.9C262.543 81.6 261.659 81.2167 260.893 80.75C260.159 80.25 259.559 79.6167 259.093 78.85C258.659 78.0833 258.443 77.1 258.443 75.9C258.443 74.7667 258.693 73.7667 259.193 72.9C259.693 72.0333 260.359 71.3167 261.193 70.75C262.026 70.1833 262.959 69.75 263.993 69.45C265.026 69.15 266.093 69 267.193 69C268.859 69 270.393 69.3333 271.793 70C273.226 70.6667 274.343 71.75 275.143 73.25L271.893 75.4C271.393 74.5667 270.726 73.9 269.893 73.4C269.093 72.8667 268.109 72.6 266.943 72.6C266.409 72.6 265.859 72.6667 265.293 72.8C264.759 72.9333 264.276 73.1333 263.843 73.4C263.409 73.6667 263.043 74.0167 262.743 74.45C262.476 74.85 262.343 75.3167 262.343 75.85C262.343 76.35 262.493 76.7833 262.793 77.15C263.126 77.4833 263.559 77.7833 264.093 78.05C264.659 78.3167 265.293 78.55 265.993 78.75C266.726 78.95 267.476 79.1167 268.243 79.25C269.276 79.45 270.259 79.7167 271.193 80.05C272.126 80.35 272.943 80.7667 273.643 81.3C274.343 81.8333 274.893 82.5 275.293 83.3C275.693 84.1 275.893 85.0833 275.893 86.25C275.893 87.5833 275.626 88.7167 275.093 89.65C274.559 90.5833 273.843 91.35 272.943 91.95C272.076 92.5167 271.076 92.9333 269.943 93.2C268.843 93.4667 267.709 93.6 266.543 93.6C264.543 93.6 262.809 93.3 261.343 92.7C259.909 92.0667 258.609 90.9167 257.443 89.25L260.543 86.85ZM302.232 88.75C300.832 90.55 299.299 91.8167 297.632 92.55C295.965 93.25 294.032 93.6 291.832 93.6C289.999 93.6 288.349 93.2833 286.882 92.65C285.415 91.9833 284.165 91.1 283.132 90C282.132 88.9 281.349 87.6 280.782 86.1C280.249 84.6 279.982 83 279.982 81.3C279.982 79.5 280.282 77.85 280.882 76.35C281.482 74.8167 282.315 73.5167 283.382 72.45C284.449 71.35 285.715 70.5 287.182 69.9C288.649 69.3 290.249 69 291.982 69C293.615 69 295.115 69.2833 296.482 69.85C297.849 70.3833 299.015 71.1833 299.982 72.25C300.982 73.2833 301.749 74.5667 302.282 76.1C302.815 77.6 303.082 79.3167 303.082 81.25V82.5H284.182C284.249 83.5 284.482 84.4667 284.882 85.4C285.315 86.3 285.865 87.1 286.532 87.8C287.199 88.4667 287.982 89 288.882 89.4C289.782 89.8 290.765 90 291.832 90C293.532 90 294.965 89.7 296.132 89.1C297.299 88.5 298.349 87.6167 299.282 86.45L302.232 88.75ZM298.882 79.2C298.815 77.2 298.165 75.6 296.932 74.4C295.699 73.2 293.999 72.6 291.832 72.6C289.665 72.6 287.915 73.2 286.582 74.4C285.249 75.6 284.449 77.2 284.182 79.2H298.882ZM309.115 75.15C309.115 74.0833 309.082 73.0833 309.015 72.15C308.948 71.2167 308.915 70.3667 308.915 69.6H312.615C312.615 70.2333 312.632 70.8667 312.665 71.5C312.698 72.1333 312.715 72.7833 312.715 73.45H312.815C313.082 72.8833 313.448 72.3333 313.915 71.8C314.415 71.2667 314.998 70.8 315.665 70.4C316.332 69.9667 317.082 69.6333 317.915 69.4C318.748 69.1333 319.648 69 320.615 69C320.882 69 321.148 69.0167 321.415 69.05C321.682 69.0833 321.948 69.15 322.215 69.25L321.965 73.2C321.298 73 320.598 72.9 319.865 72.9C317.465 72.9 315.715 73.6833 314.615 75.25C313.548 76.7833 313.015 78.9 313.015 81.6V93H309.115V75.15ZM341.309 57.6H350.359C352.059 57.6 353.743 57.7 355.409 57.9C357.109 58.1 358.626 58.5333 359.959 59.2C361.293 59.8667 362.376 60.85 363.209 62.15C364.043 63.4167 364.459 65.15 364.459 67.35C364.459 69.95 363.676 72.05 362.109 73.65C360.543 75.25 358.376 76.2667 355.609 76.7L365.659 93H360.509L350.909 77.1H345.509V93H341.309V57.6ZM345.509 73.2H349.259C350.426 73.2 351.626 73.1667 352.859 73.1C354.126 73.0333 355.276 72.8167 356.309 72.45C357.376 72.0833 358.243 71.5167 358.909 70.75C359.609 69.95 359.959 68.8167 359.959 67.35C359.959 66.0833 359.709 65.0667 359.209 64.3C358.709 63.5333 358.043 62.95 357.209 62.55C356.409 62.1167 355.493 61.8333 354.459 61.7C353.459 61.5667 352.443 61.5 351.409 61.5H345.509V73.2ZM392.076 88.75C390.676 90.55 389.142 91.8167 387.476 92.55C385.809 93.25 383.876 93.6 381.676 93.6C379.842 93.6 378.192 93.2833 376.726 92.65C375.259 91.9833 374.009 91.1 372.976 90C371.976 88.9 371.192 87.6 370.626 86.1C370.092 84.6 369.826 83 369.826 81.3C369.826 79.5 370.126 77.85 370.726 76.35C371.326 74.8167 372.159 73.5167 373.226 72.45C374.292 71.35 375.559 70.5 377.026 69.9C378.492 69.3 380.092 69 381.826 69C383.459 69 384.959 69.2833 386.326 69.85C387.692 70.3833 388.859 71.1833 389.826 72.25C390.826 73.2833 391.592 74.5667 392.126 76.1C392.659 77.6 392.926 79.3167 392.926 81.25V82.5H374.026C374.092 83.5 374.326 84.4667 374.726 85.4C375.159 86.3 375.709 87.1 376.376 87.8C377.042 88.4667 377.826 89 378.726 89.4C379.626 89.8 380.609 90 381.676 90C383.376 90 384.809 89.7 385.976 89.1C387.142 88.5 388.192 87.6167 389.126 86.45L392.076 88.75ZM388.726 79.2C388.659 77.2 388.009 75.6 386.776 74.4C385.542 73.2 383.842 72.6 381.676 72.6C379.509 72.6 377.759 73.2 376.426 74.4C375.092 75.6 374.292 77.2 374.026 79.2H388.726ZM399.459 86.85C400.225 87.8167 401.059 88.5833 401.959 89.15C402.892 89.7167 404.059 90 405.459 90C406.059 90 406.659 89.9333 407.259 89.8C407.892 89.6667 408.459 89.45 408.959 89.15C409.459 88.85 409.859 88.4833 410.159 88.05C410.459 87.5833 410.609 87.0333 410.609 86.4C410.609 85.7667 410.459 85.25 410.159 84.85C409.892 84.45 409.525 84.1167 409.059 83.85C408.592 83.55 408.059 83.3167 407.459 83.15C406.859 82.9833 406.242 82.8333 405.609 82.7C404.509 82.4667 403.459 82.2 402.459 81.9C401.459 81.6 400.575 81.2167 399.809 80.75C399.075 80.25 398.475 79.6167 398.009 78.85C397.575 78.0833 397.359 77.1 397.359 75.9C397.359 74.7667 397.609 73.7667 398.109 72.9C398.609 72.0333 399.275 71.3167 400.109 70.75C400.942 70.1833 401.875 69.75 402.909 69.45C403.942 69.15 405.009 69 406.109 69C407.775 69 409.309 69.3333 410.709 70C412.142 70.6667 413.259 71.75 414.059 73.25L410.809 75.4C410.309 74.5667 409.642 73.9 408.809 73.4C408.009 72.8667 407.025 72.6 405.859 72.6C405.325 72.6 404.775 72.6667 404.209 72.8C403.675 72.9333 403.192 73.1333 402.759 73.4C402.325 73.6667 401.959 74.0167 401.659 74.45C401.392 74.85 401.259 75.3167 401.259 75.85C401.259 76.35 401.409 76.7833 401.709 77.15C402.042 77.4833 402.475 77.7833 403.009 78.05C403.575 78.3167 404.209 78.55 404.909 78.75C405.642 78.95 406.392 79.1167 407.159 79.25C408.192 79.45 409.175 79.7167 410.109 80.05C411.042 80.35 411.859 80.7667 412.559 81.3C413.259 81.8333 413.809 82.5 414.209 83.3C414.609 84.1 414.809 85.0833 414.809 86.25C414.809 87.5833 414.542 88.7167 414.009 89.65C413.475 90.5833 412.759 91.35 411.859 91.95C410.992 92.5167 409.992 92.9333 408.859 93.2C407.759 93.4667 406.625 93.6 405.459 93.6C403.459 93.6 401.725 93.3 400.259 92.7C398.825 92.0667 397.525 90.9167 396.359 89.25L399.459 86.85ZM441.148 88.75C439.748 90.55 438.215 91.8167 436.548 92.55C434.881 93.25 432.948 93.6 430.748 93.6C428.915 93.6 427.265 93.2833 425.798 92.65C424.331 91.9833 423.081 91.1 422.048 90C421.048 88.9 420.265 87.6 419.698 86.1C419.165 84.6 418.898 83 418.898 81.3C418.898 79.5 419.198 77.85 419.798 76.35C420.398 74.8167 421.231 73.5167 422.298 72.45C423.365 71.35 424.631 70.5 426.098 69.9C427.565 69.3 429.165 69 430.898 69C432.531 69 434.031 69.2833 435.398 69.85C436.765 70.3833 437.931 71.1833 438.898 72.25C439.898 73.2833 440.665 74.5667 441.198 76.1C441.731 77.6 441.998 79.3167 441.998 81.25V82.5H423.098C423.165 83.5 423.398 84.4667 423.798 85.4C424.231 86.3 424.781 87.1 425.448 87.8C426.115 88.4667 426.898 89 427.798 89.4C428.698 89.8 429.681 90 430.748 90C432.448 90 433.881 89.7 435.048 89.1C436.215 88.5 437.265 87.6167 438.198 86.45L441.148 88.75ZM437.798 79.2C437.731 77.2 437.081 75.6 435.848 74.4C434.615 73.2 432.915 72.6 430.748 72.6C428.581 72.6 426.831 73.2 425.498 74.4C424.165 75.6 423.365 77.2 423.098 79.2H437.798ZM447.731 72.6C448.931 71.3667 450.348 70.4667 451.981 69.9C453.648 69.3 455.331 69 457.031 69C460.498 69 462.998 69.8167 464.531 71.45C466.064 73.0833 466.831 75.5667 466.831 78.9V88.95C466.831 89.6167 466.864 90.3167 466.931 91.05C466.998 91.75 467.081 92.4 467.181 93H463.431C463.298 92.4667 463.214 91.8833 463.181 91.25C463.181 90.5833 463.181 90 463.181 89.5H463.081C462.314 90.7 461.281 91.6833 459.981 92.45C458.714 93.2167 457.181 93.6 455.381 93.6C454.181 93.6 453.048 93.45 451.981 93.15C450.948 92.85 450.031 92.4167 449.231 91.85C448.464 91.25 447.848 90.5167 447.381 89.65C446.914 88.7833 446.681 87.7833 446.681 86.65C446.681 84.7167 447.181 83.2 448.181 82.1C449.181 81 450.414 80.1833 451.881 79.65C453.381 79.1167 454.981 78.7833 456.681 78.65C458.414 78.5167 459.998 78.45 461.431 78.45H462.931V77.75C462.931 76.05 462.414 74.7667 461.381 73.9C460.381 73.0333 458.964 72.6 457.131 72.6C455.864 72.6 454.614 72.8167 453.381 73.25C452.181 73.65 451.114 74.2833 450.181 75.15L447.731 72.6ZM459.031 81.75C456.531 81.75 454.548 82.1 453.081 82.8C451.614 83.5 450.881 84.65 450.881 86.25C450.881 87.7167 451.364 88.7667 452.331 89.4C453.331 90 454.564 90.3 456.031 90.3C457.164 90.3 458.148 90.1167 458.981 89.75C459.848 89.35 460.564 88.8333 461.131 88.2C461.698 87.5667 462.131 86.8333 462.431 86C462.731 85.1333 462.898 84.2167 462.931 83.25V81.75H459.031ZM473.959 75.15C473.959 74.0833 473.925 73.0833 473.859 72.15C473.792 71.2167 473.759 70.3667 473.759 69.6H477.459C477.459 70.2333 477.475 70.8667 477.509 71.5C477.542 72.1333 477.559 72.7833 477.559 73.45H477.659C477.925 72.8833 478.292 72.3333 478.759 71.8C479.259 71.2667 479.842 70.8 480.509 70.4C481.175 69.9667 481.925 69.6333 482.759 69.4C483.592 69.1333 484.492 69 485.459 69C485.725 69 485.992 69.0167 486.259 69.05C486.525 69.0833 486.792 69.15 487.059 69.25L486.809 73.2C486.142 73 485.442 72.9 484.709 72.9C482.309 72.9 480.559 73.6833 479.459 75.25C478.392 76.7833 477.859 78.9 477.859 81.6V93H473.959V75.15ZM507.308 75.45C506.475 74.45 505.575 73.7333 504.608 73.3C503.641 72.8333 502.575 72.6 501.408 72.6C500.108 72.6 498.958 72.8333 497.958 73.3C496.958 73.7333 496.125 74.35 495.458 75.15C494.825 75.95 494.341 76.8833 494.008 77.95C493.675 78.9833 493.508 80.1 493.508 81.3C493.508 82.5 493.691 83.6333 494.058 84.7C494.458 85.7333 494.991 86.65 495.658 87.45C496.358 88.25 497.191 88.8833 498.158 89.35C499.125 89.7833 500.208 90 501.408 90C503.975 90 505.958 89.0333 507.358 87.1L510.258 89.85C509.125 91.15 507.791 92.1 506.258 92.7C504.725 93.3 503.108 93.6 501.408 93.6C499.608 93.6 497.958 93.3 496.458 92.7C494.958 92.1 493.675 91.25 492.608 90.15C491.575 89.05 490.758 87.75 490.158 86.25C489.591 84.75 489.308 83.1 489.308 81.3C489.308 79.5333 489.591 77.9 490.158 76.4C490.758 74.9 491.591 73.6 492.658 72.5C493.725 71.4 494.991 70.55 496.458 69.95C497.958 69.3167 499.608 69 501.408 69C503.141 69 504.775 69.3 506.308 69.9C507.875 70.5 509.241 71.4333 510.408 72.7L507.308 75.45ZM514.779 55.2H518.679V72.85H518.779C519.046 72.3833 519.412 71.9333 519.879 71.5C520.346 71.0333 520.896 70.6167 521.529 70.25C522.196 69.8833 522.929 69.5833 523.729 69.35C524.529 69.1167 525.379 69 526.279 69C527.812 69 529.129 69.2333 530.229 69.7C531.362 70.1667 532.296 70.8167 533.029 71.65C533.762 72.4833 534.296 73.5 534.629 74.7C534.996 75.8667 535.179 77.15 535.179 78.55V93H531.279V78.95C531.279 76.9833 530.846 75.4333 529.979 74.3C529.112 73.1667 527.762 72.6 525.929 72.6C524.662 72.6 523.562 72.8167 522.629 73.25C521.729 73.6833 520.979 74.3 520.379 75.1C519.812 75.9 519.379 76.85 519.079 77.95C518.812 79.05 518.679 80.2667 518.679 81.6V93H514.779V55.2Z" fill="black"/>
<rect x="145" y="109" width="300" height="9" fill="#98BC61" fill-opacity="0.45"/>
<path d="M251.646 181.025L255.196 179.825L255.671 181.275L252.146 182.475L254.371 185.45L253.146 186.4L250.896 183.325L248.721 186.4L247.471 185.45L249.646 182.475L246.121 181.275L246.596 179.825L250.146 181.025V177.3H251.646V181.025ZM259.929 192.15C260.346 192.15 260.696 192.3 260.979 192.6C261.279 192.883 261.429 193.233 261.429 193.65C261.429 194.067 261.271 194.425 260.954 194.725C260.654 195.008 260.312 195.15 259.929 195.15C259.546 195.15 259.196 195.008 258.879 194.725C258.579 194.425 258.429 194.067 258.429 193.65C258.429 193.233 258.571 192.883 258.854 192.6C259.154 192.3 259.512 192.15 259.929 192.15ZM273.737 196.05C273.387 193.9 271.837 191.225 268.937 189.025C267.487 187.925 266.062 187.225 264.687 186.95V185.9C267.462 185.275 270.212 183.325 272.012 180.775C272.912 179.5 273.487 178.2 273.737 176.85H274.787C275.212 179.4 277.212 182.175 279.837 184.05C281.137 184.975 282.487 185.6 283.887 185.9V186.95C281.062 187.525 277.837 189.975 276.262 192.5C275.462 193.775 274.962 194.95 274.787 196.05H273.737ZM274.087 195.45H274.437C274.687 192.85 275.462 190.025 276.337 188.55C278.012 187.6 281.037 186.8 283.237 186.65V186.3C281.037 186.125 277.887 185.275 276.337 184.35C275.462 182.85 274.687 180.1 274.437 177.5H274.087C273.887 179.85 273.137 182.675 272.187 184.35C270.587 185.275 267.587 186.125 265.287 186.3V186.65C267.562 186.825 270.487 187.6 272.187 188.55C273.112 190.175 273.887 193.05 274.087 195.45ZM432.16 196.05C431.81 193.9 430.26 191.225 427.36 189.025C425.91 187.925 424.485 187.225 423.11 186.95V185.9C425.885 185.275 428.635 183.325 430.435 180.775C431.335 179.5 431.91 178.2 432.16 176.85H433.21C433.635 179.4 435.635 182.175 438.26 184.05C439.56 184.975 440.91 185.6 442.31 185.9V186.95C439.485 187.525 436.26 189.975 434.685 192.5C433.885 193.775 433.385 194.95 433.21 196.05H432.16ZM432.51 195.45H432.86C433.11 192.85 433.885 190.025 434.76 188.55C436.435 187.6 439.46 186.8 441.66 186.65V186.3C439.46 186.125 436.31 185.275 434.76 184.35C433.885 182.85 433.11 180.1 432.86 177.5H432.51C432.31 179.85 431.56 182.675 430.61 184.35C429.01 185.275 426.01 186.125 423.71 186.3V186.65C425.985 186.825 428.91 187.6 430.61 188.55C431.535 190.175 432.31 193.05 432.51 195.45ZM447.063 192.15C447.48 192.15 447.83 192.3 448.113 192.6C448.413 192.883 448.563 193.233 448.563 193.65C448.563 194.067 448.405 194.425 448.088 194.725C447.788 195.008 447.446 195.15 447.063 195.15C446.68 195.15 446.33 195.008 446.013 194.725C445.713 194.425 445.563 194.067 445.563 193.65C445.563 193.233 445.705 192.883 445.988 192.6C446.288 192.3 446.646 192.15 447.063 192.15ZM456.846 181.025L460.396 179.825L460.871 181.275L457.346 182.475L459.571 185.45L458.346 186.4L456.096 183.325L453.921 186.4L452.671 185.45L454.846 182.475L451.321 181.275L451.796 179.825L455.346 181.025V177.3H456.846V181.025Z" fill="black"/>
<path d="M293.998 177.3H300.798C301.381 177.3 301.998 177.367 302.648 177.5C303.298 177.633 303.94 177.85 304.573 178.15C305.223 178.433 305.84 178.808 306.423 179.275C307.023 179.742 307.548 180.308 307.998 180.975C308.448 181.625 308.806 182.383 309.073 183.25C309.34 184.1 309.473 185.067 309.473 186.15C309.473 187.233 309.34 188.208 309.073 189.075C308.806 189.925 308.448 190.683 307.998 191.35C307.548 192 307.023 192.558 306.423 193.025C305.84 193.492 305.223 193.875 304.573 194.175C303.94 194.458 303.298 194.667 302.648 194.8C301.998 194.933 301.381 195 300.798 195H293.998V177.3ZM296.098 193.05H300.098C301.115 193.05 302.056 192.917 302.923 192.65C303.79 192.383 304.54 191.975 305.173 191.425C305.806 190.858 306.306 190.142 306.673 189.275C307.04 188.408 307.223 187.367 307.223 186.15C307.223 184.933 307.04 183.892 306.673 183.025C306.306 182.158 305.806 181.45 305.173 180.9C304.54 180.333 303.79 179.917 302.923 179.65C302.056 179.383 301.115 179.25 300.098 179.25H296.098V193.05ZM312.853 177.3H314.953V195H312.853V177.3ZM327.747 180.425C327.397 179.858 326.931 179.45 326.347 179.2C325.764 178.933 325.156 178.8 324.522 178.8C324.056 178.8 323.597 178.858 323.147 178.975C322.697 179.092 322.289 179.267 321.922 179.5C321.572 179.733 321.289 180.042 321.072 180.425C320.856 180.808 320.747 181.258 320.747 181.775C320.747 182.175 320.806 182.533 320.922 182.85C321.056 183.15 321.264 183.425 321.547 183.675C321.831 183.925 322.214 184.158 322.697 184.375C323.181 184.592 323.772 184.808 324.472 185.025C325.156 185.242 325.814 185.475 326.447 185.725C327.097 185.975 327.664 186.292 328.147 186.675C328.647 187.058 329.039 187.542 329.322 188.125C329.622 188.692 329.772 189.408 329.772 190.275C329.772 191.158 329.597 191.925 329.247 192.575C328.897 193.225 328.431 193.767 327.847 194.2C327.281 194.617 326.622 194.925 325.872 195.125C325.122 195.342 324.347 195.45 323.547 195.45C323.031 195.45 322.514 195.4 321.997 195.3C321.481 195.217 320.981 195.083 320.497 194.9C320.031 194.7 319.589 194.45 319.172 194.15C318.756 193.833 318.397 193.45 318.097 193L319.897 191.525C320.281 192.175 320.814 192.667 321.497 193C322.181 193.333 322.906 193.5 323.672 193.5C324.122 193.5 324.572 193.433 325.022 193.3C325.489 193.167 325.906 192.975 326.272 192.725C326.639 192.458 326.939 192.133 327.172 191.75C327.406 191.367 327.522 190.925 327.522 190.425C327.522 189.875 327.431 189.433 327.247 189.1C327.064 188.75 326.781 188.45 326.397 188.2C326.014 187.95 325.531 187.725 324.947 187.525C324.364 187.325 323.681 187.092 322.897 186.825C322.264 186.625 321.681 186.4 321.147 186.15C320.614 185.883 320.147 185.567 319.747 185.2C319.364 184.817 319.056 184.367 318.822 183.85C318.606 183.317 318.497 182.683 318.497 181.95C318.497 181.1 318.664 180.358 318.997 179.725C319.331 179.092 319.781 178.567 320.347 178.15C320.914 177.717 321.556 177.392 322.272 177.175C322.989 176.958 323.739 176.85 324.522 176.85C325.522 176.85 326.431 177.008 327.247 177.325C328.081 177.625 328.822 178.158 329.472 178.925L327.747 180.425ZM345.639 180.95C345.106 180.233 344.447 179.7 343.664 179.35C342.881 178.983 342.064 178.8 341.214 178.8C340.231 178.8 339.322 179 338.489 179.4C337.672 179.8 336.964 180.342 336.364 181.025C335.764 181.692 335.297 182.475 334.964 183.375C334.631 184.258 334.464 185.183 334.464 186.15C334.464 187.183 334.631 188.15 334.964 189.05C335.297 189.933 335.756 190.708 336.339 191.375C336.939 192.025 337.647 192.542 338.464 192.925C339.297 193.308 340.214 193.5 341.214 193.5C342.297 193.5 343.264 193.292 344.114 192.875C344.964 192.442 345.706 191.825 346.339 191.025L347.914 192.35C347.114 193.417 346.147 194.2 345.014 194.7C343.897 195.2 342.631 195.45 341.214 195.45C339.947 195.45 338.764 195.217 337.664 194.75C336.564 194.283 335.606 193.642 334.789 192.825C333.989 191.992 333.356 191.008 332.889 189.875C332.439 188.742 332.214 187.5 332.214 186.15C332.214 184.85 332.431 183.633 332.864 182.5C333.314 181.367 333.939 180.383 334.739 179.55C335.539 178.717 336.489 178.058 337.589 177.575C338.689 177.092 339.897 176.85 341.214 176.85C342.414 176.85 343.564 177.067 344.664 177.5C345.781 177.933 346.714 178.642 347.464 179.625L345.639 180.95ZM359.067 195.45C357.717 195.45 356.475 195.217 355.342 194.75C354.225 194.283 353.25 193.642 352.417 192.825C351.6 191.992 350.958 191.008 350.492 189.875C350.042 188.725 349.817 187.483 349.817 186.15C349.817 184.817 350.042 183.583 350.492 182.45C350.958 181.3 351.6 180.317 352.417 179.5C353.25 178.667 354.225 178.017 355.342 177.55C356.475 177.083 357.717 176.85 359.067 176.85C360.417 176.85 361.65 177.083 362.767 177.55C363.9 178.017 364.875 178.667 365.692 179.5C366.525 180.317 367.167 181.3 367.617 182.45C368.083 183.583 368.317 184.817 368.317 186.15C368.317 187.483 368.083 188.725 367.617 189.875C367.167 191.008 366.525 191.992 365.692 192.825C364.875 193.642 363.9 194.283 362.767 194.75C361.65 195.217 360.417 195.45 359.067 195.45ZM359.067 193.5C360.1 193.5 361.042 193.308 361.892 192.925C362.758 192.542 363.5 192.017 364.117 191.35C364.733 190.683 365.208 189.908 365.542 189.025C365.892 188.125 366.067 187.167 366.067 186.15C366.067 185.133 365.892 184.183 365.542 183.3C365.208 182.4 364.733 181.617 364.117 180.95C363.5 180.283 362.758 179.758 361.892 179.375C361.042 178.992 360.1 178.8 359.067 178.8C358.033 178.8 357.083 178.992 356.217 179.375C355.367 179.758 354.633 180.283 354.017 180.95C353.4 181.617 352.917 182.4 352.567 183.3C352.233 184.183 352.067 185.133 352.067 186.15C352.067 187.167 352.233 188.125 352.567 189.025C352.917 189.908 353.4 190.683 354.017 191.35C354.633 192.017 355.367 192.542 356.217 192.925C357.083 193.308 358.033 193.5 359.067 193.5ZM369.266 177.3H371.641L377.091 191.85H377.141L382.766 177.3H384.991L378.066 195H376.041L369.266 177.3ZM386.974 177.3H398.099V179.25H389.074V184.8H397.499V186.75H389.074V193.05H398.549V195H386.974V177.3ZM401.794 177.3H406.319C407.169 177.3 408.01 177.35 408.844 177.45C409.694 177.55 410.452 177.767 411.119 178.1C411.785 178.433 412.327 178.925 412.744 179.575C413.16 180.208 413.369 181.075 413.369 182.175C413.369 183.475 412.977 184.525 412.194 185.325C411.41 186.125 410.327 186.633 408.944 186.85L413.969 195H411.394L406.594 187.05H403.894V195H401.794V177.3ZM403.894 185.1H405.769C406.352 185.1 406.952 185.083 407.569 185.05C408.202 185.017 408.777 184.908 409.294 184.725C409.827 184.542 410.26 184.258 410.594 183.875C410.944 183.475 411.119 182.908 411.119 182.175C411.119 181.542 410.994 181.033 410.744 180.65C410.494 180.267 410.16 179.975 409.744 179.775C409.344 179.558 408.885 179.417 408.369 179.35C407.869 179.283 407.36 179.25 406.844 179.25H403.894V185.1Z" fill="#FFAA52"/>
</svg>
