<svg width="705" height="204" viewBox="0 0 705 204" fill="none" xmlns="http://www.w3.org/2000/svg">
<path d="M30 0.5H658C674.292 0.5 687.5 13.7076 687.5 30V107C687.5 123.292 674.292 136.5 658 136.5H30C13.7076 136.5 0.5 123.292 0.5 107V30C0.5 13.7076 13.7076 0.5 30 0.5Z" stroke="#FFAA52"/>
<path d="M58 32.5H675C691.292 32.5 704.5 45.7076 704.5 62V127C704.5 143.292 691.292 156.5 675 156.5H58C41.7076 156.5 28.5 143.292 28.5 127V62C28.5 45.7076 41.7076 32.5 58 32.5Z" stroke="#98BC61"/>
<path d="M244.073 63.85C243.373 62.7167 242.44 61.9 241.273 61.4C240.106 60.8667 238.89 60.6 237.623 60.6C236.69 60.6 235.773 60.7167 234.873 60.95C233.973 61.1833 233.156 61.5333 232.423 62C231.723 62.4667 231.156 63.0833 230.723 63.85C230.29 64.6167 230.073 65.5167 230.073 66.55C230.073 67.35 230.19 68.0667 230.423 68.7C230.69 69.3 231.106 69.85 231.673 70.35C232.24 70.85 233.006 71.3167 233.973 71.75C234.94 72.1833 236.123 72.6167 237.523 73.05C238.89 73.4833 240.206 73.95 241.473 74.45C242.773 74.95 243.906 75.5833 244.873 76.35C245.873 77.1167 246.656 78.0833 247.223 79.25C247.823 80.3833 248.123 81.8167 248.123 83.55C248.123 85.3167 247.773 86.85 247.073 88.15C246.373 89.45 245.44 90.5333 244.273 91.4C243.14 92.2333 241.823 92.85 240.323 93.25C238.823 93.6833 237.273 93.9 235.673 93.9C234.64 93.9 233.606 93.8 232.573 93.6C231.54 93.4333 230.54 93.1667 229.573 92.8C228.64 92.4 227.756 91.9 226.923 91.3C226.09 90.6667 225.373 89.9 224.773 89L228.373 86.05C229.14 87.35 230.206 88.3333 231.573 89C232.94 89.6667 234.39 90 235.923 90C236.823 90 237.723 89.8667 238.623 89.6C239.556 89.3333 240.39 88.95 241.123 88.45C241.856 87.9167 242.456 87.2667 242.923 86.5C243.39 85.7333 243.623 84.85 243.623 83.85C243.623 82.75 243.44 81.8667 243.073 81.2C242.706 80.5 242.14 79.9 241.373 79.4C240.606 78.9 239.64 78.45 238.473 78.05C237.306 77.65 235.94 77.1833 234.373 76.65C233.106 76.25 231.94 75.8 230.873 75.3C229.806 74.7667 228.873 74.1333 228.073 73.4C227.306 72.6333 226.69 71.7333 226.223 70.7C225.79 69.6333 225.573 68.3667 225.573 66.9C225.573 65.2 225.906 63.7167 226.573 62.45C227.24 61.1833 228.14 60.1333 229.273 59.3C230.406 58.4333 231.69 57.7833 233.123 57.35C234.556 56.9167 236.056 56.7 237.623 56.7C239.623 56.7 241.44 57.0167 243.073 57.65C244.74 58.25 246.223 59.3167 247.523 60.85L244.073 63.85ZM267.156 72.9H260.256V84.6C260.256 85.3667 260.273 86.0833 260.306 86.75C260.34 87.3833 260.473 87.95 260.706 88.45C260.94 88.9167 261.29 89.3 261.756 89.6C262.223 89.8667 262.89 90 263.756 90C264.323 90 264.906 89.9333 265.506 89.8C266.106 89.6667 266.673 89.4667 267.206 89.2L267.356 92.75C266.69 93.05 265.94 93.2667 265.106 93.4C264.306 93.5333 263.54 93.6 262.806 93.6C261.406 93.6 260.29 93.4167 259.456 93.05C258.623 92.6833 257.973 92.1667 257.506 91.5C257.04 90.8333 256.723 90.0167 256.556 89.05C256.423 88.05 256.356 86.95 256.356 85.75V72.9H251.256V69.6H256.356V62.95H260.256V69.6H267.156V72.9ZM280.534 98.35C280.134 99.35 279.718 100.25 279.284 101.05C278.884 101.883 278.384 102.583 277.784 103.15C277.218 103.75 276.518 104.2 275.684 104.5C274.884 104.833 273.901 105 272.734 105C272.168 105 271.568 104.967 270.934 104.9C270.334 104.833 269.768 104.667 269.234 104.4L269.734 101C270.134 101.167 270.551 101.267 270.984 101.3C271.418 101.367 271.918 101.4 272.484 101.4C273.751 101.4 274.684 101.05 275.284 100.35C275.884 99.65 276.401 98.7167 276.834 97.55L278.434 93.15L268.734 69.6H273.284L280.534 87.95H280.634L287.584 69.6H291.834L280.534 98.35ZM296.405 55.2H300.305V93H296.405V55.2ZM328.967 88.75C327.567 90.55 326.034 91.8167 324.367 92.55C322.701 93.25 320.767 93.6 318.567 93.6C316.734 93.6 315.084 93.2833 313.617 92.65C312.151 91.9833 310.901 91.1 309.867 90C308.867 88.9 308.084 87.6 307.517 86.1C306.984 84.6 306.717 83 306.717 81.3C306.717 79.5 307.017 77.85 307.617 76.35C308.217 74.8167 309.051 73.5167 310.117 72.45C311.184 71.35 312.451 70.5 313.917 69.9C315.384 69.3 316.984 69 318.717 69C320.351 69 321.851 69.2833 323.217 69.85C324.584 70.3833 325.751 71.1833 326.717 72.25C327.717 73.2833 328.484 74.5667 329.017 76.1C329.551 77.6 329.817 79.3167 329.817 81.25V82.5H310.917C310.984 83.5 311.217 84.4667 311.617 85.4C312.051 86.3 312.601 87.1 313.267 87.8C313.934 88.4667 314.717 89 315.617 89.4C316.517 89.8 317.501 90 318.567 90C320.267 90 321.701 89.7 322.867 89.1C324.034 88.5 325.084 87.6167 326.017 86.45L328.967 88.75ZM325.617 79.2C325.551 77.2 324.901 75.6 323.667 74.4C322.434 73.2 320.734 72.6 318.567 72.6C316.401 72.6 314.651 73.2 313.317 74.4C311.984 75.6 311.184 77.2 310.917 79.2H325.617ZM380.566 90.6C378.533 91.7333 376.383 92.5667 374.116 93.1C371.883 93.6333 369.616 93.9 367.316 93.9C364.55 93.9 362.016 93.45 359.716 92.55C357.416 91.65 355.416 90.3833 353.716 88.75C352.05 87.1167 350.75 85.1667 349.816 82.9C348.883 80.6 348.416 78.0667 348.416 75.3C348.416 72.5 348.9 69.9667 349.866 67.7C350.866 65.4 352.233 63.45 353.966 61.85C355.7 60.2167 357.716 58.95 360.016 58.05C362.316 57.15 364.8 56.7 367.466 56.7C369.8 56.7 372.033 57.05 374.166 57.75C376.333 58.45 378.266 59.65 379.966 61.35L376.816 64.65C375.616 63.35 374.15 62.35 372.416 61.65C370.716 60.95 368.966 60.6 367.166 60.6C365.133 60.6 363.25 60.9667 361.516 61.7C359.783 62.4333 358.266 63.45 356.966 64.75C355.7 66.05 354.7 67.6 353.966 69.4C353.266 71.2 352.916 73.1667 352.916 75.3C352.916 77.4 353.266 79.35 353.966 81.15C354.7 82.95 355.7 84.5167 356.966 85.85C358.266 87.15 359.816 88.1667 361.616 88.9C363.416 89.6333 365.4 90 367.566 90C369 90 370.5 89.8333 372.066 89.5C373.633 89.1333 375.066 88.6167 376.366 87.95V77.1H368.216V73.2H380.566V90.6ZM409.082 87.45C409.082 88.5167 409.116 89.5167 409.182 90.45C409.249 91.3833 409.282 92.2333 409.282 93H405.582C405.582 92.3667 405.566 91.7333 405.532 91.1C405.499 90.4667 405.482 89.8167 405.482 89.15H405.382C405.116 89.7167 404.732 90.2667 404.232 90.8C403.766 91.3333 403.199 91.8167 402.532 92.25C401.866 92.65 401.116 92.9667 400.282 93.2C399.449 93.4667 398.549 93.6 397.582 93.6C396.049 93.6 394.716 93.3667 393.582 92.9C392.482 92.4333 391.566 91.7833 390.832 90.95C390.099 90.1167 389.549 89.1167 389.182 87.95C388.849 86.75 388.682 85.45 388.682 84.05V69.6H392.582V83.65C392.582 85.6167 393.016 87.1667 393.882 88.3C394.749 89.4333 396.099 90 397.932 90C399.199 90 400.282 89.7833 401.182 89.35C402.116 88.9167 402.866 88.3 403.432 87.5C404.032 86.7 404.466 85.75 404.732 84.65C405.032 83.55 405.182 82.3333 405.182 81V69.6H409.082V87.45ZM416.816 69.6H420.716V93H416.816V69.6ZM415.916 60.45C415.916 59.6833 416.182 59.0167 416.716 58.45C417.282 57.8833 417.966 57.6 418.766 57.6C419.566 57.6 420.232 57.8833 420.766 58.45C421.332 59.0167 421.616 59.6833 421.616 60.45C421.616 61.2833 421.349 61.9667 420.816 62.5C420.282 63.0333 419.599 63.3 418.766 63.3C417.932 63.3 417.249 63.0333 416.716 62.5C416.182 61.9667 415.916 61.2833 415.916 60.45ZM447.927 88.85H447.827C447.094 90.1833 445.927 91.3167 444.327 92.25C442.761 93.15 440.927 93.6 438.827 93.6C437.194 93.6 435.661 93.3 434.227 92.7C432.794 92.0667 431.544 91.2 430.477 90.1C429.444 89 428.627 87.7 428.027 86.2C427.427 84.7 427.127 83.0667 427.127 81.3C427.127 79.5333 427.427 77.9 428.027 76.4C428.627 74.9 429.461 73.6 430.527 72.5C431.594 71.4 432.877 70.55 434.377 69.95C435.911 69.3167 437.594 69 439.427 69C441.127 69 442.677 69.35 444.077 70.05C445.511 70.75 446.761 71.7333 447.827 73H447.927V55.2H451.827V93H447.927V88.85ZM447.927 81.3C447.927 80.0667 447.727 78.9333 447.327 77.9C446.961 76.8333 446.411 75.9167 445.677 75.15C444.944 74.35 444.061 73.7333 443.027 73.3C442.027 72.8333 440.894 72.6 439.627 72.6C438.361 72.6 437.211 72.8333 436.177 73.3C435.177 73.7333 434.311 74.35 433.577 75.15C432.844 75.9167 432.277 76.8333 431.877 77.9C431.511 78.9333 431.327 80.0667 431.327 81.3C431.327 82.5333 431.511 83.6833 431.877 84.75C432.277 85.7833 432.844 86.7 433.577 87.5C434.311 88.2667 435.177 88.8833 436.177 89.35C437.211 89.7833 438.361 90 439.627 90C440.894 90 442.027 89.7833 443.027 89.35C444.061 88.8833 444.944 88.2667 445.677 87.5C446.411 86.7 446.961 85.7833 447.327 84.75C447.727 83.6833 447.927 82.5333 447.927 81.3ZM479.944 88.75C478.544 90.55 477.01 91.8167 475.344 92.55C473.677 93.25 471.744 93.6 469.544 93.6C467.71 93.6 466.06 93.2833 464.594 92.65C463.127 91.9833 461.877 91.1 460.844 90C459.844 88.9 459.06 87.6 458.494 86.1C457.96 84.6 457.694 83 457.694 81.3C457.694 79.5 457.994 77.85 458.594 76.35C459.194 74.8167 460.027 73.5167 461.094 72.45C462.16 71.35 463.427 70.5 464.894 69.9C466.36 69.3 467.96 69 469.694 69C471.327 69 472.827 69.2833 474.194 69.85C475.56 70.3833 476.727 71.1833 477.694 72.25C478.694 73.2833 479.46 74.5667 479.994 76.1C480.527 77.6 480.794 79.3167 480.794 81.25V82.5H461.894C461.96 83.5 462.194 84.4667 462.594 85.4C463.027 86.3 463.577 87.1 464.244 87.8C464.91 88.4667 465.694 89 466.594 89.4C467.494 89.8 468.477 90 469.544 90C471.244 90 472.677 89.7 473.844 89.1C475.01 88.5 476.06 87.6167 476.994 86.45L479.944 88.75ZM476.594 79.2C476.527 77.2 475.877 75.6 474.644 74.4C473.41 73.2 471.71 72.6 469.544 72.6C467.377 72.6 465.627 73.2 464.294 74.4C462.96 75.6 462.16 77.2 461.894 79.2H476.594Z" fill="black"/>
<rect x="143" y="109" width="258" height="9" fill="#98BC61" fill-opacity="0.45"/>
<path d="M265.697 181.025L269.247 179.825L269.722 181.275L266.197 182.475L268.422 185.45L267.197 186.4L264.947 183.325L262.772 186.4L261.522 185.45L263.697 182.475L260.172 181.275L260.647 179.825L264.197 181.025V177.3H265.697V181.025ZM273.98 192.15C274.397 192.15 274.747 192.3 275.03 192.6C275.33 192.883 275.48 193.233 275.48 193.65C275.48 194.067 275.322 194.425 275.005 194.725C274.705 195.008 274.364 195.15 273.98 195.15C273.597 195.15 273.247 195.008 272.93 194.725C272.63 194.425 272.48 194.067 272.48 193.65C272.48 193.233 272.622 192.883 272.905 192.6C273.205 192.3 273.564 192.15 273.98 192.15ZM287.788 196.05C287.438 193.9 285.888 191.225 282.988 189.025C281.538 187.925 280.113 187.225 278.738 186.95V185.9C281.513 185.275 284.263 183.325 286.063 180.775C286.963 179.5 287.538 178.2 287.788 176.85H288.838C289.263 179.4 291.263 182.175 293.888 184.05C295.188 184.975 296.538 185.6 297.938 185.9V186.95C295.113 187.525 291.888 189.975 290.313 192.5C289.513 193.775 289.013 194.95 288.838 196.05H287.788ZM288.138 195.45H288.488C288.738 192.85 289.513 190.025 290.388 188.55C292.063 187.6 295.088 186.8 297.288 186.65V186.3C295.088 186.125 291.938 185.275 290.388 184.35C289.513 182.85 288.738 180.1 288.488 177.5H288.138C287.938 179.85 287.188 182.675 286.238 184.35C284.638 185.275 281.638 186.125 279.338 186.3V186.65C281.613 186.825 284.538 187.6 286.238 188.55C287.163 190.175 287.938 193.05 288.138 195.45ZM416.109 196.05C415.759 193.9 414.209 191.225 411.309 189.025C409.859 187.925 408.434 187.225 407.059 186.95V185.9C409.834 185.275 412.584 183.325 414.384 180.775C415.284 179.5 415.859 178.2 416.109 176.85H417.159C417.584 179.4 419.584 182.175 422.209 184.05C423.509 184.975 424.859 185.6 426.259 185.9V186.95C423.434 187.525 420.209 189.975 418.634 192.5C417.834 193.775 417.334 194.95 417.159 196.05H416.109ZM416.459 195.45H416.809C417.059 192.85 417.834 190.025 418.709 188.55C420.384 187.6 423.409 186.8 425.609 186.65V186.3C423.409 186.125 420.259 185.275 418.709 184.35C417.834 182.85 417.059 180.1 416.809 177.5H416.459C416.259 179.85 415.509 182.675 414.559 184.35C412.959 185.275 409.959 186.125 407.659 186.3V186.65C409.934 186.825 412.859 187.6 414.559 188.55C415.484 190.175 416.259 193.05 416.459 195.45ZM431.012 192.15C431.428 192.15 431.778 192.3 432.062 192.6C432.362 192.883 432.512 193.233 432.512 193.65C432.512 194.067 432.353 194.425 432.037 194.725C431.737 195.008 431.395 195.15 431.012 195.15C430.628 195.15 430.278 195.008 429.962 194.725C429.662 194.425 429.512 194.067 429.512 193.65C429.512 193.233 429.653 192.883 429.937 192.6C430.237 192.3 430.595 192.15 431.012 192.15ZM440.795 181.025L444.345 179.825L444.82 181.275L441.295 182.475L443.52 185.45L442.295 186.4L440.045 183.325L437.87 186.4L436.62 185.45L438.795 182.475L435.27 181.275L435.745 179.825L439.295 181.025V177.3H440.795V181.025Z" fill="black"/>
<path d="M308.049 177.3H314.849C315.433 177.3 316.049 177.367 316.699 177.5C317.349 177.633 317.991 177.85 318.624 178.15C319.274 178.433 319.891 178.808 320.474 179.275C321.074 179.742 321.599 180.308 322.049 180.975C322.499 181.625 322.858 182.383 323.124 183.25C323.391 184.1 323.524 185.067 323.524 186.15C323.524 187.233 323.391 188.208 323.124 189.075C322.858 189.925 322.499 190.683 322.049 191.35C321.599 192 321.074 192.558 320.474 193.025C319.891 193.492 319.274 193.875 318.624 194.175C317.991 194.458 317.349 194.667 316.699 194.8C316.049 194.933 315.433 195 314.849 195H308.049V177.3ZM310.149 193.05H314.149C315.166 193.05 316.108 192.917 316.974 192.65C317.841 192.383 318.591 191.975 319.224 191.425C319.858 190.858 320.358 190.142 320.724 189.275C321.091 188.408 321.274 187.367 321.274 186.15C321.274 184.933 321.091 183.892 320.724 183.025C320.358 182.158 319.858 181.45 319.224 180.9C318.591 180.333 317.841 179.917 316.974 179.65C316.108 179.383 315.166 179.25 314.149 179.25H310.149V193.05ZM326.905 177.3H338.03V179.25H329.005V184.8H337.43V186.75H329.005V193.05H338.48V195H326.905V177.3ZM350.124 180.425C349.774 179.858 349.307 179.45 348.724 179.2C348.141 178.933 347.532 178.8 346.899 178.8C346.432 178.8 345.974 178.858 345.524 178.975C345.074 179.092 344.666 179.267 344.299 179.5C343.949 179.733 343.666 180.042 343.449 180.425C343.232 180.808 343.124 181.258 343.124 181.775C343.124 182.175 343.182 182.533 343.299 182.85C343.432 183.15 343.641 183.425 343.924 183.675C344.207 183.925 344.591 184.158 345.074 184.375C345.557 184.592 346.149 184.808 346.849 185.025C347.532 185.242 348.191 185.475 348.824 185.725C349.474 185.975 350.041 186.292 350.524 186.675C351.024 187.058 351.416 187.542 351.699 188.125C351.999 188.692 352.149 189.408 352.149 190.275C352.149 191.158 351.974 191.925 351.624 192.575C351.274 193.225 350.807 193.767 350.224 194.2C349.657 194.617 348.999 194.925 348.249 195.125C347.499 195.342 346.724 195.45 345.924 195.45C345.407 195.45 344.891 195.4 344.374 195.3C343.857 195.217 343.357 195.083 342.874 194.9C342.407 194.7 341.966 194.45 341.549 194.15C341.132 193.833 340.774 193.45 340.474 193L342.274 191.525C342.657 192.175 343.191 192.667 343.874 193C344.557 193.333 345.282 193.5 346.049 193.5C346.499 193.5 346.949 193.433 347.399 193.3C347.866 193.167 348.282 192.975 348.649 192.725C349.016 192.458 349.316 192.133 349.549 191.75C349.782 191.367 349.899 190.925 349.899 190.425C349.899 189.875 349.807 189.433 349.624 189.1C349.441 188.75 349.157 188.45 348.774 188.2C348.391 187.95 347.907 187.725 347.324 187.525C346.741 187.325 346.057 187.092 345.274 186.825C344.641 186.625 344.057 186.4 343.524 186.15C342.991 185.883 342.524 185.567 342.124 185.2C341.741 184.817 341.432 184.367 341.199 183.85C340.982 183.317 340.874 182.683 340.874 181.95C340.874 181.1 341.041 180.358 341.374 179.725C341.707 179.092 342.157 178.567 342.724 178.15C343.291 177.717 343.932 177.392 344.649 177.175C345.366 176.958 346.116 176.85 346.899 176.85C347.899 176.85 348.807 177.008 349.624 177.325C350.457 177.625 351.199 178.158 351.849 178.925L350.124 180.425ZM355.616 177.3H357.716V195H355.616V177.3ZM377.16 193.8C376.143 194.367 375.068 194.783 373.935 195.05C372.818 195.317 371.685 195.45 370.535 195.45C369.151 195.45 367.885 195.225 366.735 194.775C365.585 194.325 364.585 193.692 363.735 192.875C362.901 192.058 362.251 191.083 361.785 189.95C361.318 188.8 361.085 187.533 361.085 186.15C361.085 184.75 361.326 183.483 361.81 182.35C362.31 181.2 362.993 180.225 363.86 179.425C364.726 178.608 365.735 177.975 366.885 177.525C368.035 177.075 369.276 176.85 370.61 176.85C371.776 176.85 372.893 177.025 373.96 177.375C375.043 177.725 376.01 178.325 376.86 179.175L375.285 180.825C374.685 180.175 373.951 179.675 373.085 179.325C372.235 178.975 371.36 178.8 370.46 178.8C369.443 178.8 368.501 178.983 367.635 179.35C366.768 179.717 366.01 180.225 365.36 180.875C364.726 181.525 364.226 182.3 363.86 183.2C363.51 184.1 363.335 185.083 363.335 186.15C363.335 187.2 363.51 188.175 363.86 189.075C364.226 189.975 364.726 190.758 365.36 191.425C366.01 192.075 366.785 192.583 367.685 192.95C368.585 193.317 369.576 193.5 370.66 193.5C371.376 193.5 372.126 193.417 372.91 193.25C373.693 193.067 374.41 192.808 375.06 192.475V187.05H370.985V185.1H377.16V193.8ZM381.568 177.3H384.218L394.468 192H394.518V177.3H396.618V195H393.968L383.718 180.3H383.668V195H381.568V177.3Z" fill="#FFAA52"/>
</svg>
