<svg width="705" height="204" viewBox="0 0 705 204" fill="none" xmlns="http://www.w3.org/2000/svg">
<path d="M120.818 61.5H109.118V93H104.918V61.5H93.218V57.6H120.818V61.5ZM119.213 72.6C120.413 71.3667 121.829 70.4667 123.463 69.9C125.129 69.3 126.813 69 128.513 69C131.979 69 134.479 69.8167 136.013 71.45C137.546 73.0833 138.313 75.5667 138.313 78.9V88.95C138.313 89.6167 138.346 90.3167 138.413 91.05C138.479 91.75 138.563 92.4 138.663 93H134.913C134.779 92.4667 134.696 91.8833 134.663 91.25C134.663 90.5833 134.663 90 134.663 89.5H134.563C133.796 90.7 132.763 91.6833 131.463 92.45C130.196 93.2167 128.663 93.6 126.863 93.6C125.663 93.6 124.529 93.45 123.463 93.15C122.429 92.85 121.513 92.4167 120.713 91.85C119.946 91.25 119.329 90.5167 118.863 89.65C118.396 88.7833 118.163 87.7833 118.163 86.65C118.163 84.7167 118.663 83.2 119.663 82.1C120.663 81 121.896 80.1833 123.363 79.65C124.863 79.1167 126.463 78.7833 128.163 78.65C129.896 78.5167 131.479 78.45 132.913 78.45H134.413V77.75C134.413 76.05 133.896 74.7667 132.863 73.9C131.863 73.0333 130.446 72.6 128.613 72.6C127.346 72.6 126.096 72.8167 124.863 73.25C123.663 73.65 122.596 74.2833 121.663 75.15L119.213 72.6ZM130.512 81.75C128.013 81.75 126.029 82.1 124.563 82.8C123.096 83.5 122.363 84.65 122.363 86.25C122.363 87.7167 122.846 88.7667 123.813 89.4C124.813 90 126.046 90.3 127.513 90.3C128.646 90.3 129.629 90.1167 130.463 89.75C131.329 89.35 132.046 88.8333 132.613 88.2C133.179 87.5667 133.613 86.8333 133.913 86C134.213 85.1333 134.379 84.2167 134.413 83.25V81.75H130.512ZM145.94 86.85C146.707 87.8167 147.54 88.5833 148.44 89.15C149.374 89.7167 150.54 90 151.94 90C152.54 90 153.14 89.9333 153.74 89.8C154.374 89.6667 154.94 89.45 155.44 89.15C155.94 88.85 156.34 88.4833 156.64 88.05C156.94 87.5833 157.09 87.0333 157.09 86.4C157.09 85.7667 156.94 85.25 156.64 84.85C156.374 84.45 156.007 84.1167 155.54 83.85C155.074 83.55 154.54 83.3167 153.94 83.15C153.34 82.9833 152.724 82.8333 152.09 82.7C150.99 82.4667 149.94 82.2 148.94 81.9C147.94 81.6 147.057 81.2167 146.29 80.75C145.557 80.25 144.957 79.6167 144.49 78.85C144.057 78.0833 143.84 77.1 143.84 75.9C143.84 74.7667 144.09 73.7667 144.59 72.9C145.09 72.0333 145.757 71.3167 146.59 70.75C147.424 70.1833 148.357 69.75 149.39 69.45C150.424 69.15 151.49 69 152.59 69C154.257 69 155.79 69.3333 157.19 70C158.624 70.6667 159.74 71.75 160.54 73.25L157.29 75.4C156.79 74.5667 156.124 73.9 155.29 73.4C154.49 72.8667 153.507 72.6 152.34 72.6C151.807 72.6 151.257 72.6667 150.69 72.8C150.157 72.9333 149.674 73.1333 149.24 73.4C148.807 73.6667 148.44 74.0167 148.14 74.45C147.874 74.85 147.74 75.3167 147.74 75.85C147.74 76.35 147.89 76.7833 148.19 77.15C148.524 77.4833 148.957 77.7833 149.49 78.05C150.057 78.3167 150.69 78.55 151.39 78.75C152.124 78.95 152.874 79.1167 153.64 79.25C154.674 79.45 155.657 79.7167 156.59 80.05C157.524 80.35 158.34 80.7667 159.04 81.3C159.74 81.8333 160.29 82.5 160.69 83.3C161.09 84.1 161.29 85.0833 161.29 86.25C161.29 87.5833 161.024 88.7167 160.49 89.65C159.957 90.5833 159.24 91.35 158.34 91.95C157.474 92.5167 156.474 92.9333 155.34 93.2C154.24 93.4667 153.107 93.6 151.94 93.6C149.94 93.6 148.207 93.3 146.74 92.7C145.307 92.0667 144.007 90.9167 142.84 89.25L145.94 86.85ZM166.729 55.2H170.629V79.9L181.279 69.6H186.829L175.529 80.25L187.979 93H182.229L170.629 80.7V93H166.729V55.2ZM217.845 57.6H221.795L236.845 93H231.945L228.345 84.3H210.645L206.995 93H202.245L217.845 57.6ZM219.745 63H219.645L212.295 80.4H226.745L219.745 63ZM240.85 75.15C240.85 74.0833 240.817 73.0833 240.75 72.15C240.684 71.2167 240.65 70.3667 240.65 69.6H244.35C244.35 70.2333 244.367 70.8667 244.4 71.5C244.434 72.1333 244.45 72.7833 244.45 73.45H244.55C244.817 72.8833 245.184 72.3333 245.65 71.8C246.15 71.2667 246.734 70.8 247.4 70.4C248.067 69.9667 248.817 69.6333 249.65 69.4C250.484 69.1333 251.384 69 252.35 69C253.884 69 255.2 69.2333 256.3 69.7C257.434 70.1667 258.367 70.8167 259.1 71.65C259.834 72.4833 260.367 73.5 260.7 74.7C261.067 75.8667 261.25 77.15 261.25 78.55V93H257.35V78.95C257.35 76.9833 256.917 75.4333 256.05 74.3C255.184 73.1667 253.834 72.6 252 72.6C250.734 72.6 249.634 72.8167 248.7 73.25C247.8 73.6833 247.05 74.3 246.45 75.1C245.884 75.9 245.45 76.85 245.15 77.95C244.884 79.05 244.75 80.2667 244.75 81.6V93H240.85V75.15ZM268.334 72.6C269.534 71.3667 270.95 70.4667 272.584 69.9C274.25 69.3 275.934 69 277.634 69C281.1 69 283.6 69.8167 285.134 71.45C286.667 73.0833 287.434 75.5667 287.434 78.9V88.95C287.434 89.6167 287.467 90.3167 287.534 91.05C287.6 91.75 287.684 92.4 287.784 93H284.034C283.9 92.4667 283.817 91.8833 283.784 91.25C283.784 90.5833 283.784 90 283.784 89.5H283.684C282.917 90.7 281.884 91.6833 280.584 92.45C279.317 93.2167 277.784 93.6 275.984 93.6C274.784 93.6 273.65 93.45 272.584 93.15C271.55 92.85 270.634 92.4167 269.834 91.85C269.067 91.25 268.45 90.5167 267.984 89.65C267.517 88.7833 267.284 87.7833 267.284 86.65C267.284 84.7167 267.784 83.2 268.784 82.1C269.784 81 271.017 80.1833 272.484 79.65C273.984 79.1167 275.584 78.7833 277.284 78.65C279.017 78.5167 280.6 78.45 282.034 78.45H283.534V77.75C283.534 76.05 283.017 74.7667 281.984 73.9C280.984 73.0333 279.567 72.6 277.734 72.6C276.467 72.6 275.217 72.8167 273.984 73.25C272.784 73.65 271.717 74.2833 270.784 75.15L268.334 72.6ZM279.634 81.75C277.134 81.75 275.15 82.1 273.684 82.8C272.217 83.5 271.484 84.65 271.484 86.25C271.484 87.7167 271.967 88.7667 272.934 89.4C273.934 90 275.167 90.3 276.634 90.3C277.767 90.3 278.75 90.1167 279.584 89.75C280.45 89.35 281.167 88.8333 281.734 88.2C282.3 87.5667 282.734 86.8333 283.034 86C283.334 85.1333 283.5 84.2167 283.534 83.25V81.75H279.634ZM294.911 55.2H298.811V93H294.911V55.2ZM315.173 98.35C314.773 99.35 314.356 100.25 313.923 101.05C313.523 101.883 313.023 102.583 312.423 103.15C311.856 103.75 311.156 104.2 310.323 104.5C309.523 104.833 308.54 105 307.373 105C306.806 105 306.206 104.967 305.573 104.9C304.973 104.833 304.406 104.667 303.873 104.4L304.373 101C304.773 101.167 305.19 101.267 305.623 101.3C306.056 101.367 306.556 101.4 307.123 101.4C308.39 101.4 309.323 101.05 309.923 100.35C310.523 99.65 311.04 98.7167 311.473 97.55L313.073 93.15L303.373 69.6H307.923L315.173 87.95H315.273L322.223 69.6H326.473L315.173 98.35ZM331.194 86.85C331.961 87.8167 332.794 88.5833 333.694 89.15C334.627 89.7167 335.794 90 337.194 90C337.794 90 338.394 89.9333 338.994 89.8C339.627 89.6667 340.194 89.45 340.694 89.15C341.194 88.85 341.594 88.4833 341.894 88.05C342.194 87.5833 342.344 87.0333 342.344 86.4C342.344 85.7667 342.194 85.25 341.894 84.85C341.627 84.45 341.261 84.1167 340.794 83.85C340.327 83.55 339.794 83.3167 339.194 83.15C338.594 82.9833 337.977 82.8333 337.344 82.7C336.244 82.4667 335.194 82.2 334.194 81.9C333.194 81.6 332.311 81.2167 331.544 80.75C330.811 80.25 330.211 79.6167 329.744 78.85C329.311 78.0833 329.094 77.1 329.094 75.9C329.094 74.7667 329.344 73.7667 329.844 72.9C330.344 72.0333 331.011 71.3167 331.844 70.75C332.677 70.1833 333.611 69.75 334.644 69.45C335.677 69.15 336.744 69 337.844 69C339.511 69 341.044 69.3333 342.444 70C343.877 70.6667 344.994 71.75 345.794 73.25L342.544 75.4C342.044 74.5667 341.377 73.9 340.544 73.4C339.744 72.8667 338.761 72.6 337.594 72.6C337.061 72.6 336.511 72.6667 335.944 72.8C335.411 72.9333 334.927 73.1333 334.494 73.4C334.061 73.6667 333.694 74.0167 333.394 74.45C333.127 74.85 332.994 75.3167 332.994 75.85C332.994 76.35 333.144 76.7833 333.444 77.15C333.777 77.4833 334.211 77.7833 334.744 78.05C335.311 78.3167 335.944 78.55 336.644 78.75C337.377 78.95 338.127 79.1167 338.894 79.25C339.927 79.45 340.911 79.7167 341.844 80.05C342.777 80.35 343.594 80.7667 344.294 81.3C344.994 81.8333 345.544 82.5 345.944 83.3C346.344 84.1 346.544 85.0833 346.544 86.25C346.544 87.5833 346.277 88.7167 345.744 89.65C345.211 90.5833 344.494 91.35 343.594 91.95C342.727 92.5167 341.727 92.9333 340.594 93.2C339.494 93.4667 338.361 93.6 337.194 93.6C335.194 93.6 333.461 93.3 331.994 92.7C330.561 92.0667 329.261 90.9167 328.094 89.25L331.194 86.85ZM352.333 69.6H356.233V93H352.333V69.6ZM351.433 60.45C351.433 59.6833 351.7 59.0167 352.233 58.45C352.8 57.8833 353.483 57.6 354.283 57.6C355.083 57.6 355.75 57.8833 356.283 58.45C356.85 59.0167 357.133 59.6833 357.133 60.45C357.133 61.2833 356.867 61.9667 356.333 62.5C355.8 63.0333 355.117 63.3 354.283 63.3C353.45 63.3 352.767 63.0333 352.233 62.5C351.7 61.9667 351.433 61.2833 351.433 60.45ZM364.495 86.85C365.262 87.8167 366.095 88.5833 366.995 89.15C367.928 89.7167 369.095 90 370.495 90C371.095 90 371.695 89.9333 372.295 89.8C372.928 89.6667 373.495 89.45 373.995 89.15C374.495 88.85 374.895 88.4833 375.195 88.05C375.495 87.5833 375.645 87.0333 375.645 86.4C375.645 85.7667 375.495 85.25 375.195 84.85C374.928 84.45 374.562 84.1167 374.095 83.85C373.628 83.55 373.095 83.3167 372.495 83.15C371.895 82.9833 371.278 82.8333 370.645 82.7C369.545 82.4667 368.495 82.2 367.495 81.9C366.495 81.6 365.612 81.2167 364.845 80.75C364.112 80.25 363.512 79.6167 363.045 78.85C362.612 78.0833 362.395 77.1 362.395 75.9C362.395 74.7667 362.645 73.7667 363.145 72.9C363.645 72.0333 364.312 71.3167 365.145 70.75C365.978 70.1833 366.912 69.75 367.945 69.45C368.978 69.15 370.045 69 371.145 69C372.812 69 374.345 69.3333 375.745 70C377.178 70.6667 378.295 71.75 379.095 73.25L375.845 75.4C375.345 74.5667 374.678 73.9 373.845 73.4C373.045 72.8667 372.062 72.6 370.895 72.6C370.362 72.6 369.812 72.6667 369.245 72.8C368.712 72.9333 368.228 73.1333 367.795 73.4C367.362 73.6667 366.995 74.0167 366.695 74.45C366.428 74.85 366.295 75.3167 366.295 75.85C366.295 76.35 366.445 76.7833 366.745 77.15C367.078 77.4833 367.512 77.7833 368.045 78.05C368.612 78.3167 369.245 78.55 369.945 78.75C370.678 78.95 371.428 79.1167 372.195 79.25C373.228 79.45 374.212 79.7167 375.145 80.05C376.078 80.35 376.895 80.7667 377.595 81.3C378.295 81.8333 378.845 82.5 379.245 83.3C379.645 84.1 379.845 85.0833 379.845 86.25C379.845 87.5833 379.578 88.7167 379.045 89.65C378.512 90.5833 377.795 91.35 376.895 91.95C376.028 92.5167 375.028 92.9333 373.895 93.2C372.795 93.4667 371.662 93.6 370.495 93.6C368.495 93.6 366.762 93.3 365.295 92.7C363.862 92.0667 362.562 90.9167 361.395 89.25L364.495 86.85ZM420.35 87.9C418.917 89.7 417.383 91.1 415.75 92.1C414.117 93.1 412.117 93.6 409.75 93.6C408.25 93.6 406.817 93.3833 405.45 92.95C404.083 92.4833 402.883 91.8167 401.85 90.95C400.85 90.0833 400.033 89.0333 399.4 87.8C398.8 86.5333 398.5 85.1 398.5 83.5C398.5 82.2667 398.7 81.1333 399.1 80.1C399.533 79.0333 400.1 78.0833 400.8 77.25C401.533 76.3833 402.367 75.6333 403.3 75C404.267 74.3333 405.283 73.75 406.35 73.25C405.183 72.0833 404.183 70.85 403.35 69.55C402.517 68.25 402.1 66.75 402.1 65.05C402.1 63.75 402.35 62.6 402.85 61.6C403.35 60.5667 404.017 59.7167 404.85 59.05C405.683 58.35 406.65 57.8333 407.75 57.5C408.85 57.1333 410.017 56.95 411.25 56.95C412.45 56.95 413.583 57.1167 414.65 57.45C415.717 57.7833 416.65 58.2833 417.45 58.95C418.283 59.5833 418.933 60.4 419.4 61.4C419.867 62.3667 420.1 63.5 420.1 64.8C420.1 65.9 419.867 66.9167 419.4 67.85C418.967 68.75 418.383 69.5667 417.65 70.3C416.95 71 416.15 71.65 415.25 72.25C414.383 72.8167 413.5 73.3333 412.6 73.8L420.1 81.75L424.85 73.8H429.6L422.8 84.7L430.9 93H425.15L420.35 87.9ZM410 71.25C410.667 70.8833 411.35 70.5 412.05 70.1C412.75 69.7 413.383 69.25 413.95 68.75C414.517 68.25 414.983 67.6667 415.35 67C415.717 66.3333 415.9 65.5667 415.9 64.7C415.9 63.4 415.45 62.3833 414.55 61.65C413.683 60.9167 412.633 60.55 411.4 60.55C410 60.55 408.8 60.9833 407.8 61.85C406.8 62.6833 406.3 63.8333 406.3 65.3C406.3 66.2667 406.55 67.1333 407.05 67.9C407.583 68.6333 408.15 69.3167 408.75 69.95L410 71.25ZM408.95 75.8C408.183 76.2 407.433 76.65 406.7 77.15C405.967 77.6167 405.3 78.15 404.7 78.75C404.1 79.35 403.617 80.0333 403.25 80.8C402.883 81.5667 402.7 82.4167 402.7 83.35C402.7 84.3167 402.883 85.2 403.25 86C403.617 86.8 404.117 87.5 404.75 88.1C405.383 88.7 406.117 89.1667 406.95 89.5C407.783 89.8333 408.667 90 409.6 90C410.5 90 411.333 89.8667 412.1 89.6C412.867 89.3333 413.567 88.9833 414.2 88.55C414.867 88.0833 415.483 87.5667 416.05 87C416.65 86.4 417.233 85.7667 417.8 85.1L408.95 75.8ZM449.9 57.6H471.85V61.5H454.1V73.2H470.6V77.1H454.1V93H449.9V57.6ZM477.333 55.2H481.233V93H477.333V55.2ZM487.645 81.3C487.645 79.4667 487.962 77.8 488.595 76.3C489.228 74.8 490.095 73.5167 491.195 72.45C492.295 71.35 493.612 70.5 495.145 69.9C496.678 69.3 498.345 69 500.145 69C501.945 69 503.612 69.3 505.145 69.9C506.678 70.5 507.995 71.35 509.095 72.45C510.195 73.5167 511.062 74.8 511.695 76.3C512.328 77.8 512.645 79.4667 512.645 81.3C512.645 83.1333 512.328 84.8 511.695 86.3C511.062 87.8 510.195 89.1 509.095 90.2C507.995 91.2667 506.678 92.1 505.145 92.7C503.612 93.3 501.945 93.6 500.145 93.6C498.345 93.6 496.678 93.3 495.145 92.7C493.612 92.1 492.295 91.2667 491.195 90.2C490.095 89.1 489.228 87.8 488.595 86.3C487.962 84.8 487.645 83.1333 487.645 81.3ZM491.845 81.3C491.845 82.5333 492.028 83.6833 492.395 84.75C492.795 85.7833 493.362 86.7 494.095 87.5C494.828 88.2667 495.695 88.8833 496.695 89.35C497.728 89.7833 498.878 90 500.145 90C501.412 90 502.545 89.7833 503.545 89.35C504.578 88.8833 505.462 88.2667 506.195 87.5C506.928 86.7 507.478 85.7833 507.845 84.75C508.245 83.6833 508.445 82.5333 508.445 81.3C508.445 80.0667 508.245 78.9333 507.845 77.9C507.478 76.8333 506.928 75.9167 506.195 75.15C505.462 74.35 504.578 73.7333 503.545 73.3C502.545 72.8333 501.412 72.6 500.145 72.6C498.878 72.6 497.728 72.8333 496.695 73.3C495.695 73.7333 494.828 74.35 494.095 75.15C493.362 75.9167 492.795 76.8333 492.395 77.9C492.028 78.9333 491.845 80.0667 491.845 81.3ZM543.782 93H539.932L533.282 75H533.182L527.282 93H523.282L515.682 69.6H519.982L525.332 87.6H525.432L531.482 69.6H535.582L541.732 87.6H541.832L547.132 69.6H551.332L543.782 93ZM556.243 86.85C557.01 87.8167 557.843 88.5833 558.743 89.15C559.676 89.7167 560.843 90 562.243 90C562.843 90 563.443 89.9333 564.043 89.8C564.676 89.6667 565.243 89.45 565.743 89.15C566.243 88.85 566.643 88.4833 566.943 88.05C567.243 87.5833 567.393 87.0333 567.393 86.4C567.393 85.7667 567.243 85.25 566.943 84.85C566.676 84.45 566.31 84.1167 565.843 83.85C565.376 83.55 564.843 83.3167 564.243 83.15C563.643 82.9833 563.026 82.8333 562.393 82.7C561.293 82.4667 560.243 82.2 559.243 81.9C558.243 81.6 557.36 81.2167 556.593 80.75C555.86 80.25 555.26 79.6167 554.793 78.85C554.36 78.0833 554.143 77.1 554.143 75.9C554.143 74.7667 554.393 73.7667 554.893 72.9C555.393 72.0333 556.06 71.3167 556.893 70.75C557.726 70.1833 558.66 69.75 559.693 69.45C560.726 69.15 561.793 69 562.893 69C564.56 69 566.093 69.3333 567.493 70C568.926 70.6667 570.043 71.75 570.843 73.25L567.593 75.4C567.093 74.5667 566.426 73.9 565.593 73.4C564.793 72.8667 563.81 72.6 562.643 72.6C562.11 72.6 561.56 72.6667 560.993 72.8C560.46 72.9333 559.976 73.1333 559.543 73.4C559.11 73.6667 558.743 74.0167 558.443 74.45C558.176 74.85 558.043 75.3167 558.043 75.85C558.043 76.35 558.193 76.7833 558.493 77.15C558.826 77.4833 559.26 77.7833 559.793 78.05C560.36 78.3167 560.993 78.55 561.693 78.75C562.426 78.95 563.176 79.1167 563.943 79.25C564.976 79.45 565.96 79.7167 566.893 80.05C567.826 80.35 568.643 80.7667 569.343 81.3C570.043 81.8333 570.593 82.5 570.993 83.3C571.393 84.1 571.593 85.0833 571.593 86.25C571.593 87.5833 571.326 88.7167 570.793 89.65C570.26 90.5833 569.543 91.35 568.643 91.95C567.776 92.5167 566.776 92.9333 565.643 93.2C564.543 93.4667 563.41 93.6 562.243 93.6C560.243 93.6 558.51 93.3 557.043 92.7C555.61 92.0667 554.31 90.9167 553.143 89.25L556.243 86.85Z" fill="black"/>
<rect x="60" y="112" width="300" height="9" fill="#98BC61" fill-opacity="0.45"/>
<path d="M30 0.5H658C674.292 0.5 687.5 13.7076 687.5 30V107C687.5 123.292 674.292 136.5 658 136.5H30C13.7076 136.5 0.5 123.292 0.5 107V30C0.5 13.7076 13.7076 0.5 30 0.5Z" stroke="#FFAA52"/>
<path d="M58 32.5H675C691.292 32.5 704.5 45.7076 704.5 62V127C704.5 143.292 691.292 156.5 675 156.5H58C41.7076 156.5 28.5 143.292 28.5 127V62C28.5 45.7076 41.7076 32.5 58 32.5Z" stroke="#98BC61"/>
<path d="M269.36 181.025L272.91 179.825L273.385 181.275L269.86 182.475L272.085 185.45L270.86 186.4L268.61 183.325L266.435 186.4L265.185 185.45L267.36 182.475L263.835 181.275L264.31 179.825L267.86 181.025V177.3H269.36V181.025ZM277.643 192.15C278.06 192.15 278.41 192.3 278.693 192.6C278.993 192.883 279.143 193.233 279.143 193.65C279.143 194.067 278.985 194.425 278.668 194.725C278.368 195.008 278.026 195.15 277.643 195.15C277.26 195.15 276.91 195.008 276.593 194.725C276.293 194.425 276.143 194.067 276.143 193.65C276.143 193.233 276.285 192.883 276.568 192.6C276.868 192.3 277.226 192.15 277.643 192.15ZM291.451 196.05C291.101 193.9 289.551 191.225 286.651 189.025C285.201 187.925 283.776 187.225 282.401 186.95V185.9C285.176 185.275 287.926 183.325 289.726 180.775C290.626 179.5 291.201 178.2 291.451 176.85H292.501C292.926 179.4 294.926 182.175 297.551 184.05C298.851 184.975 300.201 185.6 301.601 185.9V186.95C298.776 187.525 295.551 189.975 293.976 192.5C293.176 193.775 292.676 194.95 292.501 196.05H291.451ZM291.801 195.45H292.151C292.401 192.85 293.176 190.025 294.051 188.55C295.726 187.6 298.751 186.8 300.951 186.65V186.3C298.751 186.125 295.601 185.275 294.051 184.35C293.176 182.85 292.401 180.1 292.151 177.5H291.801C291.601 179.85 290.851 182.675 289.901 184.35C288.301 185.275 285.301 186.125 283.001 186.3V186.65C285.276 186.825 288.201 187.6 289.901 188.55C290.826 190.175 291.601 193.05 291.801 195.45ZM411.446 196.05C411.096 193.9 409.546 191.225 406.646 189.025C405.196 187.925 403.771 187.225 402.396 186.95V185.9C405.171 185.275 407.921 183.325 409.721 180.775C410.621 179.5 411.196 178.2 411.446 176.85H412.496C412.921 179.4 414.921 182.175 417.546 184.05C418.846 184.975 420.196 185.6 421.596 185.9V186.95C418.771 187.525 415.546 189.975 413.971 192.5C413.171 193.775 412.671 194.95 412.496 196.05H411.446ZM411.796 195.45H412.146C412.396 192.85 413.171 190.025 414.046 188.55C415.721 187.6 418.746 186.8 420.946 186.65V186.3C418.746 186.125 415.596 185.275 414.046 184.35C413.171 182.85 412.396 180.1 412.146 177.5H411.796C411.596 179.85 410.846 182.675 409.896 184.35C408.296 185.275 405.296 186.125 402.996 186.3V186.65C405.271 186.825 408.196 187.6 409.896 188.55C410.821 190.175 411.596 193.05 411.796 195.45ZM426.349 192.15C426.766 192.15 427.116 192.3 427.399 192.6C427.699 192.883 427.849 193.233 427.849 193.65C427.849 194.067 427.691 194.425 427.374 194.725C427.074 195.008 426.732 195.15 426.349 195.15C425.966 195.15 425.616 195.008 425.299 194.725C424.999 194.425 424.849 194.067 424.849 193.65C424.849 193.233 424.991 192.883 425.274 192.6C425.574 192.3 425.932 192.15 426.349 192.15ZM436.132 181.025L439.682 179.825L440.157 181.275L436.632 182.475L438.857 185.45L437.632 186.4L435.382 183.325L433.207 186.4L431.957 185.45L434.132 182.475L430.607 181.275L431.082 179.825L434.632 181.025V177.3H436.132V181.025Z" fill="black"/>
<path d="M312.037 177.3H314.137V195H312.037V177.3ZM318.206 177.3H325.006C325.589 177.3 326.206 177.367 326.856 177.5C327.506 177.633 328.148 177.85 328.781 178.15C329.431 178.433 330.048 178.808 330.631 179.275C331.231 179.742 331.756 180.308 332.206 180.975C332.656 181.625 333.014 182.383 333.281 183.25C333.548 184.1 333.681 185.067 333.681 186.15C333.681 187.233 333.548 188.208 333.281 189.075C333.014 189.925 332.656 190.683 332.206 191.35C331.756 192 331.231 192.558 330.631 193.025C330.048 193.492 329.431 193.875 328.781 194.175C328.148 194.458 327.506 194.667 326.856 194.8C326.206 194.933 325.589 195 325.006 195H318.206V177.3ZM320.306 193.05H324.306C325.323 193.05 326.264 192.917 327.131 192.65C327.998 192.383 328.748 191.975 329.381 191.425C330.014 190.858 330.514 190.142 330.881 189.275C331.248 188.408 331.431 187.367 331.431 186.15C331.431 184.933 331.248 183.892 330.881 183.025C330.514 182.158 330.014 181.45 329.381 180.9C328.748 180.333 327.998 179.917 327.131 179.65C326.264 179.383 325.323 179.25 324.306 179.25H320.306V193.05ZM337.061 177.3H348.186V179.25H339.161V184.8H347.586V186.75H339.161V193.05H348.636V195H337.061V177.3ZM357.631 177.3H359.606L367.131 195H364.681L362.881 190.65H354.031L352.206 195H349.831L357.631 177.3ZM358.581 180H358.531L354.856 188.7H362.081L358.581 180ZM379.063 179.25H373.213V195H371.113V179.25H365.263V177.3H379.063V179.25ZM381.544 177.3H392.669V179.25H383.644V184.8H392.069V186.75H383.644V193.05H393.119V195H381.544V177.3Z" fill="#FFAA52"/>
</svg>
