<svg width="330" height="112" viewBox="0 0 330 112" fill="none" xmlns="http://www.w3.org/2000/svg">
<circle cx="49.7705" cy="41.8369" r="38.2295" fill="#ED7608" fill-opacity="0.4"/>
<circle cx="38.2295" cy="38.2295" r="37.2295" stroke="#98BC61" stroke-width="2"/>
<path d="M93.395 40.8H84.035V66H80.675V40.8H71.315V37.68H93.395V40.8ZM99.2306 70.28C98.9106 71.08 98.5773 71.8 98.2306 72.44C97.9106 73.1067 97.5106 73.6667 97.0306 74.12C96.5773 74.6 96.0173 74.96 95.3506 75.2C94.7106 75.4667 93.924 75.6 92.9906 75.6C92.5373 75.6 92.0573 75.5733 91.5506 75.52C91.0706 75.4667 90.6173 75.3333 90.1906 75.12L90.5906 72.4C90.9106 72.5333 91.244 72.6133 91.5906 72.64C91.9373 72.6933 92.3373 72.72 92.7906 72.72C93.804 72.72 94.5506 72.44 95.0306 71.88C95.5106 71.32 95.924 70.5733 96.2706 69.64L97.5506 66.12L89.7906 47.28H93.4306L99.2306 61.96H99.3106L104.871 47.28H108.271L99.2306 70.28ZM111.488 47.28H114.608V50H114.688C115.541 48.9867 116.528 48.2 117.648 47.64C118.794 47.08 120.048 46.8 121.408 46.8C122.874 46.8 124.208 47.0533 125.408 47.56C126.634 48.04 127.674 48.72 128.528 49.6C129.381 50.48 130.047 51.52 130.528 52.72C131.008 53.92 131.248 55.2267 131.248 56.64C131.248 58.0533 131.008 59.36 130.528 60.56C130.047 61.76 129.381 62.8 128.528 63.68C127.701 64.56 126.714 65.2533 125.568 65.76C124.421 66.24 123.194 66.48 121.888 66.48C120.208 66.48 118.728 66.12 117.448 65.4C116.194 64.6533 115.274 63.7467 114.688 62.68H114.608V75.12H111.488V47.28ZM114.608 56.64C114.608 57.6267 114.754 58.5467 115.048 59.4C115.368 60.2267 115.821 60.96 116.408 61.6C116.994 62.2133 117.688 62.7067 118.488 63.08C119.314 63.4267 120.234 63.6 121.248 63.6C122.261 63.6 123.168 63.4267 123.968 63.08C124.794 62.7067 125.501 62.2133 126.088 61.6C126.674 60.96 127.114 60.2267 127.408 59.4C127.728 58.5467 127.888 57.6267 127.888 56.64C127.888 55.6533 127.728 54.7467 127.408 53.92C127.114 53.0667 126.674 52.3333 126.088 51.72C125.501 51.08 124.794 50.5867 123.968 50.24C123.168 49.8667 122.261 49.68 121.248 49.68C120.234 49.68 119.314 49.8667 118.488 50.24C117.688 50.5867 116.994 51.08 116.408 51.72C115.821 52.3333 115.368 53.0667 115.048 53.92C114.754 54.7467 114.608 55.6533 114.608 56.64ZM135.021 56.64C135.021 55.1733 135.274 53.84 135.781 52.64C136.287 51.44 136.981 50.4133 137.861 49.56C138.741 48.68 139.794 48 141.021 47.52C142.247 47.04 143.581 46.8 145.021 46.8C146.461 46.8 147.794 47.04 149.021 47.52C150.247 48 151.301 48.68 152.181 49.56C153.061 50.4133 153.754 51.44 154.261 52.64C154.767 53.84 155.021 55.1733 155.021 56.64C155.021 58.1067 154.767 59.44 154.261 60.64C153.754 61.84 153.061 62.88 152.181 63.76C151.301 64.6133 150.247 65.28 149.021 65.76C147.794 66.24 146.461 66.48 145.021 66.48C143.581 66.48 142.247 66.24 141.021 65.76C139.794 65.28 138.741 64.6133 137.861 63.76C136.981 62.88 136.287 61.84 135.781 60.64C135.274 59.44 135.021 58.1067 135.021 56.64ZM138.381 56.64C138.381 57.6267 138.527 58.5467 138.821 59.4C139.141 60.2267 139.594 60.96 140.181 61.6C140.767 62.2133 141.461 62.7067 142.261 63.08C143.087 63.4267 144.007 63.6 145.021 63.6C146.034 63.6 146.941 63.4267 147.741 63.08C148.567 62.7067 149.274 62.2133 149.861 61.6C150.447 60.96 150.887 60.2267 151.181 59.4C151.501 58.5467 151.661 57.6267 151.661 56.64C151.661 55.6533 151.501 54.7467 151.181 53.92C150.887 53.0667 150.447 52.3333 149.861 51.72C149.274 51.08 148.567 50.5867 147.741 50.24C146.941 49.8667 146.034 49.68 145.021 49.68C144.007 49.68 143.087 49.8667 142.261 50.24C141.461 50.5867 140.767 51.08 140.181 51.72C139.594 52.3333 139.141 53.0667 138.821 53.92C138.527 54.7467 138.381 55.6533 138.381 56.64ZM178.531 65.16C178.531 68.5733 177.651 71.16 175.891 72.92C174.157 74.7067 171.637 75.6 168.331 75.6C166.491 75.6 164.824 75.3333 163.331 74.8C161.864 74.2667 160.464 73.3467 159.131 72.04L161.371 69.48C162.357 70.5467 163.397 71.3467 164.491 71.88C165.611 72.44 166.891 72.72 168.331 72.72C169.717 72.72 170.864 72.5067 171.771 72.08C172.704 71.68 173.437 71.12 173.971 70.4C174.504 69.7067 174.877 68.9067 175.091 68C175.304 67.0933 175.411 66.1467 175.411 65.16V62.76H175.331C174.584 63.96 173.611 64.84 172.411 65.4C171.211 65.96 169.984 66.24 168.731 66.24C167.264 66.24 165.917 66 164.691 65.52C163.464 65.04 162.411 64.3733 161.531 63.52C160.651 62.6667 159.971 61.6533 159.491 60.48C159.011 59.3067 158.771 58.0267 158.771 56.64C158.771 55.12 159.011 53.7467 159.491 52.52C159.971 51.2933 160.637 50.2667 161.491 49.44C162.371 48.5867 163.424 47.9333 164.651 47.48C165.877 47.0267 167.237 46.8 168.731 46.8C169.371 46.8 170.011 46.88 170.651 47.04C171.291 47.1733 171.904 47.4 172.491 47.72C173.104 48.0133 173.651 48.4 174.131 48.88C174.611 49.3333 175.011 49.8667 175.331 50.48H175.411V47.28H178.531V65.16ZM162.131 56.64C162.131 57.6 162.304 58.4933 162.651 59.32C162.997 60.12 163.464 60.8267 164.051 61.44C164.664 62.0267 165.371 62.4933 166.171 62.84C166.971 63.1867 167.824 63.36 168.731 63.36C169.797 63.36 170.744 63.1733 171.571 62.8C172.397 62.4267 173.091 61.9333 173.651 61.32C174.237 60.68 174.677 59.96 174.971 59.16C175.264 58.3333 175.411 57.4667 175.411 56.56C175.411 55.5467 175.251 54.6267 174.931 53.8C174.611 52.9467 174.157 52.2133 173.571 51.6C172.984 50.9867 172.277 50.52 171.451 50.2C170.624 49.8533 169.717 49.68 168.731 49.68C167.744 49.68 166.837 49.8667 166.011 50.24C165.211 50.5867 164.517 51.08 163.931 51.72C163.371 52.3333 162.931 53.0667 162.611 53.92C162.291 54.7467 162.131 55.6533 162.131 56.64ZM184.304 51.72C184.304 50.8667 184.277 50.0667 184.224 49.32C184.17 48.5733 184.144 47.8933 184.144 47.28H187.104C187.104 47.7867 187.117 48.2933 187.144 48.8C187.17 49.3067 187.184 49.8267 187.184 50.36H187.264C187.477 49.9067 187.77 49.4667 188.144 49.04C188.544 48.6133 189.01 48.24 189.544 47.92C190.077 47.5733 190.677 47.3067 191.344 47.12C192.01 46.9067 192.73 46.8 193.504 46.8C193.717 46.8 193.93 46.8133 194.144 46.84C194.357 46.8667 194.57 46.92 194.784 47L194.584 50.16C194.05 50 193.49 49.92 192.904 49.92C190.984 49.92 189.584 50.5467 188.704 51.8C187.85 53.0267 187.424 54.72 187.424 56.88V66H184.304V51.72ZM198.126 49.68C199.086 48.6933 200.22 47.9733 201.526 47.52C202.86 47.04 204.206 46.8 205.566 46.8C208.34 46.8 210.34 47.4533 211.566 48.76C212.793 50.0667 213.406 52.0533 213.406 54.72V62.76C213.406 63.2933 213.433 63.8533 213.486 64.44C213.54 65 213.606 65.52 213.686 66H210.686C210.58 65.5733 210.513 65.1067 210.486 64.6C210.486 64.0667 210.486 63.6 210.486 63.2H210.406C209.793 64.16 208.966 64.9467 207.926 65.56C206.913 66.1733 205.686 66.48 204.246 66.48C203.286 66.48 202.38 66.36 201.526 66.12C200.7 65.88 199.966 65.5333 199.326 65.08C198.713 64.6 198.22 64.0133 197.846 63.32C197.473 62.6267 197.286 61.8267 197.286 60.92C197.286 59.3733 197.686 58.16 198.486 57.28C199.286 56.4 200.273 55.7467 201.446 55.32C202.646 54.8933 203.926 54.6267 205.286 54.52C206.673 54.4133 207.94 54.36 209.086 54.36H210.286V53.8C210.286 52.44 209.873 51.4133 209.046 50.72C208.246 50.0267 207.113 49.68 205.646 49.68C204.633 49.68 203.633 49.8533 202.646 50.2C201.686 50.52 200.833 51.0267 200.086 51.72L198.126 49.68ZM207.166 57C205.166 57 203.58 57.28 202.406 57.84C201.233 58.4 200.646 59.32 200.646 60.6C200.646 61.7733 201.033 62.6133 201.806 63.12C202.606 63.6 203.593 63.84 204.766 63.84C205.673 63.84 206.46 63.6933 207.126 63.4C207.82 63.08 208.393 62.6667 208.846 62.16C209.3 61.6533 209.646 61.0667 209.886 60.4C210.126 59.7067 210.26 58.9733 210.286 58.2V57H207.166ZM218.948 47.28H222.068V50H222.148C223.002 48.9867 223.988 48.2 225.108 47.64C226.255 47.08 227.508 46.8 228.868 46.8C230.335 46.8 231.668 47.0533 232.868 47.56C234.095 48.04 235.135 48.72 235.988 49.6C236.842 50.48 237.508 51.52 237.988 52.72C238.468 53.92 238.708 55.2267 238.708 56.64C238.708 58.0533 238.468 59.36 237.988 60.56C237.508 61.76 236.842 62.8 235.988 63.68C235.162 64.56 234.175 65.2533 233.028 65.76C231.882 66.24 230.655 66.48 229.348 66.48C227.668 66.48 226.188 66.12 224.908 65.4C223.655 64.6533 222.735 63.7467 222.148 62.68H222.068V75.12H218.948V47.28ZM222.068 56.64C222.068 57.6267 222.215 58.5467 222.508 59.4C222.828 60.2267 223.282 60.96 223.868 61.6C224.455 62.2133 225.148 62.7067 225.948 63.08C226.775 63.4267 227.695 63.6 228.708 63.6C229.722 63.6 230.628 63.4267 231.428 63.08C232.255 62.7067 232.962 62.2133 233.548 61.6C234.135 60.96 234.575 60.2267 234.868 59.4C235.188 58.5467 235.348 57.6267 235.348 56.64C235.348 55.6533 235.188 54.7467 234.868 53.92C234.575 53.0667 234.135 52.3333 233.548 51.72C232.962 51.08 232.255 50.5867 231.428 50.24C230.628 49.8667 229.722 49.68 228.708 49.68C227.695 49.68 226.775 49.8667 225.948 50.24C225.148 50.5867 224.455 51.08 223.868 51.72C223.282 52.3333 222.828 53.0667 222.508 53.92C222.215 54.7467 222.068 55.6533 222.068 56.64ZM243.562 35.76H246.682V49.88H246.762C246.975 49.5067 247.268 49.1467 247.642 48.8C248.015 48.4267 248.455 48.0933 248.962 47.8C249.495 47.5067 250.082 47.2667 250.722 47.08C251.362 46.8933 252.042 46.8 252.762 46.8C253.988 46.8 255.042 46.9867 255.922 47.36C256.828 47.7333 257.575 48.2533 258.162 48.92C258.748 49.5867 259.175 50.4 259.442 51.36C259.735 52.2933 259.882 53.32 259.882 54.44V66H256.762V54.76C256.762 53.1867 256.415 51.9467 255.722 51.04C255.028 50.1333 253.948 49.68 252.482 49.68C251.468 49.68 250.588 49.8533 249.842 50.2C249.122 50.5467 248.522 51.04 248.042 51.68C247.588 52.32 247.242 53.08 247.002 53.96C246.788 54.84 246.682 55.8133 246.682 56.88V66H243.562V35.76ZM272.668 70.28C272.348 71.08 272.015 71.8 271.668 72.44C271.348 73.1067 270.948 73.6667 270.468 74.12C270.015 74.6 269.455 74.96 268.788 75.2C268.148 75.4667 267.361 75.6 266.428 75.6C265.975 75.6 265.495 75.5733 264.988 75.52C264.508 75.4667 264.055 75.3333 263.628 75.12L264.028 72.4C264.348 72.5333 264.681 72.6133 265.028 72.64C265.375 72.6933 265.775 72.72 266.228 72.72C267.241 72.72 267.988 72.44 268.468 71.88C268.948 71.32 269.361 70.5733 269.708 69.64L270.988 66.12L263.228 47.28H266.868L272.668 61.96H272.748L278.308 47.28H281.708L272.668 70.28Z" fill="#683C09"/>
</svg>
