<svg width="207" height="95" viewBox="0 0 207 95" fill="none" xmlns="http://www.w3.org/2000/svg">
<circle cx="49.7705" cy="41.836" r="38.2295" fill="#ED7608" fill-opacity="0.4"/>
<circle cx="38.2295" cy="38.2295" r="37.2295" stroke="#98BC61" stroke-width="2"/>
<path d="M86.3598 51.8H76.9998V77H73.6398V51.8H64.2798V48.68H86.3598V51.8ZM85.0755 60.68C86.0355 59.6933 87.1688 58.9733 88.4755 58.52C89.8088 58.04 91.1555 57.8 92.5155 57.8C95.2888 57.8 97.2888 58.4533 98.5155 59.76C99.7421 61.0667 100.355 63.0533 100.355 65.72V73.76C100.355 74.2933 100.382 74.8533 100.435 75.44C100.489 76 100.555 76.52 100.635 77H97.6355C97.5288 76.5733 97.4621 76.1067 97.4355 75.6C97.4355 75.0667 97.4355 74.6 97.4355 74.2H97.3555C96.7421 75.16 95.9155 75.9467 94.8755 76.56C93.8621 77.1733 92.6355 77.48 91.1955 77.48C90.2355 77.48 89.3288 77.36 88.4755 77.12C87.6488 76.88 86.9155 76.5333 86.2755 76.08C85.6621 75.6 85.1688 75.0133 84.7955 74.32C84.4221 73.6267 84.2355 72.8267 84.2355 71.92C84.2355 70.3733 84.6355 69.16 85.4355 68.28C86.2355 67.4 87.2221 66.7467 88.3955 66.32C89.5955 65.8933 90.8755 65.6267 92.2355 65.52C93.6221 65.4133 94.8888 65.36 96.0355 65.36H97.2355V64.8C97.2355 63.44 96.8221 62.4133 95.9955 61.72C95.1955 61.0267 94.0621 60.68 92.5955 60.68C91.5821 60.68 90.5821 60.8533 89.5955 61.2C88.6355 61.52 87.7821 62.0267 87.0355 62.72L85.0755 60.68ZM94.1155 68C92.1155 68 90.5288 68.28 89.3555 68.84C88.1821 69.4 87.5955 70.32 87.5955 71.6C87.5955 72.7733 87.9821 73.6133 88.7555 74.12C89.5555 74.6 90.5421 74.84 91.7155 74.84C92.6221 74.84 93.4088 74.6933 94.0755 74.4C94.7688 74.08 95.3421 73.6667 95.7955 73.16C96.2488 72.6533 96.5955 72.0667 96.8355 71.4C97.0755 70.7067 97.2088 69.9733 97.2355 69.2V68H94.1155ZM106.458 72.08C107.071 72.8533 107.738 73.4667 108.458 73.92C109.204 74.3733 110.138 74.6 111.258 74.6C111.738 74.6 112.218 74.5467 112.698 74.44C113.204 74.3333 113.658 74.16 114.058 73.92C114.458 73.68 114.778 73.3867 115.018 73.04C115.258 72.6667 115.378 72.2267 115.378 71.72C115.378 71.2133 115.258 70.8 115.018 70.48C114.804 70.16 114.511 69.8933 114.138 69.68C113.764 69.44 113.338 69.2533 112.858 69.12C112.378 68.9867 111.884 68.8667 111.378 68.76C110.498 68.5733 109.658 68.36 108.858 68.12C108.058 67.88 107.351 67.5733 106.738 67.2C106.151 66.8 105.671 66.2933 105.298 65.68C104.951 65.0667 104.778 64.28 104.778 63.32C104.778 62.4133 104.978 61.6133 105.378 60.92C105.778 60.2267 106.311 59.6533 106.978 59.2C107.644 58.7467 108.391 58.4 109.218 58.16C110.044 57.92 110.898 57.8 111.778 57.8C113.111 57.8 114.338 58.0667 115.458 58.6C116.604 59.1333 117.498 60 118.138 61.2L115.538 62.92C115.138 62.2533 114.604 61.72 113.938 61.32C113.298 60.8933 112.511 60.68 111.578 60.68C111.151 60.68 110.711 60.7333 110.258 60.84C109.831 60.9467 109.444 61.1067 109.098 61.32C108.751 61.5333 108.458 61.8133 108.218 62.16C108.004 62.48 107.898 62.8533 107.898 63.28C107.898 63.68 108.018 64.0267 108.258 64.32C108.524 64.5867 108.871 64.8267 109.298 65.04C109.751 65.2533 110.258 65.44 110.818 65.6C111.404 65.76 112.004 65.8933 112.618 66C113.444 66.16 114.231 66.3733 114.978 66.64C115.724 66.88 116.378 67.2133 116.938 67.64C117.498 68.0667 117.938 68.6 118.258 69.24C118.578 69.88 118.738 70.6667 118.738 71.6C118.738 72.6667 118.524 73.5733 118.098 74.32C117.671 75.0667 117.098 75.68 116.378 76.16C115.684 76.6133 114.884 76.9467 113.978 77.16C113.098 77.3733 112.191 77.48 111.258 77.48C109.658 77.48 108.271 77.24 107.098 76.76C105.951 76.2533 104.911 75.3333 103.978 74L106.458 72.08ZM123.089 46.76H126.209V66.52L134.729 58.28H139.169L130.129 66.8L140.089 77H135.489L126.209 67.16V77H123.089V46.76ZM143.489 72.08C144.102 72.8533 144.769 73.4667 145.489 73.92C146.236 74.3733 147.169 74.6 148.289 74.6C148.769 74.6 149.249 74.5467 149.729 74.44C150.236 74.3333 150.689 74.16 151.089 73.92C151.489 73.68 151.809 73.3867 152.049 73.04C152.289 72.6667 152.409 72.2267 152.409 71.72C152.409 71.2133 152.289 70.8 152.049 70.48C151.836 70.16 151.542 69.8933 151.169 69.68C150.796 69.44 150.369 69.2533 149.889 69.12C149.409 68.9867 148.916 68.8667 148.409 68.76C147.529 68.5733 146.689 68.36 145.889 68.12C145.089 67.88 144.382 67.5733 143.769 67.2C143.182 66.8 142.702 66.2933 142.329 65.68C141.982 65.0667 141.809 64.28 141.809 63.32C141.809 62.4133 142.009 61.6133 142.409 60.92C142.809 60.2267 143.342 59.6533 144.009 59.2C144.676 58.7467 145.422 58.4 146.249 58.16C147.076 57.92 147.929 57.8 148.809 57.8C150.142 57.8 151.369 58.0667 152.489 58.6C153.636 59.1333 154.529 60 155.169 61.2L152.569 62.92C152.169 62.2533 151.636 61.72 150.969 61.32C150.329 60.8933 149.542 60.68 148.609 60.68C148.182 60.68 147.742 60.7333 147.289 60.84C146.862 60.9467 146.476 61.1067 146.129 61.32C145.782 61.5333 145.489 61.8133 145.249 62.16C145.036 62.48 144.929 62.8533 144.929 63.28C144.929 63.68 145.049 64.0267 145.289 64.32C145.556 64.5867 145.902 64.8267 146.329 65.04C146.782 65.2533 147.289 65.44 147.849 65.6C148.436 65.76 149.036 65.8933 149.649 66C150.476 66.16 151.262 66.3733 152.009 66.64C152.756 66.88 153.409 67.2133 153.969 67.64C154.529 68.0667 154.969 68.6 155.289 69.24C155.609 69.88 155.769 70.6667 155.769 71.6C155.769 72.6667 155.556 73.5733 155.129 74.32C154.702 75.0667 154.129 75.68 153.409 76.16C152.716 76.6133 151.916 76.9467 151.009 77.16C150.129 77.3733 149.222 77.48 148.289 77.48C146.689 77.48 145.302 77.24 144.129 76.76C142.982 76.2533 141.942 75.3333 141.009 74L143.489 72.08Z" fill="black"/>
</svg>
