<svg width="201" height="93" viewBox="0 0 201 93" fill="none" xmlns="http://www.w3.org/2000/svg">
<circle cx="49.7705" cy="41.836" r="38.2295" fill="#ED7608" fill-opacity="0.4"/>
<circle cx="38.2295" cy="38.2295" r="37.2295" stroke="#98BC61" stroke-width="2"/>
<path d="M89.4828 73.08C87.8561 73.9867 86.1361 74.6533 84.3228 75.08C82.5361 75.5067 80.7228 75.72 78.8828 75.72C76.6695 75.72 74.6428 75.36 72.8028 74.64C70.9628 73.92 69.3628 72.9067 68.0028 71.6C66.6695 70.2933 65.6295 68.7333 64.8828 66.92C64.1361 65.08 63.7628 63.0533 63.7628 60.84C63.7628 58.6 64.1495 56.5733 64.9228 54.76C65.7228 52.92 66.8161 51.36 68.2028 50.08C69.5895 48.7733 71.2028 47.76 73.0428 47.04C74.8828 46.32 76.8695 45.96 79.0028 45.96C80.8695 45.96 82.6561 46.24 84.3628 46.8C86.0961 47.36 87.6428 48.32 89.0028 49.68L86.4828 52.32C85.5228 51.28 84.3495 50.48 82.9628 49.92C81.6028 49.36 80.2028 49.08 78.7628 49.08C77.1361 49.08 75.6295 49.3733 74.2428 49.96C72.8561 50.5467 71.6428 51.36 70.6028 52.4C69.5895 53.44 68.7895 54.68 68.2028 56.12C67.6428 57.56 67.3628 59.1333 67.3628 60.84C67.3628 62.52 67.6428 64.08 68.2028 65.52C68.7895 66.96 69.5895 68.2133 70.6028 69.28C71.6428 70.32 72.8828 71.1333 74.3228 71.72C75.7628 72.3067 77.3495 72.6 79.0828 72.6C80.2295 72.6 81.4295 72.4667 82.6828 72.2C83.9361 71.9067 85.0828 71.4933 86.1228 70.96V62.28H79.6028V59.16H89.4828V73.08ZM94.8956 65.64C94.8956 64.1733 95.149 62.84 95.6556 61.64C96.1623 60.44 96.8556 59.4133 97.7356 58.56C98.6156 57.68 99.669 57 100.896 56.52C102.122 56.04 103.456 55.8 104.896 55.8C106.336 55.8 107.669 56.04 108.896 56.52C110.122 57 111.176 57.68 112.056 58.56C112.936 59.4133 113.629 60.44 114.136 61.64C114.642 62.84 114.896 64.1733 114.896 65.64C114.896 67.1067 114.642 68.44 114.136 69.64C113.629 70.84 112.936 71.88 112.056 72.76C111.176 73.6133 110.122 74.28 108.896 74.76C107.669 75.24 106.336 75.48 104.896 75.48C103.456 75.48 102.122 75.24 100.896 74.76C99.669 74.28 98.6156 73.6133 97.7356 72.76C96.8556 71.88 96.1623 70.84 95.6556 69.64C95.149 68.44 94.8956 67.1067 94.8956 65.64ZM98.2556 65.64C98.2556 66.6267 98.4023 67.5467 98.6956 68.4C99.0156 69.2267 99.469 69.96 100.056 70.6C100.642 71.2133 101.336 71.7067 102.136 72.08C102.962 72.4267 103.882 72.6 104.896 72.6C105.909 72.6 106.816 72.4267 107.616 72.08C108.442 71.7067 109.149 71.2133 109.736 70.6C110.322 69.96 110.762 69.2267 111.056 68.4C111.376 67.5467 111.536 66.6267 111.536 65.64C111.536 64.6533 111.376 63.7467 111.056 62.92C110.762 62.0667 110.322 61.3333 109.736 60.72C109.149 60.08 108.442 59.5867 107.616 59.24C106.816 58.8667 105.909 58.68 104.896 58.68C103.882 58.68 102.962 58.8667 102.136 59.24C101.336 59.5867 100.642 60.08 100.056 60.72C99.469 61.3333 99.0156 62.0667 98.6956 62.92C98.4023 63.7467 98.2556 64.6533 98.2556 65.64ZM119.486 58.68C120.446 57.6933 121.579 56.9733 122.886 56.52C124.219 56.04 125.566 55.8 126.926 55.8C129.699 55.8 131.699 56.4533 132.926 57.76C134.152 59.0667 134.766 61.0533 134.766 63.72V71.76C134.766 72.2933 134.792 72.8533 134.846 73.44C134.899 74 134.966 74.52 135.046 75H132.046C131.939 74.5733 131.872 74.1067 131.846 73.6C131.846 73.0667 131.846 72.6 131.846 72.2H131.766C131.152 73.16 130.326 73.9467 129.286 74.56C128.272 75.1733 127.046 75.48 125.606 75.48C124.646 75.48 123.739 75.36 122.886 75.12C122.059 74.88 121.326 74.5333 120.686 74.08C120.072 73.6 119.579 73.0133 119.206 72.32C118.832 71.6267 118.646 70.8267 118.646 69.92C118.646 68.3733 119.046 67.16 119.846 66.28C120.646 65.4 121.632 64.7467 122.806 64.32C124.006 63.8933 125.286 63.6267 126.646 63.52C128.032 63.4133 129.299 63.36 130.446 63.36H131.646V62.8C131.646 61.44 131.232 60.4133 130.406 59.72C129.606 59.0267 128.472 58.68 127.006 58.68C125.992 58.68 124.992 58.8533 124.006 59.2C123.046 59.52 122.192 60.0267 121.446 60.72L119.486 58.68ZM128.526 66C126.526 66 124.939 66.28 123.766 66.84C122.592 67.4 122.006 68.32 122.006 69.6C122.006 70.7733 122.392 71.6133 123.166 72.12C123.966 72.6 124.952 72.84 126.126 72.84C127.032 72.84 127.819 72.6933 128.486 72.4C129.179 72.08 129.752 71.6667 130.206 71.16C130.659 70.6533 131.006 70.0667 131.246 69.4C131.486 68.7067 131.619 67.9733 131.646 67.2V66H128.526ZM140.748 44.76H143.868V75H140.748V44.76Z" fill="black"/>
</svg>
