<svg width="705" height="205" viewBox="0 0 705 205" fill="none" xmlns="http://www.w3.org/2000/svg">
<path d="M30 0.5H658C674.292 0.5 687.5 13.7076 687.5 30V107C687.5 123.292 674.292 136.5 658 136.5H30C13.7076 136.5 0.5 123.292 0.5 107V30C0.5 13.7076 13.7076 0.5 30 0.5Z" stroke="#FFAA52"/>
<path d="M58 32.5H675C691.292 32.5 704.5 45.7076 704.5 62V127C704.5 143.292 691.292 156.5 675 156.5H58C41.7076 156.5 28.5 143.292 28.5 127V62C28.5 45.7076 41.7076 32.5 58 32.5Z" stroke="#98BC61"/>
<path d="M107.628 57.6H112.378L123.278 86.7H123.378L134.628 57.6H139.078L125.228 93H121.178L107.628 57.6ZM141.816 69.6H145.716V93H141.816V69.6ZM140.916 60.45C140.916 59.6833 141.182 59.0167 141.716 58.45C142.282 57.8833 142.966 57.6 143.766 57.6C144.566 57.6 145.232 57.8833 145.766 58.45C146.332 59.0167 146.616 59.6833 146.616 60.45C146.616 61.2833 146.349 61.9667 145.816 62.5C145.282 63.0333 144.599 63.3 143.766 63.3C142.932 63.3 142.249 63.0333 141.716 62.5C141.182 61.9667 140.916 61.2833 140.916 60.45ZM153.977 86.85C154.744 87.8167 155.577 88.5833 156.477 89.15C157.411 89.7167 158.577 90 159.977 90C160.577 90 161.177 89.9333 161.777 89.8C162.411 89.6667 162.977 89.45 163.477 89.15C163.977 88.85 164.377 88.4833 164.677 88.05C164.977 87.5833 165.127 87.0333 165.127 86.4C165.127 85.7667 164.977 85.25 164.677 84.85C164.411 84.45 164.044 84.1167 163.577 83.85C163.111 83.55 162.577 83.3167 161.977 83.15C161.377 82.9833 160.761 82.8333 160.127 82.7C159.027 82.4667 157.977 82.2 156.977 81.9C155.977 81.6 155.094 81.2167 154.327 80.75C153.594 80.25 152.994 79.6167 152.527 78.85C152.094 78.0833 151.877 77.1 151.877 75.9C151.877 74.7667 152.127 73.7667 152.627 72.9C153.127 72.0333 153.794 71.3167 154.627 70.75C155.461 70.1833 156.394 69.75 157.427 69.45C158.461 69.15 159.527 69 160.627 69C162.294 69 163.827 69.3333 165.227 70C166.661 70.6667 167.777 71.75 168.577 73.25L165.327 75.4C164.827 74.5667 164.161 73.9 163.327 73.4C162.527 72.8667 161.544 72.6 160.377 72.6C159.844 72.6 159.294 72.6667 158.727 72.8C158.194 72.9333 157.711 73.1333 157.277 73.4C156.844 73.6667 156.477 74.0167 156.177 74.45C155.911 74.85 155.777 75.3167 155.777 75.85C155.777 76.35 155.927 76.7833 156.227 77.15C156.561 77.4833 156.994 77.7833 157.527 78.05C158.094 78.3167 158.727 78.55 159.427 78.75C160.161 78.95 160.911 79.1167 161.677 79.25C162.711 79.45 163.694 79.7167 164.627 80.05C165.561 80.35 166.377 80.7667 167.077 81.3C167.777 81.8333 168.327 82.5 168.727 83.3C169.127 84.1 169.327 85.0833 169.327 86.25C169.327 87.5833 169.061 88.7167 168.527 89.65C167.994 90.5833 167.277 91.35 166.377 91.95C165.511 92.5167 164.511 92.9333 163.377 93.2C162.277 93.4667 161.144 93.6 159.977 93.6C157.977 93.6 156.244 93.3 154.777 92.7C153.344 92.0667 152.044 90.9167 150.877 89.25L153.977 86.85ZM195.166 87.45C195.166 88.5167 195.2 89.5167 195.266 90.45C195.333 91.3833 195.366 92.2333 195.366 93H191.666C191.666 92.3667 191.65 91.7333 191.616 91.1C191.583 90.4667 191.566 89.8167 191.566 89.15H191.466C191.2 89.7167 190.816 90.2667 190.316 90.8C189.85 91.3333 189.283 91.8167 188.616 92.25C187.95 92.65 187.2 92.9667 186.366 93.2C185.533 93.4667 184.633 93.6 183.666 93.6C182.133 93.6 180.8 93.3667 179.666 92.9C178.566 92.4333 177.65 91.7833 176.916 90.95C176.183 90.1167 175.633 89.1167 175.266 87.95C174.933 86.75 174.766 85.45 174.766 84.05V69.6H178.666V83.65C178.666 85.6167 179.1 87.1667 179.966 88.3C180.833 89.4333 182.183 90 184.016 90C185.283 90 186.366 89.7833 187.266 89.35C188.2 88.9167 188.95 88.3 189.516 87.5C190.116 86.7 190.55 85.75 190.816 84.65C191.116 83.55 191.266 82.3333 191.266 81V69.6H195.166V87.45ZM202.25 72.6C203.45 71.3667 204.866 70.4667 206.5 69.9C208.166 69.3 209.85 69 211.55 69C215.016 69 217.516 69.8167 219.05 71.45C220.583 73.0833 221.35 75.5667 221.35 78.9V88.95C221.35 89.6167 221.383 90.3167 221.45 91.05C221.516 91.75 221.6 92.4 221.7 93H217.95C217.816 92.4667 217.733 91.8833 217.7 91.25C217.7 90.5833 217.7 90 217.7 89.5H217.6C216.833 90.7 215.8 91.6833 214.5 92.45C213.233 93.2167 211.7 93.6 209.9 93.6C208.7 93.6 207.566 93.45 206.5 93.15C205.466 92.85 204.55 92.4167 203.75 91.85C202.983 91.25 202.366 90.5167 201.9 89.65C201.433 88.7833 201.2 87.7833 201.2 86.65C201.2 84.7167 201.7 83.2 202.7 82.1C203.7 81 204.933 80.1833 206.4 79.65C207.9 79.1167 209.5 78.7833 211.2 78.65C212.933 78.5167 214.516 78.45 215.95 78.45H217.45V77.75C217.45 76.05 216.933 74.7667 215.9 73.9C214.9 73.0333 213.483 72.6 211.65 72.6C210.383 72.6 209.133 72.8167 207.9 73.25C206.7 73.65 205.633 74.2833 204.7 75.15L202.25 72.6ZM213.55 81.75C211.05 81.75 209.066 82.1 207.6 82.8C206.133 83.5 205.4 84.65 205.4 86.25C205.4 87.7167 205.883 88.7667 206.85 89.4C207.85 90 209.083 90.3 210.55 90.3C211.683 90.3 212.666 90.1167 213.5 89.75C214.366 89.35 215.083 88.8333 215.65 88.2C216.216 87.5667 216.65 86.8333 216.95 86C217.25 85.1333 217.416 84.2167 217.45 83.25V81.75H213.55ZM228.827 55.2H232.727V93H228.827V55.2ZM275.555 87.9C274.122 89.7 272.588 91.1 270.955 92.1C269.322 93.1 267.322 93.6 264.955 93.6C263.455 93.6 262.022 93.3833 260.655 92.95C259.288 92.4833 258.088 91.8167 257.055 90.95C256.055 90.0833 255.238 89.0333 254.605 87.8C254.005 86.5333 253.705 85.1 253.705 83.5C253.705 82.2667 253.905 81.1333 254.305 80.1C254.738 79.0333 255.305 78.0833 256.005 77.25C256.738 76.3833 257.572 75.6333 258.505 75C259.472 74.3333 260.488 73.75 261.555 73.25C260.388 72.0833 259.388 70.85 258.555 69.55C257.722 68.25 257.305 66.75 257.305 65.05C257.305 63.75 257.555 62.6 258.055 61.6C258.555 60.5667 259.222 59.7167 260.055 59.05C260.888 58.35 261.855 57.8333 262.955 57.5C264.055 57.1333 265.222 56.95 266.455 56.95C267.655 56.95 268.788 57.1167 269.855 57.45C270.922 57.7833 271.855 58.2833 272.655 58.95C273.488 59.5833 274.138 60.4 274.605 61.4C275.072 62.3667 275.305 63.5 275.305 64.8C275.305 65.9 275.072 66.9167 274.605 67.85C274.172 68.75 273.588 69.5667 272.855 70.3C272.155 71 271.355 71.65 270.455 72.25C269.588 72.8167 268.705 73.3333 267.805 73.8L275.305 81.75L280.055 73.8H284.805L278.005 84.7L286.105 93H280.355L275.555 87.9ZM265.205 71.25C265.872 70.8833 266.555 70.5 267.255 70.1C267.955 69.7 268.588 69.25 269.155 68.75C269.722 68.25 270.188 67.6667 270.555 67C270.922 66.3333 271.105 65.5667 271.105 64.7C271.105 63.4 270.655 62.3833 269.755 61.65C268.888 60.9167 267.838 60.55 266.605 60.55C265.205 60.55 264.005 60.9833 263.005 61.85C262.005 62.6833 261.505 63.8333 261.505 65.3C261.505 66.2667 261.755 67.1333 262.255 67.9C262.788 68.6333 263.355 69.3167 263.955 69.95L265.205 71.25ZM264.155 75.8C263.388 76.2 262.638 76.65 261.905 77.15C261.172 77.6167 260.505 78.15 259.905 78.75C259.305 79.35 258.822 80.0333 258.455 80.8C258.088 81.5667 257.905 82.4167 257.905 83.35C257.905 84.3167 258.088 85.2 258.455 86C258.822 86.8 259.322 87.5 259.955 88.1C260.588 88.7 261.322 89.1667 262.155 89.5C262.988 89.8333 263.872 90 264.805 90C265.705 90 266.538 89.8667 267.305 89.6C268.072 89.3333 268.772 88.9833 269.405 88.55C270.072 88.0833 270.688 87.5667 271.255 87C271.855 86.4 272.438 85.7667 273.005 85.1L264.155 75.8ZM305.105 57.6H327.055V61.5H309.305V73.2H325.805V77.1H309.305V93H305.105V57.6ZM332.538 69.6H336.438V93H332.538V69.6ZM331.638 60.45C331.638 59.6833 331.905 59.0167 332.438 58.45C333.005 57.8833 333.688 57.6 334.488 57.6C335.288 57.6 335.955 57.8833 336.488 58.45C337.055 59.0167 337.338 59.6833 337.338 60.45C337.338 61.2833 337.072 61.9667 336.538 62.5C336.005 63.0333 335.322 63.3 334.488 63.3C333.655 63.3 332.972 63.0333 332.438 62.5C331.905 61.9667 331.638 61.2833 331.638 60.45ZM344.2 75.15C344.2 74.0833 344.167 73.0833 344.1 72.15C344.033 71.2167 344 70.3667 344 69.6H347.7C347.7 70.2333 347.717 70.8667 347.75 71.5C347.783 72.1333 347.8 72.7833 347.8 73.45H347.9C348.167 72.8833 348.533 72.3333 349 71.8C349.5 71.2667 350.083 70.8 350.75 70.4C351.417 69.9667 352.167 69.6333 353 69.4C353.833 69.1333 354.733 69 355.7 69C357.233 69 358.55 69.2333 359.65 69.7C360.783 70.1667 361.717 70.8167 362.45 71.65C363.183 72.4833 363.717 73.5 364.05 74.7C364.417 75.8667 364.6 77.15 364.6 78.55V93H360.7V78.95C360.7 76.9833 360.267 75.4333 359.4 74.3C358.533 73.1667 357.183 72.6 355.35 72.6C354.083 72.6 352.983 72.8167 352.05 73.25C351.15 73.6833 350.4 74.3 349.8 75.1C349.233 75.9 348.8 76.85 348.5 77.95C348.233 79.05 348.1 80.2667 348.1 81.6V93H344.2V75.15ZM371.683 72.6C372.883 71.3667 374.3 70.4667 375.933 69.9C377.6 69.3 379.283 69 380.983 69C384.45 69 386.95 69.8167 388.483 71.45C390.017 73.0833 390.783 75.5667 390.783 78.9V88.95C390.783 89.6167 390.817 90.3167 390.883 91.05C390.95 91.75 391.033 92.4 391.133 93H387.383C387.25 92.4667 387.167 91.8833 387.133 91.25C387.133 90.5833 387.133 90 387.133 89.5H387.033C386.267 90.7 385.233 91.6833 383.933 92.45C382.667 93.2167 381.133 93.6 379.333 93.6C378.133 93.6 377 93.45 375.933 93.15C374.9 92.85 373.983 92.4167 373.183 91.85C372.417 91.25 371.8 90.5167 371.333 89.65C370.867 88.7833 370.633 87.7833 370.633 86.65C370.633 84.7167 371.133 83.2 372.133 82.1C373.133 81 374.367 80.1833 375.833 79.65C377.333 79.1167 378.933 78.7833 380.633 78.65C382.367 78.5167 383.95 78.45 385.383 78.45H386.883V77.75C386.883 76.05 386.367 74.7667 385.333 73.9C384.333 73.0333 382.917 72.6 381.083 72.6C379.817 72.6 378.567 72.8167 377.333 73.25C376.133 73.65 375.067 74.2833 374.133 75.15L371.683 72.6ZM382.983 81.75C380.483 81.75 378.5 82.1 377.033 82.8C375.567 83.5 374.833 84.65 374.833 86.25C374.833 87.7167 375.317 88.7667 376.283 89.4C377.283 90 378.517 90.3 379.983 90.3C381.117 90.3 382.1 90.1167 382.933 89.75C383.8 89.35 384.517 88.8333 385.083 88.2C385.65 87.5667 386.083 86.8333 386.383 86C386.683 85.1333 386.85 84.2167 386.883 83.25V81.75H382.983ZM398.261 55.2H402.161V93H398.261V55.2ZM423.889 57.6H437.489C438.655 57.6 439.889 57.7333 441.189 58C442.489 58.2667 443.772 58.7 445.039 59.3C446.339 59.8667 447.572 60.6167 448.739 61.55C449.939 62.4833 450.989 63.6167 451.889 64.95C452.789 66.25 453.505 67.7667 454.039 69.5C454.572 71.2 454.839 73.1333 454.839 75.3C454.839 77.4667 454.572 79.4167 454.039 81.15C453.505 82.85 452.789 84.3667 451.889 85.7C450.989 87 449.939 88.1167 448.739 89.05C447.572 89.9833 446.339 90.75 445.039 91.35C443.772 91.9167 442.489 92.3333 441.189 92.6C439.889 92.8667 438.655 93 437.489 93H423.889V57.6ZM428.089 89.1H436.089C438.122 89.1 440.005 88.8333 441.739 88.3C443.472 87.7667 444.972 86.95 446.239 85.85C447.505 84.7167 448.505 83.2833 449.239 81.55C449.972 79.8167 450.339 77.7333 450.339 75.3C450.339 72.8667 449.972 70.7833 449.239 69.05C448.505 67.3167 447.505 65.9 446.239 64.8C444.972 63.6667 443.472 62.8333 441.739 62.3C440.005 61.7667 438.122 61.5 436.089 61.5H428.089V89.1ZM481.799 88.75C480.399 90.55 478.866 91.8167 477.199 92.55C475.533 93.25 473.599 93.6 471.399 93.6C469.566 93.6 467.916 93.2833 466.449 92.65C464.983 91.9833 463.733 91.1 462.699 90C461.699 88.9 460.916 87.6 460.349 86.1C459.816 84.6 459.549 83 459.549 81.3C459.549 79.5 459.849 77.85 460.449 76.35C461.049 74.8167 461.883 73.5167 462.949 72.45C464.016 71.35 465.283 70.5 466.749 69.9C468.216 69.3 469.816 69 471.549 69C473.183 69 474.683 69.2833 476.049 69.85C477.416 70.3833 478.583 71.1833 479.549 72.25C480.549 73.2833 481.316 74.5667 481.849 76.1C482.383 77.6 482.649 79.3167 482.649 81.25V82.5H463.749C463.816 83.5 464.049 84.4667 464.449 85.4C464.883 86.3 465.433 87.1 466.099 87.8C466.766 88.4667 467.549 89 468.449 89.4C469.349 89.8 470.333 90 471.399 90C473.099 90 474.533 89.7 475.699 89.1C476.866 88.5 477.916 87.6167 478.849 86.45L481.799 88.75ZM478.449 79.2C478.383 77.2 477.733 75.6 476.499 74.4C475.266 73.2 473.566 72.6 471.399 72.6C469.233 72.6 467.483 73.2 466.149 74.4C464.816 75.6 464.016 77.2 463.749 79.2H478.449ZM489.182 86.85C489.949 87.8167 490.782 88.5833 491.682 89.15C492.616 89.7167 493.782 90 495.182 90C495.782 90 496.382 89.9333 496.982 89.8C497.616 89.6667 498.182 89.45 498.682 89.15C499.182 88.85 499.582 88.4833 499.882 88.05C500.182 87.5833 500.332 87.0333 500.332 86.4C500.332 85.7667 500.182 85.25 499.882 84.85C499.616 84.45 499.249 84.1167 498.782 83.85C498.316 83.55 497.782 83.3167 497.182 83.15C496.582 82.9833 495.966 82.8333 495.332 82.7C494.232 82.4667 493.182 82.2 492.182 81.9C491.182 81.6 490.299 81.2167 489.532 80.75C488.799 80.25 488.199 79.6167 487.732 78.85C487.299 78.0833 487.082 77.1 487.082 75.9C487.082 74.7667 487.332 73.7667 487.832 72.9C488.332 72.0333 488.999 71.3167 489.832 70.75C490.666 70.1833 491.599 69.75 492.632 69.45C493.666 69.15 494.732 69 495.832 69C497.499 69 499.032 69.3333 500.432 70C501.866 70.6667 502.982 71.75 503.782 73.25L500.532 75.4C500.032 74.5667 499.366 73.9 498.532 73.4C497.732 72.8667 496.749 72.6 495.582 72.6C495.049 72.6 494.499 72.6667 493.932 72.8C493.399 72.9333 492.916 73.1333 492.482 73.4C492.049 73.6667 491.682 74.0167 491.382 74.45C491.116 74.85 490.982 75.3167 490.982 75.85C490.982 76.35 491.132 76.7833 491.432 77.15C491.766 77.4833 492.199 77.7833 492.732 78.05C493.299 78.3167 493.932 78.55 494.632 78.75C495.366 78.95 496.116 79.1167 496.882 79.25C497.916 79.45 498.899 79.7167 499.832 80.05C500.766 80.35 501.582 80.7667 502.282 81.3C502.982 81.8333 503.532 82.5 503.932 83.3C504.332 84.1 504.532 85.0833 504.532 86.25C504.532 87.5833 504.266 88.7167 503.732 89.65C503.199 90.5833 502.482 91.35 501.582 91.95C500.716 92.5167 499.716 92.9333 498.582 93.2C497.482 93.4667 496.349 93.6 495.182 93.6C493.182 93.6 491.449 93.3 489.982 92.7C488.549 92.0667 487.249 90.9167 486.082 89.25L489.182 86.85ZM510.321 69.6H514.221V93H510.321V69.6ZM509.421 60.45C509.421 59.6833 509.688 59.0167 510.221 58.45C510.788 57.8833 511.471 57.6 512.271 57.6C513.071 57.6 513.738 57.8833 514.271 58.45C514.838 59.0167 515.121 59.6833 515.121 60.45C515.121 61.2833 514.855 61.9667 514.321 62.5C513.788 63.0333 513.105 63.3 512.271 63.3C511.438 63.3 510.755 63.0333 510.221 62.5C509.688 61.9667 509.421 61.2833 509.421 60.45ZM545.333 91.95C545.333 96.2167 544.233 99.45 542.033 101.65C539.867 103.883 536.717 105 532.583 105C530.283 105 528.2 104.667 526.333 104C524.5 103.333 522.75 102.183 521.083 100.55L523.883 97.35C525.117 98.6833 526.417 99.6833 527.783 100.35C529.183 101.05 530.783 101.4 532.583 101.4C534.317 101.4 535.75 101.133 536.883 100.6C538.05 100.1 538.967 99.4 539.633 98.5C540.3 97.6333 540.767 96.6333 541.033 95.5C541.3 94.3667 541.433 93.1833 541.433 91.95V88.95H541.333C540.4 90.45 539.183 91.55 537.683 92.25C536.183 92.95 534.65 93.3 533.083 93.3C531.25 93.3 529.567 93 528.033 92.4C526.5 91.8 525.183 90.9667 524.083 89.9C522.983 88.8333 522.133 87.5667 521.533 86.1C520.933 84.6333 520.633 83.0333 520.633 81.3C520.633 79.4 520.933 77.6833 521.533 76.15C522.133 74.6167 522.967 73.3333 524.033 72.3C525.133 71.2333 526.45 70.4167 527.983 69.85C529.517 69.2833 531.217 69 533.083 69C533.883 69 534.683 69.1 535.483 69.3C536.283 69.4667 537.05 69.75 537.783 70.15C538.55 70.5167 539.233 71 539.833 71.6C540.433 72.1667 540.933 72.8333 541.333 73.6H541.433V69.6H545.333V91.95ZM524.833 81.3C524.833 82.5 525.05 83.6167 525.483 84.65C525.917 85.65 526.5 86.5333 527.233 87.3C528 88.0333 528.883 88.6167 529.883 89.05C530.883 89.4833 531.95 89.7 533.083 89.7C534.417 89.7 535.6 89.4667 536.633 89C537.667 88.5333 538.533 87.9167 539.233 87.15C539.967 86.35 540.517 85.45 540.883 84.45C541.25 83.4167 541.433 82.3333 541.433 81.2C541.433 79.9333 541.233 78.7833 540.833 77.75C540.433 76.6833 539.867 75.7667 539.133 75C538.4 74.2333 537.517 73.65 536.483 73.25C535.45 72.8167 534.317 72.6 533.083 72.6C531.85 72.6 530.717 72.8333 529.683 73.3C528.683 73.7333 527.817 74.35 527.083 75.15C526.383 75.9167 525.833 76.8333 525.433 77.9C525.033 78.9333 524.833 80.0667 524.833 81.3ZM552.55 75.15C552.55 74.0833 552.516 73.0833 552.45 72.15C552.383 71.2167 552.35 70.3667 552.35 69.6H556.05C556.05 70.2333 556.066 70.8667 556.1 71.5C556.133 72.1333 556.15 72.7833 556.15 73.45H556.25C556.516 72.8833 556.883 72.3333 557.35 71.8C557.85 71.2667 558.433 70.8 559.1 70.4C559.766 69.9667 560.516 69.6333 561.35 69.4C562.183 69.1333 563.083 69 564.05 69C565.583 69 566.9 69.2333 568 69.7C569.133 70.1667 570.066 70.8167 570.8 71.65C571.533 72.4833 572.066 73.5 572.4 74.7C572.766 75.8667 572.95 77.15 572.95 78.55V93H569.05V78.95C569.05 76.9833 568.616 75.4333 567.75 74.3C566.883 73.1667 565.533 72.6 563.7 72.6C562.433 72.6 561.333 72.8167 560.4 73.25C559.5 73.6833 558.75 74.3 558.15 75.1C557.583 75.9 557.15 76.85 556.85 77.95C556.583 79.05 556.45 80.2667 556.45 81.6V93H552.55V75.15ZM580.833 86.85C581.599 87.8167 582.433 88.5833 583.333 89.15C584.266 89.7167 585.433 90 586.833 90C587.433 90 588.033 89.9333 588.633 89.8C589.266 89.6667 589.833 89.45 590.333 89.15C590.833 88.85 591.233 88.4833 591.533 88.05C591.833 87.5833 591.983 87.0333 591.983 86.4C591.983 85.7667 591.833 85.25 591.533 84.85C591.266 84.45 590.899 84.1167 590.433 83.85C589.966 83.55 589.433 83.3167 588.833 83.15C588.233 82.9833 587.616 82.8333 586.983 82.7C585.883 82.4667 584.833 82.2 583.833 81.9C582.833 81.6 581.949 81.2167 581.183 80.75C580.449 80.25 579.849 79.6167 579.383 78.85C578.949 78.0833 578.733 77.1 578.733 75.9C578.733 74.7667 578.983 73.7667 579.483 72.9C579.983 72.0333 580.649 71.3167 581.483 70.75C582.316 70.1833 583.249 69.75 584.283 69.45C585.316 69.15 586.383 69 587.483 69C589.149 69 590.683 69.3333 592.083 70C593.516 70.6667 594.633 71.75 595.433 73.25L592.183 75.4C591.683 74.5667 591.016 73.9 590.183 73.4C589.383 72.8667 588.399 72.6 587.233 72.6C586.699 72.6 586.149 72.6667 585.583 72.8C585.049 72.9333 584.566 73.1333 584.133 73.4C583.699 73.6667 583.333 74.0167 583.033 74.45C582.766 74.85 582.633 75.3167 582.633 75.85C582.633 76.35 582.783 76.7833 583.083 77.15C583.416 77.4833 583.849 77.7833 584.383 78.05C584.949 78.3167 585.583 78.55 586.283 78.75C587.016 78.95 587.766 79.1167 588.533 79.25C589.566 79.45 590.549 79.7167 591.483 80.05C592.416 80.35 593.233 80.7667 593.933 81.3C594.633 81.8333 595.183 82.5 595.583 83.3C595.983 84.1 596.183 85.0833 596.183 86.25C596.183 87.5833 595.916 88.7167 595.383 89.65C594.849 90.5833 594.133 91.35 593.233 91.95C592.366 92.5167 591.366 92.9333 590.233 93.2C589.133 93.4667 587.999 93.6 586.833 93.6C584.833 93.6 583.099 93.3 581.633 92.7C580.199 92.0667 578.899 90.9167 577.733 89.25L580.833 86.85Z" fill="#683C09"/>
<rect x="59" y="109" width="258" height="9" fill="#98BC61" fill-opacity="0.45"/>
<path d="M266.258 204.025C264.725 204.025 263.45 203.767 262.433 203.25C261.416 202.733 260.65 202.042 260.133 201.175C259.633 200.325 259.383 199.392 259.383 198.375C259.383 197.458 259.533 196.667 259.833 196C260.15 195.35 260.566 194.808 261.083 194.375C261.666 193.892 262.35 193.525 263.133 193.275C263.916 193.025 264.775 192.858 265.708 192.775C266.641 192.675 267.608 192.625 268.608 192.625H270.833C272.1 192.625 273.216 192.583 274.183 192.5C275.15 192.4 275.983 192.242 276.683 192.025C277.383 191.808 277.95 191.5 278.383 191.1C278.8 190.717 279.1 190.242 279.283 189.675C279.483 189.108 279.583 188.433 279.583 187.65C279.583 186.767 279.425 186.033 279.108 185.45C278.791 184.867 278.358 184.425 277.808 184.125C277.258 183.825 276.641 183.675 275.958 183.675C275.475 183.675 275.041 183.75 274.658 183.9C274.291 184.033 273.966 184.258 273.683 184.575C273.366 184.958 273.141 185.408 273.008 185.925C272.875 186.425 272.808 187.125 272.808 188.025V190.875H270.633V188.575C270.633 187.825 270.558 187.15 270.408 186.55C270.258 185.933 270.008 185.408 269.658 184.975C269.325 184.525 268.875 184.183 268.308 183.95C267.758 183.717 267.066 183.6 266.233 183.6C265.716 183.6 265.316 183.625 265.033 183.675C264.75 183.708 264.441 183.783 264.108 183.9L263.233 184.25C262.783 184.483 262.416 184.767 262.133 185.1C261.866 185.417 261.666 185.767 261.533 186.15C261.416 186.517 261.358 186.9 261.358 187.3C261.358 188.017 261.533 188.6 261.883 189.05C262.25 189.483 262.841 189.7 263.658 189.7C264.308 189.7 264.833 189.517 265.233 189.15C265.65 188.783 265.858 188.275 265.858 187.625C265.858 187.042 265.7 186.542 265.383 186.125C265.083 185.692 264.658 185.367 264.108 185.15C263.575 184.917 262.958 184.8 262.258 184.8L263.858 183.65C264.625 183.717 265.308 183.917 265.908 184.25C266.525 184.567 267.008 185 267.358 185.55C267.725 186.083 267.908 186.717 267.908 187.45C267.908 188.65 267.516 189.608 266.733 190.325C265.966 191.042 264.95 191.4 263.683 191.4C262.75 191.4 261.958 191.225 261.308 190.875C260.675 190.508 260.191 190.025 259.858 189.425C259.541 188.808 259.383 188.125 259.383 187.375C259.383 186.208 259.691 185.217 260.308 184.4C260.925 183.567 261.741 182.933 262.758 182.5C263.791 182.067 264.9 181.85 266.083 181.85C267.3 181.85 268.283 182.008 269.033 182.325C269.8 182.642 270.391 183.042 270.808 183.525C271.241 184.008 271.566 184.508 271.783 185.025L271.333 185.25C271.583 184.533 271.916 183.925 272.333 183.425C272.766 182.908 273.291 182.517 273.908 182.25C274.525 181.983 275.233 181.85 276.033 181.85C277.283 181.85 278.333 182.1 279.183 182.6C280.033 183.083 280.675 183.758 281.108 184.625C281.558 185.492 281.783 186.492 281.783 187.625C281.783 188.742 281.616 189.692 281.283 190.475C280.95 191.258 280.483 191.908 279.883 192.425C279.25 192.975 278.483 193.392 277.583 193.675C276.7 193.958 275.725 194.158 274.658 194.275C273.608 194.375 272.508 194.425 271.358 194.425H269.008C267.908 194.425 266.933 194.458 266.083 194.525C265.25 194.592 264.533 194.725 263.933 194.925C263.35 195.125 262.866 195.417 262.483 195.8C262.166 196.117 261.933 196.483 261.783 196.9C261.65 197.317 261.583 197.792 261.583 198.325C261.583 199.225 261.791 199.958 262.208 200.525C262.641 201.092 263.216 201.508 263.933 201.775C264.65 202.058 265.441 202.2 266.308 202.2C267.008 202.2 267.616 202.125 268.133 201.975C268.666 201.842 269.116 201.617 269.483 201.3C269.916 200.917 270.216 200.467 270.383 199.95C270.55 199.433 270.633 198.725 270.633 197.825V196.275H272.808V197.175C272.808 197.842 272.85 198.45 272.933 199C273.016 199.55 273.158 200.033 273.358 200.45C273.641 201.017 274.033 201.45 274.533 201.75C275.05 202.05 275.716 202.2 276.533 202.2C277.066 202.2 277.566 202.083 278.033 201.85C278.5 201.633 278.875 201.267 279.158 200.75C279.458 200.233 279.608 199.525 279.608 198.625C279.608 198.158 279.55 197.633 279.433 197.05C279.316 196.467 279.166 195.983 278.983 195.6L281.108 194.875C281.325 195.442 281.491 196.017 281.608 196.6C281.725 197.183 281.783 197.883 281.783 198.7C281.783 199.85 281.55 200.817 281.083 201.6C280.633 202.4 280.008 203 279.208 203.4C278.425 203.817 277.541 204.025 276.558 204.025C275.475 204.025 274.591 203.858 273.908 203.525C273.241 203.192 272.716 202.775 272.333 202.275C271.966 201.775 271.691 201.275 271.508 200.775L271.958 200.675C271.691 201.392 271.291 202 270.758 202.5C270.225 203 269.575 203.375 268.808 203.625C268.058 203.892 267.208 204.025 266.258 204.025ZM289.395 185C288.645 185 287.961 184.833 287.345 184.5C286.745 184.15 286.27 183.675 285.92 183.075C285.57 182.475 285.395 181.8 285.395 181.05C285.395 180.3 285.57 179.625 285.92 179.025C286.27 178.425 286.745 177.95 287.345 177.6C287.961 177.25 288.645 177.075 289.395 177.075C290.161 177.075 290.845 177.25 291.445 177.6C292.045 177.95 292.52 178.425 292.87 179.025C293.22 179.625 293.395 180.3 293.395 181.05C293.395 181.8 293.22 182.475 292.87 183.075C292.52 183.675 292.045 184.15 291.445 184.5C290.845 184.833 290.161 185 289.395 185ZM289.37 183.45C290.036 183.45 290.611 183.233 291.095 182.8C291.578 182.35 291.82 181.767 291.82 181.05C291.82 180.317 291.578 179.733 291.095 179.3C290.611 178.85 290.036 178.625 289.37 178.625C288.703 178.625 288.136 178.85 287.67 179.3C287.203 179.733 286.97 180.317 286.97 181.05C286.97 181.767 287.203 182.35 287.67 182.8C288.136 183.233 288.703 183.45 289.37 183.45ZM298.005 196V193.25H300.005V196H298.005ZM298.005 185.35V182.6H300.005V185.35H298.005ZM307.233 189.925C309.358 189.925 311.058 191.625 311.058 193.725C311.058 195.825 309.358 197.525 307.233 197.525C305.158 197.525 303.433 195.825 303.433 193.725C303.433 191.625 305.158 189.925 307.233 189.925ZM307.233 196.25C308.658 196.25 309.783 195.125 309.783 193.725C309.783 192.325 308.658 191.2 307.233 191.2C305.858 191.2 304.708 192.325 304.708 193.725C304.708 195.125 305.858 196.25 307.233 196.25ZM423.567 189.925C425.692 189.925 427.392 191.625 427.392 193.725C427.392 195.825 425.692 197.525 423.567 197.525C421.492 197.525 419.767 195.825 419.767 193.725C419.767 191.625 421.492 189.925 423.567 189.925ZM423.567 196.25C424.992 196.25 426.117 195.125 426.117 193.725C426.117 192.325 424.992 191.2 423.567 191.2C422.192 191.2 421.042 192.325 421.042 193.725C421.042 195.125 422.192 196.25 423.567 196.25ZM433.992 196V193.25H435.992V196H433.992ZM433.992 185.35V182.6H435.992V185.35H433.992ZM444.595 185C443.845 185 443.161 184.833 442.545 184.5C441.945 184.15 441.47 183.675 441.12 183.075C440.77 182.475 440.595 181.8 440.595 181.05C440.595 180.3 440.77 179.625 441.12 179.025C441.47 178.425 441.945 177.95 442.545 177.6C443.161 177.25 443.845 177.075 444.595 177.075C445.361 177.075 446.045 177.25 446.645 177.6C447.245 177.95 447.72 178.425 448.07 179.025C448.42 179.625 448.595 180.3 448.595 181.05C448.595 181.8 448.42 182.475 448.07 183.075C447.72 183.675 447.245 184.15 446.645 184.5C446.045 184.833 445.361 185 444.595 185ZM444.57 183.45C445.236 183.45 445.811 183.233 446.295 182.8C446.778 182.35 447.02 181.767 447.02 181.05C447.02 180.317 446.778 179.733 446.295 179.3C445.811 178.85 445.236 178.625 444.57 178.625C443.903 178.625 443.336 178.85 442.87 179.3C442.403 179.733 442.17 180.317 442.17 181.05C442.17 181.767 442.403 182.35 442.87 182.8C443.336 183.233 443.903 183.45 444.57 183.45ZM459.08 204.025C457.547 204.025 456.272 203.767 455.255 203.25C454.239 202.733 453.472 202.042 452.955 201.175C452.455 200.325 452.205 199.392 452.205 198.375C452.205 197.458 452.355 196.667 452.655 196C452.972 195.35 453.389 194.808 453.905 194.375C454.489 193.892 455.172 193.525 455.955 193.275C456.739 193.025 457.597 192.858 458.53 192.775C459.464 192.675 460.43 192.625 461.43 192.625H463.655C464.922 192.625 466.039 192.583 467.005 192.5C467.972 192.4 468.805 192.242 469.505 192.025C470.205 191.808 470.772 191.5 471.205 191.1C471.622 190.717 471.922 190.242 472.105 189.675C472.305 189.108 472.405 188.433 472.405 187.65C472.405 186.767 472.247 186.033 471.93 185.45C471.614 184.867 471.18 184.425 470.63 184.125C470.08 183.825 469.464 183.675 468.78 183.675C468.297 183.675 467.864 183.75 467.48 183.9C467.114 184.033 466.789 184.258 466.505 184.575C466.189 184.958 465.964 185.408 465.83 185.925C465.697 186.425 465.63 187.125 465.63 188.025V190.875H463.455V188.575C463.455 187.825 463.38 187.15 463.23 186.55C463.08 185.933 462.83 185.408 462.48 184.975C462.147 184.525 461.697 184.183 461.13 183.95C460.58 183.717 459.889 183.6 459.055 183.6C458.539 183.6 458.139 183.625 457.855 183.675C457.572 183.708 457.264 183.783 456.93 183.9L456.055 184.25C455.605 184.483 455.239 184.767 454.955 185.1C454.689 185.417 454.489 185.767 454.355 186.15C454.239 186.517 454.18 186.9 454.18 187.3C454.18 188.017 454.355 188.6 454.705 189.05C455.072 189.483 455.664 189.7 456.48 189.7C457.13 189.7 457.655 189.517 458.055 189.15C458.472 188.783 458.68 188.275 458.68 187.625C458.68 187.042 458.522 186.542 458.205 186.125C457.905 185.692 457.48 185.367 456.93 185.15C456.397 184.917 455.78 184.8 455.08 184.8L456.68 183.65C457.447 183.717 458.13 183.917 458.73 184.25C459.347 184.567 459.83 185 460.18 185.55C460.547 186.083 460.73 186.717 460.73 187.45C460.73 188.65 460.339 189.608 459.555 190.325C458.789 191.042 457.772 191.4 456.505 191.4C455.572 191.4 454.78 191.225 454.13 190.875C453.497 190.508 453.014 190.025 452.68 189.425C452.364 188.808 452.205 188.125 452.205 187.375C452.205 186.208 452.514 185.217 453.13 184.4C453.747 183.567 454.564 182.933 455.58 182.5C456.614 182.067 457.722 181.85 458.905 181.85C460.122 181.85 461.105 182.008 461.855 182.325C462.622 182.642 463.214 183.042 463.63 183.525C464.064 184.008 464.389 184.508 464.605 185.025L464.155 185.25C464.405 184.533 464.739 183.925 465.155 183.425C465.589 182.908 466.114 182.517 466.73 182.25C467.347 181.983 468.055 181.85 468.855 181.85C470.105 181.85 471.155 182.1 472.005 182.6C472.855 183.083 473.497 183.758 473.93 184.625C474.38 185.492 474.605 186.492 474.605 187.625C474.605 188.742 474.439 189.692 474.105 190.475C473.772 191.258 473.305 191.908 472.705 192.425C472.072 192.975 471.305 193.392 470.405 193.675C469.522 193.958 468.547 194.158 467.48 194.275C466.43 194.375 465.33 194.425 464.18 194.425H461.83C460.73 194.425 459.755 194.458 458.905 194.525C458.072 194.592 457.355 194.725 456.755 194.925C456.172 195.125 455.689 195.417 455.305 195.8C454.989 196.117 454.755 196.483 454.605 196.9C454.472 197.317 454.405 197.792 454.405 198.325C454.405 199.225 454.614 199.958 455.03 200.525C455.464 201.092 456.039 201.508 456.755 201.775C457.472 202.058 458.264 202.2 459.13 202.2C459.83 202.2 460.439 202.125 460.955 201.975C461.489 201.842 461.939 201.617 462.305 201.3C462.739 200.917 463.039 200.467 463.205 199.95C463.372 199.433 463.455 198.725 463.455 197.825V196.275H465.63V197.175C465.63 197.842 465.672 198.45 465.755 199C465.839 199.55 465.98 200.033 466.18 200.45C466.464 201.017 466.855 201.45 467.355 201.75C467.872 202.05 468.539 202.2 469.355 202.2C469.889 202.2 470.389 202.083 470.855 201.85C471.322 201.633 471.697 201.267 471.98 200.75C472.28 200.233 472.43 199.525 472.43 198.625C472.43 198.158 472.372 197.633 472.255 197.05C472.139 196.467 471.989 195.983 471.805 195.6L473.93 194.875C474.147 195.442 474.314 196.017 474.43 196.6C474.547 197.183 474.605 197.883 474.605 198.7C474.605 199.85 474.372 200.817 473.905 201.6C473.455 202.4 472.83 203 472.03 203.4C471.247 203.817 470.364 204.025 469.38 204.025C468.297 204.025 467.414 203.858 466.73 203.525C466.064 203.192 465.539 202.775 465.155 202.275C464.789 201.775 464.514 201.275 464.33 200.775L464.78 200.675C464.514 201.392 464.114 202 463.58 202.5C463.047 203 462.397 203.375 461.63 203.625C460.88 203.892 460.03 204.025 459.08 204.025Z" fill="#683C09"/>
<path d="M321.407 196V177.375H327.507C329.39 177.375 331.032 177.758 332.432 178.525C333.832 179.292 334.915 180.375 335.682 181.775C336.448 183.158 336.832 184.792 336.832 186.675C336.832 188.542 336.448 190.175 335.682 191.575C334.915 192.975 333.832 194.067 332.432 194.85C331.032 195.617 329.39 196 327.507 196H321.407ZM323.857 193.75H327.532C328.915 193.75 330.107 193.458 331.107 192.875C332.123 192.292 332.907 191.475 333.457 190.425C334.007 189.358 334.282 188.108 334.282 186.675C334.282 185.225 333.998 183.975 333.432 182.925C332.882 181.875 332.098 181.067 331.082 180.5C330.082 179.917 328.898 179.625 327.532 179.625H323.857V193.75ZM339.937 196V177.375H352.062V179.625H342.387V185.525H351.562V187.775H342.387V193.75H352.062V196H339.937ZM361.498 196.3C360.315 196.3 359.231 196.083 358.248 195.65C357.265 195.2 356.431 194.592 355.748 193.825C355.065 193.058 354.573 192.2 354.273 191.25L356.398 190.375C356.848 191.575 357.515 192.5 358.398 193.15C359.298 193.783 360.348 194.1 361.548 194.1C362.281 194.1 362.923 193.983 363.473 193.75C364.023 193.517 364.448 193.192 364.748 192.775C365.065 192.342 365.223 191.842 365.223 191.275C365.223 190.492 364.998 189.875 364.548 189.425C364.115 188.958 363.473 188.608 362.623 188.375L359.198 187.325C357.848 186.908 356.815 186.25 356.098 185.35C355.381 184.45 355.023 183.417 355.023 182.25C355.023 181.233 355.265 180.342 355.748 179.575C356.248 178.792 356.931 178.183 357.798 177.75C358.681 177.3 359.681 177.075 360.798 177.075C361.915 177.075 362.923 177.275 363.823 177.675C364.74 178.075 365.515 178.617 366.148 179.3C366.781 179.967 367.248 180.733 367.548 181.6L365.448 182.475C365.048 181.425 364.448 180.633 363.648 180.1C362.848 179.55 361.906 179.275 360.823 179.275C360.156 179.275 359.565 179.392 359.048 179.625C358.548 179.842 358.156 180.167 357.873 180.6C357.606 181.017 357.473 181.517 357.473 182.1C357.473 182.783 357.69 183.392 358.123 183.925C358.556 184.458 359.215 184.867 360.098 185.15L363.223 186.075C364.69 186.525 365.798 187.167 366.548 188C367.298 188.833 367.673 189.867 367.673 191.1C367.673 192.117 367.406 193.017 366.873 193.8C366.356 194.583 365.631 195.2 364.698 195.65C363.781 196.083 362.715 196.3 361.498 196.3ZM371.26 196V177.375H373.71V196H371.26ZM386.452 196.3C385.135 196.3 383.919 196.067 382.802 195.6C381.685 195.117 380.719 194.442 379.902 193.575C379.085 192.708 378.444 191.692 377.977 190.525C377.527 189.358 377.302 188.083 377.302 186.7C377.302 185.3 377.527 184.017 377.977 182.85C378.427 181.683 379.06 180.667 379.877 179.8C380.694 178.933 381.66 178.267 382.777 177.8C383.894 177.317 385.11 177.075 386.427 177.075C387.71 177.075 388.86 177.3 389.877 177.75C390.91 178.2 391.777 178.783 392.477 179.5C393.194 180.217 393.702 180.983 394.002 181.8L391.802 182.875C391.369 181.792 390.694 180.933 389.777 180.3C388.86 179.667 387.744 179.35 386.427 179.35C385.127 179.35 383.969 179.658 382.952 180.275C381.952 180.892 381.169 181.75 380.602 182.85C380.035 183.95 379.752 185.233 379.752 186.7C379.752 188.15 380.035 189.425 380.602 190.525C381.185 191.625 381.977 192.483 382.977 193.1C383.994 193.717 385.152 194.025 386.452 194.025C387.585 194.025 388.61 193.783 389.527 193.3C390.444 192.817 391.169 192.15 391.702 191.3C392.235 190.45 392.502 189.467 392.502 188.35V187.2L393.627 188.25H386.427V186.125H394.977V187.775C394.977 189.075 394.752 190.25 394.302 191.3C393.852 192.35 393.235 193.25 392.452 194C391.669 194.733 390.76 195.3 389.727 195.7C388.694 196.1 387.602 196.3 386.452 196.3ZM398.286 196V177.375H400.336L411.036 192.425L410.111 192.525V177.375H412.586V196H410.536L399.886 180.85L400.736 180.75V196H398.286Z" fill="#FFAA52"/>
</svg>
