<svg width="705" height="208" viewBox="0 0 705 208" fill="none" xmlns="http://www.w3.org/2000/svg">
<path d="M30 0.5H658C674.292 0.5 687.5 13.7076 687.5 30V107C687.5 123.292 674.292 136.5 658 136.5H30C13.7076 136.5 0.5 123.292 0.5 107V30C0.5 13.7076 13.7076 0.5 30 0.5Z" stroke="#FFAA52"/>
<path d="M58 32.5H675C691.292 32.5 704.5 45.7076 704.5 62V127C704.5 143.292 691.292 156.5 675 156.5H58C41.7076 156.5 28.5 143.292 28.5 127V62C28.5 45.7076 41.7076 32.5 58 32.5Z" stroke="#98BC61"/>
<path d="M226.97 95L216.27 57.75H220.32L229.57 91.1H228.72L238.22 57.75H242.47L251.92 91.1H251.02L260.32 57.75H264.37L253.67 95H249.42L239.87 61.5H240.77L231.22 95H226.97ZM268.788 95V68.2H272.538V95H268.788ZM268.788 63.25V57.75H272.538V63.25H268.788ZM280.214 95V68.2H283.964V72.6L283.464 71.95C284.098 70.6833 285.048 69.6833 286.314 68.95C287.614 68.2167 289.181 67.85 291.014 67.85H292.714V71.6H290.364C288.431 71.6 286.881 72.2 285.714 73.4C284.548 74.6 283.964 76.3 283.964 78.5V95H280.214ZM309.309 95.6C306.809 95.6 304.542 95 302.509 93.8C300.509 92.5667 298.925 90.8833 297.759 88.75C296.592 86.6167 296.009 84.2 296.009 81.5C296.009 78.8 296.575 76.4167 297.709 74.35C298.842 72.25 300.375 70.6 302.309 69.4C304.275 68.2 306.475 67.6 308.909 67.6C310.842 67.6 312.559 67.9667 314.059 68.7C315.592 69.4 316.892 70.3667 317.959 71.6C319.025 72.8 319.842 74.1667 320.409 75.7C320.975 77.2 321.259 78.75 321.259 80.35C321.259 80.6833 321.242 81.0667 321.209 81.5C321.175 81.9 321.125 82.3167 321.059 82.75H298.409V79.25H318.909L317.109 80.75C317.409 78.9167 317.192 77.2833 316.459 75.85C315.759 74.3833 314.742 73.2333 313.409 72.4C312.075 71.5333 310.575 71.1 308.909 71.1C307.242 71.1 305.692 71.5333 304.259 72.4C302.859 73.2667 301.759 74.4833 300.959 76.05C300.159 77.5833 299.842 79.4167 300.009 81.55C299.842 83.6833 300.175 85.55 301.009 87.15C301.875 88.7167 303.042 89.9333 304.509 90.8C306.009 91.6667 307.609 92.1 309.309 92.1C311.275 92.1 312.925 91.6333 314.259 90.7C315.592 89.7667 316.675 88.6 317.509 87.2L320.709 88.9C320.175 90.1 319.359 91.2167 318.259 92.25C317.159 93.25 315.842 94.0667 314.309 94.7C312.809 95.3 311.142 95.6 309.309 95.6ZM330.621 95V71.95H325.271V68.2H330.621V65.8C330.621 63.9333 331.037 62.3667 331.871 61.1C332.704 59.8 333.804 58.8167 335.171 58.15C336.537 57.4833 338.004 57.15 339.571 57.15C339.904 57.15 340.287 57.1833 340.721 57.25C341.154 57.2833 341.504 57.3333 341.771 57.4V60.8C341.537 60.7333 341.221 60.7 340.821 60.7C340.421 60.6667 340.137 60.65 339.971 60.65C338.371 60.65 337.037 61.0333 335.971 61.8C334.904 62.5667 334.371 63.9 334.371 65.8V68.2H340.921V71.95H334.371V95H330.621ZM347.011 95V68.2H350.761V72.6L350.261 71.95C350.894 70.6833 351.844 69.6833 353.111 68.95C354.411 68.2167 355.978 67.85 357.811 67.85H359.511V71.6H357.161C355.228 71.6 353.678 72.2 352.511 73.4C351.344 74.6 350.761 76.3 350.761 78.5V95H347.011ZM371.656 95.6C369.956 95.6 368.439 95.2833 367.106 94.65C365.772 93.9833 364.722 93.0833 363.956 91.95C363.189 90.8167 362.806 89.5167 362.806 88.05C362.806 86.65 363.106 85.3833 363.706 84.25C364.306 83.0833 365.239 82.1 366.506 81.3C367.772 80.5 369.389 79.9333 371.356 79.6L381.856 77.85V81.25L372.256 82.85C370.322 83.1833 368.922 83.8 368.056 84.7C367.222 85.6 366.806 86.6667 366.806 87.9C366.806 89.1 367.272 90.1167 368.206 90.95C369.172 91.7833 370.406 92.2 371.906 92.2C373.739 92.2 375.339 91.8167 376.706 91.05C378.072 90.25 379.139 89.1833 379.906 87.85C380.672 86.5167 381.056 85.0333 381.056 83.4V76.6C381.056 75 380.472 73.7 379.306 72.7C378.139 71.7 376.622 71.2 374.756 71.2C373.122 71.2 371.689 71.6167 370.456 72.45C369.222 73.25 368.306 74.3 367.706 75.6L364.306 73.75C364.806 72.6167 365.589 71.5833 366.656 70.65C367.756 69.7167 369.006 68.9833 370.406 68.45C371.806 67.8833 373.256 67.6 374.756 67.6C376.722 67.6 378.456 67.9833 379.956 68.75C381.489 69.5167 382.672 70.5833 383.506 71.95C384.372 73.2833 384.806 74.8333 384.806 76.6V95H381.056V89.65L381.606 90.2C381.139 91.2 380.406 92.1167 379.406 92.95C378.439 93.75 377.289 94.4 375.956 94.9C374.656 95.3667 373.222 95.6 371.656 95.6ZM392.519 95V68.2H396.269V73.3L395.669 72.55C396.402 70.9833 397.486 69.7667 398.919 68.9C400.386 68.0333 401.986 67.6 403.719 67.6C405.786 67.6 407.652 68.1833 409.319 69.35C410.986 70.5167 412.169 72.0333 412.869 73.9L411.819 73.95C412.486 71.8833 413.636 70.3167 415.269 69.25C416.936 68.15 418.769 67.6 420.769 67.6C422.569 67.6 424.219 68.0333 425.719 68.9C427.252 69.7667 428.469 70.9667 429.369 72.5C430.302 74 430.769 75.7 430.769 77.6V95H427.019V79.05C427.019 77.4167 426.719 76.0333 426.119 74.9C425.552 73.7667 424.769 72.9 423.769 72.3C422.769 71.6667 421.619 71.35 420.319 71.35C419.052 71.35 417.902 71.6667 416.869 72.3C415.836 72.9 415.019 73.7833 414.419 74.95C413.819 76.0833 413.519 77.45 413.519 79.05V95H409.769V79.05C409.769 77.4167 409.469 76.0333 408.869 74.9C408.302 73.7667 407.519 72.9 406.519 72.3C405.519 71.6667 404.369 71.35 403.069 71.35C401.769 71.35 400.602 71.6667 399.569 72.3C398.569 72.9 397.769 73.7833 397.169 74.95C396.569 76.0833 396.269 77.45 396.269 79.05V95H392.519ZM450.129 95.6C447.629 95.6 445.362 95 443.329 93.8C441.329 92.5667 439.746 90.8833 438.579 88.75C437.412 86.6167 436.829 84.2 436.829 81.5C436.829 78.8 437.396 76.4167 438.529 74.35C439.662 72.25 441.196 70.6 443.129 69.4C445.096 68.2 447.296 67.6 449.729 67.6C451.662 67.6 453.379 67.9667 454.879 68.7C456.412 69.4 457.712 70.3667 458.779 71.6C459.846 72.8 460.662 74.1667 461.229 75.7C461.796 77.2 462.079 78.75 462.079 80.35C462.079 80.6833 462.062 81.0667 462.029 81.5C461.996 81.9 461.946 82.3167 461.879 82.75H439.229V79.25H459.729L457.929 80.75C458.229 78.9167 458.012 77.2833 457.279 75.85C456.579 74.3833 455.562 73.2333 454.229 72.4C452.896 71.5333 451.396 71.1 449.729 71.1C448.062 71.1 446.512 71.5333 445.079 72.4C443.679 73.2667 442.579 74.4833 441.779 76.05C440.979 77.5833 440.662 79.4167 440.829 81.55C440.662 83.6833 440.996 85.55 441.829 87.15C442.696 88.7167 443.862 89.9333 445.329 90.8C446.829 91.6667 448.429 92.1 450.129 92.1C452.096 92.1 453.746 91.6333 455.079 90.7C456.412 89.7667 457.496 88.6 458.329 87.2L461.529 88.9C460.996 90.1 460.179 91.2167 459.079 92.25C457.979 93.25 456.662 94.0667 455.129 94.7C453.629 95.3 451.962 95.6 450.129 95.6ZM477.991 95.6C475.424 95.6 473.174 94.95 471.241 93.65C469.307 92.35 467.907 90.5833 467.041 88.35L470.191 86.85C470.957 88.4833 472.024 89.7833 473.391 90.75C474.791 91.7167 476.324 92.2 477.991 92.2C479.591 92.2 480.941 91.8167 482.041 91.05C483.141 90.25 483.691 89.2167 483.691 87.95C483.691 87.0167 483.424 86.2833 482.891 85.75C482.357 85.1833 481.741 84.75 481.041 84.45C480.341 84.15 479.724 83.9333 479.191 83.8L475.341 82.7C472.874 82 471.091 81.0167 469.991 79.75C468.891 78.4833 468.341 77.0167 468.341 75.35C468.341 73.7833 468.741 72.4167 469.541 71.25C470.341 70.0833 471.424 69.1833 472.791 68.55C474.157 67.9167 475.674 67.6 477.341 67.6C479.607 67.6 481.657 68.2 483.491 69.4C485.357 70.5667 486.674 72.2 487.441 74.3L484.241 75.8C483.574 74.3 482.607 73.1333 481.341 72.3C480.107 71.4333 478.724 71 477.191 71C475.691 71 474.491 71.3833 473.591 72.15C472.691 72.9167 472.241 73.8833 472.241 75.05C472.241 75.95 472.474 76.6667 472.941 77.2C473.407 77.7333 473.941 78.1333 474.541 78.4C475.174 78.6667 475.724 78.8667 476.191 79L480.641 80.3C482.807 80.9333 484.491 81.9167 485.691 83.25C486.924 84.5833 487.541 86.15 487.541 87.95C487.541 89.4167 487.124 90.7333 486.291 91.9C485.491 93.0667 484.374 93.9833 482.941 94.65C481.507 95.2833 479.857 95.6 477.991 95.6Z" fill="black"/>
<rect x="136" y="109" width="265" height="9" fill="#98BC61" fill-opacity="0.45"/>
<path d="M264.697 181.025L268.247 179.825L268.722 181.275L265.197 182.475L267.422 185.45L266.197 186.4L263.947 183.325L261.772 186.4L260.522 185.45L262.697 182.475L259.172 181.275L259.647 179.825L263.197 181.025V177.3H264.697V181.025ZM272.98 192.15C273.397 192.15 273.747 192.3 274.03 192.6C274.33 192.883 274.48 193.233 274.48 193.65C274.48 194.067 274.322 194.425 274.005 194.725C273.705 195.008 273.364 195.15 272.98 195.15C272.597 195.15 272.247 195.008 271.93 194.725C271.63 194.425 271.48 194.067 271.48 193.65C271.48 193.233 271.622 192.883 271.905 192.6C272.205 192.3 272.564 192.15 272.98 192.15ZM286.788 196.05C286.438 193.9 284.888 191.225 281.988 189.025C280.538 187.925 279.113 187.225 277.738 186.95V185.9C280.513 185.275 283.263 183.325 285.063 180.775C285.963 179.5 286.538 178.2 286.788 176.85H287.838C288.263 179.4 290.263 182.175 292.888 184.05C294.188 184.975 295.538 185.6 296.938 185.9V186.95C294.113 187.525 290.888 189.975 289.313 192.5C288.513 193.775 288.013 194.95 287.838 196.05H286.788ZM287.138 195.45H287.488C287.738 192.85 288.513 190.025 289.388 188.55C291.063 187.6 294.088 186.8 296.288 186.65V186.3C294.088 186.125 290.938 185.275 289.388 184.35C288.513 182.85 287.738 180.1 287.488 177.5H287.138C286.938 179.85 286.188 182.675 285.238 184.35C283.638 185.275 280.638 186.125 278.338 186.3V186.65C280.613 186.825 283.538 187.6 285.238 188.55C286.163 190.175 286.938 193.05 287.138 195.45ZM415.109 196.05C414.759 193.9 413.209 191.225 410.309 189.025C408.859 187.925 407.434 187.225 406.059 186.95V185.9C408.834 185.275 411.584 183.325 413.384 180.775C414.284 179.5 414.859 178.2 415.109 176.85H416.159C416.584 179.4 418.584 182.175 421.209 184.05C422.509 184.975 423.859 185.6 425.259 185.9V186.95C422.434 187.525 419.209 189.975 417.634 192.5C416.834 193.775 416.334 194.95 416.159 196.05H415.109ZM415.459 195.45H415.809C416.059 192.85 416.834 190.025 417.709 188.55C419.384 187.6 422.409 186.8 424.609 186.65V186.3C422.409 186.125 419.259 185.275 417.709 184.35C416.834 182.85 416.059 180.1 415.809 177.5H415.459C415.259 179.85 414.509 182.675 413.559 184.35C411.959 185.275 408.959 186.125 406.659 186.3V186.65C408.934 186.825 411.859 187.6 413.559 188.55C414.484 190.175 415.259 193.05 415.459 195.45ZM430.012 192.15C430.428 192.15 430.778 192.3 431.062 192.6C431.362 192.883 431.512 193.233 431.512 193.65C431.512 194.067 431.353 194.425 431.037 194.725C430.737 195.008 430.395 195.15 430.012 195.15C429.628 195.15 429.278 195.008 428.962 194.725C428.662 194.425 428.512 194.067 428.512 193.65C428.512 193.233 428.653 192.883 428.937 192.6C429.237 192.3 429.595 192.15 430.012 192.15ZM439.795 181.025L443.345 179.825L443.82 181.275L440.295 182.475L442.52 185.45L441.295 186.4L439.045 183.325L436.87 186.4L435.62 185.45L437.795 182.475L434.27 181.275L434.745 179.825L438.295 181.025V177.3H439.795V181.025Z" fill="black"/>
<path d="M307.049 177.3H313.849C314.433 177.3 315.049 177.367 315.699 177.5C316.349 177.633 316.991 177.85 317.624 178.15C318.274 178.433 318.891 178.808 319.474 179.275C320.074 179.742 320.599 180.308 321.049 180.975C321.499 181.625 321.858 182.383 322.124 183.25C322.391 184.1 322.524 185.067 322.524 186.15C322.524 187.233 322.391 188.208 322.124 189.075C321.858 189.925 321.499 190.683 321.049 191.35C320.599 192 320.074 192.558 319.474 193.025C318.891 193.492 318.274 193.875 317.624 194.175C316.991 194.458 316.349 194.667 315.699 194.8C315.049 194.933 314.433 195 313.849 195H307.049V177.3ZM309.149 193.05H313.149C314.166 193.05 315.108 192.917 315.974 192.65C316.841 192.383 317.591 191.975 318.224 191.425C318.858 190.858 319.358 190.142 319.724 189.275C320.091 188.408 320.274 187.367 320.274 186.15C320.274 184.933 320.091 183.892 319.724 183.025C319.358 182.158 318.858 181.45 318.224 180.9C317.591 180.333 316.841 179.917 315.974 179.65C315.108 179.383 314.166 179.25 313.149 179.25H309.149V193.05ZM325.905 177.3H337.03V179.25H328.005V184.8H336.43V186.75H328.005V193.05H337.48V195H325.905V177.3ZM349.124 180.425C348.774 179.858 348.307 179.45 347.724 179.2C347.141 178.933 346.532 178.8 345.899 178.8C345.432 178.8 344.974 178.858 344.524 178.975C344.074 179.092 343.666 179.267 343.299 179.5C342.949 179.733 342.666 180.042 342.449 180.425C342.232 180.808 342.124 181.258 342.124 181.775C342.124 182.175 342.182 182.533 342.299 182.85C342.432 183.15 342.641 183.425 342.924 183.675C343.207 183.925 343.591 184.158 344.074 184.375C344.557 184.592 345.149 184.808 345.849 185.025C346.532 185.242 347.191 185.475 347.824 185.725C348.474 185.975 349.041 186.292 349.524 186.675C350.024 187.058 350.416 187.542 350.699 188.125C350.999 188.692 351.149 189.408 351.149 190.275C351.149 191.158 350.974 191.925 350.624 192.575C350.274 193.225 349.807 193.767 349.224 194.2C348.657 194.617 347.999 194.925 347.249 195.125C346.499 195.342 345.724 195.45 344.924 195.45C344.407 195.45 343.891 195.4 343.374 195.3C342.857 195.217 342.357 195.083 341.874 194.9C341.407 194.7 340.966 194.45 340.549 194.15C340.132 193.833 339.774 193.45 339.474 193L341.274 191.525C341.657 192.175 342.191 192.667 342.874 193C343.557 193.333 344.282 193.5 345.049 193.5C345.499 193.5 345.949 193.433 346.399 193.3C346.866 193.167 347.282 192.975 347.649 192.725C348.016 192.458 348.316 192.133 348.549 191.75C348.782 191.367 348.899 190.925 348.899 190.425C348.899 189.875 348.807 189.433 348.624 189.1C348.441 188.75 348.157 188.45 347.774 188.2C347.391 187.95 346.907 187.725 346.324 187.525C345.741 187.325 345.057 187.092 344.274 186.825C343.641 186.625 343.057 186.4 342.524 186.15C341.991 185.883 341.524 185.567 341.124 185.2C340.741 184.817 340.432 184.367 340.199 183.85C339.982 183.317 339.874 182.683 339.874 181.95C339.874 181.1 340.041 180.358 340.374 179.725C340.707 179.092 341.157 178.567 341.724 178.15C342.291 177.717 342.932 177.392 343.649 177.175C344.366 176.958 345.116 176.85 345.899 176.85C346.899 176.85 347.807 177.008 348.624 177.325C349.457 177.625 350.199 178.158 350.849 178.925L349.124 180.425ZM354.616 177.3H356.716V195H354.616V177.3ZM376.16 193.8C375.143 194.367 374.068 194.783 372.935 195.05C371.818 195.317 370.685 195.45 369.535 195.45C368.151 195.45 366.885 195.225 365.735 194.775C364.585 194.325 363.585 193.692 362.735 192.875C361.901 192.058 361.251 191.083 360.785 189.95C360.318 188.8 360.085 187.533 360.085 186.15C360.085 184.75 360.326 183.483 360.81 182.35C361.31 181.2 361.993 180.225 362.86 179.425C363.726 178.608 364.735 177.975 365.885 177.525C367.035 177.075 368.276 176.85 369.61 176.85C370.776 176.85 371.893 177.025 372.96 177.375C374.043 177.725 375.01 178.325 375.86 179.175L374.285 180.825C373.685 180.175 372.951 179.675 372.085 179.325C371.235 178.975 370.36 178.8 369.46 178.8C368.443 178.8 367.501 178.983 366.635 179.35C365.768 179.717 365.01 180.225 364.36 180.875C363.726 181.525 363.226 182.3 362.86 183.2C362.51 184.1 362.335 185.083 362.335 186.15C362.335 187.2 362.51 188.175 362.86 189.075C363.226 189.975 363.726 190.758 364.36 191.425C365.01 192.075 365.785 192.583 366.685 192.95C367.585 193.317 368.576 193.5 369.66 193.5C370.376 193.5 371.126 193.417 371.91 193.25C372.693 193.067 373.41 192.808 374.06 192.475V187.05H369.985V185.1H376.16V193.8ZM380.568 177.3H383.218L393.468 192H393.518V177.3H395.618V195H392.968L382.718 180.3H382.668V195H380.568V177.3Z" fill="#FFAA52"/>
</svg>
