<svg width="31" height="31" viewBox="0 0 31 31" fill="none" xmlns="http://www.w3.org/2000/svg">
<rect x="4" y="5" width="23" height="22" fill="white"/>
<path d="M12.697 17.769C12.697 19.0829 11.7439 19.4982 10.5729 19.4982H7.50246V15.8968H10.6342C11.9004 15.9036 12.697 16.4278 12.697 17.769ZM12.1728 12.166C12.1728 10.9609 11.2401 10.675 10.2052 10.675H7.50926V13.725H10.4163C11.4443 13.725 12.1728 13.2757 12.1728 12.166ZM21.1798 13.7454C19.9339 13.7454 19.1033 14.5215 19.0217 15.7674H23.2563C23.1405 14.5079 22.4869 13.7454 21.1798 13.7454ZM30.5 3.26786V27.2321C30.5 29.0363 29.0363 30.5 27.2321 30.5H3.26786C1.46373 30.5 0 29.0363 0 27.2321V3.26786C0 1.46373 1.46373 0 3.26786 0H27.2321C29.0363 0 30.5 1.46373 30.5 3.26786ZM18.4974 10.4163H23.7941V9.12958H18.4974V10.4163ZM15.57 17.9256C15.57 16.2848 14.7939 14.8688 13.1872 14.4126C14.3581 13.8544 14.9709 13.2076 14.9709 11.8936C14.9709 9.29297 13.0306 8.65982 10.7907 8.65982H4.62946V21.7313H10.9677C13.3438 21.7176 15.57 20.5807 15.57 17.9256ZM25.8705 16.918C25.8705 14.1199 24.2298 11.7847 21.2683 11.7847C18.3817 11.7847 16.4278 13.9497 16.4278 16.7954C16.4278 19.7433 18.2864 21.7653 21.2683 21.7653C23.5286 21.7653 24.9923 20.7509 25.7003 18.5791H23.406C23.1541 19.3893 22.1397 19.8114 21.35 19.8114C19.825 19.8114 19.0285 18.9195 19.0285 17.4081H25.8501C25.8569 17.2516 25.8705 17.0814 25.8705 16.918Z" fill="black"/>
</svg>
