<svg width="32" height="32" viewBox="0 0 32 32" fill="none" xmlns="http://www.w3.org/2000/svg">
<g clip-path="url(#clip0_1133_4103)">
<path d="M29 0.750116H3C2.41008 0.744112 1.84187 0.972377 1.42005 1.38482C0.998227 1.79727 0.757253 2.36021 0.75 2.95012V29.0551C0.758564 29.6442 1.00012 30.2058 1.42179 30.6172C1.84347 31.0285 2.41093 31.2561 3 31.2501H29C29.59 31.2548 30.1578 31.0258 30.5794 30.6131C31.001 30.2003 31.2421 29.6375 31.25 29.0476V2.94262C31.2395 2.35444 30.9972 1.79418 30.5759 1.38363C30.1546 0.973077 29.5883 0.74541 29 0.750116Z" fill="#0076B2"/>
<path d="M5.26625 12.1826H9.79375V26.7501H5.26625V12.1826ZM7.53125 4.93262C8.05053 4.93262 8.55815 5.08663 8.98988 5.37518C9.42162 5.66373 9.75807 6.07385 9.95667 6.55365C10.1553 7.03345 10.2071 7.56138 10.1056 8.07065C10.0041 8.57992 9.75388 9.04764 9.38652 9.41466C9.01916 9.78167 8.55119 10.0315 8.04183 10.1325C7.53246 10.2335 7.00459 10.1811 6.52497 9.98208C6.04536 9.78302 5.63557 9.44618 5.34743 9.01417C5.05929 8.58216 4.90576 8.0744 4.90625 7.55512C4.90691 6.85936 5.18377 6.19232 5.67598 5.70058C6.16819 5.20884 6.83549 4.93262 7.53125 4.93262ZM12.6338 12.1826H16.9738V14.1826H17.0338C17.6388 13.0376 19.1138 11.8301 21.3163 11.8301C25.9013 11.8201 26.7513 14.8376 26.7513 18.7501V26.7501H22.2238V19.6626C22.2238 17.9751 22.1938 15.8026 19.8713 15.8026C17.5488 15.8026 17.1538 17.6426 17.1538 19.5526V26.7501H12.6338V12.1826Z" fill="white"/>
</g>
<defs>
<clipPath id="clip0_1133_4103">
<rect width="32" height="32" fill="white"/>
</clipPath>
</defs>
</svg>
