<svg width="352" height="79" viewBox="0 0 352 79" fill="none" xmlns="http://www.w3.org/2000/svg">
<path d="M14.9787 0.249645H328.533C336.668 0.249645 343.262 6.84408 343.262 14.9787V53.4241C343.262 61.5588 336.668 68.1532 328.533 68.1532H14.9788C6.84411 68.1532 0.249645 61.5588 0.249645 53.4241V14.9787C0.249645 6.84408 6.84408 0.249645 14.9787 0.249645Z" stroke="#FFAA52" stroke-width="0.499291"/>
<path d="M28.9587 16.2269H337.021C345.156 16.2269 351.75 22.8214 351.75 30.956V63.4099C351.75 71.5446 345.156 78.139 337.021 78.139H28.9587C20.8241 78.139 14.2296 71.5446 14.2296 63.4099V30.956C14.2296 22.8214 20.8241 16.2269 28.9587 16.2269Z" stroke="#98BC61" stroke-width="0.499291"/>
<path d="M106.494 28.7946H113.285C113.867 28.7946 114.483 28.8612 115.132 28.9943C115.781 29.1274 116.422 29.3438 117.054 29.6434C117.703 29.9263 118.319 30.3008 118.902 30.7668C119.501 31.2328 120.025 31.7987 120.474 32.4644C120.924 33.1135 121.282 33.8707 121.548 34.7361C121.814 35.5849 121.947 36.5502 121.947 37.632C121.947 38.7138 121.814 39.6874 121.548 40.5529C121.282 41.4017 120.924 42.1589 120.474 42.8247C120.025 43.4737 119.501 44.0313 118.902 44.4973C118.319 44.9633 117.703 45.3461 117.054 45.6457C116.422 45.9286 115.781 46.1366 115.132 46.2698C114.483 46.4029 113.867 46.4695 113.285 46.4695H106.494V28.7946ZM108.591 44.5222H112.586C113.601 44.5222 114.541 44.3891 115.407 44.1228C116.272 43.8565 117.021 43.4488 117.653 42.8996C118.286 42.3337 118.785 41.618 119.151 40.7526C119.517 39.8872 119.7 38.847 119.7 37.632C119.7 36.4171 119.517 35.3769 119.151 34.5115C118.785 33.646 118.286 32.9387 117.653 32.3895C117.021 31.8236 116.272 31.4075 115.407 31.1413C114.541 30.875 113.601 30.7418 112.586 30.7418H108.591V44.5222ZM135.408 44.3475C134.709 45.2462 133.944 45.8787 133.112 46.2448C132.28 46.5943 131.314 46.7691 130.216 46.7691C129.3 46.7691 128.477 46.6109 127.744 46.2947C127.012 45.9619 126.388 45.5208 125.872 44.9716C125.373 44.4224 124.982 43.7733 124.699 43.0244C124.432 42.2754 124.299 41.4766 124.299 40.6278C124.299 39.7291 124.449 38.9052 124.749 38.1563C125.048 37.3907 125.464 36.7416 125.997 36.2091C126.529 35.6598 127.162 35.2354 127.894 34.9359C128.626 34.6363 129.425 34.4865 130.291 34.4865C131.106 34.4865 131.855 34.628 132.537 34.9109C133.22 35.1772 133.802 35.5766 134.285 36.1092C134.784 36.6251 135.167 37.2659 135.433 38.0315C135.7 38.7804 135.833 39.6375 135.833 40.6028V41.2269H126.396C126.429 41.7262 126.546 42.2089 126.746 42.6749C126.962 43.1242 127.237 43.5237 127.57 43.8732C127.902 44.206 128.293 44.4723 128.743 44.672C129.192 44.8718 129.683 44.9716 130.216 44.9716C131.065 44.9716 131.78 44.8218 132.363 44.5222C132.945 44.2227 133.469 43.7816 133.935 43.1991L135.408 44.3475ZM133.736 39.5793C133.702 38.5807 133.378 37.7818 132.762 37.1827C132.146 36.5835 131.298 36.2839 130.216 36.2839C129.134 36.2839 128.26 36.5835 127.594 37.1827C126.929 37.7818 126.529 38.5807 126.396 39.5793H133.736ZM139.095 43.3988C139.478 43.8815 139.894 44.2643 140.343 44.5472C140.809 44.8301 141.392 44.9716 142.091 44.9716C142.39 44.9716 142.69 44.9383 142.989 44.8718C143.305 44.8052 143.588 44.697 143.838 44.5472C144.088 44.3974 144.287 44.2144 144.437 43.998C144.587 43.765 144.662 43.4904 144.662 43.1742C144.662 42.8579 144.587 42.6 144.437 42.4003C144.304 42.2005 144.121 42.0341 143.888 41.901C143.655 41.7512 143.389 41.6347 143.089 41.5515C142.79 41.4683 142.482 41.3934 142.165 41.3268C141.616 41.2103 141.092 41.0771 140.593 40.9274C140.093 40.7776 139.652 40.5862 139.27 40.3532C138.903 40.1035 138.604 39.7873 138.371 39.4045C138.154 39.0217 138.046 38.5308 138.046 37.9316C138.046 37.3657 138.171 36.8665 138.421 36.4337C138.67 36.001 139.003 35.6432 139.419 35.3603C139.835 35.0773 140.301 34.861 140.817 34.7112C141.333 34.5614 141.866 34.4865 142.415 34.4865C143.247 34.4865 144.013 34.6529 144.712 34.9858C145.427 35.3187 145.985 35.8596 146.384 36.6085L144.762 37.682C144.512 37.2659 144.179 36.933 143.763 36.6834C143.364 36.4171 142.873 36.2839 142.29 36.2839C142.024 36.2839 141.749 36.3172 141.466 36.3838C141.2 36.4504 140.959 36.5502 140.742 36.6834C140.526 36.8165 140.343 36.9913 140.193 37.2076C140.06 37.4074 139.993 37.6404 139.993 37.9066C139.993 38.1563 140.068 38.3726 140.218 38.5557C140.385 38.7222 140.601 38.8719 140.867 39.0051C141.15 39.1382 141.466 39.2547 141.816 39.3546C142.182 39.4544 142.557 39.5377 142.939 39.6042C143.455 39.7041 143.946 39.8372 144.412 40.0037C144.878 40.1535 145.286 40.3615 145.635 40.6278C145.985 40.8941 146.26 41.2269 146.459 41.6264C146.659 42.0258 146.759 42.5168 146.759 43.0993C146.759 43.765 146.626 44.3309 146.359 44.7969C146.093 45.2629 145.735 45.6457 145.286 45.9452C144.853 46.2282 144.354 46.4362 143.788 46.5693C143.239 46.7025 142.673 46.7691 142.091 46.7691C141.092 46.7691 140.226 46.6193 139.494 46.3197C138.779 46.0035 138.129 45.4293 137.547 44.5971L139.095 43.3988ZM149.649 34.7861H151.597V46.4695H149.649V34.7861ZM149.2 30.2176C149.2 29.8348 149.333 29.5019 149.599 29.219C149.882 28.9361 150.223 28.7946 150.623 28.7946C151.022 28.7946 151.355 28.9361 151.621 29.219C151.904 29.5019 152.046 29.8348 152.046 30.2176C152.046 30.6336 151.913 30.9748 151.646 31.2411C151.38 31.5074 151.039 31.6405 150.623 31.6405C150.207 31.6405 149.866 31.5074 149.599 31.2411C149.333 30.9748 149.2 30.6336 149.2 30.2176ZM167.13 45.9452C167.13 48.0755 166.581 49.6899 165.483 50.7883C164.401 51.9034 162.828 52.461 160.764 52.461C159.616 52.461 158.576 52.2945 157.644 51.9617C156.728 51.6288 155.855 51.0546 155.023 50.2391L156.421 48.6414C157.036 49.3071 157.685 49.8064 158.368 50.1393C159.067 50.4888 159.866 50.6635 160.764 50.6635C161.63 50.6635 162.345 50.5304 162.911 50.2641C163.494 50.0144 163.952 49.6649 164.284 49.2156C164.617 48.7829 164.85 48.2836 164.983 47.7177C165.117 47.1518 165.183 46.561 165.183 45.9452V44.4474H165.133C164.667 45.1963 164.06 45.7455 163.311 46.095C162.562 46.4445 161.796 46.6193 161.014 46.6193C160.099 46.6193 159.258 46.4695 158.493 46.1699C157.727 45.8703 157.07 45.4543 156.52 44.9217C155.971 44.3891 155.547 43.7567 155.247 43.0244C154.948 42.2921 154.798 41.4932 154.798 40.6278C154.798 39.6791 154.948 38.822 155.247 38.0564C155.547 37.2909 155.963 36.6501 156.495 36.1342C157.045 35.6016 157.702 35.1938 158.468 34.9109C159.233 34.628 160.082 34.4865 161.014 34.4865C161.413 34.4865 161.813 34.5364 162.212 34.6363C162.612 34.7195 162.995 34.861 163.361 35.0607C163.743 35.2438 164.085 35.4851 164.384 35.7847C164.684 36.0676 164.933 36.4005 165.133 36.7832H165.183V34.7861H167.13V45.9452ZM156.895 40.6278C156.895 41.2269 157.003 41.7845 157.219 42.3004C157.436 42.7997 157.727 43.2407 158.093 43.6235C158.476 43.9897 158.917 44.2809 159.416 44.4973C159.916 44.7136 160.448 44.8218 161.014 44.8218C161.68 44.8218 162.271 44.7053 162.786 44.4723C163.302 44.2393 163.735 43.9314 164.085 43.5486C164.451 43.1492 164.725 42.6998 164.908 42.2005C165.092 41.6846 165.183 41.1437 165.183 40.5779C165.183 39.9454 165.083 39.3712 164.884 38.8553C164.684 38.3227 164.401 37.865 164.035 37.4822C163.669 37.0995 163.228 36.8082 162.712 36.6085C162.196 36.3921 161.63 36.2839 161.014 36.2839C160.398 36.2839 159.832 36.4005 159.316 36.6335C158.817 36.8498 158.384 37.1577 158.018 37.5571C157.669 37.9399 157.394 38.3976 157.194 38.9302C156.995 39.4461 156.895 40.012 156.895 40.6278ZM170.733 37.5571C170.733 37.0246 170.717 36.5253 170.683 36.0593C170.65 35.5933 170.634 35.1689 170.634 34.7861H172.481C172.481 35.1023 172.489 35.4185 172.506 35.7347C172.523 36.0509 172.531 36.3755 172.531 36.7083H172.581C172.714 36.4254 172.897 36.1508 173.13 35.8845C173.38 35.6182 173.671 35.3852 174.004 35.1855C174.337 34.9692 174.711 34.8027 175.127 34.6862C175.543 34.5531 175.993 34.4865 176.475 34.4865C177.241 34.4865 177.898 34.603 178.447 34.836C179.013 35.069 179.479 35.3935 179.845 35.8096C180.212 36.2257 180.478 36.7333 180.644 37.3325C180.827 37.915 180.919 38.5557 180.919 39.2547V46.4695H178.972V39.4544C178.972 38.4725 178.755 37.6986 178.323 37.1327C177.89 36.5669 177.216 36.2839 176.301 36.2839C175.668 36.2839 175.119 36.3921 174.653 36.6085C174.203 36.8248 173.829 37.1327 173.529 37.5322C173.247 37.9316 173.03 38.4059 172.88 38.9552C172.747 39.5044 172.681 40.1118 172.681 40.7776V46.4695H170.733V37.5571ZM191.903 28.7946H197.146C197.961 28.7946 198.735 28.8778 199.467 29.0442C200.216 29.194 200.874 29.4603 201.439 29.8431C202.022 30.2092 202.48 30.7085 202.812 31.341C203.162 31.9568 203.337 32.7223 203.337 33.6377C203.337 34.603 203.154 35.4019 202.787 36.0343C202.421 36.6667 201.947 37.166 201.365 37.5322C200.799 37.8983 200.175 38.1563 199.492 38.3061C198.81 38.4559 198.161 38.5308 197.545 38.5308H194V46.4695H191.903V28.7946ZM194 36.5835H197.545C198.593 36.5835 199.442 36.3505 200.091 35.8845C200.757 35.4019 201.09 34.6613 201.09 33.6627C201.09 32.6641 200.757 31.9318 200.091 31.4658C199.442 30.9831 198.593 30.7418 197.545 30.7418H194V36.5835ZM206.352 37.5571C206.352 37.0246 206.335 36.5253 206.302 36.0593C206.269 35.5933 206.252 35.1689 206.252 34.7861H208.099C208.099 35.1023 208.108 35.4185 208.124 35.7347C208.141 36.0509 208.149 36.3755 208.149 36.7083H208.199C208.332 36.4254 208.515 36.1508 208.748 35.8845C208.998 35.6182 209.289 35.3852 209.622 35.1855C209.955 34.9692 210.329 34.8027 210.746 34.6862C211.162 34.5531 211.611 34.4865 212.094 34.4865C212.227 34.4865 212.36 34.4948 212.493 34.5115C212.626 34.5281 212.759 34.5614 212.892 34.6113L212.768 36.5835C212.435 36.4837 212.085 36.4337 211.719 36.4337C210.521 36.4337 209.647 36.8248 209.098 37.6071C208.565 38.3726 208.299 39.4295 208.299 40.7776V46.4695H206.352V37.5571ZM214.015 40.6278C214.015 39.7124 214.174 38.8803 214.49 38.1313C214.806 37.3824 215.239 36.7416 215.788 36.2091C216.337 35.6598 216.995 35.2354 217.76 34.9359C218.526 34.6363 219.358 34.4865 220.257 34.4865C221.155 34.4865 221.988 34.6363 222.753 34.9359C223.519 35.2354 224.176 35.6598 224.725 36.2091C225.275 36.7416 225.707 37.3824 226.023 38.1313C226.34 38.8803 226.498 39.7124 226.498 40.6278C226.498 41.5431 226.34 42.3753 226.023 43.1242C225.707 43.8732 225.275 44.5222 224.725 45.0715C224.176 45.604 223.519 46.0201 222.753 46.3197C221.988 46.6193 221.155 46.7691 220.257 46.7691C219.358 46.7691 218.526 46.6193 217.76 46.3197C216.995 46.0201 216.337 45.604 215.788 45.0715C215.239 44.5222 214.806 43.8732 214.49 43.1242C214.174 42.3753 214.015 41.5431 214.015 40.6278ZM216.113 40.6278C216.113 41.2436 216.204 41.8178 216.387 42.3503C216.587 42.8663 216.87 43.324 217.236 43.7234C217.602 44.1062 218.035 44.4141 218.534 44.6471C219.05 44.8634 219.624 44.9716 220.257 44.9716C220.889 44.9716 221.455 44.8634 221.954 44.6471C222.47 44.4141 222.911 44.1062 223.277 43.7234C223.643 43.324 223.918 42.8663 224.101 42.3503C224.301 41.8178 224.401 41.2436 224.401 40.6278C224.401 40.012 224.301 39.4461 224.101 38.9302C223.918 38.3976 223.643 37.9399 223.277 37.5571C222.911 37.1577 222.47 36.8498 221.954 36.6335C221.455 36.4005 220.889 36.2839 220.257 36.2839C219.624 36.2839 219.05 36.4005 218.534 36.6335C218.035 36.8498 217.602 37.1577 217.236 37.5571C216.87 37.9399 216.587 38.3976 216.387 38.9302C216.204 39.4461 216.113 40.012 216.113 40.6278ZM237.825 37.7069C237.409 37.2076 236.96 36.8498 236.477 36.6335C235.995 36.4005 235.462 36.2839 234.88 36.2839C234.231 36.2839 233.656 36.4005 233.157 36.6335C232.658 36.8498 232.242 37.1577 231.909 37.5571C231.593 37.9566 231.351 38.4226 231.185 38.9552C231.018 39.4711 230.935 40.0286 230.935 40.6278C230.935 41.2269 231.027 41.7928 231.21 42.3254C231.41 42.8413 231.676 43.299 232.009 43.6984C232.358 44.0979 232.774 44.4141 233.257 44.6471C233.74 44.8634 234.28 44.9716 234.88 44.9716C236.161 44.9716 237.151 44.489 237.85 43.5237L239.298 44.8967C238.732 45.5458 238.067 46.0201 237.301 46.3197C236.536 46.6193 235.728 46.7691 234.88 46.7691C233.981 46.7691 233.157 46.6193 232.408 46.3197C231.659 46.0201 231.018 45.5957 230.486 45.0465C229.97 44.4973 229.562 43.8482 229.263 43.0993C228.98 42.3503 228.838 41.5265 228.838 40.6278C228.838 39.7457 228.98 38.9302 229.263 38.1813C229.562 37.4323 229.978 36.7832 230.511 36.234C231.043 35.6848 231.676 35.2604 232.408 34.9608C233.157 34.6446 233.981 34.4865 234.88 34.4865C235.745 34.4865 236.561 34.6363 237.326 34.9359C238.108 35.2354 238.791 35.7014 239.373 36.3339L237.825 37.7069ZM251.991 44.3475C251.292 45.2462 250.526 45.8787 249.694 46.2448C248.862 46.5943 247.897 46.7691 246.798 46.7691C245.883 46.7691 245.059 46.6109 244.327 46.2947C243.594 45.9619 242.97 45.5208 242.454 44.9716C241.955 44.4224 241.564 43.7733 241.281 43.0244C241.015 42.2754 240.882 41.4766 240.882 40.6278C240.882 39.7291 241.031 38.9052 241.331 38.1563C241.631 37.3907 242.047 36.7416 242.579 36.2091C243.112 35.6598 243.744 35.2354 244.477 34.9359C245.209 34.6363 246.008 34.4865 246.873 34.4865C247.689 34.4865 248.438 34.628 249.12 34.9109C249.802 35.1772 250.385 35.5766 250.867 36.1092C251.367 36.6251 251.75 37.2659 252.016 38.0315C252.282 38.7804 252.415 39.6375 252.415 40.6028V41.2269H242.979C243.012 41.7262 243.128 42.2089 243.328 42.6749C243.545 43.1242 243.819 43.5237 244.152 43.8732C244.485 44.206 244.876 44.4723 245.325 44.672C245.775 44.8718 246.266 44.9716 246.798 44.9716C247.647 44.9716 248.363 44.8218 248.945 44.5222C249.528 44.2227 250.052 43.7816 250.518 43.1991L251.991 44.3475ZM250.318 39.5793C250.285 38.5807 249.96 37.7818 249.345 37.1827C248.729 36.5835 247.88 36.2839 246.798 36.2839C245.716 36.2839 244.843 36.5835 244.177 37.1827C243.511 37.7818 243.112 38.5807 242.979 39.5793H250.318ZM255.677 43.3988C256.06 43.8815 256.476 44.2643 256.925 44.5472C257.391 44.8301 257.974 44.9716 258.673 44.9716C258.973 44.9716 259.272 44.9383 259.572 44.8718C259.888 44.8052 260.171 44.697 260.42 44.5472C260.67 44.3974 260.87 44.2144 261.02 43.998C261.169 43.765 261.244 43.4904 261.244 43.1742C261.244 42.8579 261.169 42.6 261.02 42.4003C260.886 42.2005 260.703 42.0341 260.47 41.901C260.237 41.7512 259.971 41.6347 259.672 41.5515C259.372 41.4683 259.064 41.3934 258.748 41.3268C258.199 41.2103 257.674 41.0771 257.175 40.9274C256.676 40.7776 256.235 40.5862 255.852 40.3532C255.486 40.1035 255.186 39.7873 254.953 39.4045C254.737 39.0217 254.629 38.5308 254.629 37.9316C254.629 37.3657 254.754 36.8665 255.003 36.4337C255.253 36.001 255.586 35.6432 256.002 35.3603C256.418 35.0773 256.884 34.861 257.4 34.7112C257.916 34.5614 258.448 34.4865 258.998 34.4865C259.83 34.4865 260.595 34.6529 261.294 34.9858C262.01 35.3187 262.567 35.8596 262.967 36.6085L261.344 37.682C261.095 37.2659 260.762 36.933 260.346 36.6834C259.946 36.4171 259.455 36.2839 258.873 36.2839C258.606 36.2839 258.332 36.3172 258.049 36.3838C257.783 36.4504 257.541 36.5502 257.325 36.6834C257.109 36.8165 256.925 36.9913 256.776 37.2076C256.643 37.4074 256.576 37.6404 256.576 37.9066C256.576 38.1563 256.651 38.3726 256.801 38.5557C256.967 38.7222 257.183 38.8719 257.45 39.0051C257.733 39.1382 258.049 39.2547 258.398 39.3546C258.765 39.4544 259.139 39.5377 259.522 39.6042C260.038 39.7041 260.529 39.8372 260.995 40.0037C261.461 40.1535 261.868 40.3615 262.218 40.6278C262.567 40.8941 262.842 41.2269 263.042 41.6264C263.241 42.0258 263.341 42.5168 263.341 43.0993C263.341 43.765 263.208 44.3309 262.942 44.7969C262.676 45.2629 262.318 45.6457 261.868 45.9452C261.436 46.2282 260.936 46.4362 260.371 46.5693C259.821 46.7025 259.255 46.7691 258.673 46.7691C257.674 46.7691 256.809 46.6193 256.077 46.3197C255.361 46.0035 254.712 45.4293 254.129 44.5971L255.677 43.3988ZM266.307 43.3988C266.689 43.8815 267.106 44.2643 267.555 44.5472C268.021 44.8301 268.603 44.9716 269.302 44.9716C269.602 44.9716 269.902 44.9383 270.201 44.8718C270.517 44.8052 270.8 44.697 271.05 44.5472C271.3 44.3974 271.499 44.2144 271.649 43.998C271.799 43.765 271.874 43.4904 271.874 43.1742C271.874 42.8579 271.799 42.6 271.649 42.4003C271.516 42.2005 271.333 42.0341 271.1 41.901C270.867 41.7512 270.601 41.6347 270.301 41.5515C270.001 41.4683 269.694 41.3934 269.377 41.3268C268.828 41.2103 268.304 41.0771 267.805 40.9274C267.305 40.7776 266.864 40.5862 266.481 40.3532C266.115 40.1035 265.816 39.7873 265.583 39.4045C265.366 39.0217 265.258 38.5308 265.258 37.9316C265.258 37.3657 265.383 36.8665 265.633 36.4337C265.882 36.001 266.215 35.6432 266.631 35.3603C267.047 35.0773 267.513 34.861 268.029 34.7112C268.545 34.5614 269.078 34.4865 269.627 34.4865C270.459 34.4865 271.225 34.6529 271.924 34.9858C272.639 35.3187 273.197 35.8596 273.596 36.6085L271.974 37.682C271.724 37.2659 271.391 36.933 270.975 36.6834C270.576 36.4171 270.085 36.2839 269.502 36.2839C269.236 36.2839 268.961 36.3172 268.678 36.3838C268.412 36.4504 268.171 36.5502 267.954 36.6834C267.738 36.8165 267.555 36.9913 267.405 37.2076C267.272 37.4074 267.205 37.6404 267.205 37.9066C267.205 38.1563 267.28 38.3726 267.43 38.5557C267.596 38.7222 267.813 38.8719 268.079 39.0051C268.362 39.1382 268.678 39.2547 269.028 39.3546C269.394 39.4544 269.768 39.5377 270.151 39.6042C270.667 39.7041 271.158 39.8372 271.624 40.0037C272.09 40.1535 272.498 40.3615 272.847 40.6278C273.197 40.8941 273.471 41.2269 273.671 41.6264C273.871 42.0258 273.971 42.5168 273.971 43.0993C273.971 43.765 273.838 44.3309 273.571 44.7969C273.305 45.2629 272.947 45.6457 272.498 45.9452C272.065 46.2282 271.566 46.4362 271 46.5693C270.451 46.7025 269.885 46.7691 269.302 46.7691C268.304 46.7691 267.438 46.6193 266.706 46.3197C265.99 46.0035 265.341 45.4293 264.759 44.5971L266.307 43.3988Z" fill="#683C09"/>
<rect x="72.397" y="54.4227" width="149.787" height="4.49362" fill="#98BC61" fill-opacity="0.45"/>
</svg>
