<svg width="352" height="102" viewBox="0 0 352 102" fill="none" xmlns="http://www.w3.org/2000/svg">
<path d="M14.9787 0.249645H328.533C336.668 0.249645 343.262 6.84408 343.262 14.9787V53.4241C343.262 61.5588 336.668 68.1532 328.533 68.1532H14.9788C6.84411 68.1532 0.249645 61.5588 0.249645 53.4241V14.9787C0.249645 6.84408 6.84408 0.249645 14.9787 0.249645Z" stroke="#FFAA52" stroke-width="0.499291"/>
<path d="M28.9587 16.2272H337.021C345.156 16.2272 351.75 22.8216 351.75 30.9563V63.4102C351.75 71.5448 345.156 78.1392 337.021 78.1392H28.9587C20.8241 78.1392 14.2296 71.5448 14.2296 63.4102V30.9563C14.2296 22.8216 20.8241 16.2272 28.9587 16.2272Z" stroke="#98BC61" stroke-width="0.499291"/>
<path d="M95.3927 47.7688C94.0779 47.7688 92.9212 47.4942 91.9226 46.945C90.924 46.3958 90.1501 45.6468 89.6009 44.6982C89.0517 43.7329 88.7771 42.6344 88.7771 41.4029V28.8707H90.7742V41.4029C90.7742 42.3016 90.9656 43.0921 91.3484 43.7745C91.7478 44.4402 92.2887 44.9645 92.9711 45.3473C93.6701 45.7134 94.4773 45.8965 95.3927 45.8965C96.308 45.8965 97.1069 45.7134 97.7893 45.3473C98.4883 44.9645 99.0292 44.4402 99.412 43.7745C99.8114 43.0921 100.011 42.3016 100.011 41.4029V28.8707H102.008V41.4029C102.008 42.6344 101.734 43.7329 101.184 44.6982C100.635 45.6468 99.8613 46.3958 98.8627 46.945C97.8808 47.4942 96.7241 47.7688 95.3927 47.7688ZM110.701 47.7688C109.419 47.7688 108.296 47.4443 107.331 46.7952C106.365 46.1461 105.666 45.264 105.234 44.149L106.806 43.4C107.189 44.2155 107.722 44.8646 108.404 45.3473C109.103 45.8299 109.869 46.0712 110.701 46.0712C111.5 46.0712 112.174 45.8798 112.723 45.497C113.272 45.0976 113.547 44.5817 113.547 43.9492C113.547 43.4832 113.414 43.1171 113.147 42.8508C112.881 42.5679 112.573 42.3515 112.224 42.2017C111.874 42.0519 111.566 41.9438 111.3 41.8772L109.378 41.328C108.146 40.9785 107.256 40.4875 106.706 39.8551C106.157 39.2226 105.883 38.4903 105.883 37.6582C105.883 36.876 106.082 36.1936 106.482 35.6111C106.881 35.0286 107.422 34.5792 108.104 34.263C108.787 33.9468 109.544 33.7887 110.376 33.7887C111.508 33.7887 112.532 34.0882 113.447 34.6874C114.379 35.2699 115.036 36.0854 115.419 37.1339L113.821 37.8829C113.489 37.1339 113.006 36.5514 112.373 36.1353C111.758 35.7026 111.067 35.4863 110.301 35.4863C109.552 35.4863 108.953 35.6777 108.504 36.0604C108.055 36.4432 107.83 36.9259 107.83 37.5084C107.83 37.9577 107.946 38.3156 108.179 38.5819C108.412 38.8482 108.679 39.0479 108.978 39.181C109.294 39.3142 109.569 39.414 109.802 39.4806L112.024 40.1297C113.106 40.4459 113.946 40.9368 114.545 41.6026C115.161 42.2683 115.469 43.0505 115.469 43.9492C115.469 44.6815 115.261 45.3389 114.845 45.9214C114.445 46.5039 113.888 46.9616 113.172 47.2945C112.457 47.6107 111.633 47.7688 110.701 47.7688ZM124.85 47.7688C123.602 47.7688 122.47 47.4692 121.455 46.8701C120.457 46.2543 119.666 45.4138 119.084 44.3487C118.501 43.2835 118.21 42.0769 118.21 40.7288C118.21 39.3807 118.493 38.1908 119.059 37.1589C119.625 36.1104 120.39 35.2865 121.355 34.6874C122.337 34.0882 123.436 33.7887 124.651 33.7887C125.616 33.7887 126.473 33.9717 127.222 34.3379C127.988 34.6874 128.637 35.17 129.169 35.7858C129.702 36.385 130.11 37.0673 130.393 37.8329C130.675 38.5819 130.817 39.3558 130.817 40.1546C130.817 40.3211 130.809 40.5125 130.792 40.7288C130.775 40.9285 130.75 41.1366 130.717 41.3529H119.408V39.6054H129.644L128.745 40.3543C128.895 39.439 128.787 38.6235 128.42 37.9078C128.071 37.1755 127.563 36.6013 126.898 36.1853C126.232 35.7525 125.483 35.5362 124.651 35.5362C123.819 35.5362 123.045 35.7525 122.329 36.1853C121.63 36.618 121.081 37.2255 120.681 38.0077C120.282 38.7733 120.124 39.6886 120.207 40.7538C120.124 41.8189 120.29 42.7509 120.706 43.5498C121.139 44.332 121.722 44.9395 122.454 45.3722C123.203 45.8049 124.002 46.0213 124.85 46.0213C125.832 46.0213 126.656 45.7883 127.322 45.3223C127.988 44.8563 128.529 44.2738 128.945 43.5748L130.542 44.4236C130.276 45.0227 129.868 45.5803 129.319 46.0962C128.77 46.5955 128.112 47.0032 127.347 47.3195C126.598 47.619 125.766 47.7688 124.85 47.7688ZM134.118 47.4692V34.0882H135.99V36.2851L135.741 35.9606C136.057 35.3281 136.531 34.8289 137.164 34.4627C137.813 34.0966 138.595 33.9135 139.51 33.9135H140.359V35.7858H139.186C138.221 35.7858 137.447 36.0854 136.864 36.6846C136.282 37.2837 135.99 38.1325 135.99 39.2309V47.4692H134.118ZM147.07 47.4692V28.8707H158.554V30.743H149.067V37.2088H157.805V39.0812H149.067V47.4692H147.07ZM166.905 47.7688C165.657 47.7688 164.525 47.4692 163.51 46.8701C162.511 46.2543 161.721 45.4138 161.138 44.3487C160.556 43.2835 160.264 42.0769 160.264 40.7288C160.264 39.3807 160.547 38.1908 161.113 37.1589C161.679 36.1104 162.445 35.2865 163.41 34.6874C164.392 34.0882 165.49 33.7887 166.705 33.7887C167.671 33.7887 168.528 33.9717 169.277 34.3379C170.042 34.6874 170.691 35.17 171.224 35.7858C171.756 36.385 172.164 37.0673 172.447 37.8329C172.73 38.5819 172.871 39.3558 172.871 40.1546C172.871 40.3211 172.863 40.5125 172.847 40.7288C172.83 40.9285 172.805 41.1366 172.772 41.3529H161.463V39.6054H171.698L170.799 40.3543C170.949 39.439 170.841 38.6235 170.475 37.9078C170.125 37.1755 169.618 36.6013 168.952 36.1853C168.286 35.7525 167.537 35.5362 166.705 35.5362C165.873 35.5362 165.099 35.7525 164.384 36.1853C163.685 36.618 163.135 37.2255 162.736 38.0077C162.336 38.7733 162.178 39.6886 162.262 40.7538C162.178 41.8189 162.345 42.7509 162.761 43.5498C163.194 44.332 163.776 44.9395 164.508 45.3722C165.257 45.8049 166.056 46.0213 166.905 46.0213C167.887 46.0213 168.711 45.7883 169.376 45.3223C170.042 44.8563 170.583 44.2738 170.999 43.5748L172.597 44.4236C172.331 45.0227 171.923 45.5803 171.374 46.0962C170.824 46.5955 170.167 47.0032 169.401 47.3195C168.652 47.619 167.82 47.7688 166.905 47.7688ZM182.264 47.7688C181.016 47.7688 179.884 47.4692 178.869 46.8701C177.87 46.2543 177.08 45.4138 176.497 44.3487C175.915 43.2835 175.623 42.0769 175.623 40.7288C175.623 39.3807 175.906 38.1908 176.472 37.1589C177.038 36.1104 177.804 35.2865 178.769 34.6874C179.751 34.0882 180.849 33.7887 182.064 33.7887C183.03 33.7887 183.887 33.9717 184.636 34.3379C185.401 34.6874 186.05 35.17 186.583 35.7858C187.115 36.385 187.523 37.0673 187.806 37.8329C188.089 38.5819 188.231 39.3558 188.231 40.1546C188.231 40.3211 188.222 40.5125 188.206 40.7288C188.189 40.9285 188.164 41.1366 188.131 41.3529H176.822V39.6054H187.057L186.158 40.3543C186.308 39.439 186.2 38.6235 185.834 37.9078C185.484 37.1755 184.977 36.6013 184.311 36.1853C183.645 35.7525 182.896 35.5362 182.064 35.5362C181.232 35.5362 180.458 35.7525 179.743 36.1853C179.044 36.618 178.494 37.2255 178.095 38.0077C177.695 38.7733 177.537 39.6886 177.621 40.7538C177.537 41.8189 177.704 42.7509 178.12 43.5498C178.553 44.332 179.135 44.9395 179.867 45.3722C180.616 45.8049 181.415 46.0213 182.264 46.0213C183.246 46.0213 184.07 45.7883 184.735 45.3223C185.401 44.8563 185.942 44.2738 186.358 43.5748L187.956 44.4236C187.69 45.0227 187.282 45.5803 186.733 46.0962C186.183 46.5955 185.526 47.0032 184.76 47.3195C184.012 47.619 183.179 47.7688 182.264 47.7688ZM197.573 47.7688C196.325 47.7688 195.201 47.4692 194.203 46.8701C193.204 46.2543 192.414 45.4221 191.831 44.3736C191.265 43.3085 190.982 42.1102 190.982 40.7787C190.982 39.4307 191.265 38.2324 191.831 37.1838C192.414 36.1353 193.196 35.3115 194.178 34.7124C195.177 34.0966 196.308 33.7887 197.573 33.7887C198.721 33.7887 199.745 34.0383 200.644 34.5376C201.542 35.0369 202.25 35.7109 202.766 36.5597L202.466 37.084V28.5711H204.339V47.4692H202.466V44.4735L202.766 44.7481C202.3 45.7134 201.601 46.4623 200.669 46.9949C199.753 47.5108 198.721 47.7688 197.573 47.7688ZM197.673 45.8965C198.572 45.8965 199.379 45.6718 200.095 45.2224C200.827 44.7731 201.401 44.1656 201.817 43.4C202.25 42.6178 202.466 41.744 202.466 40.7787C202.466 39.8134 202.25 38.948 201.817 38.1824C201.401 37.4002 200.827 36.7844 200.095 36.3351C199.379 35.8857 198.572 35.661 197.673 35.661C196.791 35.661 195.992 35.8857 195.276 36.3351C194.561 36.7844 193.995 37.3919 193.579 38.1575C193.179 38.923 192.98 39.7968 192.98 40.7787C192.98 41.744 193.179 42.6178 193.579 43.4C193.995 44.1656 194.552 44.7731 195.251 45.2224C195.967 45.6718 196.774 45.8965 197.673 45.8965ZM214.948 47.7688C213.8 47.7688 212.76 47.5108 211.828 46.9949C210.912 46.4623 210.222 45.7134 209.756 44.7481L210.055 44.4735V47.4692H208.183V28.5711H210.055V37.084L209.756 36.5597C210.288 35.7109 210.996 35.0369 211.878 34.5376C212.776 34.0383 213.8 33.7887 214.948 33.7887C216.213 33.7887 217.337 34.0966 218.318 34.7124C219.317 35.3115 220.099 36.1353 220.665 37.1838C221.248 38.2324 221.539 39.4307 221.539 40.7787C221.539 42.1102 221.248 43.3085 220.665 44.3736C220.099 45.4221 219.317 46.2543 218.318 46.8701C217.337 47.4692 216.213 47.7688 214.948 47.7688ZM214.848 45.8965C215.747 45.8965 216.546 45.6718 217.245 45.2224C217.961 44.7731 218.518 44.1656 218.918 43.4C219.334 42.6178 219.542 41.744 219.542 40.7787C219.542 39.7968 219.334 38.923 218.918 38.1575C218.518 37.3919 217.961 36.7844 217.245 36.3351C216.546 35.8857 215.747 35.661 214.848 35.661C213.95 35.661 213.134 35.8857 212.402 36.3351C211.686 36.7844 211.112 37.4002 210.679 38.1824C210.263 38.948 210.055 39.8134 210.055 40.7787C210.055 41.744 210.263 42.6178 210.679 43.4C211.112 44.1656 211.686 44.7731 212.402 45.2224C213.134 45.6718 213.95 45.8965 214.848 45.8965ZM228.704 47.7688C227.855 47.7688 227.097 47.6107 226.432 47.2945C225.766 46.9616 225.242 46.5123 224.859 45.9464C224.476 45.3805 224.285 44.7315 224.285 43.9992C224.285 43.3002 224.435 42.6677 224.734 42.1019C225.034 41.5194 225.5 41.0284 226.132 40.629C226.765 40.2295 227.572 39.9466 228.554 39.7802L233.796 38.9064V40.604L229.003 41.4029C228.038 41.5693 227.339 41.8772 226.906 42.3265C226.49 42.7759 226.282 43.3085 226.282 43.9243C226.282 44.5234 226.515 45.031 226.981 45.4471C227.464 45.8632 228.079 46.0712 228.828 46.0712C229.744 46.0712 230.543 45.8798 231.225 45.497C231.907 45.0976 232.44 44.565 232.823 43.8993C233.205 43.2336 233.397 42.493 233.397 41.6775V38.2823C233.397 37.4834 233.106 36.8343 232.523 36.3351C231.941 35.8358 231.183 35.5861 230.251 35.5861C229.436 35.5861 228.72 35.7942 228.104 36.2102C227.489 36.6097 227.031 37.1339 226.731 37.783L225.034 36.8593C225.283 36.2934 225.674 35.7775 226.207 35.3115C226.756 34.8455 227.38 34.4794 228.079 34.2131C228.778 33.9301 229.502 33.7887 230.251 33.7887C231.233 33.7887 232.099 33.9801 232.848 34.3629C233.613 34.7456 234.204 35.2782 234.62 35.9606C235.053 36.6263 235.269 37.4002 235.269 38.2823V47.4692H233.397V44.798L233.671 45.0726C233.438 45.5719 233.072 46.0296 232.573 46.4457C232.09 46.8451 231.516 47.1697 230.85 47.4193C230.201 47.6523 229.486 47.7688 228.704 47.7688ZM245.237 47.7688C243.922 47.7688 242.765 47.4609 241.767 46.8451C240.768 46.2293 239.986 45.3972 239.42 44.3487C238.854 43.2835 238.571 42.0852 238.571 40.7538C238.571 39.4223 238.854 38.2324 239.42 37.1838C239.986 36.1353 240.768 35.3115 241.767 34.7124C242.765 34.0966 243.922 33.7887 245.237 33.7887C246.069 33.7887 246.851 33.9385 247.583 34.238C248.316 34.5376 248.965 34.9454 249.531 35.4613C250.096 35.9606 250.521 36.5431 250.804 37.2088L249.106 38.0826C248.773 37.3669 248.266 36.7844 247.583 36.3351C246.901 35.8857 246.119 35.661 245.237 35.661C244.355 35.661 243.556 35.8857 242.84 36.3351C242.141 36.7678 241.584 37.3752 241.167 38.1575C240.768 38.923 240.568 39.7968 240.568 40.7787C240.568 41.744 240.768 42.6178 241.167 43.4C241.584 44.1656 242.141 44.7731 242.84 45.2224C243.556 45.6718 244.355 45.8965 245.237 45.8965C246.119 45.8965 246.893 45.6718 247.558 45.2224C248.241 44.7731 248.757 44.1739 249.106 43.425L250.804 44.3487C250.521 44.9977 250.096 45.5803 249.531 46.0962C248.965 46.6121 248.316 47.0199 247.583 47.3195C246.851 47.619 246.069 47.7688 245.237 47.7688ZM254.089 47.4692V28.5711H255.962V41.8023L255.163 41.6775L262.677 34.0882H265.099L259.856 39.4556L265.573 47.4692H263.326L257.959 40.0548L259.157 40.1546L255.338 44.099L255.962 42.5512V47.4692H254.089Z" fill="black"/>
<rect x="72.397" y="54.4229" width="149.787" height="4.49362" fill="#98BC61" fill-opacity="0.45"/>
<path d="M126.466 89.9023L128.239 89.3031L128.476 90.0271L126.716 90.6263L127.827 92.1117L127.215 92.586L126.092 91.0507L125.006 92.586L124.382 92.1117L125.468 90.6263L123.708 90.0271L123.945 89.3031L125.717 89.9023V88.0424H126.466V89.9023ZM130.602 95.4569C130.81 95.4569 130.985 95.5318 131.126 95.6816C131.276 95.8231 131.351 95.9978 131.351 96.2058C131.351 96.4139 131.272 96.5928 131.114 96.7426C130.964 96.884 130.794 96.9548 130.602 96.9548C130.411 96.9548 130.236 96.884 130.078 96.7426C129.928 96.5928 129.853 96.4139 129.853 96.2058C129.853 95.9978 129.924 95.8231 130.065 95.6816C130.215 95.5318 130.394 95.4569 130.602 95.4569ZM137.496 97.4041C137.322 96.3307 136.548 94.9951 135.1 93.8966C134.376 93.3474 133.664 92.9979 132.978 92.8606V92.3363C134.363 92.0243 135.736 91.0507 136.635 89.7775C137.084 89.1409 137.372 88.4918 137.496 87.8178H138.021C138.233 89.0909 139.231 90.4765 140.542 91.4126C141.191 91.8745 141.865 92.1865 142.564 92.3363V92.8606C141.154 93.1477 139.544 94.3709 138.757 95.6317C138.358 96.2683 138.108 96.8549 138.021 97.4041H137.496ZM137.671 97.1046H137.846C137.971 95.8064 138.358 94.3959 138.795 93.6595C139.631 93.1851 141.141 92.7857 142.24 92.7108V92.5361C141.141 92.4487 139.568 92.0243 138.795 91.5624C138.358 90.8135 137.971 89.4404 137.846 88.1423H137.671C137.571 89.3156 137.197 90.7261 136.723 91.5624C135.924 92.0243 134.426 92.4487 133.277 92.5361V92.7108C134.413 92.7982 135.874 93.1851 136.723 93.6595C137.184 94.4708 137.571 95.9063 137.671 97.1046ZM216.595 97.4041C216.421 96.3307 215.647 94.9951 214.199 93.8966C213.475 93.3474 212.763 92.9979 212.077 92.8606V92.3363C213.462 92.0243 214.835 91.0507 215.734 89.7775C216.184 89.1409 216.471 88.4918 216.595 87.8178H217.12C217.332 89.0909 218.331 90.4765 219.641 91.4126C220.29 91.8745 220.964 92.1865 221.663 92.3363V92.8606C220.253 93.1477 218.643 94.3709 217.856 95.6317C217.457 96.2683 217.207 96.8549 217.12 97.4041H216.595ZM216.77 97.1046H216.945C217.07 95.8064 217.457 94.3959 217.894 93.6595C218.73 93.1851 220.24 92.7857 221.339 92.7108V92.5361C220.24 92.4487 218.668 92.0243 217.894 91.5624C217.457 90.8135 217.07 89.4404 216.945 88.1423H216.77C216.67 89.3156 216.296 90.7261 215.822 91.5624C215.023 92.0243 213.525 92.4487 212.376 92.5361V92.7108C213.512 92.7982 214.973 93.1851 215.822 93.6595C216.283 94.4708 216.67 95.9063 216.77 97.1046ZM224.036 95.4569C224.244 95.4569 224.419 95.5318 224.561 95.6816C224.71 95.8231 224.785 95.9978 224.785 96.2058C224.785 96.4139 224.706 96.5928 224.548 96.7426C224.398 96.884 224.228 96.9548 224.036 96.9548C223.845 96.9548 223.67 96.884 223.512 96.7426C223.362 96.5928 223.287 96.4139 223.287 96.2058C223.287 95.9978 223.358 95.8231 223.5 95.6816C223.649 95.5318 223.828 95.4569 224.036 95.4569ZM228.921 89.9023L230.693 89.3031L230.931 90.0271L229.171 90.6263L230.282 92.1117L229.67 92.586L228.546 91.0507L227.461 92.586L226.836 92.1117L227.922 90.6263L226.162 90.0271L226.4 89.3031L228.172 89.9023V88.0424H228.921V89.9023Z" fill="black"/>
<path d="M147.613 88.0424H151.008C151.299 88.0424 151.607 88.0757 151.931 88.1423C152.256 88.2089 152.576 88.317 152.893 88.4668C153.217 88.6083 153.525 88.7955 153.816 89.0285C154.116 89.2615 154.378 89.5445 154.603 89.8773C154.827 90.2019 155.006 90.5805 155.139 91.0132C155.272 91.4376 155.339 91.9203 155.339 92.4612C155.339 93.0021 155.272 93.4889 155.139 93.9216C155.006 94.346 154.827 94.7246 154.603 95.0575C154.378 95.382 154.116 95.6608 153.816 95.8938C153.525 96.1268 153.217 96.3182 152.893 96.468C152.576 96.6094 152.256 96.7135 151.931 96.78C151.607 96.8466 151.299 96.8799 151.008 96.8799H147.613V88.0424ZM148.661 95.9063H150.658C151.166 95.9063 151.636 95.8397 152.069 95.7065C152.501 95.5734 152.876 95.3695 153.192 95.0949C153.508 94.812 153.758 94.4542 153.941 94.0214C154.124 93.5887 154.216 93.0686 154.216 92.4612C154.216 91.8537 154.124 91.3336 153.941 90.9009C153.758 90.4682 153.508 90.1145 153.192 89.8399C152.876 89.557 152.501 89.3489 152.069 89.2158C151.636 89.0826 151.166 89.0161 150.658 89.0161H148.661V95.9063ZM157.027 88.0424H158.075V96.8799H157.027V88.0424ZM164.463 89.6027C164.289 89.3198 164.056 89.1159 163.764 88.9911C163.473 88.8579 163.169 88.7914 162.853 88.7914C162.62 88.7914 162.391 88.8205 162.167 88.8787C161.942 88.937 161.738 89.0244 161.555 89.1409C161.38 89.2574 161.239 89.4113 161.131 89.6027C161.022 89.7941 160.968 90.0188 160.968 90.2768C160.968 90.4765 160.997 90.6554 161.056 90.8135C161.122 90.9633 161.226 91.1006 161.368 91.2254C161.509 91.3502 161.701 91.4667 161.942 91.5749C162.183 91.6831 162.479 91.7913 162.828 91.8995C163.169 92.0076 163.498 92.1241 163.814 92.249C164.139 92.3738 164.422 92.5319 164.663 92.7233C164.913 92.9147 165.108 93.156 165.25 93.4473C165.399 93.7302 165.474 94.088 165.474 94.5207C165.474 94.9618 165.387 95.3446 165.212 95.6691C165.037 95.9936 164.804 96.2641 164.513 96.4805C164.23 96.6885 163.902 96.8424 163.527 96.9423C163.153 97.0505 162.766 97.1046 162.366 97.1046C162.108 97.1046 161.85 97.0796 161.592 97.0297C161.334 96.9881 161.085 96.9215 160.843 96.83C160.61 96.7301 160.39 96.6053 160.182 96.4555C159.974 96.2974 159.795 96.106 159.645 95.8813L160.544 95.1448C160.735 95.4694 161.002 95.7149 161.343 95.8813C161.684 96.0477 162.046 96.1309 162.429 96.1309C162.653 96.1309 162.878 96.0977 163.103 96.0311C163.336 95.9645 163.544 95.8688 163.727 95.744C163.91 95.6109 164.06 95.4486 164.176 95.2572C164.293 95.0658 164.351 94.8453 164.351 94.5956C164.351 94.321 164.305 94.1005 164.214 93.9341C164.122 93.7593 163.981 93.6095 163.789 93.4847C163.598 93.3599 163.357 93.2475 163.065 93.1477C162.774 93.0478 162.433 92.9313 162.042 92.7982C161.726 92.6983 161.434 92.586 161.168 92.4612C160.902 92.328 160.669 92.1699 160.469 91.9868C160.278 91.7954 160.124 91.5708 160.007 91.3128C159.899 91.0465 159.845 90.7303 159.845 90.3641C159.845 89.9397 159.928 89.5694 160.094 89.2532C160.261 88.937 160.486 88.6749 160.769 88.4668C161.051 88.2505 161.372 88.0882 161.73 87.98C162.087 87.8718 162.462 87.8178 162.853 87.8178C163.352 87.8178 163.806 87.8968 164.214 88.0549C164.63 88.2047 165 88.471 165.325 88.8538L164.463 89.6027ZM173.396 89.8648C173.13 89.507 172.801 89.2407 172.41 89.066C172.019 88.8829 171.611 88.7914 171.187 88.7914C170.696 88.7914 170.243 88.8912 169.826 89.0909C169.419 89.2907 169.065 89.5611 168.765 89.9023C168.466 90.2352 168.233 90.6263 168.066 91.0756C167.9 91.5167 167.817 91.9785 167.817 92.4612C167.817 92.9771 167.9 93.4597 168.066 93.9091C168.233 94.3501 168.462 94.7371 168.753 95.07C169.053 95.3945 169.406 95.6525 169.814 95.8439C170.23 96.0352 170.688 96.1309 171.187 96.1309C171.728 96.1309 172.211 96.0269 172.635 95.8189C173.059 95.6025 173.43 95.2946 173.746 94.8952L174.532 95.5568C174.133 96.0893 173.65 96.4805 173.084 96.7301C172.527 96.9797 171.894 97.1046 171.187 97.1046C170.555 97.1046 169.964 96.9881 169.415 96.7551C168.865 96.5221 168.387 96.2017 167.979 95.7939C167.58 95.3778 167.263 94.8869 167.03 94.321C166.806 93.7552 166.693 93.1352 166.693 92.4612C166.693 91.8121 166.802 91.2046 167.018 90.6387C167.243 90.0729 167.555 89.5819 167.954 89.1658C168.354 88.7498 168.828 88.4211 169.377 88.1797C169.926 87.9384 170.53 87.8178 171.187 87.8178C171.786 87.8178 172.36 87.9259 172.91 88.1423C173.467 88.3587 173.933 88.7123 174.308 89.2033L173.396 89.8648ZM180.101 97.1046C179.427 97.1046 178.807 96.9881 178.241 96.7551C177.683 96.5221 177.196 96.2017 176.78 95.7939C176.373 95.3778 176.052 94.8869 175.819 94.321C175.595 93.7468 175.482 93.1269 175.482 92.4612C175.482 91.7954 175.595 91.1796 175.819 90.6138C176.052 90.0396 176.373 89.5486 176.78 89.1409C177.196 88.7248 177.683 88.4003 178.241 88.1673C178.807 87.9343 179.427 87.8178 180.101 87.8178C180.775 87.8178 181.39 87.9343 181.948 88.1673C182.514 88.4003 183.001 88.7248 183.408 89.1409C183.825 89.5486 184.145 90.0396 184.37 90.6138C184.603 91.1796 184.719 91.7954 184.719 92.4612C184.719 93.1269 184.603 93.7468 184.37 94.321C184.145 94.8869 183.825 95.3778 183.408 95.7939C183.001 96.2017 182.514 96.5221 181.948 96.7551C181.39 96.9881 180.775 97.1046 180.101 97.1046ZM180.101 96.1309C180.617 96.1309 181.087 96.0352 181.511 95.8439C181.944 95.6525 182.314 95.3903 182.622 95.0575C182.93 94.7246 183.167 94.3377 183.334 93.8966C183.508 93.4473 183.596 92.9688 183.596 92.4612C183.596 91.9535 183.508 91.4792 183.334 91.0382C183.167 90.5888 182.93 90.1977 182.622 89.8648C182.314 89.532 181.944 89.2699 181.511 89.0785C181.087 88.8871 180.617 88.7914 180.101 88.7914C179.585 88.7914 179.11 88.8871 178.678 89.0785C178.253 89.2699 177.887 89.532 177.579 89.8648C177.271 90.1977 177.03 90.5888 176.855 91.0382C176.689 91.4792 176.606 91.9535 176.606 92.4612C176.606 92.9688 176.689 93.4473 176.855 93.8966C177.03 94.3377 177.271 94.7246 177.579 95.0575C177.887 95.3903 178.253 95.6525 178.678 95.8439C179.11 96.0352 179.585 96.1309 180.101 96.1309ZM185.193 88.0424H186.379L189.1 95.3071H189.125L191.934 88.0424H193.045L189.587 96.8799H188.576L185.193 88.0424ZM194.035 88.0424H199.589V89.0161H195.083V91.7871H199.29V92.7607H195.083V95.9063H199.814V96.8799H194.035V88.0424ZM201.434 88.0424H203.693C204.118 88.0424 204.538 88.0674 204.954 88.1173C205.378 88.1673 205.757 88.2754 206.09 88.4419C206.423 88.6083 206.693 88.8538 206.901 89.1783C207.109 89.4945 207.213 89.9273 207.213 90.4765C207.213 91.1256 207.018 91.6498 206.627 92.0492C206.235 92.4487 205.695 92.7025 205.004 92.8107L207.513 96.8799H206.227L203.831 92.9105H202.482V96.8799H201.434V88.0424ZM202.482 91.9369H203.419C203.71 91.9369 204.009 91.9286 204.317 91.9119C204.634 91.8953 204.921 91.8412 205.179 91.7497C205.445 91.6581 205.661 91.5167 205.828 91.3253C206.002 91.1256 206.09 90.8426 206.09 90.4765C206.09 90.1603 206.027 89.9065 205.903 89.7151C205.778 89.5237 205.611 89.378 205.403 89.2782C205.204 89.17 204.975 89.0993 204.717 89.066C204.467 89.0327 204.213 89.0161 203.955 89.0161H202.482V91.9369Z" fill="#FFAA52"/>
</svg>
