<svg width="153" height="36" viewBox="0 0 153 36" fill="none" xmlns="http://www.w3.org/2000/svg">
<circle cx="21.3901" cy="18.8078" r="16.4301" fill="#ED7608" fill-opacity="0.4"/>
<circle cx="16.4301" cy="17.2578" r="16.0003" stroke="#98BC61" stroke-width="0.859551"/>
<path d="M34.4036 31.3629C33.6171 31.8013 32.7855 32.1236 31.9088 32.3299C31.0449 32.5362 30.1682 32.6393 29.2785 32.6393C28.2084 32.6393 27.2285 32.4653 26.3389 32.1171C25.4492 31.769 24.6756 31.2791 24.0181 30.6473C23.3734 30.0155 22.8706 29.2613 22.5096 28.3845C22.1486 27.4949 21.9681 26.515 21.9681 25.4449C21.9681 24.3618 22.155 23.382 22.5289 22.5052C22.9157 21.6156 23.4443 20.8613 24.1148 20.2424C24.7852 19.6107 25.5653 19.1207 26.4549 18.7726C27.3445 18.4245 28.3051 18.2504 29.3366 18.2504C30.2391 18.2504 31.1029 18.3858 31.9281 18.6566C32.7662 18.9273 33.514 19.3915 34.1715 20.049L32.9531 21.3255C32.489 20.8226 31.9217 20.4358 31.2512 20.1651C30.5936 19.8943 29.9168 19.759 29.2205 19.759C28.434 19.759 27.7056 19.9008 27.0351 20.1844C26.3647 20.4681 25.778 20.8613 25.2752 21.3642C24.7852 21.867 24.3984 22.4665 24.1148 23.1628C23.844 23.859 23.7086 24.6197 23.7086 25.4449C23.7086 26.2572 23.844 27.0114 24.1148 27.7076C24.3984 28.4039 24.7852 29.0099 25.2752 29.5256C25.778 30.0284 26.3776 30.4217 27.0738 30.7053C27.77 30.989 28.5372 31.1308 29.3752 31.1308C29.9296 31.1308 30.5098 31.0663 31.1158 30.9374C31.7218 30.7956 32.2762 30.5957 32.7791 30.3379V26.1411H29.6267V24.6326H34.4036V31.3629ZM37.0207 27.7657C37.0207 27.0565 37.1432 26.4119 37.3881 25.8317C37.6331 25.2515 37.9683 24.7551 38.3938 24.3425C38.8193 23.917 39.3286 23.5882 39.9217 23.3562C40.5148 23.1241 41.1594 23.0081 41.8557 23.0081C42.5519 23.0081 43.1966 23.1241 43.7896 23.3562C44.3827 23.5882 44.892 23.917 45.3175 24.3425C45.743 24.7551 46.0782 25.2515 46.3232 25.8317C46.5681 26.4119 46.6906 27.0565 46.6906 27.7657C46.6906 28.4748 46.5681 29.1195 46.3232 29.6997C46.0782 30.2799 45.743 30.7827 45.3175 31.2082C44.892 31.6207 44.3827 31.9431 43.7896 32.1752C43.1966 32.4072 42.5519 32.5233 41.8557 32.5233C41.1594 32.5233 40.5148 32.4072 39.9217 32.1752C39.3286 31.9431 38.8193 31.6207 38.3938 31.2082C37.9683 30.7827 37.6331 30.2799 37.3881 29.6997C37.1432 29.1195 37.0207 28.4748 37.0207 27.7657ZM38.6452 27.7657C38.6452 28.2427 38.7161 28.6875 38.858 29.1001C39.0127 29.4998 39.2319 29.8544 39.5155 30.1638C39.7992 30.4604 40.1344 30.6989 40.5212 30.8794C40.9209 31.047 41.3657 31.1308 41.8557 31.1308C42.3456 31.1308 42.784 31.047 43.1708 30.8794C43.5705 30.6989 43.9121 30.4604 44.1958 30.1638C44.4794 29.8544 44.6922 29.4998 44.834 29.1001C44.9887 28.6875 45.0661 28.2427 45.0661 27.7657C45.0661 27.2886 44.9887 26.8502 44.834 26.4506C44.6922 26.038 44.4794 25.6834 44.1958 25.3869C43.9121 25.0774 43.5705 24.8389 43.1708 24.6713C42.784 24.4908 42.3456 24.4005 41.8557 24.4005C41.3657 24.4005 40.9209 24.4908 40.5212 24.6713C40.1344 24.8389 39.7992 25.0774 39.5155 25.3869C39.2319 25.6834 39.0127 26.038 38.858 26.4506C38.7161 26.8502 38.6452 27.2886 38.6452 27.7657ZM48.9099 24.4005C49.374 23.9235 49.922 23.5754 50.5538 23.3562C51.1984 23.1241 51.8495 23.0081 52.5071 23.0081C53.848 23.0081 54.815 23.3239 55.4081 23.9557C56.0012 24.5875 56.2977 25.548 56.2977 26.8374V30.7247C56.2977 30.9825 56.3106 31.2533 56.3364 31.5369C56.3622 31.8077 56.3944 32.0591 56.4331 32.2912H54.9826C54.931 32.0849 54.8988 31.8593 54.8859 31.6143C54.8859 31.3564 54.8859 31.1308 54.8859 30.9374H54.8472C54.5507 31.4016 54.151 31.7819 53.6482 32.0785C53.1582 32.375 52.5651 32.5233 51.8689 32.5233C51.4047 32.5233 50.9664 32.4653 50.5538 32.3492C50.1541 32.2332 49.7995 32.0656 49.4901 31.8464C49.1935 31.6143 48.955 31.3307 48.7745 30.9954C48.594 30.6602 48.5037 30.2734 48.5037 29.835C48.5037 29.0872 48.6971 28.5006 49.0839 28.0751C49.4707 27.6496 49.9478 27.3337 50.5151 27.1274C51.0953 26.9212 51.7142 26.7922 52.3717 26.7407C53.0422 26.6891 53.6546 26.6633 54.209 26.6633H54.7892V26.3925C54.7892 25.735 54.5894 25.2386 54.1897 24.9034C53.8029 24.5681 53.2549 24.4005 52.5458 24.4005C52.0558 24.4005 51.5723 24.4843 51.0953 24.6519C50.6311 24.8067 50.2185 25.0516 49.8575 25.3869L48.9099 24.4005ZM53.2807 27.9397C52.3137 27.9397 51.5466 28.0751 50.9792 28.3459C50.4119 28.6166 50.1283 29.0614 50.1283 29.6803C50.1283 30.2476 50.3152 30.6538 50.6892 30.8987C51.0759 31.1308 51.553 31.2468 52.1203 31.2468C52.5587 31.2468 52.939 31.1759 53.2614 31.0341C53.5966 30.8794 53.8738 30.6795 54.093 30.4346C54.3122 30.1896 54.4798 29.9059 54.5958 29.5836C54.7118 29.2484 54.7763 28.8938 54.7892 28.5199V27.9397H53.2807ZM59.1901 17.6702H60.6986V32.2912H59.1901V17.6702Z" fill="black"/>
</svg>
