<svg width="352" height="104" viewBox="0 0 352 104" fill="none" xmlns="http://www.w3.org/2000/svg">
<path d="M14.9787 0.248669H328.533C336.668 0.248669 343.262 6.8431 343.262 14.9777V53.4231C343.262 61.5578 336.668 68.1522 328.533 68.1522H14.9788C6.84411 68.1522 0.249645 61.5578 0.249645 53.4231V14.9777C0.249645 6.8431 6.84408 0.248669 14.9787 0.248669Z" stroke="#FFAA52" stroke-width="0.499291"/>
<path d="M28.9587 16.2262H337.021C345.156 16.2262 351.75 22.8206 351.75 30.9553V63.4092C351.75 71.5438 345.156 78.1383 337.021 78.1383H28.9587C20.8241 78.1383 14.2296 71.5438 14.2296 63.4092V30.9553C14.2296 22.8206 20.8241 16.2262 28.9587 16.2262Z" stroke="#98BC61" stroke-width="0.499291"/>
<path d="M152.092 28.7939H155.213L161.204 42.6492H161.254L167.296 28.7939H170.341V46.4688H168.244V31.6398H168.194L161.853 46.4688H160.58L154.239 31.6398H154.189V46.4688H152.092V28.7939ZM172.319 28.7939H174.691L180.133 43.3232H180.183L185.8 28.7939H188.022L181.107 46.4688H179.085L172.319 28.7939ZM190.002 28.7939H195.245C196.06 28.7939 196.834 28.8771 197.566 29.0435C198.315 29.1933 198.973 29.4596 199.539 29.8424C200.121 30.2085 200.579 30.7078 200.912 31.3402C201.261 31.956 201.436 32.7216 201.436 33.637C201.436 34.6023 201.253 35.4011 200.887 36.0336C200.521 36.666 200.046 37.1653 199.464 37.5314C198.898 37.8976 198.274 38.1556 197.591 38.3053C196.909 38.4551 196.26 38.53 195.644 38.53H192.099V46.4688H190.002V28.7939ZM192.099 36.5828H195.644C196.693 36.5828 197.542 36.3498 198.191 35.8838C198.856 35.4011 199.189 34.6605 199.189 33.6619C199.189 32.6634 198.856 31.9311 198.191 31.4651C197.542 30.9824 196.693 30.7411 195.644 30.7411H192.099V36.5828Z" fill="black"/>
<rect x="136.306" y="54.4219" width="43.4383" height="4.49362" fill="#98BC61" fill-opacity="0.45"/>
<path d="M134.128 89.8984L135.901 89.2992L136.138 90.0232L134.378 90.6224L135.489 92.1077L134.877 92.5821L133.754 91.0468L132.668 92.5821L132.044 92.1077L133.13 90.6224L131.37 90.0232L131.607 89.2992L133.379 89.8984V88.0385H134.128V89.8984ZM138.264 95.453C138.472 95.453 138.647 95.5279 138.788 95.6777C138.938 95.8191 139.013 95.9939 139.013 96.2019C139.013 96.41 138.934 96.5889 138.776 96.7387C138.626 96.8801 138.455 96.9509 138.264 96.9509C138.073 96.9509 137.898 96.8801 137.74 96.7387C137.59 96.5889 137.515 96.41 137.515 96.2019C137.515 95.9939 137.586 95.8191 137.727 95.6777C137.877 95.5279 138.056 95.453 138.264 95.453ZM145.158 97.4002C144.983 96.3268 144.21 94.9912 142.762 93.8927C142.038 93.3435 141.326 92.994 140.64 92.8567V92.3324C142.025 92.0204 143.398 91.0468 144.297 89.7736C144.746 89.137 145.033 88.4879 145.158 87.8138H145.682C145.895 89.087 146.893 90.4726 148.204 91.4087C148.853 91.8706 149.527 92.1826 150.226 92.3324V92.8567C148.815 93.1438 147.205 94.367 146.419 95.6277C146.019 96.2643 145.77 96.851 145.682 97.4002H145.158ZM145.333 97.1007H145.508C145.632 95.8025 146.019 94.392 146.456 93.6556C147.293 93.1812 148.803 92.7818 149.901 92.7069V92.5321C148.803 92.4448 147.23 92.0204 146.456 91.5585C146.019 90.8096 145.632 89.4365 145.508 88.1384H145.333C145.233 89.3117 144.859 90.7222 144.384 91.5585C143.585 92.0204 142.088 92.4448 140.939 92.5321V92.7069C142.075 92.7943 143.535 93.1812 144.384 93.6556C144.846 94.4669 145.233 95.9024 145.333 97.1007ZM206.911 97.4002C206.737 96.3268 205.963 94.9912 204.515 93.8927C203.791 93.3435 203.079 92.994 202.393 92.8567V92.3324C203.778 92.0204 205.151 91.0468 206.05 89.7736C206.499 89.137 206.786 88.4879 206.911 87.8138H207.436C207.648 89.087 208.646 90.4726 209.957 91.4087C210.606 91.8706 211.28 92.1826 211.979 92.3324V92.8567C210.569 93.1438 208.958 94.367 208.172 95.6277C207.773 96.2643 207.523 96.851 207.436 97.4002H206.911ZM207.086 97.1007H207.261C207.386 95.8025 207.773 94.392 208.209 93.6556C209.046 93.1812 210.556 92.7818 211.655 92.7069V92.5321C210.556 92.4448 208.983 92.0204 208.209 91.5585C207.773 90.8096 207.386 89.4365 207.261 88.1384H207.086C206.986 89.3117 206.612 90.7222 206.137 91.5585C205.339 92.0204 203.841 92.4448 202.692 92.5321V92.7069C203.828 92.7943 205.289 93.1812 206.137 93.6556C206.599 94.4669 206.986 95.9024 207.086 97.1007ZM214.352 95.453C214.56 95.453 214.735 95.5279 214.876 95.6777C215.026 95.8191 215.101 95.9939 215.101 96.2019C215.101 96.41 215.022 96.5889 214.864 96.7387C214.714 96.8801 214.544 96.9509 214.352 96.9509C214.161 96.9509 213.986 96.8801 213.828 96.7387C213.678 96.5889 213.603 96.41 213.603 96.2019C213.603 95.9939 213.674 95.8191 213.815 95.6777C213.965 95.5279 214.144 95.453 214.352 95.453ZM219.237 89.8984L221.009 89.2992L221.246 90.0232L219.486 90.6224L220.597 92.1077L219.986 92.5821L218.862 91.0468L217.776 92.5821L217.152 92.1077L218.238 90.6224L216.478 90.0232L216.715 89.2992L218.488 89.8984V88.0385H219.237V89.8984Z" fill="black"/>
<path d="M155.274 88.0385H158.669C158.961 88.0385 159.269 88.0718 159.593 88.1384C159.918 88.205 160.238 88.3131 160.554 88.4629C160.879 88.6044 161.187 88.7916 161.478 89.0246C161.778 89.2576 162.04 89.5406 162.264 89.8734C162.489 90.198 162.668 90.5766 162.801 91.0093C162.934 91.4337 163.001 91.9164 163.001 92.4573C163.001 92.9982 162.934 93.485 162.801 93.9177C162.668 94.3421 162.489 94.7207 162.264 95.0536C162.04 95.3781 161.778 95.6569 161.478 95.8899C161.187 96.1229 160.879 96.3143 160.554 96.4641C160.238 96.6055 159.918 96.7095 159.593 96.7761C159.269 96.8427 158.961 96.876 158.669 96.876H155.274V88.0385ZM156.323 95.9024H158.32C158.828 95.9024 159.298 95.8358 159.73 95.7026C160.163 95.5695 160.538 95.3656 160.854 95.091C161.17 94.8081 161.42 94.4503 161.603 94.0175C161.786 93.5848 161.877 93.0647 161.877 92.4573C161.877 91.8498 161.786 91.3297 161.603 90.897C161.42 90.4643 161.17 90.1106 160.854 89.836C160.538 89.553 160.163 89.345 159.73 89.2119C159.298 89.0787 158.828 89.0121 158.32 89.0121H156.323V95.9024ZM164.689 88.0385H170.243V89.0121H165.737V91.7832H169.944V92.7568H165.737V95.9024H170.468V96.876H164.689V88.0385ZM172.088 88.0385H177.567V89.0121H173.136V91.933H177.255V92.9066H173.136V96.876H172.088V88.0385ZM179.024 88.0385H180.072V96.876H179.024V88.0385ZM182.266 88.0385H183.589L188.707 95.3781H188.732V88.0385H189.78V96.876H188.457L183.34 89.5364H183.315V96.876H182.266V88.0385ZM191.981 88.0385H197.536V89.0121H193.03V91.7832H197.236V92.7568H193.03V95.9024H197.761V96.876H191.981V88.0385Z" fill="#FFAA52"/>
</svg>
