<svg width="153" height="48" viewBox="0 0 153 48" fill="none" xmlns="http://www.w3.org/2000/svg">
<circle cx="27.3915" cy="23.0234" r="21.04" fill="#ED7608" fill-opacity="0.4"/>
<circle cx="21.04" cy="21.039" r="20.4896" stroke="#98BC61" stroke-width="1.10072"/>
<path d="M41.0516 37.8054C39.8628 37.8054 38.7694 37.6 37.7714 37.189C36.7881 36.7781 35.9296 36.2131 35.1958 35.4939C34.4766 34.7601 33.9116 33.8942 33.5007 32.8962C33.1044 31.8836 32.9063 30.7902 32.9063 29.6161C32.9063 28.442 33.1044 27.3559 33.5007 26.358C33.9116 25.3453 34.4766 24.4794 35.1958 23.7603C35.9296 23.0264 36.7881 22.4541 37.7714 22.0431C38.7694 21.6322 39.8628 21.4267 41.0516 21.4267C42.2404 21.4267 43.3264 21.6322 44.3097 22.0431C45.3077 22.4541 46.1663 23.0264 46.8854 23.7603C47.6192 24.4794 48.1843 25.3453 48.5805 26.358C48.9915 27.3559 49.1969 28.442 49.1969 29.6161C49.1969 30.7902 48.9915 31.8836 48.5805 32.8962C48.1843 33.8942 47.6192 34.7601 46.8854 35.4939C46.1663 36.2131 45.3077 36.7781 44.3097 37.189C43.3264 37.6 42.2404 37.8054 41.0516 37.8054ZM41.0516 36.0883C41.9615 36.0883 42.7907 35.9195 43.5392 35.582C44.3024 35.2444 44.9555 34.7821 45.4985 34.1951C46.0415 33.608 46.4598 32.9256 46.7533 32.1477C47.0615 31.3552 47.2156 30.5113 47.2156 29.6161C47.2156 28.7208 47.0615 27.8843 46.7533 27.1064C46.4598 26.3139 46.0415 25.6241 45.4985 25.0371C44.9555 24.45 44.3024 23.9877 43.5392 23.6502C42.7907 23.3126 41.9615 23.1439 41.0516 23.1439C40.1417 23.1439 39.3051 23.3126 38.542 23.6502C37.7935 23.9877 37.1477 24.45 36.6047 25.0371C36.0617 25.6241 35.6361 26.3139 35.3279 27.1064C35.0343 27.8843 34.8876 28.7208 34.8876 29.6161C34.8876 30.5113 35.0343 31.3552 35.3279 32.1477C35.6361 32.9256 36.0617 33.608 36.6047 34.1951C37.1477 34.7821 37.7935 35.2444 38.542 35.582C39.3051 35.9195 40.1417 36.0883 41.0516 36.0883ZM51.7723 20.7663H53.4894V28.6034H53.5334C54.003 28.0457 54.5461 27.6128 55.1625 27.3046C55.7936 26.9964 56.4833 26.8423 57.2318 26.8423C58.039 26.8423 58.7728 26.9817 59.4333 27.2605C60.1084 27.5247 60.6807 27.899 61.1504 28.3833C61.62 28.8676 61.9869 29.44 62.2511 30.1004C62.5153 30.7608 62.6474 31.48 62.6474 32.2578C62.6474 33.0357 62.5153 33.7548 62.2511 34.4152C61.9869 35.0757 61.62 35.648 61.1504 36.1323C60.6954 36.6167 60.1524 36.9982 59.5213 37.2771C58.8902 37.5413 58.2151 37.6734 57.496 37.6734C56.5714 37.6734 55.7569 37.4752 55.0524 37.079C54.3626 36.668 53.8563 36.169 53.5334 35.582H53.4894V37.4092H51.7723V20.7663ZM53.4894 32.2578C53.4894 32.8008 53.5701 33.3072 53.7315 33.7768C53.9077 34.2318 54.1572 34.6354 54.48 34.9876C54.8029 35.3252 55.1845 35.5967 55.6248 35.8021C56.0797 35.9929 56.5861 36.0883 57.1438 36.0883C57.7015 36.0883 58.2005 35.9929 58.6407 35.8021C59.0957 35.5967 59.4846 35.3252 59.8075 34.9876C60.1304 34.6354 60.3725 34.2318 60.534 33.7768C60.7101 33.3072 60.7982 32.8008 60.7982 32.2578C60.7982 31.7148 60.7101 31.2158 60.534 30.7608C60.3725 30.2912 60.1304 29.8876 59.8075 29.55C59.4846 29.1978 59.0957 28.9263 58.6407 28.7355C58.2005 28.53 57.7015 28.4273 57.1438 28.4273C56.5861 28.4273 56.0797 28.53 55.6248 28.7355C55.1845 28.9263 54.8029 29.1978 54.48 29.55C54.1572 29.8876 53.9077 30.2912 53.7315 30.7608C53.5701 31.2158 53.4894 31.7148 53.4894 32.2578ZM67.1896 39.7207C67.1896 39.9849 67.1455 40.2857 67.0575 40.6233C66.9841 40.9755 66.8373 41.2984 66.6172 41.5919C66.397 41.9001 66.0815 42.1569 65.6706 42.3624C65.2743 42.5826 64.7606 42.6926 64.1296 42.6926C63.9241 42.6926 63.726 42.678 63.5352 42.6486C63.3297 42.6193 63.1316 42.5605 62.9408 42.4725L63.1389 40.9755C63.4178 41.0636 63.6966 41.1076 63.9755 41.1076C64.2983 41.1076 64.5552 41.0489 64.746 40.9315C64.9514 40.8141 65.1055 40.6526 65.2083 40.4472C65.311 40.2564 65.377 40.0289 65.4064 39.7647C65.4504 39.5005 65.4724 39.2217 65.4724 38.9282V27.1064H67.1896V39.7207ZM65.0762 23.0778C65.0762 22.7403 65.1936 22.4467 65.4284 22.1972C65.6779 21.9477 65.9788 21.823 66.331 21.823C66.6832 21.823 66.9767 21.9477 67.2116 22.1972C67.4611 22.4467 67.5858 22.7403 67.5858 23.0778C67.5858 23.4447 67.4684 23.7456 67.2336 23.9804C66.9988 24.2152 66.6979 24.3326 66.331 24.3326C65.9641 24.3326 65.6632 24.2152 65.4284 23.9804C65.1936 23.7456 65.0762 23.4447 65.0762 23.0778ZM79.809 35.538C79.1926 36.3305 78.5174 36.8882 77.7836 37.2111C77.0498 37.5193 76.1986 37.6734 75.23 37.6734C74.4228 37.6734 73.6963 37.5339 73.0505 37.2551C72.4048 36.9616 71.8544 36.5726 71.3995 36.0883C70.9592 35.604 70.6143 35.0316 70.3648 34.3712C70.13 33.7108 70.0126 33.0063 70.0126 32.2578C70.0126 31.4653 70.1446 30.7388 70.4088 30.0784C70.673 29.4033 71.0399 28.8309 71.5095 28.3613C71.9792 27.8769 72.5369 27.5027 73.1826 27.2385C73.8284 26.9744 74.5328 26.8423 75.296 26.8423C76.0151 26.8423 76.6756 26.967 77.2773 27.2165C77.879 27.4513 78.3927 27.8036 78.8183 28.2732C79.2586 28.7282 79.5962 29.2932 79.831 29.9683C80.0658 30.6287 80.1832 31.3846 80.1832 32.2358V32.7862H71.8618C71.8911 33.2264 71.9938 33.6521 72.17 34.063C72.3608 34.4593 72.6029 34.8115 72.8964 35.1197C73.19 35.4132 73.5349 35.648 73.9311 35.8241C74.3274 36.0003 74.7603 36.0883 75.23 36.0883C75.9785 36.0883 76.6095 35.9562 77.1232 35.6921C77.6369 35.4279 78.0992 35.039 78.5101 34.5253L79.809 35.538ZM78.334 31.3332C78.3046 30.4526 78.0185 29.7482 77.4754 29.2198C76.9324 28.6915 76.1839 28.4273 75.23 28.4273C74.276 28.4273 73.5055 28.6915 72.9185 29.2198C72.3314 29.7482 71.9792 30.4526 71.8618 31.3332H78.334ZM90.1703 29.6821C89.8034 29.2418 89.4072 28.9263 88.9816 28.7355C88.5559 28.53 88.0863 28.4273 87.5726 28.4273C87.0003 28.4273 86.4939 28.53 86.0536 28.7355C85.6134 28.9263 85.2465 29.1978 84.9529 29.55C84.6741 29.9023 84.4613 30.3132 84.3145 30.7828C84.1677 31.2378 84.0944 31.7295 84.0944 32.2578C84.0944 32.7862 84.1751 33.2852 84.3365 33.7548C84.5126 34.2098 84.7475 34.6134 85.041 34.9656C85.3492 35.3178 85.7161 35.5967 86.1417 35.8021C86.5673 35.9929 87.0443 36.0883 87.5726 36.0883C88.7027 36.0883 89.5759 35.6627 90.1924 34.8115L91.4692 36.0223C90.9702 36.5946 90.3831 37.0129 89.708 37.2771C89.0329 37.5413 88.3211 37.6734 87.5726 37.6734C86.7801 37.6734 86.0536 37.5413 85.3932 37.2771C84.7328 37.0129 84.1677 36.6387 83.6981 36.1544C83.2431 35.67 82.8836 35.0977 82.6194 34.4372C82.3699 33.7768 82.2452 33.0503 82.2452 32.2578C82.2452 31.48 82.3699 30.7608 82.6194 30.1004C82.8836 29.44 83.2505 28.8676 83.7201 28.3833C84.1898 27.899 84.7475 27.5247 85.3932 27.2605C86.0536 26.9817 86.7801 26.8423 87.5726 26.8423C88.3358 26.8423 89.0549 26.9744 89.73 27.2385C90.4198 27.5027 91.0216 27.9136 91.5352 28.4713L90.1703 29.6821ZM99.0955 28.5594H96.0575V33.7108C96.0575 34.0483 96.0648 34.3639 96.0795 34.6574C96.0942 34.9362 96.1529 35.1857 96.2556 35.4059C96.3583 35.6113 96.5124 35.7801 96.7179 35.9122C96.9234 36.0296 97.2169 36.0883 97.5985 36.0883C97.848 36.0883 98.1048 36.059 98.369 36.0003C98.6332 35.9416 98.8826 35.8535 99.1175 35.7361L99.1835 37.2991C98.89 37.4312 98.5598 37.5266 98.1929 37.5853C97.8406 37.644 97.5031 37.6734 97.1802 37.6734C96.5638 37.6734 96.0721 37.5926 95.7052 37.4312C95.3383 37.2698 95.0521 37.0423 94.8467 36.7487C94.6412 36.4552 94.5018 36.0957 94.4284 35.67C94.3697 35.2298 94.3403 34.7454 94.3403 34.2171V28.5594H92.0949V27.1064H94.3403V24.1785H96.0575V27.1064H99.0955V28.5594ZM101.375 27.1064H103.092V37.4092H101.375V27.1064ZM100.979 23.0778C100.979 22.7403 101.096 22.4467 101.331 22.1972C101.58 21.9477 101.881 21.823 102.233 21.823C102.586 21.823 102.879 21.9477 103.114 22.1972C103.363 22.4467 103.488 22.7403 103.488 23.0778C103.488 23.4447 103.371 23.7456 103.136 23.9804C102.901 24.2152 102.6 24.3326 102.233 24.3326C101.866 24.3326 101.566 24.2152 101.331 23.9804C101.096 23.7456 100.979 23.4447 100.979 23.0778ZM111.198 37.4092H109.305L105.1 27.1064H107.104L110.318 35.1857H110.362L113.422 27.1064H115.271L111.198 37.4092ZM126.332 35.538C125.715 36.3305 125.04 36.8882 124.306 37.2111C123.572 37.5193 122.721 37.6734 121.753 37.6734C120.945 37.6734 120.219 37.5339 119.573 37.2551C118.927 36.9616 118.377 36.5726 117.922 36.0883C117.482 35.604 117.137 35.0316 116.887 34.3712C116.653 33.7108 116.535 33.0063 116.535 32.2578C116.535 31.4653 116.667 30.7388 116.931 30.0784C117.196 29.4033 117.562 28.8309 118.032 28.3613C118.502 27.8769 119.059 27.5027 119.705 27.2385C120.351 26.9744 121.055 26.8423 121.819 26.8423C122.538 26.8423 123.198 26.967 123.8 27.2165C124.402 27.4513 124.915 27.8036 125.341 28.2732C125.781 28.7282 126.119 29.2932 126.354 29.9683C126.588 30.6287 126.706 31.3846 126.706 32.2358V32.7862H118.384C118.414 33.2264 118.516 33.6521 118.693 34.063C118.883 34.4593 119.126 34.8115 119.419 35.1197C119.713 35.4132 120.057 35.648 120.454 35.8241C120.85 36.0003 121.283 36.0883 121.753 36.0883C122.501 36.0883 123.132 35.9562 123.646 35.6921C124.159 35.4279 124.622 35.039 125.033 34.5253L126.332 35.538ZM124.857 31.3332C124.827 30.4526 124.541 29.7482 123.998 29.2198C123.455 28.6915 122.707 28.4273 121.753 28.4273C120.799 28.4273 120.028 28.6915 119.441 29.2198C118.854 29.7482 118.502 30.4526 118.384 31.3332H124.857Z" fill="#683C09"/>
</svg>
