<svg width="352" height="79" viewBox="0 0 352 79" fill="none" xmlns="http://www.w3.org/2000/svg">
<path d="M14.9787 0.555309H328.533C336.668 0.555309 343.262 7.14974 343.262 15.2844V53.7298C343.262 61.8644 336.668 68.4589 328.533 68.4589H14.9788C6.84411 68.4589 0.249645 61.8644 0.249645 53.7298V15.2844C0.249645 7.14974 6.84408 0.555309 14.9787 0.555309Z" stroke="#FFAA52" stroke-width="0.499291"/>
<path d="M28.9587 16.5326H337.021C345.156 16.5326 351.75 23.127 351.75 31.2617V63.7156C351.75 71.8502 345.156 78.4447 337.021 78.4447H28.9587C20.8241 78.4447 14.2296 71.8502 14.2296 63.7156V31.2617C14.2296 23.127 20.8241 16.5326 28.9587 16.5326Z" stroke="#98BC61" stroke-width="0.499291"/>
<path d="M82.2557 29.1003H87.4983C88.3138 29.1003 89.0877 29.1835 89.82 29.3499C90.5689 29.4997 91.2263 29.766 91.7922 30.1488C92.3747 30.5149 92.8324 31.0142 93.1652 31.6466C93.5147 32.2624 93.6895 33.028 93.6895 33.9434C93.6895 34.9087 93.5064 35.7075 93.1403 36.34C92.7741 36.9724 92.2998 37.4717 91.7173 37.8378C91.1514 38.204 90.5273 38.462 89.845 38.6117C89.1626 38.7615 88.5135 38.8364 87.8977 38.8364H84.3528V46.7751H82.2557V29.1003ZM84.3528 36.8892H87.8977C88.9462 36.8892 89.795 36.6562 90.4441 36.1902C91.1098 35.7075 91.4427 34.9669 91.4427 33.9683C91.4427 32.9698 91.1098 32.2375 90.4441 31.7715C89.795 31.2888 88.9462 31.0475 87.8977 31.0475H84.3528V36.8892ZM96.7046 37.8628C96.7046 37.3302 96.6879 36.8309 96.6546 36.3649C96.6213 35.8989 96.6047 35.4745 96.6047 35.0917H98.4521C98.4521 35.408 98.4604 35.7242 98.477 36.0404C98.4937 36.3566 98.502 36.6812 98.502 37.014H98.5519C98.6851 36.7311 98.8681 36.4565 99.1011 36.1902C99.3508 35.9239 99.642 35.6909 99.9749 35.4912C100.308 35.2748 100.682 35.1084 101.098 34.9919C101.514 34.8587 101.964 34.7922 102.446 34.7922C102.58 34.7922 102.713 34.8005 102.846 34.8171C102.979 34.8338 103.112 34.8671 103.245 34.917L103.12 36.8892C102.788 36.7893 102.438 36.7394 102.072 36.7394C100.874 36.7394 99.9999 37.1305 99.4507 37.9127C98.9181 38.6783 98.6518 39.7351 98.6518 41.0832V46.7751H96.7046V37.8628ZM104.368 40.9334C104.368 40.0181 104.526 39.1859 104.843 38.437C105.159 37.6881 105.592 37.0473 106.141 36.5147C106.69 35.9655 107.347 35.5411 108.113 35.2415C108.879 34.942 109.711 34.7922 110.609 34.7922C111.508 34.7922 112.34 34.942 113.106 35.2415C113.871 35.5411 114.529 35.9655 115.078 36.5147C115.627 37.0473 116.06 37.6881 116.376 38.437C116.692 39.1859 116.851 40.0181 116.851 40.9334C116.851 41.8488 116.692 42.681 116.376 43.4299C116.06 44.1788 115.627 44.8279 115.078 45.3771C114.529 45.9097 113.871 46.3258 113.106 46.6254C112.34 46.9249 111.508 47.0747 110.609 47.0747C109.711 47.0747 108.879 46.9249 108.113 46.6254C107.347 46.3258 106.69 45.9097 106.141 45.3771C105.592 44.8279 105.159 44.1788 104.843 43.4299C104.526 42.681 104.368 41.8488 104.368 40.9334ZM106.465 40.9334C106.465 41.5492 106.557 42.1234 106.74 42.656C106.94 43.1719 107.223 43.6296 107.589 44.029C107.955 44.4118 108.388 44.7197 108.887 44.9527C109.403 45.1691 109.977 45.2773 110.609 45.2773C111.242 45.2773 111.808 45.1691 112.307 44.9527C112.823 44.7197 113.264 44.4118 113.63 44.029C113.996 43.6296 114.271 43.1719 114.454 42.656C114.654 42.1234 114.754 41.5492 114.754 40.9334C114.754 40.3177 114.654 39.7518 114.454 39.2359C114.271 38.7033 113.996 38.2456 113.63 37.8628C113.264 37.4634 112.823 37.1555 112.307 36.9391C111.808 36.7061 111.242 36.5896 110.609 36.5896C109.977 36.5896 109.403 36.7061 108.887 36.9391C108.388 37.1555 107.955 37.4634 107.589 37.8628C107.223 38.2456 106.94 38.7033 106.74 39.2359C106.557 39.7518 106.465 40.3177 106.465 40.9334ZM121.987 49.3964C121.987 49.696 121.937 50.0372 121.837 50.42C121.754 50.8194 121.588 51.1855 121.338 51.5184C121.088 51.8679 120.73 52.1592 120.264 52.3922C119.815 52.6418 119.233 52.7666 118.517 52.7666C118.284 52.7666 118.059 52.75 117.843 52.7167C117.61 52.6834 117.385 52.6168 117.169 52.517L117.394 50.8194C117.71 50.9193 118.026 50.9692 118.342 50.9692C118.708 50.9692 119 50.9026 119.216 50.7695C119.449 50.6363 119.624 50.4533 119.74 50.2203C119.857 50.0039 119.932 49.7459 119.965 49.4464C120.015 49.1468 120.04 48.8306 120.04 48.4977V35.0917H121.987V49.3964ZM119.59 30.5232C119.59 30.1404 119.724 29.8076 119.99 29.5246C120.273 29.2417 120.614 29.1003 121.013 29.1003C121.413 29.1003 121.746 29.2417 122.012 29.5246C122.295 29.8076 122.436 30.1404 122.436 30.5232C122.436 30.9393 122.303 31.2805 122.037 31.5468C121.771 31.8131 121.429 31.9462 121.013 31.9462C120.597 31.9462 120.256 31.8131 119.99 31.5468C119.724 31.2805 119.59 30.9393 119.59 30.5232ZM136.298 44.6532C135.599 45.5519 134.833 46.1843 134.001 46.5505C133.169 46.9 132.203 47.0747 131.105 47.0747C130.19 47.0747 129.366 46.9166 128.633 46.6004C127.901 46.2675 127.277 45.8265 126.761 45.2773C126.262 44.7281 125.871 44.079 125.588 43.33C125.321 42.5811 125.188 41.7822 125.188 40.9334C125.188 40.0347 125.338 39.2109 125.638 38.462C125.937 37.6964 126.353 37.0473 126.886 36.5147C127.418 35.9655 128.051 35.5411 128.783 35.2415C129.516 34.942 130.314 34.7922 131.18 34.7922C131.995 34.7922 132.744 34.9336 133.427 35.2166C134.109 35.4829 134.691 35.8823 135.174 36.4149C135.673 36.9308 136.056 37.5716 136.323 38.3371C136.589 39.0861 136.722 39.9432 136.722 40.9085V41.5326H127.285C127.319 42.0319 127.435 42.5145 127.635 42.9805C127.851 43.4299 128.126 43.8293 128.459 44.1788C128.792 44.5117 129.183 44.778 129.632 44.9777C130.081 45.1774 130.572 45.2773 131.105 45.2773C131.954 45.2773 132.669 45.1275 133.252 44.8279C133.834 44.5283 134.359 44.0873 134.825 43.5048L136.298 44.6532ZM134.625 39.8849C134.592 38.8864 134.267 38.0875 133.651 37.4883C133.036 36.8892 132.187 36.5896 131.105 36.5896C130.023 36.5896 129.149 36.8892 128.484 37.4883C127.818 38.0875 127.418 38.8864 127.285 39.8849H134.625ZM148.047 38.0126C147.631 37.5133 147.182 37.1555 146.699 36.9391C146.217 36.7061 145.684 36.5896 145.102 36.5896C144.453 36.5896 143.878 36.7061 143.379 36.9391C142.88 37.1555 142.464 37.4634 142.131 37.8628C141.815 38.2622 141.573 38.7282 141.407 39.2608C141.24 39.7768 141.157 40.3343 141.157 40.9334C141.157 41.5326 141.249 42.0985 141.432 42.631C141.632 43.147 141.898 43.6046 142.231 44.0041C142.58 44.4035 142.996 44.7197 143.479 44.9527C143.962 45.1691 144.502 45.2773 145.102 45.2773C146.383 45.2773 147.373 44.7946 148.072 43.8293L149.52 45.2024C148.954 45.8515 148.289 46.3258 147.523 46.6254C146.758 46.9249 145.95 47.0747 145.102 47.0747C144.203 47.0747 143.379 46.9249 142.63 46.6254C141.881 46.3258 141.24 45.9014 140.708 45.3522C140.192 44.8029 139.784 44.1539 139.485 43.4049C139.202 42.656 139.06 41.8322 139.06 40.9334C139.06 40.0514 139.202 39.2359 139.485 38.4869C139.784 37.738 140.2 37.0889 140.733 36.5397C141.265 35.9905 141.898 35.5661 142.63 35.2665C143.379 34.9503 144.203 34.7922 145.102 34.7922C145.967 34.7922 146.783 34.942 147.548 35.2415C148.33 35.5411 149.013 36.0071 149.595 36.6395L148.047 38.0126ZM158.169 36.7394H154.724V42.5811C154.724 42.9639 154.732 43.3217 154.748 43.6546C154.765 43.9708 154.832 44.2537 154.948 44.5034C155.065 44.7364 155.239 44.9278 155.472 45.0776C155.705 45.2107 156.038 45.2773 156.471 45.2773C156.754 45.2773 157.045 45.244 157.345 45.1774C157.644 45.1108 157.927 45.011 158.194 44.8778L158.268 46.6503C157.936 46.8001 157.561 46.9083 157.145 46.9749C156.746 47.0414 156.363 47.0747 155.997 47.0747C155.298 47.0747 154.74 46.9832 154.324 46.8001C153.908 46.617 153.583 46.3591 153.35 46.0262C153.117 45.6933 152.959 45.2856 152.876 44.8029C152.81 44.3037 152.776 43.7544 152.776 43.1553V36.7394H150.23V35.0917H152.776V31.7715H154.724V35.0917H158.169V36.7394ZM176.065 47.2245C174.717 47.2245 173.477 46.9915 172.346 46.5255C171.23 46.0595 170.257 45.4187 169.425 44.6032C168.609 43.7711 167.968 42.7891 167.502 41.6574C167.053 40.509 166.828 39.2691 166.828 37.9377C166.828 36.6063 167.053 35.3747 167.502 34.2429C167.968 33.0946 168.609 32.1126 169.425 31.2971C170.257 30.465 171.23 29.8159 172.346 29.3499C173.477 28.8839 174.717 28.6509 176.065 28.6509C177.413 28.6509 178.645 28.8839 179.76 29.3499C180.892 29.8159 181.865 30.465 182.681 31.2971C183.513 32.1126 184.154 33.0946 184.603 34.2429C185.069 35.3747 185.302 36.6063 185.302 37.9377C185.302 39.2691 185.069 40.509 184.603 41.6574C184.154 42.7891 183.513 43.7711 182.681 44.6032C181.865 45.4187 180.892 46.0595 179.76 46.5255C178.645 46.9915 177.413 47.2245 176.065 47.2245ZM176.065 45.2773C177.097 45.2773 178.037 45.0859 178.886 44.7031C179.752 44.3203 180.492 43.796 181.108 43.1303C181.724 42.4646 182.198 41.6907 182.531 40.8086C182.881 39.9099 183.055 38.9529 183.055 37.9377C183.055 36.9225 182.881 35.9738 182.531 35.0917C182.198 34.193 181.724 33.4108 181.108 32.7451C180.492 32.0794 179.752 31.5551 178.886 31.1723C178.037 30.7895 177.097 30.5981 176.065 30.5981C175.033 30.5981 174.085 30.7895 173.219 31.1723C172.371 31.5551 171.638 32.0794 171.022 32.7451C170.407 33.4108 169.924 34.193 169.574 35.0917C169.242 35.9738 169.075 36.9225 169.075 37.9377C169.075 38.9529 169.242 39.9099 169.574 40.8086C169.924 41.6907 170.407 42.4646 171.022 43.1303C171.638 43.796 172.371 44.3203 173.219 44.7031C174.085 45.0859 175.033 45.2773 176.065 45.2773ZM193.64 46.7751H191.493L186.725 35.0917H188.997L192.641 44.2537H192.691L196.161 35.0917H198.258L193.64 46.7751ZM210.801 44.6532C210.102 45.5519 209.336 46.1843 208.504 46.5505C207.672 46.9 206.707 47.0747 205.608 47.0747C204.693 47.0747 203.869 46.9166 203.137 46.6004C202.405 46.2675 201.781 45.8265 201.265 45.2773C200.765 44.7281 200.374 44.079 200.091 43.33C199.825 42.5811 199.692 41.7822 199.692 40.9334C199.692 40.0347 199.842 39.2109 200.141 38.462C200.441 37.6964 200.857 37.0473 201.389 36.5147C201.922 35.9655 202.554 35.5411 203.287 35.2415C204.019 34.942 204.818 34.7922 205.683 34.7922C206.499 34.7922 207.248 34.9336 207.93 35.2166C208.613 35.4829 209.195 35.8823 209.678 36.4149C210.177 36.9308 210.56 37.5716 210.826 38.3371C211.092 39.0861 211.225 39.9432 211.225 40.9085V41.5326H201.789C201.822 42.0319 201.939 42.5145 202.138 42.9805C202.355 43.4299 202.629 43.8293 202.962 44.1788C203.295 44.5117 203.686 44.778 204.136 44.9777C204.585 45.1774 205.076 45.2773 205.608 45.2773C206.457 45.2773 207.173 45.1275 207.755 44.8279C208.338 44.5283 208.862 44.0873 209.328 43.5048L210.801 44.6532ZM209.128 39.8849C209.095 38.8864 208.771 38.0875 208.155 37.4883C207.539 36.8892 206.69 36.5896 205.608 36.5896C204.527 36.5896 203.653 36.8892 202.987 37.4883C202.321 38.0875 201.922 38.8864 201.789 39.8849H209.128ZM214.238 37.8628C214.238 37.3302 214.221 36.8309 214.188 36.3649C214.155 35.8989 214.138 35.4745 214.138 35.0917H215.985C215.985 35.408 215.994 35.7242 216.01 36.0404C216.027 36.3566 216.035 36.6812 216.035 37.014H216.085C216.218 36.7311 216.401 36.4565 216.634 36.1902C216.884 35.9239 217.175 35.6909 217.508 35.4912C217.841 35.2748 218.216 35.1084 218.632 34.9919C219.048 34.8587 219.497 34.7922 219.98 34.7922C220.113 34.7922 220.246 34.8005 220.379 34.8171C220.512 34.8338 220.645 34.8671 220.779 34.917L220.654 36.8892C220.321 36.7893 219.971 36.7394 219.605 36.7394C218.407 36.7394 217.533 37.1305 216.984 37.9127C216.451 38.6783 216.185 39.7351 216.185 41.0832V46.7751H214.238V37.8628ZM228.332 46.7751H226.185L221.417 35.0917H223.688L227.333 44.2537H227.383L230.853 35.0917H232.95L228.332 46.7751ZM235.233 35.0917H237.18V46.7751H235.233V35.0917ZM234.783 30.5232C234.783 30.1404 234.916 29.8076 235.183 29.5246C235.466 29.2417 235.807 29.1003 236.206 29.1003C236.606 29.1003 236.939 29.2417 237.205 29.5246C237.488 29.8076 237.629 30.1404 237.629 30.5232C237.629 30.9393 237.496 31.2805 237.23 31.5468C236.963 31.8131 236.622 31.9462 236.206 31.9462C235.79 31.9462 235.449 31.8131 235.183 31.5468C234.916 31.2805 234.783 30.9393 234.783 30.5232ZM251.49 44.6532C250.791 45.5519 250.026 46.1843 249.194 46.5505C248.361 46.9 247.396 47.0747 246.298 47.0747C245.382 47.0747 244.559 46.9166 243.826 46.6004C243.094 46.2675 242.47 45.8265 241.954 45.2773C241.455 44.7281 241.063 44.079 240.781 43.33C240.514 42.5811 240.381 41.7822 240.381 40.9334C240.381 40.0347 240.531 39.2109 240.83 38.462C241.13 37.6964 241.546 37.0473 242.079 36.5147C242.611 35.9655 243.244 35.5411 243.976 35.2415C244.708 34.942 245.507 34.7922 246.373 34.7922C247.188 34.7922 247.937 34.9336 248.619 35.2166C249.302 35.4829 249.884 35.8823 250.367 36.4149C250.866 36.9308 251.249 37.5716 251.515 38.3371C251.782 39.0861 251.915 39.9432 251.915 40.9085V41.5326H242.478C242.511 42.0319 242.628 42.5145 242.828 42.9805C243.044 43.4299 243.319 43.8293 243.651 44.1788C243.984 44.5117 244.375 44.778 244.825 44.9777C245.274 45.1774 245.765 45.2773 246.298 45.2773C247.147 45.2773 247.862 45.1275 248.445 44.8279C249.027 44.5283 249.551 44.0873 250.017 43.5048L251.49 44.6532ZM249.818 39.8849C249.784 38.8864 249.46 38.0875 248.844 37.4883C248.228 36.8892 247.38 36.5896 246.298 36.5896C245.216 36.5896 244.342 36.8892 243.676 37.4883C243.011 38.0875 242.611 38.8864 242.478 39.8849H249.818ZM267.459 46.7751H265.537L262.217 37.7879H262.167L259.221 46.7751H257.224L253.429 35.0917H255.576L258.247 44.079H258.297L261.318 35.0917H263.365L266.436 44.079H266.486L269.132 35.0917H271.229L267.459 46.7751Z" fill="#683C09"/>
<rect x="72.397" y="54.7284" width="149.787" height="4.49362" fill="#98BC61" fill-opacity="0.45"/>
</svg>
