<svg width="352" height="79" viewBox="0 0 352 79" fill="none" xmlns="http://www.w3.org/2000/svg">
<path d="M14.9787 0.555309H328.533C336.668 0.555309 343.262 7.14974 343.262 15.2844V53.7298C343.262 61.8644 336.668 68.4589 328.533 68.4589H14.9788C6.84411 68.4589 0.249645 61.8644 0.249645 53.7298V15.2844C0.249645 7.14974 6.84408 0.555309 14.9787 0.555309Z" stroke="#FFAA52" stroke-width="0.499291"/>
<path d="M28.9587 16.5326H337.021C345.156 16.5326 351.75 23.127 351.75 31.2617V63.7156C351.75 71.8502 345.156 78.4447 337.021 78.4447H28.9587C20.8241 78.4447 14.2296 71.8502 14.2296 63.7156V31.2617C14.2296 23.127 20.8241 16.5326 28.9587 16.5326Z" stroke="#98BC61" stroke-width="0.499291"/>
<path d="M96.1649 29.1003H101.407C102.223 29.1003 102.997 29.1835 103.729 29.3499C104.478 29.4997 105.136 29.766 105.701 30.1488C106.284 30.5149 106.742 31.0142 107.074 31.6466C107.424 32.2624 107.599 33.028 107.599 33.9434C107.599 34.9087 107.416 35.7075 107.049 36.34C106.683 36.9724 106.209 37.4717 105.626 37.8378C105.061 38.204 104.437 38.462 103.754 38.6117C103.072 38.7615 102.423 38.8364 101.807 38.8364H98.2619V46.7751H96.1649V29.1003ZM98.2619 36.8892H101.807C102.855 36.8892 103.704 36.6562 104.353 36.1902C105.019 35.7075 105.352 34.9669 105.352 33.9683C105.352 32.9698 105.019 32.2375 104.353 31.7715C103.704 31.2888 102.855 31.0475 101.807 31.0475H98.2619V36.8892ZM110.614 37.8628C110.614 37.3302 110.597 36.8309 110.564 36.3649C110.531 35.8989 110.514 35.4745 110.514 35.0917H112.361C112.361 35.408 112.37 35.7242 112.386 36.0404C112.403 36.3566 112.411 36.6812 112.411 37.014H112.461C112.594 36.7311 112.777 36.4565 113.01 36.1902C113.26 35.9239 113.551 35.6909 113.884 35.4912C114.217 35.2748 114.591 35.1084 115.007 34.9919C115.424 34.8587 115.873 34.7922 116.356 34.7922C116.489 34.7922 116.622 34.8005 116.755 34.8171C116.888 34.8338 117.021 34.8671 117.154 34.917L117.03 36.8892C116.697 36.7893 116.347 36.7394 115.981 36.7394C114.783 36.7394 113.909 37.1305 113.36 37.9127C112.827 38.6783 112.561 39.7351 112.561 41.0832V46.7751H110.614V37.8628ZM118.277 40.9334C118.277 40.0181 118.436 39.1859 118.752 38.437C119.068 37.6881 119.501 37.0473 120.05 36.5147C120.599 35.9655 121.257 35.5411 122.022 35.2415C122.788 34.942 123.62 34.7922 124.519 34.7922C125.417 34.7922 126.249 34.942 127.015 35.2415C127.781 35.5411 128.438 35.9655 128.987 36.5147C129.536 37.0473 129.969 37.6881 130.285 38.437C130.602 39.1859 130.76 40.0181 130.76 40.9334C130.76 41.8488 130.602 42.681 130.285 43.4299C129.969 44.1788 129.536 44.8279 128.987 45.3771C128.438 45.9097 127.781 46.3258 127.015 46.6254C126.249 46.9249 125.417 47.0747 124.519 47.0747C123.62 47.0747 122.788 46.9249 122.022 46.6254C121.257 46.3258 120.599 45.9097 120.05 45.3771C119.501 44.8279 119.068 44.1788 118.752 43.4299C118.436 42.681 118.277 41.8488 118.277 40.9334ZM120.374 40.9334C120.374 41.5492 120.466 42.1234 120.649 42.656C120.849 43.1719 121.132 43.6296 121.498 44.029C121.864 44.4118 122.297 44.7197 122.796 44.9527C123.312 45.1691 123.886 45.2773 124.519 45.2773C125.151 45.2773 125.717 45.1691 126.216 44.9527C126.732 44.7197 127.173 44.4118 127.539 44.029C127.905 43.6296 128.18 43.1719 128.363 42.656C128.563 42.1234 128.663 41.5492 128.663 40.9334C128.663 40.3177 128.563 39.7518 128.363 39.2359C128.18 38.7033 127.905 38.2456 127.539 37.8628C127.173 37.4634 126.732 37.1555 126.216 36.9391C125.717 36.7061 125.151 36.5896 124.519 36.5896C123.886 36.5896 123.312 36.7061 122.796 36.9391C122.297 37.1555 121.864 37.4634 121.498 37.8628C121.132 38.2456 120.849 38.7033 120.649 39.2359C120.466 39.7518 120.374 40.3177 120.374 40.9334ZM135.896 49.3964C135.896 49.696 135.846 50.0372 135.746 50.42C135.663 50.8194 135.497 51.1855 135.247 51.5184C134.997 51.8679 134.64 52.1592 134.174 52.3922C133.724 52.6418 133.142 52.7666 132.426 52.7666C132.193 52.7666 131.968 52.75 131.752 52.7167C131.519 52.6834 131.294 52.6168 131.078 52.517L131.303 50.8194C131.619 50.9193 131.935 50.9692 132.251 50.9692C132.618 50.9692 132.909 50.9026 133.125 50.7695C133.358 50.6363 133.533 50.4533 133.649 50.2203C133.766 50.0039 133.841 49.7459 133.874 49.4464C133.924 49.1468 133.949 48.8306 133.949 48.4977V35.0917H135.896V49.3964ZM133.5 30.5232C133.5 30.1404 133.633 29.8076 133.899 29.5246C134.182 29.2417 134.523 29.1003 134.923 29.1003C135.322 29.1003 135.655 29.2417 135.921 29.5246C136.204 29.8076 136.346 30.1404 136.346 30.5232C136.346 30.9393 136.212 31.2805 135.946 31.5468C135.68 31.8131 135.339 31.9462 134.923 31.9462C134.506 31.9462 134.165 31.8131 133.899 31.5468C133.633 31.2805 133.5 30.9393 133.5 30.5232ZM150.207 44.6532C149.508 45.5519 148.742 46.1843 147.91 46.5505C147.078 46.9 146.113 47.0747 145.014 47.0747C144.099 47.0747 143.275 46.9166 142.543 46.6004C141.81 46.2675 141.186 45.8265 140.67 45.2773C140.171 44.7281 139.78 44.079 139.497 43.33C139.231 42.5811 139.097 41.7822 139.097 40.9334C139.097 40.0347 139.247 39.2109 139.547 38.462C139.846 37.6964 140.263 37.0473 140.795 36.5147C141.328 35.9655 141.96 35.5411 142.692 35.2415C143.425 34.942 144.224 34.7922 145.089 34.7922C145.904 34.7922 146.653 34.9336 147.336 35.2166C148.018 35.4829 148.601 35.8823 149.083 36.4149C149.583 36.9308 149.965 37.5716 150.232 38.3371C150.498 39.0861 150.631 39.9432 150.631 40.9085V41.5326H141.195C141.228 42.0319 141.344 42.5145 141.544 42.9805C141.76 43.4299 142.035 43.8293 142.368 44.1788C142.701 44.5117 143.092 44.778 143.541 44.9777C143.991 45.1774 144.482 45.2773 145.014 45.2773C145.863 45.2773 146.579 45.1275 147.161 44.8279C147.744 44.5283 148.268 44.0873 148.734 43.5048L150.207 44.6532ZM148.534 39.8849C148.501 38.8864 148.176 38.0875 147.56 37.4883C146.945 36.8892 146.096 36.5896 145.014 36.5896C143.932 36.5896 143.059 36.8892 142.393 37.4883C141.727 38.0875 141.328 38.8864 141.195 39.8849H148.534ZM161.957 38.0126C161.541 37.5133 161.091 37.1555 160.609 36.9391C160.126 36.7061 159.593 36.5896 159.011 36.5896C158.362 36.5896 157.788 36.7061 157.288 36.9391C156.789 37.1555 156.373 37.4634 156.04 37.8628C155.724 38.2622 155.482 38.7282 155.316 39.2608C155.15 39.7768 155.066 40.3343 155.066 40.9334C155.066 41.5326 155.158 42.0985 155.341 42.631C155.541 43.147 155.807 43.6046 156.14 44.0041C156.489 44.4035 156.905 44.7197 157.388 44.9527C157.871 45.1691 158.412 45.2773 159.011 45.2773C160.292 45.2773 161.283 44.7946 161.982 43.8293L163.43 45.2024C162.864 45.8515 162.198 46.3258 161.432 46.6254C160.667 46.9249 159.86 47.0747 159.011 47.0747C158.112 47.0747 157.288 46.9249 156.539 46.6254C155.79 46.3258 155.15 45.9014 154.617 45.3522C154.101 44.8029 153.693 44.1539 153.394 43.4049C153.111 42.656 152.969 41.8322 152.969 40.9334C152.969 40.0514 153.111 39.2359 153.394 38.4869C153.693 37.738 154.109 37.0889 154.642 36.5397C155.175 35.9905 155.807 35.5661 156.539 35.2665C157.288 34.9503 158.112 34.7922 159.011 34.7922C159.876 34.7922 160.692 34.942 161.457 35.2415C162.24 35.5411 162.922 36.0071 163.504 36.6395L161.957 38.0126ZM172.078 36.7394H168.633V42.5811C168.633 42.9639 168.641 43.3217 168.658 43.6546C168.674 43.9708 168.741 44.2537 168.857 44.5034C168.974 44.7364 169.149 44.9278 169.382 45.0776C169.615 45.2107 169.947 45.2773 170.38 45.2773C170.663 45.2773 170.954 45.244 171.254 45.1774C171.554 45.1108 171.836 45.011 172.103 44.8778L172.178 46.6503C171.845 46.8001 171.47 46.9083 171.054 46.9749C170.655 47.0414 170.272 47.0747 169.906 47.0747C169.207 47.0747 168.649 46.9832 168.233 46.8001C167.817 46.617 167.493 46.3591 167.26 46.0262C167.027 45.6933 166.869 45.2856 166.785 44.8029C166.719 44.3037 166.685 43.7544 166.685 43.1553V36.7394H164.139V35.0917H166.685V31.7715H168.633V35.0917H172.078V36.7394ZM189.974 47.2245C188.626 47.2245 187.386 46.9915 186.255 46.5255C185.14 46.0595 184.166 45.4187 183.334 44.6032C182.518 43.7711 181.878 42.7891 181.412 41.6574C180.962 40.509 180.738 39.2691 180.738 37.9377C180.738 36.6063 180.962 35.3747 181.412 34.2429C181.878 33.0946 182.518 32.1126 183.334 31.2971C184.166 30.465 185.14 29.8159 186.255 29.3499C187.386 28.8839 188.626 28.6509 189.974 28.6509C191.323 28.6509 192.554 28.8839 193.669 29.3499C194.801 29.8159 195.775 30.465 196.59 31.2971C197.422 32.1126 198.063 33.0946 198.512 34.2429C198.978 35.3747 199.211 36.6063 199.211 37.9377C199.211 39.2691 198.978 40.509 198.512 41.6574C198.063 42.7891 197.422 43.7711 196.59 44.6032C195.775 45.4187 194.801 46.0595 193.669 46.5255C192.554 46.9915 191.323 47.2245 189.974 47.2245ZM189.974 45.2773C191.006 45.2773 191.947 45.0859 192.795 44.7031C193.661 44.3203 194.401 43.796 195.017 43.1303C195.633 42.4646 196.107 41.6907 196.44 40.8086C196.79 39.9099 196.965 38.9529 196.965 37.9377C196.965 36.9225 196.79 35.9738 196.44 35.0917C196.107 34.193 195.633 33.4108 195.017 32.7451C194.401 32.0794 193.661 31.5551 192.795 31.1723C191.947 30.7895 191.006 30.5981 189.974 30.5981C188.943 30.5981 187.994 30.7895 187.128 31.1723C186.28 31.5551 185.547 32.0794 184.932 32.7451C184.316 33.4108 183.833 34.193 183.484 35.0917C183.151 35.9738 182.984 36.9225 182.984 37.9377C182.984 38.9529 183.151 39.9099 183.484 40.8086C183.833 41.6907 184.316 42.4646 184.932 43.1303C185.547 43.796 186.28 44.3203 187.128 44.7031C187.994 45.0859 188.943 45.2773 189.974 45.2773ZM207.549 46.7751H205.402L200.634 35.0917H202.906L206.551 44.2537H206.6L210.071 35.0917H212.168L207.549 46.7751ZM224.71 44.6532C224.011 45.5519 223.246 46.1843 222.414 46.5505C221.581 46.9 220.616 47.0747 219.518 47.0747C218.602 47.0747 217.778 46.9166 217.046 46.6004C216.314 46.2675 215.69 45.8265 215.174 45.2773C214.675 44.7281 214.283 44.079 214 43.33C213.734 42.5811 213.601 41.7822 213.601 40.9334C213.601 40.0347 213.751 39.2109 214.05 38.462C214.35 37.6964 214.766 37.0473 215.299 36.5147C215.831 35.9655 216.464 35.5411 217.196 35.2415C217.928 34.942 218.727 34.7922 219.593 34.7922C220.408 34.7922 221.157 34.9336 221.839 35.2166C222.522 35.4829 223.104 35.8823 223.587 36.4149C224.086 36.9308 224.469 37.5716 224.735 38.3371C225.002 39.0861 225.135 39.9432 225.135 40.9085V41.5326H215.698C215.731 42.0319 215.848 42.5145 216.048 42.9805C216.264 43.4299 216.539 43.8293 216.871 44.1788C217.204 44.5117 217.595 44.778 218.045 44.9777C218.494 45.1774 218.985 45.2773 219.518 45.2773C220.366 45.2773 221.082 45.1275 221.665 44.8279C222.247 44.5283 222.771 44.0873 223.237 43.5048L224.71 44.6532ZM223.038 39.8849C223.004 38.8864 222.68 38.0875 222.064 37.4883C221.448 36.8892 220.599 36.5896 219.518 36.5896C218.436 36.5896 217.562 36.8892 216.896 37.4883C216.231 38.0875 215.831 38.8864 215.698 39.8849H223.038ZM228.147 37.8628C228.147 37.3302 228.13 36.8309 228.097 36.3649C228.064 35.8989 228.047 35.4745 228.047 35.0917H229.895C229.895 35.408 229.903 35.7242 229.919 36.0404C229.936 36.3566 229.944 36.6812 229.944 37.014H229.994C230.128 36.7311 230.311 36.4565 230.544 36.1902C230.793 35.9239 231.084 35.6909 231.417 35.4912C231.75 35.2748 232.125 35.1084 232.541 34.9919C232.957 34.8587 233.406 34.7922 233.889 34.7922C234.022 34.7922 234.155 34.8005 234.288 34.8171C234.421 34.8338 234.555 34.8671 234.688 34.917L234.563 36.8892C234.23 36.7893 233.881 36.7394 233.514 36.7394C232.316 36.7394 231.442 37.1305 230.893 37.9127C230.361 38.6783 230.094 39.7351 230.094 41.0832V46.7751H228.147V37.8628ZM242.241 46.7751H240.094L235.326 35.0917H237.598L241.242 44.2537H241.292L244.762 35.0917H246.859L242.241 46.7751ZM249.142 35.0917H251.089V46.7751H249.142V35.0917ZM248.692 30.5232C248.692 30.1404 248.826 29.8076 249.092 29.5246C249.375 29.2417 249.716 29.1003 250.115 29.1003C250.515 29.1003 250.848 29.2417 251.114 29.5246C251.397 29.8076 251.538 30.1404 251.538 30.5232C251.538 30.9393 251.405 31.2805 251.139 31.5468C250.873 31.8131 250.531 31.9462 250.115 31.9462C249.699 31.9462 249.358 31.8131 249.092 31.5468C248.826 31.2805 248.692 30.9393 248.692 30.5232ZM265.4 44.6532C264.701 45.5519 263.935 46.1843 263.103 46.5505C262.271 46.9 261.305 47.0747 260.207 47.0747C259.292 47.0747 258.468 46.9166 257.735 46.6004C257.003 46.2675 256.379 45.8265 255.863 45.2773C255.364 44.7281 254.973 44.079 254.69 43.33C254.423 42.5811 254.29 41.7822 254.29 40.9334C254.29 40.0347 254.44 39.2109 254.74 38.462C255.039 37.6964 255.455 37.0473 255.988 36.5147C256.52 35.9655 257.153 35.5411 257.885 35.2415C258.617 34.942 259.416 34.7922 260.282 34.7922C261.097 34.7922 261.846 34.9336 262.529 35.2166C263.211 35.4829 263.793 35.8823 264.276 36.4149C264.775 36.9308 265.158 37.5716 265.424 38.3371C265.691 39.0861 265.824 39.9432 265.824 40.9085V41.5326H256.387C256.421 42.0319 256.537 42.5145 256.737 42.9805C256.953 43.4299 257.228 43.8293 257.561 44.1788C257.894 44.5117 258.285 44.778 258.734 44.9777C259.183 45.1774 259.674 45.2773 260.207 45.2773C261.056 45.2773 261.771 45.1275 262.354 44.8279C262.936 44.5283 263.461 44.0873 263.927 43.5048L265.4 44.6532ZM263.727 39.8849C263.694 38.8864 263.369 38.0875 262.753 37.4883C262.137 36.8892 261.289 36.5896 260.207 36.5896C259.125 36.5896 258.251 36.8892 257.586 37.4883C256.92 38.0875 256.52 38.8864 256.387 39.8849H263.727ZM281.368 46.7751H279.446L276.126 37.7879H276.076L273.13 46.7751H271.133L267.338 35.0917H269.485L272.157 44.079H272.206L275.227 35.0917H277.274L280.345 44.079H280.395L283.041 35.0917H285.138L281.368 46.7751Z" fill="black"/>
<rect x="72.397" y="54.7284" width="149.787" height="4.49362" fill="#98BC61" fill-opacity="0.45"/>
</svg>
