<svg width="153" height="55" viewBox="0 0 153 55" fill="none" xmlns="http://www.w3.org/2000/svg">
<circle cx="30.7844" cy="20.8499" r="19.0525" fill="#ED7608" fill-opacity="0.4"/>
<circle cx="25.033" cy="19.0525" r="18.5541" stroke="#98BC61" stroke-width="0.996743"/>
<path d="M36.095 19.0828H40.8046C41.5372 19.0828 42.2324 19.1575 42.8902 19.307C43.563 19.4416 44.1536 19.6808 44.662 20.0247C45.1852 20.3536 45.5964 20.8021 45.8954 21.3703C46.2094 21.9235 46.3664 22.6112 46.3664 23.4335C46.3664 24.3007 46.2019 25.0184 45.873 25.5865C45.5441 26.1547 45.118 26.6032 44.5947 26.9321C44.0863 27.261 43.5257 27.4928 42.9127 27.6273C42.2997 27.7619 41.7166 27.8292 41.1634 27.8292H37.9788V34.9609H36.095V19.0828ZM37.9788 26.0799H41.1634C42.1053 26.0799 42.8678 25.8706 43.4509 25.452C44.049 25.0184 44.348 24.353 44.348 23.456C44.348 22.5589 44.049 21.9011 43.4509 21.4824C42.8678 21.0488 42.1053 20.832 41.1634 20.832H37.9788V26.0799ZM49.0749 26.9545C49.0749 26.4761 49.06 26.0276 49.0301 25.6089C49.0002 25.1903 48.9852 24.8091 48.9852 24.4652H50.6448C50.6448 24.7492 50.6523 25.0333 50.6672 25.3174C50.6822 25.6015 50.6897 25.893 50.6897 26.192H50.7345C50.8541 25.9379 51.0186 25.6912 51.2279 25.452C51.4522 25.2127 51.7138 25.0034 52.0128 24.824C52.3119 24.6296 52.6483 24.4801 53.022 24.3755C53.3958 24.2559 53.7995 24.1961 54.2331 24.1961C54.3527 24.1961 54.4723 24.2035 54.5919 24.2185C54.7115 24.2334 54.8311 24.2633 54.9507 24.3082L54.8386 26.0799C54.5396 25.9902 54.2256 25.9453 53.8967 25.9453C52.8202 25.9453 52.0353 26.2967 51.5419 26.9994C51.0634 27.6871 50.8242 28.6365 50.8242 29.8476V34.9609H49.0749V26.9545ZM55.9596 29.713C55.9596 28.8907 56.1016 28.1432 56.3857 27.4704C56.6698 26.7976 57.0585 26.2219 57.5519 25.7435C58.0453 25.2501 58.6358 24.8689 59.3236 24.5997C60.0113 24.3306 60.7589 24.1961 61.5663 24.1961C62.3736 24.1961 63.1212 24.3306 63.8089 24.5997C64.4967 24.8689 65.0873 25.2501 65.5806 25.7435C66.074 26.2219 66.4628 26.7976 66.7468 27.4704C67.0309 28.1432 67.1729 28.8907 67.1729 29.713C67.1729 30.5353 67.0309 31.2829 66.7468 31.9557C66.4628 32.6285 66.074 33.2116 65.5806 33.705C65.0873 34.1834 64.4967 34.5572 63.8089 34.8263C63.1212 35.0954 62.3736 35.23 61.5663 35.23C60.7589 35.23 60.0113 35.0954 59.3236 34.8263C58.6358 34.5572 58.0453 34.1834 57.5519 33.705C57.0585 33.2116 56.6698 32.6285 56.3857 31.9557C56.1016 31.2829 55.9596 30.5353 55.9596 29.713ZM57.8434 29.713C57.8434 30.2662 57.9257 30.782 58.0901 31.2605C58.2695 31.724 58.5237 32.1351 58.8526 32.4939C59.1816 32.8378 59.5703 33.1144 60.0188 33.3237C60.4823 33.5181 60.9981 33.6153 61.5663 33.6153C62.1344 33.6153 62.6427 33.5181 63.0913 33.3237C63.5548 33.1144 63.951 32.8378 64.2799 32.4939C64.6088 32.1351 64.8555 31.724 65.02 31.2605C65.1994 30.782 65.2891 30.2662 65.2891 29.713C65.2891 29.1598 65.1994 28.6515 65.02 28.188C64.8555 27.7096 64.6088 27.2984 64.2799 26.9545C63.951 26.5957 63.5548 26.3191 63.0913 26.1248C62.6427 25.9154 62.1344 25.8108 61.5663 25.8108C60.9981 25.8108 60.4823 25.9154 60.0188 26.1248C59.5703 26.3191 59.1816 26.5957 58.8526 26.9545C58.5237 27.2984 58.2695 27.7096 58.0901 28.188C57.9257 28.6515 57.8434 29.1598 57.8434 29.713ZM69.7913 18.0063H71.5405V25.9902H71.5854C72.0638 25.422 72.617 24.981 73.245 24.667C73.8879 24.353 74.5906 24.1961 75.3531 24.1961C76.1754 24.1961 76.923 24.3381 77.5958 24.6222C78.2835 24.8913 78.8666 25.2725 79.345 25.7659C79.8235 26.2593 80.1973 26.8424 80.4664 27.5152C80.7355 28.188 80.8701 28.9206 80.8701 29.713C80.8701 30.5054 80.7355 31.238 80.4664 31.9108C80.1973 32.5836 79.8235 33.1667 79.345 33.6601C78.8816 34.1535 78.3284 34.5422 77.6855 34.8263C77.0426 35.0954 76.3548 35.23 75.6222 35.23C74.6803 35.23 73.8505 35.0282 73.1328 34.6245C72.4301 34.2058 71.9143 33.6975 71.5854 33.0995H71.5405V34.9609H69.7913V18.0063ZM71.5405 29.713C71.5405 30.2662 71.6228 30.782 71.7872 31.2605C71.9667 31.724 72.2208 32.1351 72.5497 32.4939C72.8787 32.8378 73.2674 33.1144 73.7159 33.3237C74.1794 33.5181 74.6952 33.6153 75.2634 33.6153C75.8315 33.6153 76.3399 33.5181 76.7884 33.3237C77.2519 33.1144 77.6481 32.8378 77.977 32.4939C78.3059 32.1351 78.5526 31.724 78.7171 31.2605C78.8965 30.782 78.9862 30.2662 78.9862 29.713C78.9862 29.1598 78.8965 28.6515 78.7171 28.188C78.5526 27.7096 78.3059 27.2984 77.977 26.9545C77.6481 26.5957 77.2519 26.3191 76.7884 26.1248C76.3399 25.9154 75.8315 25.8108 75.2634 25.8108C74.6952 25.8108 74.1794 25.9154 73.7159 26.1248C73.2674 26.3191 72.8787 26.5957 72.5497 26.9545C72.2208 27.2984 71.9667 27.7096 71.7872 28.188C71.6228 28.6515 71.5405 29.1598 71.5405 29.713ZM83.748 18.0063H85.4973V34.9609H83.748V18.0063ZM98.3531 33.0546C97.7251 33.862 97.0374 34.4301 96.2898 34.759C95.5423 35.073 94.6751 35.23 93.6883 35.23C92.866 35.23 92.1259 35.088 91.4681 34.8039C90.8102 34.5049 90.2496 34.1087 89.7861 33.6153C89.3375 33.1219 88.9862 32.5388 88.732 31.866C88.4928 31.1932 88.3732 30.4755 88.3732 29.713C88.3732 28.9057 88.5078 28.1656 88.7769 27.4928C89.046 26.805 89.4198 26.2219 89.8982 25.7435C90.3766 25.2501 90.9448 24.8689 91.6026 24.5997C92.2605 24.3306 92.9781 24.1961 93.7556 24.1961C94.4882 24.1961 95.161 24.3231 95.774 24.5773C96.387 24.8165 96.9103 25.1754 97.3439 25.6538C97.7924 26.1173 98.1363 26.6929 98.3755 27.3806C98.6147 28.0534 98.7343 28.8234 98.7343 29.6906V30.2513H90.257C90.2869 30.6998 90.3916 31.1334 90.571 31.552C90.7654 31.9557 91.0121 32.3145 91.3111 32.6285C91.6101 32.9275 91.9615 33.1667 92.3651 33.3462C92.7688 33.5256 93.2099 33.6153 93.6883 33.6153C94.4508 33.6153 95.0937 33.4807 95.617 33.2116C96.1403 32.9425 96.6113 32.5463 97.0299 32.023L98.3531 33.0546ZM96.8505 28.7711C96.8206 27.874 96.529 27.1564 95.9758 26.6181C95.4227 26.0799 94.6601 25.8108 93.6883 25.8108C92.7165 25.8108 91.9316 26.0799 91.3335 26.6181C90.7355 27.1564 90.3766 27.874 90.257 28.7711H96.8505ZM101.44 26.9545C101.44 26.4761 101.425 26.0276 101.396 25.6089C101.366 25.1903 101.351 24.8091 101.351 24.4652H103.01C103.01 24.7492 103.018 25.0333 103.033 25.3174C103.048 25.6015 103.055 25.893 103.055 26.192H103.1C103.22 25.9379 103.384 25.6912 103.593 25.452C103.818 25.2127 104.079 25.0034 104.378 24.824C104.677 24.6296 105.014 24.4801 105.388 24.3755C105.761 24.2559 106.165 24.1961 106.599 24.1961C107.167 24.1961 107.638 24.2708 108.011 24.4203C108.4 24.5549 108.722 24.7268 108.976 24.9361C109.23 25.1305 109.424 25.3473 109.559 25.5865C109.708 25.8108 109.828 26.0126 109.918 26.192C110.306 25.5641 110.755 25.0782 111.263 24.7343C111.772 24.3755 112.43 24.1961 113.237 24.1961C113.984 24.1961 114.612 24.3007 115.121 24.51C115.629 24.7044 116.04 24.9959 116.354 25.3847C116.668 25.7584 116.892 26.2219 117.027 26.7751C117.162 27.3134 117.229 27.9189 117.229 28.5917V34.9609H115.48V28.6814C115.48 28.3226 115.442 27.9712 115.367 27.6273C115.293 27.2835 115.158 26.977 114.964 26.7078C114.769 26.4387 114.508 26.2219 114.179 26.0575C113.85 25.893 113.431 25.8108 112.923 25.8108C112.549 25.8108 112.198 25.8855 111.869 26.035C111.54 26.1846 111.248 26.3939 110.994 26.663C110.755 26.9321 110.561 27.261 110.411 27.6498C110.277 28.0235 110.209 28.4422 110.209 28.9057V34.9609H108.46V29.0178C108.46 27.8516 108.303 27.0293 107.989 26.5509C107.675 26.0575 107.159 25.8108 106.442 25.8108C105.873 25.8108 105.38 25.908 104.961 26.1023C104.558 26.2967 104.221 26.5733 103.952 26.9321C103.698 27.2909 103.504 27.717 103.369 28.2104C103.25 28.7038 103.19 29.2495 103.19 29.8476V34.9609H101.44V26.9545Z" fill="#683C09"/>
</svg>
