<svg width="352" height="102" viewBox="0 0 352 102" fill="none" xmlns="http://www.w3.org/2000/svg">
<path d="M14.9787 0.322155H328.533C336.668 0.322155 343.262 6.91659 343.262 15.0512V53.4966C343.262 61.6313 336.668 68.2257 328.533 68.2257H14.9788C6.8441 68.2257 0.249645 61.6313 0.249645 53.4966V15.0512C0.249645 6.91659 6.84408 0.322155 14.9787 0.322155Z" stroke="#FFAA52" stroke-width="0.499291"/>
<path d="M28.9592 16.2995H337.022C345.156 16.2995 351.751 22.8939 351.751 31.0285V63.4824C351.751 71.6171 345.156 78.2115 337.022 78.2115H28.9592C20.8246 78.2115 14.2301 71.6171 14.2301 63.4824V31.0285C14.2301 22.8939 20.8245 16.2995 28.9592 16.2995Z" stroke="#98BC61" stroke-width="0.499291"/>
<path d="M125.865 39.8016C125.865 40.7669 125.74 41.6822 125.491 42.5477C125.258 43.4131 124.875 44.1787 124.342 44.8444C123.826 45.4935 123.144 46.0177 122.295 46.4172C121.446 46.8 120.414 46.9914 119.199 46.9914C117.985 46.9914 116.953 46.8 116.104 46.4172C115.255 46.0177 114.564 45.4935 114.032 44.8444C113.516 44.1787 113.133 43.4131 112.883 42.5477C112.65 41.6822 112.534 40.7669 112.534 39.8016V28.8671H114.631V39.502C114.631 40.2176 114.706 40.9083 114.856 41.574C115.005 42.2398 115.255 42.8306 115.605 43.3465C115.954 43.8625 116.42 44.2785 117.003 44.5948C117.585 44.8943 118.317 45.0441 119.199 45.0441C120.082 45.0441 120.814 44.8943 121.396 44.5948C121.979 44.2785 122.445 43.8625 122.794 43.3465C123.144 42.8306 123.394 42.2398 123.543 41.574C123.693 40.9083 123.768 40.2176 123.768 39.502V28.8671H125.865V39.8016ZM130.087 43.4714C130.469 43.954 130.885 44.3368 131.335 44.6197C131.801 44.9027 132.383 45.0441 133.082 45.0441C133.382 45.0441 133.681 45.0108 133.981 44.9443C134.297 44.8777 134.58 44.7695 134.83 44.6197C135.079 44.4699 135.279 44.2869 135.429 44.0705C135.579 43.8375 135.654 43.5629 135.654 43.2467C135.654 42.9305 135.579 42.6725 135.429 42.4728C135.296 42.2731 135.113 42.1066 134.88 41.9735C134.647 41.8237 134.38 41.7072 134.081 41.624C133.781 41.5408 133.473 41.4659 133.157 41.3993C132.608 41.2828 132.084 41.1497 131.584 40.9999C131.085 40.8501 130.644 40.6587 130.261 40.4257C129.895 40.176 129.596 39.8598 129.363 39.477C129.146 39.0942 129.038 38.6033 129.038 38.0041C129.038 37.4383 129.163 36.939 129.413 36.5062C129.662 36.0735 129.995 35.7157 130.411 35.4328C130.827 35.1498 131.293 34.9335 131.809 34.7837C132.325 34.6339 132.858 34.559 133.407 34.559C134.239 34.559 135.005 34.7254 135.704 35.0583C136.419 35.3912 136.977 35.9321 137.376 36.681L135.754 37.7545C135.504 37.3384 135.171 37.0055 134.755 36.7559C134.356 36.4896 133.865 36.3565 133.282 36.3565C133.016 36.3565 132.741 36.3897 132.458 36.4563C132.192 36.5229 131.951 36.6227 131.734 36.7559C131.518 36.889 131.335 37.0638 131.185 37.2801C131.052 37.4799 130.985 37.7129 130.985 37.9792C130.985 38.2288 131.06 38.4452 131.21 38.6282C131.376 38.7947 131.593 38.9444 131.859 39.0776C132.142 39.2107 132.458 39.3272 132.808 39.4271C133.174 39.527 133.548 39.6102 133.931 39.6767C134.447 39.7766 134.938 39.9097 135.404 40.0762C135.87 40.226 136.278 40.434 136.627 40.7003C136.977 40.9666 137.251 41.2994 137.451 41.6989C137.651 42.0983 137.751 42.5893 137.751 43.1718C137.751 43.8375 137.618 44.4034 137.351 44.8694C137.085 45.3354 136.727 45.7182 136.278 46.0177C135.845 46.3007 135.346 46.5087 134.78 46.6419C134.231 46.775 133.665 46.8416 133.082 46.8416C132.084 46.8416 131.218 46.6918 130.486 46.3922C129.77 46.076 129.121 45.5018 128.539 44.6697L130.087 43.4714ZM150.902 44.42C150.203 45.3187 149.437 45.9512 148.605 46.3173C147.773 46.6668 146.807 46.8416 145.709 46.8416C144.794 46.8416 143.97 46.6835 143.237 46.3672C142.505 46.0344 141.881 45.5933 141.365 45.0441C140.866 44.4949 140.475 43.8458 140.192 43.0969C139.925 42.3479 139.792 41.5491 139.792 40.7003C139.792 39.8016 139.942 38.9777 140.242 38.2288C140.541 37.4632 140.957 36.8141 141.49 36.2816C142.022 35.7323 142.655 35.3079 143.387 35.0084C144.119 34.7088 144.918 34.559 145.784 34.559C146.599 34.559 147.348 34.7005 148.031 34.9834C148.713 35.2497 149.295 35.6491 149.778 36.1817C150.277 36.6976 150.66 37.3384 150.926 38.104C151.193 38.8529 151.326 39.71 151.326 40.6753V41.2994H141.889C141.923 41.7987 142.039 42.2814 142.239 42.7474C142.455 43.1967 142.73 43.5962 143.063 43.9457C143.396 44.2785 143.787 44.5448 144.236 44.7445C144.685 44.9443 145.176 45.0441 145.709 45.0441C146.558 45.0441 147.273 44.8943 147.856 44.5948C148.438 44.2952 148.963 43.8541 149.429 43.2716L150.902 44.42ZM149.229 39.6518C149.196 38.6532 148.871 37.8543 148.255 37.2552C147.639 36.656 146.791 36.3565 145.709 36.3565C144.627 36.3565 143.753 36.656 143.088 37.2552C142.422 37.8543 142.022 38.6532 141.889 39.6518H149.229ZM154.338 37.6297C154.338 37.0971 154.322 36.5978 154.288 36.1318C154.255 35.6658 154.238 35.2414 154.238 34.8586H156.086C156.086 35.1748 156.094 35.491 156.111 35.8072C156.127 36.1235 156.136 36.448 156.136 36.7809H156.186C156.319 36.4979 156.502 36.2233 156.735 35.957C156.984 35.6907 157.276 35.4577 157.609 35.258C157.941 35.0417 158.316 34.8752 158.732 34.7587C159.148 34.6256 159.597 34.559 160.08 34.559C160.213 34.559 160.346 34.5673 160.48 34.584C160.613 34.6006 160.746 34.6339 160.879 34.6838L160.754 36.656C160.421 36.5562 160.072 36.5062 159.706 36.5062C158.507 36.5062 157.634 36.8974 157.084 37.6796C156.552 38.4452 156.285 39.502 156.285 40.8501V46.542H154.338V37.6297ZM170.412 28.8671H174.931C175.78 28.8671 176.62 28.917 177.452 29.0169C178.301 29.1167 179.059 29.3331 179.724 29.666C180.39 29.9988 180.931 30.4898 181.347 31.1389C181.763 31.7713 181.971 32.6367 181.971 33.7352C181.971 35.0333 181.58 36.0818 180.798 36.8807C180.016 37.6796 178.934 38.1872 177.552 38.4036L182.57 46.542H179.999L175.206 38.6033H172.51V46.542H170.412V28.8671ZM172.51 36.656H174.382C174.964 36.656 175.564 36.6394 176.179 36.6061C176.812 36.5728 177.386 36.4646 177.902 36.2816C178.434 36.0985 178.867 35.8156 179.2 35.4328C179.55 35.0333 179.724 34.4675 179.724 33.7352C179.724 33.1027 179.599 32.5951 179.35 32.2123C179.1 31.8296 178.767 31.5383 178.351 31.3386C177.952 31.1222 177.494 30.9808 176.978 30.9142C176.479 30.8476 175.971 30.8143 175.455 30.8143H172.51V36.656ZM195.76 44.42C195.061 45.3187 194.295 45.9512 193.463 46.3173C192.631 46.6668 191.666 46.8416 190.567 46.8416C189.652 46.8416 188.828 46.6835 188.096 46.3672C187.363 46.0344 186.739 45.5933 186.223 45.0441C185.724 44.4949 185.333 43.8458 185.05 43.0969C184.784 42.3479 184.65 41.5491 184.65 40.7003C184.65 39.8016 184.8 38.9777 185.1 38.2288C185.399 37.4632 185.815 36.8141 186.348 36.2816C186.881 35.7323 187.513 35.3079 188.245 35.0084C188.978 34.7088 189.777 34.559 190.642 34.559C191.457 34.559 192.206 34.7005 192.889 34.9834C193.571 35.2497 194.154 35.6491 194.636 36.1817C195.136 36.6976 195.518 37.3384 195.785 38.104C196.051 38.8529 196.184 39.71 196.184 40.6753V41.2994H186.747C186.781 41.7987 186.897 42.2814 187.097 42.7474C187.313 43.1967 187.588 43.5962 187.921 43.9457C188.254 44.2785 188.645 44.5448 189.094 44.7445C189.544 44.9443 190.034 45.0441 190.567 45.0441C191.416 45.0441 192.132 44.8943 192.714 44.5948C193.297 44.2952 193.821 43.8541 194.287 43.2716L195.76 44.42ZM194.087 39.6518C194.054 38.6532 193.729 37.8543 193.113 37.2552C192.498 36.656 191.649 36.3565 190.567 36.3565C189.485 36.3565 188.612 36.656 187.946 37.2552C187.28 37.8543 186.881 38.6532 186.747 39.6518H194.087ZM199.446 43.4714C199.829 43.954 200.245 44.3368 200.694 44.6197C201.16 44.9027 201.743 45.0441 202.442 45.0441C202.741 45.0441 203.041 45.0108 203.341 44.9443C203.657 44.8777 203.94 44.7695 204.189 44.6197C204.439 44.4699 204.639 44.2869 204.788 44.0705C204.938 43.8375 205.013 43.5629 205.013 43.2467C205.013 42.9305 204.938 42.6725 204.788 42.4728C204.655 42.2731 204.472 42.1066 204.239 41.9735C204.006 41.8237 203.74 41.7072 203.44 41.624C203.141 41.5408 202.833 41.4659 202.517 41.3993C201.967 41.2828 201.443 41.1497 200.944 40.9999C200.445 40.8501 200.004 40.6587 199.621 40.4257C199.255 40.176 198.955 39.8598 198.722 39.477C198.506 39.0942 198.398 38.6033 198.398 38.0041C198.398 37.4383 198.522 36.939 198.772 36.5062C199.022 36.0735 199.355 35.7157 199.771 35.4328C200.187 35.1498 200.653 34.9335 201.169 34.7837C201.685 34.6339 202.217 34.559 202.766 34.559C203.598 34.559 204.364 34.7254 205.063 35.0583C205.779 35.3912 206.336 35.9321 206.736 36.681L205.113 37.7545C204.863 37.3384 204.53 37.0055 204.114 36.7559C203.715 36.4896 203.224 36.3565 202.642 36.3565C202.375 36.3565 202.101 36.3897 201.818 36.4563C201.551 36.5229 201.31 36.6227 201.094 36.7559C200.877 36.889 200.694 37.0638 200.544 37.2801C200.411 37.4799 200.345 37.7129 200.345 37.9792C200.345 38.2288 200.42 38.4452 200.569 38.6282C200.736 38.7947 200.952 38.9444 201.219 39.0776C201.501 39.2107 201.818 39.3272 202.167 39.4271C202.533 39.527 202.908 39.6102 203.291 39.6767C203.807 39.7766 204.297 39.9097 204.763 40.0762C205.23 40.226 205.637 40.434 205.987 40.7003C206.336 40.9666 206.611 41.2994 206.811 41.6989C207.01 42.0983 207.11 42.5893 207.11 43.1718C207.11 43.8375 206.977 44.4034 206.711 44.8694C206.444 45.3354 206.087 45.7182 205.637 46.0177C205.205 46.3007 204.705 46.5087 204.139 46.6419C203.59 46.775 203.024 46.8416 202.442 46.8416C201.443 46.8416 200.578 46.6918 199.845 46.3922C199.13 46.076 198.481 45.5018 197.898 44.6697L199.446 43.4714ZM220.261 44.42C219.562 45.3187 218.796 45.9512 217.964 46.3173C217.132 46.6668 216.167 46.8416 215.068 46.8416C214.153 46.8416 213.329 46.6835 212.597 46.3672C211.865 46.0344 211.241 45.5933 210.725 45.0441C210.225 44.4949 209.834 43.8458 209.551 43.0969C209.285 42.3479 209.152 41.5491 209.152 40.7003C209.152 39.8016 209.302 38.9777 209.601 38.2288C209.901 37.4632 210.317 36.8141 210.849 36.2816C211.382 35.7323 212.014 35.3079 212.747 35.0084C213.479 34.7088 214.278 34.559 215.143 34.559C215.959 34.559 216.708 34.7005 217.39 34.9834C218.072 35.2497 218.655 35.6491 219.138 36.1817C219.637 36.6976 220.02 37.3384 220.286 38.104C220.552 38.8529 220.685 39.71 220.685 40.6753V41.2994H211.249C211.282 41.7987 211.399 42.2814 211.598 42.7474C211.815 43.1967 212.089 43.5962 212.422 43.9457C212.755 44.2785 213.146 44.5448 213.595 44.7445C214.045 44.9443 214.536 45.0441 215.068 45.0441C215.917 45.0441 216.633 44.8943 217.215 44.5948C217.798 44.2952 218.322 43.8541 218.788 43.2716L220.261 44.42ZM218.588 39.6518C218.555 38.6532 218.231 37.8543 217.615 37.2552C216.999 36.656 216.15 36.3565 215.068 36.3565C213.987 36.3565 213.113 36.656 212.447 37.2552C211.781 37.8543 211.382 38.6532 211.249 39.6518H218.588ZM223.548 36.3565C224.147 35.7407 224.854 35.2913 225.67 35.0084C226.502 34.7088 227.343 34.559 228.191 34.559C229.922 34.559 231.17 34.9668 231.936 35.7823C232.702 36.5978 233.084 37.8377 233.084 39.502V44.5199C233.084 44.8527 233.101 45.2022 233.134 45.5684C233.168 45.9179 233.209 46.2424 233.259 46.542H231.387C231.32 46.2757 231.279 45.9845 231.262 45.6682C231.262 45.3354 231.262 45.0441 231.262 44.7945H231.212C230.829 45.3936 230.313 45.8846 229.664 46.2674C229.032 46.6502 228.266 46.8416 227.368 46.8416C226.768 46.8416 226.203 46.7667 225.67 46.6169C225.154 46.4671 224.696 46.2507 224.297 45.9678C223.914 45.6682 223.606 45.3021 223.373 44.8694C223.14 44.4366 223.024 43.9374 223.024 43.3715C223.024 42.4062 223.273 41.6489 223.773 41.0997C224.272 40.5505 224.888 40.1427 225.62 39.8765C226.369 39.6102 227.168 39.4437 228.017 39.3772C228.882 39.3106 229.673 39.2773 230.388 39.2773H231.137V38.9278C231.137 38.079 230.879 37.4383 230.363 37.0055C229.864 36.5728 229.157 36.3565 228.241 36.3565C227.609 36.3565 226.985 36.4646 226.369 36.681C225.77 36.8807 225.237 37.1969 224.771 37.6297L223.548 36.3565ZM229.19 40.925C227.942 40.925 226.951 41.0997 226.219 41.4492C225.487 41.7987 225.121 42.3729 225.121 43.1718C225.121 43.9041 225.362 44.4283 225.845 44.7445C226.344 45.0441 226.96 45.1939 227.692 45.1939C228.258 45.1939 228.749 45.1024 229.165 44.9193C229.598 44.7196 229.956 44.4616 230.238 44.1454C230.521 43.8292 230.738 43.463 230.888 43.047C231.037 42.6142 231.121 42.1566 231.137 41.6739V40.925H229.19ZM236.643 37.6297C236.643 37.0971 236.627 36.5978 236.593 36.1318C236.56 35.6658 236.543 35.2414 236.543 34.8586H238.391C238.391 35.1748 238.399 35.491 238.416 35.8072C238.432 36.1235 238.441 36.448 238.441 36.7809H238.491C238.624 36.4979 238.807 36.2233 239.04 35.957C239.289 35.6907 239.581 35.4577 239.914 35.258C240.246 35.0417 240.621 34.8752 241.037 34.7587C241.453 34.6256 241.902 34.559 242.385 34.559C242.518 34.559 242.651 34.5673 242.784 34.584C242.918 34.6006 243.051 34.6339 243.184 34.6838L243.059 36.656C242.726 36.5562 242.377 36.5062 242.011 36.5062C240.812 36.5062 239.939 36.8974 239.389 37.6796C238.857 38.4452 238.59 39.502 238.59 40.8501V46.542H236.643V37.6297ZM253.294 37.7794C252.878 37.2801 252.429 36.9223 251.946 36.706C251.463 36.473 250.931 36.3565 250.348 36.3565C249.699 36.3565 249.125 36.473 248.626 36.706C248.127 36.9223 247.71 37.2302 247.378 37.6297C247.061 38.0291 246.82 38.4951 246.654 39.0277C246.487 39.5436 246.404 40.1011 246.404 40.7003C246.404 41.2994 246.495 41.8653 246.679 42.3979C246.878 42.9138 247.145 43.3715 247.477 43.7709C247.827 44.1704 248.243 44.4866 248.726 44.7196C249.208 44.9359 249.749 45.0441 250.348 45.0441C251.63 45.0441 252.62 44.5615 253.319 43.5962L254.767 44.9692C254.201 45.6183 253.535 46.0926 252.77 46.3922C252.004 46.6918 251.197 46.8416 250.348 46.8416C249.45 46.8416 248.626 46.6918 247.877 46.3922C247.128 46.0926 246.487 45.6682 245.955 45.119C245.439 44.5698 245.031 43.9207 244.731 43.1718C244.448 42.4228 244.307 41.599 244.307 40.7003C244.307 39.8182 244.448 39.0027 244.731 38.2538C245.031 37.5048 245.447 36.8558 245.98 36.3065C246.512 35.7573 247.145 35.3329 247.877 35.0333C248.626 34.7171 249.45 34.559 250.348 34.559C251.214 34.559 252.029 34.7088 252.795 35.0084C253.577 35.3079 254.259 35.774 254.842 36.4064L253.294 37.7794ZM257.024 27.6688H258.972V36.4813H259.022C259.155 36.2483 259.338 36.0236 259.571 35.8072C259.804 35.5742 260.078 35.3662 260.395 35.1831C260.727 35.0001 261.094 34.8503 261.493 34.7338C261.893 34.6173 262.317 34.559 262.766 34.559C263.532 34.559 264.189 34.6755 264.738 34.9085C265.304 35.1415 265.77 35.4661 266.136 35.8821C266.503 36.2982 266.769 36.8058 266.935 37.405C267.118 37.9875 267.21 38.6282 267.21 39.3272V46.542H265.263V39.527C265.263 38.545 265.046 37.7711 264.614 37.2053C264.181 36.6394 263.507 36.3565 262.592 36.3565C261.959 36.3565 261.41 36.4646 260.944 36.681C260.494 36.8974 260.12 37.2053 259.82 37.6047C259.538 38.0041 259.321 38.4784 259.171 39.0277C259.038 39.5769 258.972 40.1844 258.972 40.8501V46.542H257.024V27.6688Z" fill="black"/>
<rect x="72.3975" y="54.4949" width="149.787" height="4.49362" fill="#98BC61" fill-opacity="0.45"/>
<path d="M126.466 89.9743L128.239 89.3752L128.476 90.0991L126.716 90.6983L127.827 92.1837L127.215 92.658L126.092 91.1227L125.006 92.658L124.382 92.1837L125.468 90.6983L123.708 90.0991L123.945 89.3752L125.717 89.9743V88.1145H126.466V89.9743ZM130.602 95.5289C130.81 95.5289 130.985 95.6038 131.126 95.7536C131.276 95.8951 131.351 96.0698 131.351 96.2779C131.351 96.4859 131.272 96.6648 131.114 96.8146C130.964 96.9561 130.794 97.0268 130.602 97.0268C130.411 97.0268 130.236 96.9561 130.078 96.8146C129.928 96.6648 129.853 96.4859 129.853 96.2779C129.853 96.0698 129.924 95.8951 130.065 95.7536C130.215 95.6038 130.394 95.5289 130.602 95.5289ZM137.496 97.4762C137.322 96.4027 136.548 95.0671 135.1 93.9686C134.376 93.4194 133.664 93.0699 132.978 92.9326V92.4084C134.363 92.0963 135.736 91.1227 136.635 89.8495C137.084 89.2129 137.372 88.5638 137.496 87.8898H138.021C138.233 89.163 139.231 90.5485 140.542 91.4847C141.191 91.9465 141.865 92.2586 142.564 92.4084V92.9326C141.154 93.2197 139.544 94.443 138.757 95.7037C138.358 96.3403 138.108 96.9269 138.021 97.4762H137.496ZM137.671 97.1766H137.846C137.971 95.8784 138.358 94.4679 138.795 93.7315C139.631 93.2572 141.141 92.8577 142.24 92.7828V92.6081C141.141 92.5207 139.568 92.0963 138.795 91.6345C138.358 90.8855 137.971 89.5125 137.846 88.2143H137.671C137.571 89.3876 137.197 90.7981 136.723 91.6345C135.924 92.0963 134.426 92.5207 133.277 92.6081V92.7828C134.413 92.8702 135.874 93.2572 136.723 93.7315C137.184 94.5428 137.571 95.9783 137.671 97.1766ZM216.595 97.4762C216.421 96.4027 215.647 95.0671 214.199 93.9686C213.475 93.4194 212.763 93.0699 212.077 92.9326V92.4084C213.462 92.0963 214.835 91.1227 215.734 89.8495C216.184 89.2129 216.471 88.5638 216.595 87.8898H217.12C217.332 89.163 218.331 90.5485 219.641 91.4847C220.29 91.9465 220.964 92.2586 221.663 92.4084V92.9326C220.253 93.2197 218.643 94.443 217.856 95.7037C217.457 96.3403 217.207 96.9269 217.12 97.4762H216.595ZM216.77 97.1766H216.945C217.07 95.8784 217.457 94.4679 217.894 93.7315C218.73 93.2572 220.24 92.8577 221.339 92.7828V92.6081C220.24 92.5207 218.668 92.0963 217.894 91.6345C217.457 90.8855 217.07 89.5125 216.945 88.2143H216.77C216.67 89.3876 216.296 90.7981 215.822 91.6345C215.023 92.0963 213.525 92.5207 212.376 92.6081V92.7828C213.512 92.8702 214.973 93.2572 215.822 93.7315C216.283 94.5428 216.67 95.9783 216.77 97.1766ZM224.036 95.5289C224.244 95.5289 224.419 95.6038 224.561 95.7536C224.71 95.8951 224.785 96.0698 224.785 96.2779C224.785 96.4859 224.706 96.6648 224.548 96.8146C224.398 96.9561 224.228 97.0268 224.036 97.0268C223.845 97.0268 223.67 96.9561 223.512 96.8146C223.362 96.6648 223.287 96.4859 223.287 96.2779C223.287 96.0698 223.358 95.8951 223.5 95.7536C223.649 95.6038 223.828 95.5289 224.036 95.5289ZM228.921 89.9743L230.693 89.3752L230.931 90.0991L229.171 90.6983L230.282 92.1837L229.67 92.658L228.546 91.1227L227.461 92.658L226.836 92.1837L227.922 90.6983L226.162 90.0991L226.4 89.3752L228.172 89.9743V88.1145H228.921V89.9743Z" fill="black"/>
<path d="M147.613 88.1145H151.008C151.299 88.1145 151.607 88.1477 151.931 88.2143C152.256 88.2809 152.576 88.3891 152.893 88.5389C153.217 88.6803 153.525 88.8676 153.816 89.1006C154.116 89.3336 154.378 89.6165 154.603 89.9494C154.827 90.2739 155.006 90.6525 155.139 91.0852C155.272 91.5096 155.339 91.9923 155.339 92.5332C155.339 93.0741 155.272 93.5609 155.139 93.9936C155.006 94.418 154.827 94.7966 154.603 95.1295C154.378 95.454 154.116 95.7328 153.816 95.9658C153.525 96.1988 153.217 96.3902 152.893 96.54C152.576 96.6815 152.256 96.7855 151.931 96.852C151.607 96.9186 151.299 96.9519 151.008 96.9519H147.613V88.1145ZM148.661 95.9783H150.658C151.166 95.9783 151.636 95.9117 152.069 95.7786C152.501 95.6454 152.876 95.4415 153.192 95.1669C153.508 94.884 153.758 94.5262 153.941 94.0935C154.124 93.6607 154.216 93.1407 154.216 92.5332C154.216 91.9257 154.124 91.4056 153.941 90.9729C153.758 90.5402 153.508 90.1865 153.192 89.9119C152.876 89.629 152.501 89.4209 152.069 89.2878C151.636 89.1546 151.166 89.0881 150.658 89.0881H148.661V95.9783ZM157.027 88.1145H158.075V96.9519H157.027V88.1145ZM164.463 89.6747C164.289 89.3918 164.056 89.1879 163.764 89.0631C163.473 88.93 163.169 88.8634 162.853 88.8634C162.62 88.8634 162.391 88.8925 162.167 88.9508C161.942 89.009 161.738 89.0964 161.555 89.2129C161.38 89.3294 161.239 89.4833 161.131 89.6747C161.022 89.8661 160.968 90.0908 160.968 90.3488C160.968 90.5485 160.997 90.7274 161.056 90.8855C161.122 91.0353 161.226 91.1726 161.368 91.2974C161.509 91.4223 161.701 91.5388 161.942 91.6469C162.183 91.7551 162.479 91.8633 162.828 91.9715C163.169 92.0797 163.498 92.1962 163.814 92.321C164.139 92.4458 164.422 92.6039 164.663 92.7953C164.913 92.9867 165.108 93.228 165.25 93.5193C165.399 93.8022 165.474 94.16 165.474 94.5928C165.474 95.0338 165.387 95.4166 165.212 95.7411C165.037 96.0657 164.804 96.3361 164.513 96.5525C164.23 96.7605 163.902 96.9145 163.527 97.0143C163.153 97.1225 162.766 97.1766 162.366 97.1766C162.108 97.1766 161.85 97.1516 161.592 97.1017C161.334 97.0601 161.085 96.9935 160.843 96.902C160.61 96.8021 160.39 96.6773 160.182 96.5275C159.974 96.3694 159.795 96.178 159.645 95.9533L160.544 95.2169C160.735 95.5414 161.002 95.7869 161.343 95.9533C161.684 96.1198 162.046 96.203 162.429 96.203C162.653 96.203 162.878 96.1697 163.103 96.1031C163.336 96.0365 163.544 95.9408 163.727 95.816C163.91 95.6829 164.06 95.5206 164.176 95.3292C164.293 95.1378 164.351 94.9173 164.351 94.6676C164.351 94.393 164.305 94.1725 164.214 94.0061C164.122 93.8313 163.981 93.6815 163.789 93.5567C163.598 93.4319 163.357 93.3196 163.065 93.2197C162.774 93.1198 162.433 93.0033 162.042 92.8702C161.726 92.7703 161.434 92.658 161.168 92.5332C160.902 92.4 160.669 92.2419 160.469 92.0589C160.278 91.8675 160.124 91.6428 160.007 91.3848C159.899 91.1185 159.845 90.8023 159.845 90.4362C159.845 90.0118 159.928 89.6415 160.094 89.3252C160.261 89.009 160.486 88.7469 160.769 88.5389C161.051 88.3225 161.372 88.1602 161.73 88.052C162.087 87.9439 162.462 87.8898 162.853 87.8898C163.352 87.8898 163.806 87.9688 164.214 88.1269C164.63 88.2767 165 88.543 165.325 88.9258L164.463 89.6747ZM173.396 89.9369C173.13 89.579 172.801 89.3128 172.41 89.138C172.019 88.9549 171.611 88.8634 171.187 88.8634C170.696 88.8634 170.243 88.9633 169.826 89.163C169.419 89.3627 169.065 89.6331 168.765 89.9743C168.466 90.3072 168.233 90.6983 168.066 91.1476C167.9 91.5887 167.817 92.0505 167.817 92.5332C167.817 93.0491 167.9 93.5318 168.066 93.9811C168.233 94.4222 168.462 94.8091 168.753 95.142C169.053 95.4665 169.406 95.7245 169.814 95.9159C170.23 96.1073 170.688 96.203 171.187 96.203C171.728 96.203 172.211 96.0989 172.635 95.8909C173.059 95.6746 173.43 95.3667 173.746 94.9672L174.532 95.6288C174.133 96.1614 173.65 96.5525 173.084 96.8021C172.527 97.0518 171.894 97.1766 171.187 97.1766C170.555 97.1766 169.964 97.0601 169.415 96.8271C168.865 96.5941 168.387 96.2737 167.979 95.8659C167.58 95.4499 167.263 94.9589 167.03 94.393C166.806 93.8272 166.693 93.2072 166.693 92.5332C166.693 91.8841 166.802 91.2766 167.018 90.7108C167.243 90.1449 167.555 89.6539 167.954 89.2379C168.354 88.8218 168.828 88.4931 169.377 88.2518C169.926 88.0104 170.53 87.8898 171.187 87.8898C171.786 87.8898 172.36 87.998 172.91 88.2143C173.467 88.4307 173.933 88.7843 174.308 89.2753L173.396 89.9369ZM180.101 97.1766C179.427 97.1766 178.807 97.0601 178.241 96.8271C177.683 96.5941 177.196 96.2737 176.78 95.8659C176.373 95.4499 176.052 94.9589 175.819 94.393C175.595 93.8189 175.482 93.1989 175.482 92.5332C175.482 91.8675 175.595 91.2517 175.819 90.6858C176.052 90.1116 176.373 89.6207 176.78 89.2129C177.196 88.7968 177.683 88.4723 178.241 88.2393C178.807 88.0063 179.427 87.8898 180.101 87.8898C180.775 87.8898 181.39 88.0063 181.948 88.2393C182.514 88.4723 183.001 88.7968 183.408 89.2129C183.825 89.6207 184.145 90.1116 184.37 90.6858C184.603 91.2517 184.719 91.8675 184.719 92.5332C184.719 93.1989 184.603 93.8189 184.37 94.393C184.145 94.9589 183.825 95.4499 183.408 95.8659C183.001 96.2737 182.514 96.5941 181.948 96.8271C181.39 97.0601 180.775 97.1766 180.101 97.1766ZM180.101 96.203C180.617 96.203 181.087 96.1073 181.511 95.9159C181.944 95.7245 182.314 95.4624 182.622 95.1295C182.93 94.7966 183.167 94.4097 183.334 93.9686C183.508 93.5193 183.596 93.0408 183.596 92.5332C183.596 92.0256 183.508 91.5512 183.334 91.1102C183.167 90.6608 182.93 90.2697 182.622 89.9369C182.314 89.604 181.944 89.3419 181.511 89.1505C181.087 88.9591 180.617 88.8634 180.101 88.8634C179.585 88.8634 179.11 88.9591 178.678 89.1505C178.253 89.3419 177.887 89.604 177.579 89.9369C177.271 90.2697 177.03 90.6608 176.855 91.1102C176.689 91.5512 176.606 92.0256 176.606 92.5332C176.606 93.0408 176.689 93.5193 176.855 93.9686C177.03 94.4097 177.271 94.7966 177.579 95.1295C177.887 95.4624 178.253 95.7245 178.678 95.9159C179.11 96.1073 179.585 96.203 180.101 96.203ZM185.193 88.1145H186.379L189.1 95.3791H189.125L191.934 88.1145H193.045L189.587 96.9519H188.576L185.193 88.1145ZM194.035 88.1145H199.589V89.0881H195.083V91.8591H199.29V92.8328H195.083V95.9783H199.814V96.9519H194.035V88.1145ZM201.434 88.1145H203.693C204.118 88.1145 204.538 88.1394 204.954 88.1894C205.378 88.2393 205.757 88.3475 206.09 88.5139C206.423 88.6803 206.693 88.9258 206.901 89.2503C207.109 89.5666 207.213 89.9993 207.213 90.5485C207.213 91.1976 207.018 91.7218 206.627 92.1213C206.235 92.5207 205.695 92.7745 205.004 92.8827L207.513 96.9519H206.227L203.831 92.9825H202.482V96.9519H201.434V88.1145ZM202.482 92.0089H203.419C203.71 92.0089 204.009 92.0006 204.317 91.984C204.634 91.9673 204.921 91.9132 205.179 91.8217C205.445 91.7302 205.661 91.5887 205.828 91.3973C206.002 91.1976 206.09 90.9146 206.09 90.5485C206.09 90.2323 206.027 89.9785 205.903 89.7871C205.778 89.5957 205.611 89.4501 205.403 89.3502C205.204 89.242 204.975 89.1713 204.717 89.138C204.467 89.1047 204.213 89.0881 203.955 89.0881H202.482V92.0089Z" fill="#FFAA52"/>
</svg>
