<svg width="352" height="102" viewBox="0 0 352 102" fill="none" xmlns="http://www.w3.org/2000/svg">
<path d="M14.9787 0.249645H328.533C336.668 0.249645 343.262 6.84408 343.262 14.9787V53.4241C343.262 61.5588 336.668 68.1532 328.533 68.1532H14.9788C6.8441 68.1532 0.249645 61.5588 0.249645 53.4241V14.9787C0.249645 6.84408 6.84408 0.249645 14.9787 0.249645Z" stroke="#FFAA52" stroke-width="0.499291"/>
<path d="M28.9592 16.2282H337.022C345.156 16.2282 351.751 22.8226 351.751 30.9572V63.4111C351.751 71.5458 345.156 78.1402 337.022 78.1402H28.9592C20.8246 78.1402 14.2301 71.5458 14.2301 63.4111V30.9572C14.2301 22.8226 20.8245 16.2282 28.9592 16.2282Z" stroke="#98BC61" stroke-width="0.499291"/>
<path d="M121.864 31.9164C121.514 31.3505 121.048 30.9428 120.466 30.6931C119.883 30.4268 119.276 30.2937 118.643 30.2937C118.177 30.2937 117.72 30.3519 117.27 30.4684C116.821 30.5849 116.413 30.7597 116.047 30.9927C115.698 31.2257 115.415 31.5336 115.198 31.9164C114.982 32.2992 114.874 32.7485 114.874 33.2645C114.874 33.6639 114.932 34.0217 115.048 34.3379C115.182 34.6375 115.39 34.9121 115.673 35.1618C115.955 35.4114 116.338 35.6444 116.821 35.8608C117.304 36.0771 117.894 36.2935 118.593 36.5099C119.276 36.7262 119.933 36.9592 120.566 37.2089C121.215 37.4585 121.781 37.7747 122.263 38.1575C122.762 38.5403 123.154 39.0229 123.437 39.6055C123.736 40.1713 123.886 40.887 123.886 41.7524C123.886 42.6345 123.711 43.4001 123.362 44.0491C123.012 44.6982 122.546 45.2391 121.964 45.6718C121.398 46.0879 120.74 46.3958 119.991 46.5955C119.242 46.8119 118.469 46.9201 117.67 46.9201C117.154 46.9201 116.638 46.8701 116.122 46.7703C115.606 46.6871 115.107 46.5539 114.624 46.3708C114.158 46.1711 113.717 45.9215 113.301 45.6219C112.885 45.3057 112.527 44.9229 112.227 44.4735L114.025 43.0006C114.408 43.6497 114.94 44.1407 115.623 44.4735C116.305 44.8064 117.029 44.9728 117.795 44.9728C118.244 44.9728 118.693 44.9063 119.143 44.7731C119.609 44.64 120.025 44.4486 120.391 44.1989C120.757 43.9326 121.057 43.6081 121.29 43.2253C121.523 42.8425 121.639 42.4015 121.639 41.9022C121.639 41.353 121.548 40.9119 121.364 40.5791C121.181 40.2296 120.898 39.93 120.516 39.6803C120.133 39.4307 119.65 39.206 119.068 39.0063C118.485 38.8066 117.803 38.5736 117.021 38.3073C116.388 38.1076 115.806 37.8829 115.273 37.6333C114.741 37.367 114.275 37.0507 113.875 36.6846C113.492 36.3018 113.184 35.8525 112.951 35.3365C112.735 34.8039 112.627 34.1715 112.627 33.4392C112.627 32.5904 112.793 31.8498 113.126 31.2174C113.459 30.5849 113.908 30.0607 114.474 29.6446C115.04 29.2119 115.681 28.8873 116.397 28.671C117.112 28.4546 117.861 28.3464 118.643 28.3464C119.642 28.3464 120.549 28.5046 121.364 28.8208C122.197 29.1203 122.937 29.6529 123.586 30.4185L121.864 31.9164ZM133.389 36.435H129.944V42.2767C129.944 42.6594 129.952 43.0173 129.969 43.3501C129.985 43.6664 130.052 43.9493 130.169 44.1989C130.285 44.4319 130.46 44.6233 130.693 44.7731C130.926 44.9063 131.259 44.9728 131.691 44.9728C131.974 44.9728 132.266 44.9395 132.565 44.873C132.865 44.8064 133.148 44.7065 133.414 44.5734L133.489 46.3459C133.156 46.4957 132.782 46.6038 132.365 46.6704C131.966 46.737 131.583 46.7703 131.217 46.7703C130.518 46.7703 129.961 46.6787 129.544 46.4957C129.128 46.3126 128.804 46.0546 128.571 45.7218C128.338 45.3889 128.18 44.9812 128.097 44.4985C128.03 43.9992 127.997 43.45 127.997 42.8508V36.435H125.45V34.7873H127.997V31.467H129.944V34.7873H133.389V36.435ZM140.069 49.1419C139.869 49.6412 139.661 50.0906 139.444 50.49C139.245 50.9061 138.995 51.2556 138.696 51.5385C138.413 51.8381 138.063 52.0628 137.647 52.2125C137.248 52.379 136.757 52.4622 136.174 52.4622C135.891 52.4622 135.592 52.4456 135.275 52.4123C134.976 52.379 134.693 52.2958 134.427 52.1626L134.676 50.465C134.876 50.5482 135.084 50.5982 135.3 50.6148C135.517 50.6481 135.766 50.6647 136.049 50.6647C136.682 50.6647 137.148 50.49 137.447 50.1405C137.747 49.791 138.005 49.325 138.221 48.7425L139.02 46.5456L134.177 34.7873H136.449L140.069 43.9493H140.118L143.589 34.7873H145.711L140.069 49.1419ZM147.993 27.5975H149.94V46.4707H147.993V27.5975ZM164.251 44.3487C163.552 45.2474 162.786 45.8799 161.954 46.246C161.122 46.5955 160.156 46.7703 159.058 46.7703C158.143 46.7703 157.319 46.6122 156.587 46.296C155.854 45.9631 155.23 45.5221 154.714 44.9728C154.215 44.4236 153.824 43.7745 153.541 43.0256C153.275 42.2767 153.141 41.4778 153.141 40.629C153.141 39.7303 153.291 38.9064 153.591 38.1575C153.89 37.3919 154.306 36.7429 154.839 36.2103C155.372 35.6611 156.004 35.2367 156.736 34.9371C157.469 34.6375 158.267 34.4877 159.133 34.4877C159.948 34.4877 160.697 34.6292 161.38 34.9121C162.062 35.1784 162.645 35.5778 163.127 36.1104C163.627 36.6264 164.009 37.2671 164.276 38.0327C164.542 38.7816 164.675 39.6387 164.675 40.604V41.2281H155.238C155.272 41.7274 155.388 42.2101 155.588 42.6761C155.804 43.1255 156.079 43.5249 156.412 43.8744C156.745 44.2073 157.136 44.4735 157.585 44.6733C158.034 44.873 158.525 44.9728 159.058 44.9728C159.907 44.9728 160.622 44.823 161.205 44.5235C161.787 44.2239 162.312 43.7829 162.778 43.2003L164.251 44.3487ZM162.578 39.5805C162.545 38.5819 162.22 37.783 161.604 37.1839C160.989 36.5847 160.14 36.2852 159.058 36.2852C157.976 36.2852 157.102 36.5847 156.437 37.1839C155.771 37.783 155.372 38.5819 155.238 39.5805H162.578ZM190.014 45.2724C188.998 45.8383 187.925 46.2543 186.793 46.5206C185.678 46.7869 184.546 46.9201 183.398 46.9201C182.017 46.9201 180.752 46.6954 179.603 46.246C178.455 45.7967 177.456 45.1642 176.608 44.3487C175.776 43.5332 175.126 42.5596 174.66 41.4279C174.194 40.2795 173.961 39.0146 173.961 37.6333C173.961 36.2352 174.203 34.9704 174.685 33.8386C175.185 32.6903 175.867 31.7167 176.733 30.9178C177.598 30.1023 178.605 29.4698 179.753 29.0205C180.902 28.5711 182.141 28.3464 183.473 28.3464C184.638 28.3464 185.753 28.5212 186.818 28.8707C187.9 29.2202 188.865 29.8194 189.714 30.6681L188.141 32.3158C187.542 31.6667 186.81 31.1674 185.944 30.8179C185.096 30.4684 184.222 30.2937 183.323 30.2937C182.308 30.2937 181.368 30.4768 180.502 30.8429C179.637 31.209 178.879 31.7167 178.23 32.3657C177.598 33.0148 177.099 33.7887 176.733 34.6874C176.383 35.5862 176.208 36.5681 176.208 37.6333C176.208 38.6818 176.383 39.6554 176.733 40.5541C177.099 41.4528 177.598 42.2351 178.23 42.9008C178.879 43.5499 179.653 44.0575 180.552 44.4236C181.451 44.7898 182.441 44.9728 183.523 44.9728C184.239 44.9728 184.987 44.8896 185.77 44.7232C186.552 44.5401 187.268 44.2821 187.917 43.9493V38.532H183.847V36.5847H190.014V45.2724ZM204.251 43.6996C204.251 44.2322 204.268 44.7315 204.301 45.1975C204.335 45.6635 204.351 46.0879 204.351 46.4707H202.504C202.504 46.1545 202.496 45.8383 202.479 45.5221C202.462 45.2058 202.454 44.8813 202.454 44.5484H202.404C202.271 44.8314 202.08 45.106 201.83 45.3723C201.597 45.6386 201.314 45.8799 200.981 46.0962C200.648 46.296 200.274 46.4541 199.858 46.5706C199.442 46.7037 198.992 46.7703 198.51 46.7703C197.744 46.7703 197.078 46.6538 196.512 46.4208C195.963 46.1878 195.506 45.8632 195.139 45.4472C194.773 45.0311 194.499 44.5318 194.316 43.9493C194.149 43.3501 194.066 42.7011 194.066 42.0021V34.7873H196.013V41.8023C196.013 42.7843 196.229 43.5582 196.662 44.124C197.095 44.6899 197.769 44.9728 198.684 44.9728C199.317 44.9728 199.858 44.8647 200.307 44.6483C200.773 44.4319 201.148 44.124 201.43 43.7246C201.73 43.3252 201.946 42.8508 202.08 42.3016C202.229 41.7524 202.304 41.1449 202.304 40.4792V34.7873H204.251V43.6996ZM208.113 34.7873H210.06V46.4707H208.113V34.7873ZM207.663 30.2188C207.663 29.836 207.796 29.5031 208.063 29.2202C208.346 28.9373 208.687 28.7958 209.086 28.7958C209.486 28.7958 209.818 28.9373 210.085 29.2202C210.368 29.5031 210.509 29.836 210.509 30.2188C210.509 30.6349 210.376 30.976 210.11 31.2423C209.843 31.5086 209.502 31.6418 209.086 31.6418C208.67 31.6418 208.329 31.5086 208.063 31.2423C207.796 30.976 207.663 30.6349 207.663 30.2188ZM223.646 44.3986H223.596C223.23 45.0644 222.648 45.6302 221.849 46.0962C221.067 46.5456 220.151 46.7703 219.103 46.7703C218.287 46.7703 217.522 46.6205 216.806 46.3209C216.09 46.0047 215.466 45.572 214.934 45.0228C214.418 44.4735 214.01 43.8245 213.71 43.0755C213.411 42.3266 213.261 41.5111 213.261 40.629C213.261 39.7469 213.411 38.9314 213.71 38.1825C214.01 37.4335 214.426 36.7845 214.959 36.2352C215.491 35.686 216.132 35.2616 216.881 34.962C217.647 34.6458 218.487 34.4877 219.402 34.4877C220.251 34.4877 221.025 34.6625 221.724 35.012C222.44 35.3615 223.064 35.8525 223.596 36.4849H223.646V27.5975H225.594V46.4707H223.646V44.3986ZM223.646 40.629C223.646 40.0132 223.546 39.4473 223.347 38.9314C223.164 38.3988 222.889 37.9412 222.523 37.5584C222.157 37.1589 221.716 36.851 221.2 36.6347C220.701 36.4017 220.135 36.2852 219.502 36.2852C218.87 36.2852 218.296 36.4017 217.78 36.6347C217.28 36.851 216.848 37.1589 216.482 37.5584C216.115 37.9412 215.832 38.3988 215.633 38.9314C215.45 39.4473 215.358 40.0132 215.358 40.629C215.358 41.2448 215.45 41.819 215.633 42.3516C215.832 42.8675 216.115 43.3252 216.482 43.7246C216.848 44.1074 217.28 44.4153 217.78 44.6483C218.296 44.8647 218.87 44.9728 219.502 44.9728C220.135 44.9728 220.701 44.8647 221.2 44.6483C221.716 44.4153 222.157 44.1074 222.523 43.7246C222.889 43.3252 223.164 42.8675 223.347 42.3516C223.546 41.819 223.646 41.2448 223.646 40.629ZM239.632 44.3487C238.933 45.2474 238.167 45.8799 237.335 46.246C236.503 46.5955 235.538 46.7703 234.439 46.7703C233.524 46.7703 232.7 46.6122 231.968 46.296C231.235 45.9631 230.611 45.5221 230.095 44.9728C229.596 44.4236 229.205 43.7745 228.922 43.0256C228.656 42.2767 228.523 41.4778 228.523 40.629C228.523 39.7303 228.672 38.9064 228.972 38.1575C229.272 37.3919 229.688 36.7429 230.22 36.2103C230.753 35.6611 231.385 35.2367 232.118 34.9371C232.85 34.6375 233.649 34.4877 234.514 34.4877C235.33 34.4877 236.079 34.6292 236.761 34.9121C237.443 35.1784 238.026 35.5778 238.508 36.1104C239.008 36.6264 239.391 37.2671 239.657 38.0327C239.923 38.7816 240.056 39.6387 240.056 40.604V41.2281H230.62C230.653 41.7274 230.769 42.2101 230.969 42.6761C231.186 43.1255 231.46 43.5249 231.793 43.8744C232.126 44.2073 232.517 44.4735 232.966 44.6733C233.416 44.873 233.907 44.9728 234.439 44.9728C235.288 44.9728 236.004 44.823 236.586 44.5235C237.169 44.2239 237.693 43.7829 238.159 43.2003L239.632 44.3487ZM237.959 39.5805C237.926 38.5819 237.601 37.783 236.986 37.1839C236.37 36.5847 235.521 36.2852 234.439 36.2852C233.357 36.2852 232.484 36.5847 231.818 37.1839C231.152 37.783 230.753 38.5819 230.62 39.5805H237.959Z" fill="#683C09"/>
<rect x="71.3989" y="54.4238" width="128.817" height="4.49362" fill="#98BC61" fill-opacity="0.45"/>
<path d="M132.476 89.9033L134.249 89.3041L134.486 90.0281L132.726 90.6272L133.837 92.1126L133.225 92.587L132.102 91.0516L131.016 92.587L130.392 92.1126L131.478 90.6272L129.718 90.0281L129.955 89.3041L131.728 89.9033V88.0434H132.476V89.9033ZM136.612 95.4579C136.82 95.4579 136.995 95.5328 137.137 95.6826C137.286 95.824 137.361 95.9988 137.361 96.2068C137.361 96.4149 137.282 96.5938 137.124 96.7436C136.974 96.885 136.804 96.9558 136.612 96.9558C136.421 96.9558 136.246 96.885 136.088 96.7436C135.938 96.5938 135.863 96.4149 135.863 96.2068C135.863 95.9988 135.934 95.824 136.076 95.6826C136.225 95.5328 136.404 95.4579 136.612 95.4579ZM143.506 97.4051C143.332 96.3316 142.558 94.996 141.11 93.8976C140.386 93.3484 139.674 92.9989 138.988 92.8616V92.3373C140.373 92.0253 141.746 91.0516 142.645 89.7784C143.095 89.1419 143.382 88.4928 143.506 87.8187H144.031C144.243 89.0919 145.242 90.4775 146.552 91.4136C147.201 91.8755 147.875 92.1875 148.574 92.3373V92.8616C147.164 93.1487 145.554 94.3719 144.767 95.6326C144.368 96.2692 144.118 96.8559 144.031 97.4051H143.506ZM143.681 97.1055H143.856C143.981 95.8074 144.368 94.3969 144.805 93.6604C145.641 93.1861 147.151 92.7867 148.25 92.7118V92.537C147.151 92.4497 145.579 92.0253 144.805 91.5634C144.368 90.8145 143.981 89.4414 143.856 88.1433H143.681C143.581 89.3166 143.207 90.7271 142.733 91.5634C141.934 92.0253 140.436 92.4497 139.287 92.537V92.7118C140.423 92.7992 141.884 93.1861 142.733 93.6604C143.194 94.4718 143.581 95.9072 143.681 97.1055ZM207.576 97.4051C207.401 96.3316 206.627 94.996 205.179 93.8976C204.455 93.3484 203.744 92.9989 203.057 92.8616V92.3373C204.443 92.0253 205.816 91.0516 206.714 89.7784C207.164 89.1419 207.451 88.4928 207.576 87.8187H208.1C208.312 89.0919 209.311 90.4775 210.621 91.4136C211.27 91.8755 211.944 92.1875 212.643 92.3373V92.8616C211.233 93.1487 209.623 94.3719 208.836 95.6326C208.437 96.2692 208.187 96.8559 208.1 97.4051H207.576ZM207.75 97.1055H207.925C208.05 95.8074 208.437 94.3969 208.874 93.6604C209.71 93.1861 211.22 92.7867 212.319 92.7118V92.537C211.22 92.4497 209.648 92.0253 208.874 91.5634C208.437 90.8145 208.05 89.4414 207.925 88.1433H207.75C207.651 89.3166 207.276 90.7271 206.802 91.5634C206.003 92.0253 204.505 92.4497 203.357 92.537V92.7118C204.493 92.7992 205.953 93.1861 206.802 93.6604C207.264 94.4718 207.651 95.9072 207.75 97.1055ZM215.017 95.4579C215.225 95.4579 215.399 95.5328 215.541 95.6826C215.691 95.824 215.765 95.9988 215.765 96.2068C215.765 96.4149 215.686 96.5938 215.528 96.7436C215.379 96.885 215.208 96.9558 215.017 96.9558C214.825 96.9558 214.65 96.885 214.492 96.7436C214.343 96.5938 214.268 96.4149 214.268 96.2068C214.268 95.9988 214.338 95.824 214.48 95.6826C214.63 95.5328 214.809 95.4579 215.017 95.4579ZM219.901 89.9033L221.674 89.3041L221.911 90.0281L220.151 90.6272L221.262 92.1126L220.65 92.587L219.527 91.0516L218.441 92.587L217.817 92.1126L218.903 90.6272L217.143 90.0281L217.38 89.3041L219.152 89.9033V88.0434H219.901V89.9033Z" fill="#683C09"/>
<path d="M153.623 88.0434H157.018C157.309 88.0434 157.617 88.0767 157.941 88.1433C158.266 88.2098 158.586 88.318 158.903 88.4678C159.227 88.6093 159.535 88.7965 159.826 89.0295C160.126 89.2625 160.388 89.5454 160.613 89.8783C160.837 90.2028 161.016 90.5815 161.149 91.0142C161.283 91.4386 161.349 91.9212 161.349 92.4621C161.349 93.003 161.283 93.4898 161.149 93.9226C161.016 94.347 160.837 94.7256 160.613 95.0584C160.388 95.383 160.126 95.6618 159.826 95.8948C159.535 96.1278 159.227 96.3192 158.903 96.4689C158.586 96.6104 158.266 96.7144 157.941 96.781C157.617 96.8476 157.309 96.8809 157.018 96.8809H153.623V88.0434ZM154.671 95.9072H156.668C157.176 95.9072 157.646 95.8407 158.079 95.7075C158.511 95.5744 158.886 95.3705 159.202 95.0959C159.518 94.813 159.768 94.4551 159.951 94.0224C160.134 93.5897 160.226 93.0696 160.226 92.4621C160.226 91.8547 160.134 91.3346 159.951 90.9019C159.768 90.4691 159.518 90.1155 159.202 89.8409C158.886 89.5579 158.511 89.3499 158.079 89.2167C157.646 89.0836 157.176 89.017 156.668 89.017H154.671V95.9072ZM163.037 88.0434H168.591V89.017H164.085V91.7881H168.292V92.7617H164.085V95.9072H168.816V96.8809H163.037V88.0434ZM174.63 89.6037C174.455 89.3208 174.222 89.1169 173.931 88.9921C173.64 88.8589 173.336 88.7923 173.02 88.7923C172.787 88.7923 172.558 88.8215 172.333 88.8797C172.109 88.938 171.905 89.0254 171.722 89.1419C171.547 89.2584 171.405 89.4123 171.297 89.6037C171.189 89.7951 171.135 90.0198 171.135 90.2777C171.135 90.4775 171.164 90.6564 171.222 90.8145C171.289 90.9643 171.393 91.1016 171.534 91.2264C171.676 91.3512 171.867 91.4677 172.109 91.5759C172.35 91.6841 172.645 91.7923 172.995 91.9004C173.336 92.0086 173.665 92.1251 173.981 92.2499C174.306 92.3748 174.588 92.5329 174.83 92.7243C175.079 92.9157 175.275 93.157 175.416 93.4482C175.566 93.7312 175.641 94.089 175.641 94.5217C175.641 94.9628 175.554 95.3455 175.379 95.6701C175.204 95.9946 174.971 96.2651 174.68 96.4814C174.397 96.6895 174.068 96.8434 173.694 96.9433C173.319 97.0515 172.932 97.1055 172.533 97.1055C172.275 97.1055 172.017 97.0806 171.759 97.0306C171.501 96.989 171.252 96.9225 171.01 96.8309C170.777 96.7311 170.557 96.6062 170.349 96.4565C170.141 96.2984 169.962 96.107 169.812 95.8823L170.711 95.1458C170.902 95.4704 171.168 95.7158 171.509 95.8823C171.851 96.0487 172.213 96.1319 172.595 96.1319C172.82 96.1319 173.045 96.0986 173.269 96.0321C173.502 95.9655 173.711 95.8698 173.894 95.745C174.077 95.6118 174.226 95.4496 174.343 95.2582C174.459 95.0668 174.518 94.8462 174.518 94.5966C174.518 94.322 174.472 94.1015 174.38 93.935C174.289 93.7603 174.147 93.6105 173.956 93.4857C173.765 93.3609 173.523 93.2485 173.232 93.1487C172.941 93.0488 172.6 92.9323 172.208 92.7992C171.892 92.6993 171.601 92.587 171.335 92.4621C171.068 92.329 170.835 92.1709 170.636 91.9878C170.444 91.7964 170.29 91.5717 170.174 91.3138C170.066 91.0475 170.012 90.7313 170.012 90.3651C170.012 89.9407 170.095 89.5704 170.261 89.2542C170.428 88.938 170.652 88.6758 170.935 88.4678C171.218 88.2514 171.539 88.0892 171.896 87.981C172.254 87.8728 172.629 87.8187 173.02 87.8187C173.519 87.8187 173.973 87.8978 174.38 88.0559C174.796 88.2057 175.167 88.472 175.491 88.8548L174.63 89.6037ZM177.372 88.0434H178.42V96.8809H177.372V88.0434ZM188.129 96.2817C187.621 96.5646 187.084 96.7727 186.519 96.9058C185.961 97.039 185.395 97.1055 184.821 97.1055C184.13 97.1055 183.498 96.9932 182.924 96.7685C182.349 96.5438 181.85 96.2276 181.426 95.8199C181.01 95.4121 180.685 94.9253 180.452 94.3594C180.219 93.7853 180.103 93.1528 180.103 92.4621C180.103 91.7631 180.223 91.1307 180.465 90.5648C180.714 89.9906 181.055 89.5038 181.488 89.1044C181.921 88.6967 182.424 88.3804 182.999 88.1558C183.573 87.9311 184.193 87.8187 184.858 87.8187C185.441 87.8187 185.998 87.9061 186.531 88.0809C187.072 88.2556 187.555 88.5552 187.979 88.9796L187.193 89.8034C186.893 89.4789 186.527 89.2292 186.094 89.0545C185.67 88.8797 185.233 88.7923 184.784 88.7923C184.276 88.7923 183.806 88.8839 183.373 89.067C182.94 89.25 182.562 89.5038 182.237 89.8284C181.921 90.1529 181.671 90.5399 181.488 90.9892C181.313 91.4386 181.226 91.9296 181.226 92.4621C181.226 92.9864 181.313 93.4732 181.488 93.9226C181.671 94.3719 181.921 94.763 182.237 95.0959C182.562 95.4204 182.949 95.6742 183.398 95.8573C183.847 96.0404 184.342 96.1319 184.883 96.1319C185.241 96.1319 185.616 96.0903 186.007 96.0071C186.398 95.9156 186.756 95.7866 187.08 95.6202V92.9115H185.046V91.9379H188.129V96.2817ZM190.33 88.0434H191.653L196.77 95.383H196.795V88.0434H197.844V96.8809H196.521L191.403 89.5413H191.378V96.8809H190.33V88.0434Z" fill="#FFAA52"/>
</svg>
