<svg width="352" height="102" viewBox="0 0 352 102" fill="none" xmlns="http://www.w3.org/2000/svg">
<path d="M60.3231 30.743H54.4814V46.4707H52.3844V30.743H46.5427V28.7958H60.3231V30.743ZM59.5215 36.2852C60.1207 35.6694 60.828 35.22 61.6435 34.9371C62.4757 34.6375 63.3161 34.4877 64.1649 34.4877C65.8958 34.4877 67.144 34.8955 67.9096 35.711C68.6752 36.5265 69.058 37.7664 69.058 39.4307V44.4486C69.058 44.7814 69.0746 45.1309 69.1079 45.4971C69.1412 45.8466 69.1828 46.1711 69.2327 46.4707H67.3604C67.2938 46.2044 67.2522 45.9132 67.2356 45.5969C67.2356 45.2641 67.2356 44.9728 67.2356 44.7232H67.1856C66.8028 45.3223 66.2869 45.8133 65.6378 46.1961C65.0054 46.5789 64.2398 46.7703 63.3411 46.7703C62.7419 46.7703 62.1761 46.6954 61.6435 46.5456C61.1276 46.3958 60.6699 46.1795 60.2705 45.8965C59.8877 45.5969 59.5798 45.2308 59.3468 44.7981C59.1138 44.3654 58.9973 43.8661 58.9973 43.3002C58.9973 42.3349 59.2469 41.5777 59.7462 41.0284C60.2455 40.4792 60.8613 40.0715 61.5936 39.8052C62.3425 39.5389 63.1414 39.3725 63.9902 39.3059C64.8556 39.2393 65.6462 39.206 66.3618 39.206H67.1107V38.8565C67.1107 38.0077 66.8528 37.367 66.3368 36.9342C65.8376 36.5015 65.1302 36.2852 64.2149 36.2852C63.5824 36.2852 62.9583 36.3933 62.3425 36.6097C61.7434 36.8094 61.2108 37.1256 60.7448 37.5584L59.5215 36.2852ZM65.1635 40.8537C63.9153 40.8537 62.925 41.0284 62.1927 41.3779C61.4604 41.7274 61.0943 42.3016 61.0943 43.1005C61.0943 43.8328 61.3356 44.357 61.8183 44.6733C62.3176 44.9728 62.9333 45.1226 63.6656 45.1226C64.2315 45.1226 64.7225 45.0311 65.1385 44.848C65.5713 44.6483 65.9291 44.3903 66.212 44.0741C66.495 43.7579 66.7113 43.3917 66.8611 42.9757C67.0109 42.5429 67.0941 42.0853 67.1107 41.6026V40.8537H65.1635ZM72.8664 43.4001C73.2492 43.8827 73.6653 44.2655 74.1147 44.5484C74.5807 44.8314 75.1632 44.9728 75.8622 44.9728C76.1618 44.9728 76.4613 44.9395 76.7609 44.873C77.0771 44.8064 77.3601 44.6982 77.6097 44.5484C77.8593 44.3986 78.0591 44.2156 78.2088 43.9992C78.3586 43.7662 78.4335 43.4916 78.4335 43.1754C78.4335 42.8592 78.3586 42.6012 78.2088 42.4015C78.0757 42.2018 77.8926 42.0353 77.6596 41.9022C77.4266 41.7524 77.1603 41.6359 76.8608 41.5527C76.5612 41.4695 76.2533 41.3946 75.9371 41.328C75.3879 41.2115 74.8636 41.0784 74.3643 40.9286C73.865 40.7788 73.424 40.5874 73.0412 40.3544C72.675 40.1047 72.3755 39.7885 72.1425 39.4057C71.9261 39.0229 71.8179 38.532 71.8179 37.9328C71.8179 37.367 71.9427 36.8677 72.1924 36.435C72.442 36.0022 72.7749 35.6444 73.191 35.3615C73.607 35.0786 74.0731 34.8622 74.589 34.7124C75.1049 34.5626 75.6375 34.4877 76.1867 34.4877C77.0189 34.4877 77.7844 34.6542 78.4835 34.987C79.1991 35.3199 79.7566 35.8608 80.1561 36.6097L78.5334 37.6832C78.2837 37.2671 77.9509 36.9342 77.5348 36.6846C77.1354 36.4183 76.6444 36.2852 76.0619 36.2852C75.7956 36.2852 75.521 36.3185 75.2381 36.385C74.9718 36.4516 74.7305 36.5515 74.5141 36.6846C74.2977 36.8177 74.1147 36.9925 73.9649 37.2089C73.8317 37.4086 73.7652 37.6416 73.7652 37.9079C73.7652 38.1575 73.8401 38.3739 73.9898 38.5569C74.1563 38.7234 74.3726 38.8732 74.6389 39.0063C74.9218 39.1394 75.2381 39.256 75.5876 39.3558C75.9537 39.4557 76.3282 39.5389 76.711 39.6055C77.2269 39.7053 77.7179 39.8385 78.1839 40.0049C78.6499 40.1547 79.0576 40.3627 79.4071 40.629C79.7566 40.8953 80.0313 41.2281 80.231 41.6276C80.4307 42.027 80.5305 42.518 80.5305 43.1005C80.5305 43.7662 80.3974 44.3321 80.1311 44.7981C79.8648 45.2641 79.507 45.6469 79.0576 45.9464C78.6249 46.2294 78.1256 46.4374 77.5598 46.5706C77.0105 46.7037 76.4447 46.7703 75.8622 46.7703C74.8636 46.7703 73.9982 46.6205 73.2659 46.3209C72.5502 46.0047 71.9011 45.4305 71.3186 44.5984L72.8664 43.4001ZM83.2462 27.5975H85.1935V39.93L90.5109 34.7873H93.282L87.64 40.1047L93.8562 46.4707H90.9852L85.1935 40.3294V46.4707H83.2462V27.5975ZM108.768 28.7958H110.74L118.255 46.4707H115.808L114.011 42.1269H105.173L103.351 46.4707H100.979L108.768 28.7958ZM109.717 31.492H109.667L105.997 40.1796H113.212L109.717 31.492ZM120.254 37.5584C120.254 37.0258 120.238 36.5265 120.204 36.0605C120.171 35.5945 120.154 35.1701 120.154 34.7873H122.002C122.002 35.1035 122.01 35.4197 122.027 35.736C122.043 36.0522 122.052 36.3767 122.052 36.7096H122.102C122.235 36.4266 122.418 36.152 122.651 35.8857C122.9 35.6194 123.192 35.3864 123.525 35.1867C123.857 34.9704 124.232 34.8039 124.648 34.6874C125.064 34.5543 125.513 34.4877 125.996 34.4877C126.762 34.4877 127.419 34.6042 127.968 34.8372C128.534 35.0702 129 35.3948 129.366 35.8108C129.732 36.2269 129.999 36.7345 130.165 37.3337C130.348 37.9162 130.44 38.5569 130.44 39.256V46.4707H128.493V39.4557C128.493 38.4737 128.276 37.6998 127.843 37.134C127.411 36.5681 126.737 36.2852 125.821 36.2852C125.189 36.2852 124.64 36.3933 124.174 36.6097C123.724 36.8261 123.35 37.134 123.05 37.5334C122.767 37.9328 122.551 38.4072 122.401 38.9564C122.268 39.5056 122.201 40.1131 122.201 40.7788V46.4707H120.254V37.5584ZM133.976 36.2852C134.575 35.6694 135.283 35.22 136.098 34.9371C136.93 34.6375 137.771 34.4877 138.62 34.4877C140.351 34.4877 141.599 34.8955 142.364 35.711C143.13 36.5265 143.513 37.7664 143.513 39.4307V44.4486C143.513 44.7814 143.529 45.1309 143.563 45.4971C143.596 45.8466 143.638 46.1711 143.688 46.4707H141.815C141.749 46.2044 141.707 45.9132 141.69 45.5969C141.69 45.2641 141.69 44.9728 141.69 44.7232H141.64C141.258 45.3223 140.742 45.8133 140.093 46.1961C139.46 46.5789 138.695 46.7703 137.796 46.7703C137.197 46.7703 136.631 46.6954 136.098 46.5456C135.582 46.3958 135.125 46.1795 134.725 45.8965C134.342 45.5969 134.035 45.2308 133.802 44.7981C133.569 44.3654 133.452 43.8661 133.452 43.3002C133.452 42.3349 133.702 41.5777 134.201 41.0284C134.7 40.4792 135.316 40.0715 136.048 39.8052C136.797 39.5389 137.596 39.3725 138.445 39.3059C139.31 39.2393 140.101 39.206 140.817 39.206H141.566V38.8565C141.566 38.0077 141.308 37.367 140.792 36.9342C140.292 36.5015 139.585 36.2852 138.67 36.2852C138.037 36.2852 137.413 36.3933 136.797 36.6097C136.198 36.8094 135.666 37.1256 135.2 37.5584L133.976 36.2852ZM139.618 40.8537C138.37 40.8537 137.38 41.0284 136.648 41.3779C135.915 41.7274 135.549 42.3016 135.549 43.1005C135.549 43.8328 135.79 44.357 136.273 44.6733C136.772 44.9728 137.388 45.1226 138.12 45.1226C138.686 45.1226 139.177 45.0311 139.593 44.848C140.026 44.6483 140.384 44.3903 140.667 44.0741C140.95 43.7579 141.166 43.3917 141.316 42.9757C141.466 42.5429 141.549 42.0853 141.566 41.6026V40.8537H139.618ZM147.246 27.5975H149.194V46.4707H147.246V27.5975ZM157.363 49.1419C157.163 49.6412 156.955 50.0906 156.739 50.49C156.539 50.9061 156.289 51.2556 155.99 51.5385C155.707 51.8381 155.357 52.0628 154.941 52.2125C154.542 52.379 154.051 52.4622 153.468 52.4622C153.185 52.4622 152.886 52.4456 152.57 52.4123C152.27 52.379 151.987 52.2958 151.721 52.1626L151.97 50.465C152.17 50.5482 152.378 50.5982 152.595 50.6148C152.811 50.6481 153.061 50.6647 153.344 50.6647C153.976 50.6647 154.442 50.49 154.742 50.1405C155.041 49.791 155.299 49.325 155.515 48.7425L156.314 46.5456L151.471 34.7873H153.743L157.363 43.9493H157.413L160.883 34.7873H163.005L157.363 49.1419ZM165.362 43.4001C165.745 43.8827 166.161 44.2655 166.61 44.5484C167.076 44.8314 167.659 44.9728 168.358 44.9728C168.657 44.9728 168.957 44.9395 169.256 44.873C169.573 44.8064 169.856 44.6982 170.105 44.5484C170.355 44.3986 170.555 44.2156 170.704 43.9992C170.854 43.7662 170.929 43.4916 170.929 43.1754C170.929 42.8592 170.854 42.6012 170.704 42.4015C170.571 42.2018 170.388 42.0353 170.155 41.9022C169.922 41.7524 169.656 41.6359 169.356 41.5527C169.057 41.4695 168.749 41.3946 168.433 41.328C167.883 41.2115 167.359 41.0784 166.86 40.9286C166.361 40.7788 165.92 40.5874 165.537 40.3544C165.171 40.1047 164.871 39.7885 164.638 39.4057C164.422 39.0229 164.313 38.532 164.313 37.9328C164.313 37.367 164.438 36.8677 164.688 36.435C164.938 36.0022 165.27 35.6444 165.687 35.3615C166.103 35.0786 166.569 34.8622 167.085 34.7124C167.6 34.5626 168.133 34.4877 168.682 34.4877C169.514 34.4877 170.28 34.6542 170.979 34.987C171.695 35.3199 172.252 35.8608 172.652 36.6097L171.029 37.6832C170.779 37.2671 170.446 36.9342 170.03 36.6846C169.631 36.4183 169.14 36.2852 168.557 36.2852C168.291 36.2852 168.017 36.3185 167.734 36.385C167.467 36.4516 167.226 36.5515 167.01 36.6846C166.793 36.8177 166.61 36.9925 166.46 37.2089C166.327 37.4086 166.261 37.6416 166.261 37.9079C166.261 38.1575 166.336 38.3739 166.485 38.5569C166.652 38.7234 166.868 38.8732 167.134 39.0063C167.417 39.1394 167.734 39.256 168.083 39.3558C168.449 39.4557 168.824 39.5389 169.207 39.6055C169.722 39.7053 170.213 39.8385 170.679 40.0049C171.145 40.1547 171.553 40.3627 171.903 40.629C172.252 40.8953 172.527 41.2281 172.727 41.6276C172.926 42.027 173.026 42.518 173.026 43.1005C173.026 43.7662 172.893 44.3321 172.627 44.7981C172.36 45.2641 172.003 45.6469 171.553 45.9464C171.12 46.2294 170.621 46.4374 170.055 46.5706C169.506 46.7037 168.94 46.7703 168.358 46.7703C167.359 46.7703 166.494 46.6205 165.761 46.3209C165.046 46.0047 164.397 45.4305 163.814 44.5984L165.362 43.4001ZM175.917 34.7873H177.864V46.4707H175.917V34.7873ZM175.467 30.2188C175.467 29.836 175.6 29.5031 175.867 29.2202C176.15 28.9373 176.491 28.7958 176.89 28.7958C177.29 28.7958 177.622 28.9373 177.889 29.2202C178.172 29.5031 178.313 29.836 178.313 30.2188C178.313 30.6349 178.18 30.976 177.914 31.2423C177.647 31.5086 177.306 31.6418 176.89 31.6418C176.474 31.6418 176.133 31.5086 175.867 31.2423C175.6 30.976 175.467 30.6349 175.467 30.2188ZM181.989 43.4001C182.372 43.8827 182.788 44.2655 183.237 44.5484C183.703 44.8314 184.286 44.9728 184.985 44.9728C185.284 44.9728 185.584 44.9395 185.883 44.873C186.199 44.8064 186.482 44.6982 186.732 44.5484C186.982 44.3986 187.181 44.2156 187.331 43.9992C187.481 43.7662 187.556 43.4916 187.556 43.1754C187.556 42.8592 187.481 42.6012 187.331 42.4015C187.198 42.2018 187.015 42.0353 186.782 41.9022C186.549 41.7524 186.283 41.6359 185.983 41.5527C185.684 41.4695 185.376 41.3946 185.059 41.328C184.51 41.2115 183.986 41.0784 183.487 40.9286C182.987 40.7788 182.546 40.5874 182.164 40.3544C181.797 40.1047 181.498 39.7885 181.265 39.4057C181.048 39.0229 180.94 38.532 180.94 37.9328C180.94 37.367 181.065 36.8677 181.315 36.435C181.564 36.0022 181.897 35.6444 182.313 35.3615C182.729 35.0786 183.195 34.8622 183.711 34.7124C184.227 34.5626 184.76 34.4877 185.309 34.4877C186.141 34.4877 186.907 34.6542 187.606 34.987C188.321 35.3199 188.879 35.8608 189.278 36.6097L187.656 37.6832C187.406 37.2671 187.073 36.9342 186.657 36.6846C186.258 36.4183 185.767 36.2852 185.184 36.2852C184.918 36.2852 184.643 36.3185 184.36 36.385C184.094 36.4516 183.853 36.5515 183.636 36.6846C183.42 36.8177 183.237 36.9925 183.087 37.2089C182.954 37.4086 182.887 37.6416 182.887 37.9079C182.887 38.1575 182.962 38.3739 183.112 38.5569C183.279 38.7234 183.495 38.8732 183.761 39.0063C184.044 39.1394 184.36 39.256 184.71 39.3558C185.076 39.4557 185.451 39.5389 185.833 39.6055C186.349 39.7053 186.84 39.8385 187.306 40.0049C187.772 40.1547 188.18 40.3627 188.529 40.629C188.879 40.8953 189.154 41.2281 189.353 41.6276C189.553 42.027 189.653 42.518 189.653 43.1005C189.653 43.7662 189.52 44.3321 189.253 44.7981C188.987 45.2641 188.629 45.6469 188.18 45.9464C187.747 46.2294 187.248 46.4374 186.682 46.5706C186.133 46.7037 185.567 46.7703 184.985 46.7703C183.986 46.7703 183.121 46.6205 182.388 46.3209C181.673 46.0047 181.023 45.4305 180.441 44.5984L181.989 43.4001ZM209.877 43.9243C209.161 44.823 208.395 45.5221 207.58 46.0213C206.764 46.5206 205.766 46.7703 204.584 46.7703C203.835 46.7703 203.12 46.6621 202.437 46.4457C201.755 46.2127 201.156 45.8799 200.64 45.4472C200.141 45.0144 199.733 44.4902 199.417 43.8744C199.117 43.242 198.967 42.5263 198.967 41.7274C198.967 41.1116 199.067 40.5458 199.267 40.0299C199.483 39.4973 199.766 39.0229 200.116 38.6069C200.482 38.1742 200.898 37.7997 201.364 37.4835C201.846 37.1506 202.354 36.8594 202.887 36.6097C202.304 36.0272 201.805 35.4114 201.389 34.7623C200.973 34.1133 200.765 33.3643 200.765 32.5155C200.765 31.8664 200.889 31.2923 201.139 30.793C201.389 30.277 201.722 29.8526 202.138 29.5198C202.554 29.1703 203.036 28.9123 203.586 28.7459C204.135 28.5628 204.717 28.4713 205.333 28.4713C205.932 28.4713 206.498 28.5545 207.031 28.7209C207.563 28.8873 208.029 29.137 208.429 29.4698C208.845 29.7861 209.169 30.1938 209.402 30.6931C209.635 31.1758 209.752 31.7416 209.752 32.3907C209.752 32.9399 209.635 33.4475 209.402 33.9135C209.186 34.3629 208.895 34.7707 208.529 35.1368C208.179 35.4863 207.78 35.8108 207.33 36.1104C206.898 36.3933 206.457 36.6513 206.007 36.8843L209.752 40.8537L212.124 36.8843H214.495L211.1 42.3266L215.144 46.4707H212.273L209.877 43.9243ZM204.709 35.6111C205.042 35.4281 205.383 35.2367 205.733 35.0369C206.082 34.8372 206.398 34.6125 206.681 34.3629C206.964 34.1133 207.197 33.822 207.38 33.4891C207.563 33.1563 207.655 32.7735 207.655 32.3408C207.655 31.6917 207.43 31.1841 206.981 30.8179C206.548 30.4518 206.024 30.2687 205.408 30.2687C204.709 30.2687 204.11 30.4851 203.611 30.9178C203.111 31.3339 202.862 31.9081 202.862 32.6403C202.862 33.123 202.986 33.5557 203.236 33.9385C203.502 34.3046 203.785 34.6458 204.085 34.962L204.709 35.6111ZM204.185 37.8829C203.802 38.0826 203.428 38.3073 203.061 38.5569C202.695 38.7899 202.362 39.0562 202.063 39.3558C201.763 39.6554 201.522 39.9966 201.339 40.3794C201.156 40.7621 201.064 41.1865 201.064 41.6525C201.064 42.1352 201.156 42.5762 201.339 42.9757C201.522 43.3751 201.772 43.7246 202.088 44.0242C202.404 44.3238 202.77 44.5568 203.186 44.7232C203.602 44.8896 204.043 44.9728 204.509 44.9728C204.959 44.9728 205.375 44.9063 205.758 44.7731C206.14 44.64 206.49 44.4652 206.806 44.2489C207.139 44.0159 207.447 43.7579 207.73 43.475C208.029 43.1754 208.321 42.8592 208.604 42.5263L204.185 37.8829ZM224.631 28.7958H235.59V30.743H226.728V36.5847H234.966V38.532H226.728V46.4707H224.631V28.7958ZM238.328 27.5975H240.275V46.4707H238.328V27.5975ZM243.476 40.629C243.476 39.7136 243.635 38.8815 243.951 38.1325C244.267 37.3836 244.7 36.7429 245.249 36.2103C245.798 35.6611 246.456 35.2367 247.221 34.9371C247.987 34.6375 248.819 34.4877 249.718 34.4877C250.616 34.4877 251.448 34.6375 252.214 34.9371C252.98 35.2367 253.637 35.6611 254.186 36.2103C254.735 36.7429 255.168 37.3836 255.484 38.1325C255.801 38.8815 255.959 39.7136 255.959 40.629C255.959 41.5444 255.801 42.3765 255.484 43.1255C255.168 43.8744 254.735 44.5235 254.186 45.0727C253.637 45.6053 252.98 46.0213 252.214 46.3209C251.448 46.6205 250.616 46.7703 249.718 46.7703C248.819 46.7703 247.987 46.6205 247.221 46.3209C246.456 46.0213 245.798 45.6053 245.249 45.0727C244.7 44.5235 244.267 43.8744 243.951 43.1255C243.635 42.3765 243.476 41.5444 243.476 40.629ZM245.573 40.629C245.573 41.2448 245.665 41.819 245.848 42.3516C246.048 42.8675 246.331 43.3252 246.697 43.7246C247.063 44.1074 247.496 44.4153 247.995 44.6483C248.511 44.8647 249.085 44.9728 249.718 44.9728C250.35 44.9728 250.916 44.8647 251.415 44.6483C251.931 44.4153 252.372 44.1074 252.738 43.7246C253.104 43.3252 253.379 42.8675 253.562 42.3516C253.762 41.819 253.862 41.2448 253.862 40.629C253.862 40.0132 253.762 39.4473 253.562 38.9314C253.379 38.3988 253.104 37.9412 252.738 37.5584C252.372 37.1589 251.931 36.851 251.415 36.6347C250.916 36.4017 250.35 36.2852 249.718 36.2852C249.085 36.2852 248.511 36.4017 247.995 36.6347C247.496 36.851 247.063 37.1589 246.697 37.5584C246.331 37.9412 246.048 38.3988 245.848 38.9314C245.665 39.4473 245.573 40.0132 245.573 40.629ZM271.505 46.4707H269.583L266.263 37.4835H266.213L263.267 46.4707H261.27L257.475 34.7873H259.622L262.293 43.7745H262.343L265.364 34.7873H267.411L270.482 43.7745H270.532L273.178 34.7873H275.275L271.505 46.4707ZM277.727 43.4001C278.11 43.8827 278.526 44.2655 278.975 44.5484C279.441 44.8314 280.024 44.9728 280.723 44.9728C281.022 44.9728 281.322 44.9395 281.621 44.873C281.937 44.8064 282.22 44.6982 282.47 44.5484C282.72 44.3986 282.919 44.2156 283.069 43.9992C283.219 43.7662 283.294 43.4916 283.294 43.1754C283.294 42.8592 283.219 42.6012 283.069 42.4015C282.936 42.2018 282.753 42.0353 282.52 41.9022C282.287 41.7524 282.021 41.6359 281.721 41.5527C281.422 41.4695 281.114 41.3946 280.797 41.328C280.248 41.2115 279.724 41.0784 279.225 40.9286C278.725 40.7788 278.284 40.5874 277.902 40.3544C277.535 40.1047 277.236 39.7885 277.003 39.4057C276.786 39.0229 276.678 38.532 276.678 37.9328C276.678 37.367 276.803 36.8677 277.053 36.435C277.302 36.0022 277.635 35.6444 278.051 35.3615C278.467 35.0786 278.933 34.8622 279.449 34.7124C279.965 34.5626 280.498 34.4877 281.047 34.4877C281.879 34.4877 282.645 34.6542 283.344 34.987C284.059 35.3199 284.617 35.8608 285.016 36.6097L283.394 37.6832C283.144 37.2671 282.811 36.9342 282.395 36.6846C281.996 36.4183 281.505 36.2852 280.922 36.2852C280.656 36.2852 280.381 36.3185 280.098 36.385C279.832 36.4516 279.591 36.5515 279.374 36.6846C279.158 36.8177 278.975 36.9925 278.825 37.2089C278.692 37.4086 278.626 37.6416 278.626 37.9079C278.626 38.1575 278.7 38.3739 278.85 38.5569C279.017 38.7234 279.233 38.8732 279.499 39.0063C279.782 39.1394 280.098 39.256 280.448 39.3558C280.814 39.4557 281.189 39.5389 281.571 39.6055C282.087 39.7053 282.578 39.8385 283.044 40.0049C283.51 40.1547 283.918 40.3627 284.268 40.629C284.617 40.8953 284.892 41.2281 285.091 41.6276C285.291 42.027 285.391 42.518 285.391 43.1005C285.391 43.7662 285.258 44.3321 284.991 44.7981C284.725 45.2641 284.367 45.6469 283.918 45.9464C283.485 46.2294 282.986 46.4374 282.42 46.5706C281.871 46.7037 281.305 46.7703 280.723 46.7703C279.724 46.7703 278.859 46.6205 278.126 46.3209C277.411 46.0047 276.762 45.4305 276.179 44.5984L277.727 43.4001Z" fill="black"/>
<rect x="29.9575" y="55.9219" width="149.787" height="4.49362" fill="#98BC61" fill-opacity="0.45"/>
<path d="M14.9787 0.249645H328.533C336.668 0.249645 343.262 6.84408 343.262 14.9787V53.4241C343.262 61.5588 336.668 68.1532 328.533 68.1532H14.9788C6.84411 68.1532 0.249645 61.5588 0.249645 53.4241V14.9787C0.249645 6.84408 6.84408 0.249645 14.9787 0.249645Z" stroke="#FFAA52" stroke-width="0.499291"/>
<path d="M28.9587 16.2272H337.021C345.156 16.2272 351.75 22.8216 351.75 30.9563V63.4102C351.75 71.5448 345.156 78.1392 337.021 78.1392H28.9587C20.8241 78.1392 14.2296 71.5448 14.2296 63.4102V30.9563C14.2296 22.8216 20.8241 16.2272 28.9587 16.2272Z" stroke="#98BC61" stroke-width="0.499291"/>
<path d="M134.552 89.8994L136.324 89.3002L136.562 90.0242L134.802 90.6233L135.912 92.1087L135.301 92.5831L134.177 91.0477L133.091 92.5831L132.467 92.1087L133.553 90.6233L131.793 90.0242L132.03 89.3002L133.803 89.8994V88.0395H134.552V89.8994ZM138.688 95.454C138.896 95.454 139.07 95.5289 139.212 95.6787C139.362 95.8201 139.437 95.9949 139.437 96.2029C139.437 96.4109 139.358 96.5899 139.199 96.7396C139.05 96.8811 138.879 96.9518 138.688 96.9518C138.496 96.9518 138.322 96.8811 138.163 96.7396C138.014 96.5899 137.939 96.4109 137.939 96.2029C137.939 95.9949 138.009 95.8201 138.151 95.6787C138.301 95.5289 138.48 95.454 138.688 95.454ZM145.582 97.4012C145.407 96.3277 144.633 94.9921 143.185 93.8937C142.461 93.3445 141.75 92.995 141.063 92.8577V92.3334C142.449 92.0213 143.822 91.0477 144.721 89.7745C145.17 89.1379 145.457 88.4889 145.582 87.8148H146.106C146.318 89.088 147.317 90.4735 148.628 91.4097C149.277 91.8716 149.951 92.1836 150.65 92.3334V92.8577C149.239 93.1448 147.629 94.368 146.843 95.6287C146.443 96.2653 146.194 96.852 146.106 97.4012H145.582ZM145.757 97.1016H145.931C146.056 95.8035 146.443 94.393 146.88 93.6565C147.716 93.1822 149.227 92.7828 150.325 92.7079V92.5331C149.227 92.4457 147.654 92.0213 146.88 91.5595C146.443 90.8106 146.056 89.4375 145.931 88.1394H145.757C145.657 89.3127 145.282 90.7232 144.808 91.5595C144.009 92.0213 142.511 92.4457 141.363 92.5331V92.7079C142.499 92.7953 143.959 93.1822 144.808 93.6565C145.27 94.4679 145.657 95.9033 145.757 97.1016ZM205.494 97.4012C205.32 96.3277 204.546 94.9921 203.098 93.8937C202.374 93.3445 201.662 92.995 200.976 92.8577V92.3334C202.361 92.0213 203.734 91.0477 204.633 89.7745C205.082 89.1379 205.37 88.4889 205.494 87.8148H206.019C206.231 89.088 207.229 90.4735 208.54 91.4097C209.189 91.8716 209.863 92.1836 210.562 92.3334V92.8577C209.152 93.1448 207.541 94.368 206.755 95.6287C206.356 96.2653 206.106 96.852 206.019 97.4012H205.494ZM205.669 97.1016H205.844C205.969 95.8035 206.356 94.393 206.793 93.6565C207.629 93.1822 209.139 92.7828 210.238 92.7079V92.5331C209.139 92.4457 207.566 92.0213 206.793 91.5595C206.356 90.8106 205.969 89.4375 205.844 88.1394H205.669C205.569 89.3127 205.195 90.7232 204.72 91.5595C203.922 92.0213 202.424 92.4457 201.275 92.5331V92.7079C202.411 92.7953 203.872 93.1822 204.72 93.6565C205.182 94.4679 205.569 95.9033 205.669 97.1016ZM212.935 95.454C213.143 95.454 213.318 95.5289 213.46 95.6787C213.609 95.8201 213.684 95.9949 213.684 96.2029C213.684 96.4109 213.605 96.5899 213.447 96.7396C213.297 96.8811 213.127 96.9518 212.935 96.9518C212.744 96.9518 212.569 96.8811 212.411 96.7396C212.261 96.5899 212.186 96.4109 212.186 96.2029C212.186 95.9949 212.257 95.8201 212.399 95.6787C212.548 95.5289 212.727 95.454 212.935 95.454ZM217.82 89.8994L219.592 89.3002L219.829 90.0242L218.069 90.6233L219.18 92.1087L218.569 92.5831L217.445 91.0477L216.359 92.5831L215.735 92.1087L216.821 90.6233L215.061 90.0242L215.298 89.3002L217.071 89.8994V88.0395H217.82V89.8994Z" fill="black"/>
<path d="M155.86 88.0395H156.909V96.877H155.86V88.0395ZM158.94 88.0395H162.336C162.627 88.0395 162.935 88.0728 163.259 88.1394C163.584 88.2059 163.904 88.3141 164.22 88.4639C164.545 88.6054 164.853 88.7926 165.144 89.0256C165.444 89.2586 165.706 89.5415 165.931 89.8744C166.155 90.1989 166.334 90.5776 166.467 91.0103C166.6 91.4347 166.667 91.9173 166.667 92.4582C166.667 92.9991 166.6 93.4859 166.467 93.9187C166.334 94.3431 166.155 94.7217 165.931 95.0545C165.706 95.3791 165.444 95.6579 165.144 95.8909C164.853 96.1239 164.545 96.3153 164.22 96.465C163.904 96.6065 163.584 96.7105 163.259 96.7771C162.935 96.8437 162.627 96.877 162.336 96.877H158.94V88.0395ZM159.989 95.9033H161.986C162.494 95.9033 162.964 95.8368 163.397 95.7036C163.829 95.5705 164.204 95.3666 164.52 95.092C164.836 94.8091 165.086 94.4512 165.269 94.0185C165.452 93.5858 165.544 93.0657 165.544 92.4582C165.544 91.8508 165.452 91.3307 165.269 90.8979C165.086 90.4652 164.836 90.1116 164.52 89.837C164.204 89.554 163.829 89.346 163.397 89.2128C162.964 89.0797 162.494 89.0131 161.986 89.0131H159.989V95.9033ZM168.355 88.0395H173.909V89.0131H169.403V91.7842H173.61V92.7578H169.403V95.9033H174.134V96.877H168.355V88.0395ZM178.625 88.0395H179.611L183.368 96.877H182.145L181.246 94.705H176.827L175.916 96.877H174.73L178.625 88.0395ZM179.099 89.3876H179.074L177.239 93.7314H180.847L179.099 89.3876ZM189.326 89.0131H186.405V96.877H185.357V89.0131H182.436V88.0395H189.326V89.0131ZM190.564 88.0395H196.119V89.0131H191.613V91.7842H195.819V92.7578H191.613V95.9033H196.344V96.877H190.564V88.0395Z" fill="#FFAA52"/>
</svg>
