<svg width="104" height="49" viewBox="0 0 104 49" fill="none" xmlns="http://www.w3.org/2000/svg">
<circle cx="25.0054" cy="21.6544" r="19.2071" fill="#ED7608" fill-opacity="0.4"/>
<circle cx="19.2071" cy="19.8428" r="18.7047" stroke="#98BC61" stroke-width="1.00483"/>
<path d="M43.3884 26.5637H38.6858V39.2246H36.9977V26.5637H32.2951V24.9962H43.3884V26.5637ZM42.7431 31.0252C43.2254 30.5295 43.7948 30.1677 44.4513 29.94C45.1212 29.6988 45.7978 29.5782 46.4811 29.5782C47.8744 29.5782 48.8793 29.9065 49.4956 30.563C50.1119 31.2195 50.42 32.2176 50.42 33.5574V37.5968C50.42 37.8647 50.4334 38.1461 50.4602 38.4408C50.487 38.7222 50.5205 38.9834 50.5607 39.2246H49.0534C48.9999 39.0102 48.9664 38.7758 48.953 38.5212C48.953 38.2533 48.953 38.0188 48.953 37.8178H48.9128C48.6046 38.3002 48.1893 38.6954 47.6668 39.0035C47.1577 39.3117 46.5414 39.4658 45.8179 39.4658C45.3356 39.4658 44.88 39.4055 44.4513 39.2849C44.036 39.1643 43.6676 38.9901 43.346 38.7624C43.0379 38.5212 42.79 38.2265 42.6024 37.8781C42.4149 37.5298 42.3211 37.1279 42.3211 36.6723C42.3211 35.8953 42.522 35.2857 42.924 34.8435C43.3259 34.4014 43.8216 34.0732 44.4111 33.8588C45.014 33.6444 45.6571 33.5105 46.3404 33.4569C47.0371 33.4033 47.6735 33.3765 48.2496 33.3765H48.8525V33.0951C48.8525 32.4119 48.6448 31.896 48.2295 31.5477C47.8276 31.1994 47.2581 31.0252 46.5213 31.0252C46.0122 31.0252 45.5097 31.1123 45.014 31.2864C44.5317 31.4472 44.103 31.7018 43.7278 32.0501L42.7431 31.0252ZM47.2849 34.7029C46.2801 34.7029 45.4829 34.8435 44.8934 35.1249C44.3039 35.4063 44.0092 35.8685 44.0092 36.5116C44.0092 37.1011 44.2035 37.5231 44.592 37.7777C44.9939 38.0188 45.4896 38.1394 46.0791 38.1394C46.5347 38.1394 46.9299 38.0657 47.2648 37.9183C47.6132 37.7576 47.9012 37.5499 48.129 37.2953C48.3568 37.0408 48.5309 36.746 48.6515 36.4111C48.7721 36.0627 48.8391 35.6943 48.8525 35.3058V34.7029H47.2849ZM53.4858 36.7527C53.794 37.1413 54.1289 37.4494 54.4907 37.6772C54.8658 37.9049 55.3347 38.0188 55.8974 38.0188C56.1386 38.0188 56.3798 37.992 56.6209 37.9384C56.8755 37.8848 57.1032 37.7977 57.3042 37.6772C57.5052 37.5566 57.6659 37.4092 57.7865 37.235C57.9071 37.0475 57.9674 36.8264 57.9674 36.5719C57.9674 36.3173 57.9071 36.1096 57.7865 35.9489C57.6793 35.7881 57.532 35.6541 57.3444 35.5469C57.1568 35.4263 56.9425 35.3326 56.7013 35.2656C56.4601 35.1986 56.2123 35.1383 55.9577 35.0847C55.5156 34.9909 55.0936 34.8837 54.6916 34.7632C54.2897 34.6426 53.9347 34.4885 53.6265 34.3009C53.3318 34.1 53.0906 33.8454 52.903 33.5373C52.7289 33.2291 52.6418 32.8339 52.6418 32.3516C52.6418 31.896 52.7423 31.4941 52.9432 31.1458C53.1442 30.7974 53.4122 30.5094 53.7471 30.2816C54.082 30.0539 54.4572 29.8797 54.8725 29.7591C55.2878 29.6385 55.7166 29.5782 56.1587 29.5782C56.8286 29.5782 57.4449 29.7122 58.0076 29.9802C58.5837 30.2481 59.0325 30.6835 59.3541 31.2864L58.0478 32.1506C57.8468 31.8157 57.5789 31.5477 57.2439 31.3467C56.9224 31.1324 56.5271 31.0252 56.0582 31.0252C55.8439 31.0252 55.6228 31.052 55.395 31.1056C55.1807 31.1592 54.9864 31.2396 54.8122 31.3467C54.6381 31.4539 54.4907 31.5946 54.3701 31.7688C54.2629 31.9295 54.2093 32.1171 54.2093 32.3315C54.2093 32.5324 54.2696 32.7066 54.3902 32.854C54.5242 32.988 54.6983 33.1085 54.9127 33.2157C55.1405 33.3229 55.395 33.4167 55.6764 33.4971C55.9711 33.5775 56.2726 33.6444 56.5807 33.698C56.9961 33.7784 57.3913 33.8856 57.7664 34.0196C58.1416 34.1402 58.4698 34.3076 58.7512 34.522C59.0325 34.7364 59.2536 35.0043 59.4144 35.3259C59.5751 35.6474 59.6555 36.0426 59.6555 36.5116C59.6555 37.0475 59.5483 37.503 59.334 37.8781C59.1196 38.2533 58.8315 38.5614 58.4698 38.8026C58.1215 39.0303 57.7195 39.1978 57.264 39.305C56.8219 39.4122 56.3664 39.4658 55.8974 39.4658C55.0936 39.4658 54.3969 39.3452 53.8074 39.104C53.2313 38.8495 52.7088 38.3873 52.2399 37.7174L53.4858 36.7527ZM61.8416 24.0316H63.4092V33.9593L67.6898 29.8194H69.9205L65.3787 34.1L70.3827 39.2246H68.0716L63.4092 34.2808V39.2246H61.8416V24.0316ZM72.0909 36.7527C72.3991 37.1413 72.734 37.4494 73.0957 37.6772C73.4709 37.9049 73.9398 38.0188 74.5025 38.0188C74.7437 38.0188 74.9848 37.992 75.226 37.9384C75.4805 37.8848 75.7083 37.7977 75.9093 37.6772C76.1102 37.5566 76.271 37.4092 76.3916 37.235C76.5122 37.0475 76.5725 36.8264 76.5725 36.5719C76.5725 36.3173 76.5122 36.1096 76.3916 35.9489C76.2844 35.7881 76.137 35.6541 75.9495 35.5469C75.7619 35.4263 75.5475 35.3326 75.3064 35.2656C75.0652 35.1986 74.8174 35.1383 74.5628 35.0847C74.1207 34.9909 73.6986 34.8837 73.2967 34.7632C72.8948 34.6426 72.5397 34.4885 72.2316 34.3009C71.9368 34.1 71.6957 33.8454 71.5081 33.5373C71.3339 33.2291 71.2469 32.8339 71.2469 32.3516C71.2469 31.896 71.3473 31.4941 71.5483 31.1458C71.7493 30.7974 72.0172 30.5094 72.3522 30.2816C72.6871 30.0539 73.0623 29.8797 73.4776 29.7591C73.8929 29.6385 74.3216 29.5782 74.7638 29.5782C75.4337 29.5782 76.05 29.7122 76.6127 29.9802C77.1888 30.2481 77.6376 30.6835 77.9591 31.2864L76.6528 32.1506C76.4519 31.8157 76.1839 31.5477 75.849 31.3467C75.5274 31.1324 75.1322 31.0252 74.6633 31.0252C74.4489 31.0252 74.2279 31.052 74.0001 31.1056C73.7857 31.1592 73.5915 31.2396 73.4173 31.3467C73.2431 31.4539 73.0957 31.5946 72.9752 31.7688C72.868 31.9295 72.8144 32.1171 72.8144 32.3315C72.8144 32.5324 72.8747 32.7066 72.9953 32.854C73.1292 32.988 73.3034 33.1085 73.5178 33.2157C73.7455 33.3229 74.0001 33.4167 74.2814 33.4971C74.5762 33.5775 74.8776 33.6444 75.1858 33.698C75.6011 33.7784 75.9964 33.8856 76.3715 34.0196C76.7466 34.1402 77.0749 34.3076 77.3562 34.522C77.6376 34.7364 77.8586 35.0043 78.0194 35.3259C78.1802 35.6474 78.2606 36.0426 78.2606 36.5116C78.2606 37.0475 78.1534 37.503 77.939 37.8781C77.7247 38.2533 77.4366 38.5614 77.0749 38.8026C76.7265 39.0303 76.3246 39.1978 75.8691 39.305C75.427 39.4122 74.9714 39.4658 74.5025 39.4658C73.6986 39.4658 73.002 39.3452 72.4125 39.104C71.8364 38.8495 71.3138 38.3873 70.8449 37.7174L72.0909 36.7527Z" fill="black"/>
</svg>
