<svg width="100" height="47" viewBox="0 0 100 47" fill="none" xmlns="http://www.w3.org/2000/svg">
<circle cx="24.7614" cy="21.1798" r="19.0197" fill="#ED7608" fill-opacity="0.4"/>
<circle cx="19.0197" cy="19.3859" r="18.5221" stroke="#98BC61" stroke-width="0.995025"/>
<path d="M44.5187 36.8241C43.7094 37.2752 42.8537 37.6068 41.9515 37.8191C41.0626 38.0314 40.1605 38.1375 39.2451 38.1375C38.1439 38.1375 37.1356 37.9584 36.2202 37.6002C35.3048 37.242 34.5087 36.7378 33.8321 36.0878C33.1688 35.4377 32.6514 34.6616 32.2799 33.7594C31.9084 32.844 31.7227 31.8357 31.7227 30.7345C31.7227 29.6201 31.915 28.6118 32.2998 27.7096C32.6978 26.7942 33.2417 26.0181 33.9316 25.3813C34.6215 24.7312 35.4242 24.2271 36.3396 23.8688C37.255 23.5106 38.2434 23.3315 39.3048 23.3315C40.2335 23.3315 41.1223 23.4708 41.9714 23.7494C42.8338 24.0281 43.6033 24.5057 44.2799 25.1823L43.0262 26.4957C42.5485 25.9783 41.9648 25.5803 41.2749 25.3017C40.5983 25.0231 39.9018 24.8838 39.1854 24.8838C38.3761 24.8838 37.6265 25.0297 36.9366 25.3216C36.2467 25.6135 35.6431 26.0181 35.1257 26.5355C34.6215 27.0529 34.2235 27.6698 33.9316 28.3863C33.653 29.1027 33.5137 29.8854 33.5137 30.7345C33.5137 31.5703 33.653 32.3465 33.9316 33.0629C34.2235 33.7793 34.6215 34.4028 35.1257 34.9335C35.6431 35.4509 36.26 35.8556 36.9764 36.1475C37.6928 36.4393 38.4822 36.5853 39.3446 36.5853C39.915 36.5853 40.5121 36.5189 41.1356 36.3863C41.7592 36.2403 42.3296 36.0347 42.8471 35.7693V31.4509H39.6033V29.8987H44.5187V36.8241ZM47.2116 33.1226C47.2116 32.3929 47.3377 31.7295 47.5897 31.1325C47.8418 30.5355 48.1868 30.0247 48.6246 29.6002C49.0624 29.1624 49.5864 28.8241 50.1967 28.5853C50.807 28.3465 51.4703 28.2271 52.1868 28.2271C52.9032 28.2271 53.5665 28.3465 54.1768 28.5853C54.7871 28.8241 55.3111 29.1624 55.7489 29.6002C56.1868 30.0247 56.5317 30.5355 56.7838 31.1325C57.0358 31.7295 57.1619 32.3929 57.1619 33.1226C57.1619 33.8523 57.0358 34.5156 56.7838 35.1126C56.5317 35.7096 56.1868 36.2271 55.7489 36.6649C55.3111 37.0894 54.7871 37.4211 54.1768 37.6599C53.5665 37.8987 52.9032 38.0181 52.1868 38.0181C51.4703 38.0181 50.807 37.8987 50.1967 37.6599C49.5864 37.4211 49.0624 37.0894 48.6246 36.6649C48.1868 36.2271 47.8418 35.7096 47.5897 35.1126C47.3377 34.5156 47.2116 33.8523 47.2116 33.1226ZM48.8833 33.1226C48.8833 33.6135 48.9562 34.0712 49.1022 34.4957C49.2614 34.907 49.4869 35.2718 49.7788 35.5902C50.0707 35.8954 50.4156 36.1408 50.8136 36.3266C51.2249 36.499 51.6826 36.5853 52.1868 36.5853C52.6909 36.5853 53.142 36.499 53.54 36.3266C53.9513 36.1408 54.3028 35.8954 54.5947 35.5902C54.8866 35.2718 55.1055 34.907 55.2514 34.4957C55.4106 34.0712 55.4902 33.6135 55.4902 33.1226C55.4902 32.6317 55.4106 32.1806 55.2514 31.7693C55.1055 31.3448 54.8866 30.98 54.5947 30.6748C54.3028 30.3564 53.9513 30.111 53.54 29.9385C53.142 29.7528 52.6909 29.6599 52.1868 29.6599C51.6826 29.6599 51.2249 29.7528 50.8136 29.9385C50.4156 30.111 50.0707 30.3564 49.7788 30.6748C49.4869 30.98 49.2614 31.3448 49.1022 31.7693C48.9562 32.1806 48.8833 32.6317 48.8833 33.1226ZM59.4455 29.6599C59.9231 29.169 60.4869 28.8108 61.137 28.5853C61.8004 28.3465 62.4703 28.2271 63.147 28.2271C64.5267 28.2271 65.5218 28.5521 66.132 29.2022C66.7423 29.8523 67.0475 30.8407 67.0475 32.1674V36.1674C67.0475 36.4327 67.0607 36.7113 67.0873 37.0032C67.1138 37.2818 67.147 37.5405 67.1868 37.7793H65.6942C65.6412 37.567 65.608 37.3349 65.5947 37.0828C65.5947 36.8174 65.5947 36.5853 65.5947 36.3863H65.5549C65.2498 36.8639 64.8385 37.2553 64.3211 37.5604C63.8169 37.8655 63.2067 38.0181 62.4902 38.0181C62.0126 38.0181 61.5616 37.9584 61.137 37.839C60.7257 37.7196 60.3609 37.5471 60.0425 37.3216C59.7373 37.0828 59.4919 36.7909 59.3062 36.446C59.1204 36.101 59.0276 35.703 59.0276 35.2519C59.0276 34.4824 59.2266 33.8788 59.6246 33.441C60.0226 33.0032 60.5135 32.6781 61.0972 32.4659C61.6942 32.2536 62.331 32.1209 63.0077 32.0679C63.6975 32.0148 64.3277 31.9883 64.8982 31.9883H65.4952V31.7096C65.4952 31.033 65.2896 30.5222 64.8783 30.1773C64.4803 29.8324 63.9164 29.6599 63.1868 29.6599C62.6826 29.6599 62.1851 29.7461 61.6942 29.9186C61.2166 30.0778 60.7921 30.3299 60.4206 30.6748L59.4455 29.6599ZM63.943 33.3017C62.948 33.3017 62.1586 33.441 61.5748 33.7196C60.9911 33.9982 60.6992 34.4559 60.6992 35.0927C60.6992 35.6765 60.8916 36.0944 61.2763 36.3465C61.6743 36.5853 62.1652 36.7047 62.7489 36.7047C63.2 36.7047 63.5914 36.6317 63.9231 36.4858C64.268 36.3266 64.5533 36.1209 64.7788 35.8688C65.0043 35.6168 65.1768 35.3249 65.2962 34.9932C65.4156 34.6483 65.482 34.2834 65.4952 33.8987V33.3017H63.943ZM70.0237 22.7345H71.5759V37.7793H70.0237V22.7345Z" fill="#683C09"/>
</svg>
