<svg width="352" height="102" viewBox="0 0 352 102" fill="none" xmlns="http://www.w3.org/2000/svg">
<path d="M14.9787 0.321911H328.533C336.668 0.321911 343.262 6.91635 343.262 15.051V53.4964C343.262 61.631 336.668 68.2255 328.533 68.2255H14.9788C6.84411 68.2255 0.249645 61.631 0.249645 53.4964V15.051C0.249645 6.91634 6.84408 0.321911 14.9787 0.321911Z" stroke="#FFAA52" stroke-width="0.499291"/>
<path d="M28.9587 16.2985H337.021C345.156 16.2985 351.75 22.8929 351.75 31.0276V63.4815C351.75 71.6161 345.156 78.2105 337.021 78.2105H28.9587C20.8241 78.2105 14.2296 71.6161 14.2296 63.4814V31.0275C14.2296 22.8929 20.8241 16.2985 28.9587 16.2985Z" stroke="#98BC61" stroke-width="0.499291"/>
<path d="M53.7376 28.8661H56.1092L61.5515 43.3955H61.6014L67.2184 28.8661H69.4403L62.5251 46.541H60.503L53.7376 28.8661ZM70.8071 34.8576H72.7543V46.541H70.8071V34.8576ZM70.3577 30.2891C70.3577 29.9063 70.4909 29.5734 70.7572 29.2905C71.0401 29.0076 71.3813 28.8661 71.7807 28.8661C72.1801 28.8661 72.513 29.0076 72.7793 29.2905C73.0622 29.5734 73.2037 29.9063 73.2037 30.2891C73.2037 30.7052 73.0705 31.0464 72.8042 31.3126C72.538 31.5789 72.1968 31.7121 71.7807 31.7121C71.3646 31.7121 71.0234 31.5789 70.7572 31.3126C70.4909 31.0464 70.3577 30.7052 70.3577 30.2891ZM76.8793 43.4704C77.2621 43.953 77.6782 44.3358 78.1275 44.6187C78.5935 44.9017 79.1761 45.0431 79.8751 45.0431C80.1746 45.0431 80.4742 45.0099 80.7738 44.9433C81.09 44.8767 81.3729 44.7685 81.6226 44.6187C81.8722 44.469 82.0719 44.2859 82.2217 44.0695C82.3715 43.8365 82.4464 43.5619 82.4464 43.2457C82.4464 42.9295 82.3715 42.6715 82.2217 42.4718C82.0886 42.2721 81.9055 42.1056 81.6725 41.9725C81.4395 41.8227 81.1732 41.7062 80.8736 41.623C80.5741 41.5398 80.2662 41.4649 79.95 41.3983C79.4007 41.2818 78.8765 41.1487 78.3772 40.9989C77.8779 40.8491 77.4369 40.6577 77.0541 40.4247C76.6879 40.1751 76.3883 39.8588 76.1553 39.4761C75.939 39.0933 75.8308 38.6023 75.8308 38.0031C75.8308 37.4373 75.9556 36.938 76.2053 36.5053C76.4549 36.0726 76.7878 35.7147 77.2039 35.4318C77.6199 35.1489 78.0859 34.9325 78.6019 34.7827C79.1178 34.6329 79.6504 34.558 80.1996 34.558C81.0318 34.558 81.7973 34.7245 82.4963 35.0573C83.212 35.3902 83.7695 35.9311 84.169 36.68L82.5463 37.7535C82.2966 37.3374 81.9638 37.0046 81.5477 36.7549C81.1483 36.4886 80.6573 36.3555 80.0748 36.3555C79.8085 36.3555 79.5339 36.3888 79.2509 36.4553C78.9847 36.5219 78.7433 36.6218 78.527 36.7549C78.3106 36.8881 78.1275 37.0628 77.9778 37.2792C77.8446 37.4789 77.778 37.7119 77.778 37.9782C77.778 38.2278 77.8529 38.4442 78.0027 38.6273C78.1691 38.7937 78.3855 38.9435 78.6518 39.0766C78.9347 39.2098 79.2509 39.3263 79.6004 39.4261C79.9666 39.526 80.3411 39.6092 80.7239 39.6758C81.2398 39.7756 81.7308 39.9088 82.1968 40.0752C82.6628 40.225 83.0705 40.433 83.42 40.6993C83.7695 40.9656 84.0441 41.2985 84.2439 41.6979C84.4436 42.0973 84.5434 42.5883 84.5434 43.1708C84.5434 43.8365 84.4103 44.4024 84.144 44.8684C83.8777 45.3344 83.5199 45.7172 83.0705 46.0168C82.6378 46.2997 82.1385 46.5077 81.5726 46.6409C81.0234 46.774 80.4576 46.8406 79.8751 46.8406C78.8765 46.8406 78.011 46.6908 77.2787 46.3912C76.5631 46.075 75.914 45.5008 75.3315 44.6687L76.8793 43.4704ZM97.4446 43.77C97.4446 44.3025 97.4613 44.8018 97.4946 45.2678C97.5279 45.7338 97.5445 46.1582 97.5445 46.541H95.6971C95.6971 46.2248 95.6888 45.9086 95.6722 45.5924C95.6555 45.2761 95.6472 44.9516 95.6472 44.6187H95.5973C95.4641 44.9017 95.2727 45.1763 95.0231 45.4426C94.7901 45.7089 94.5071 45.9502 94.1743 46.1665C93.8414 46.3663 93.467 46.5244 93.0509 46.6409C92.6348 46.774 92.1854 46.8406 91.7028 46.8406C90.9372 46.8406 90.2715 46.7241 89.7056 46.4911C89.1564 46.2581 88.6987 45.9335 88.3326 45.5175C87.9664 45.1014 87.6918 44.6021 87.5087 44.0196C87.3423 43.4204 87.2591 42.7714 87.2591 42.0724V34.8576H89.2063V41.8726C89.2063 42.8546 89.4227 43.6285 89.8554 44.1943C90.2881 44.7602 90.9622 45.0431 91.8775 45.0431C92.51 45.0431 93.0509 44.935 93.5002 44.7186C93.9662 44.5022 94.3407 44.1943 94.6236 43.7949C94.9232 43.3955 95.1396 42.9212 95.2727 42.3719C95.4225 41.8227 95.4974 41.2152 95.4974 40.5495V34.8576H97.4446V43.77ZM100.981 36.3555C101.58 35.7397 102.288 35.2903 103.103 35.0074C103.935 34.7078 104.776 34.558 105.625 34.558C107.355 34.558 108.604 34.9658 109.369 35.7813C110.135 36.5968 110.518 37.8367 110.518 39.501V44.5189C110.518 44.8517 110.534 45.2013 110.568 45.5674C110.601 45.9169 110.642 46.2414 110.692 46.541H108.82C108.754 46.2747 108.712 45.9835 108.695 45.6673C108.695 45.3344 108.695 45.0431 108.695 44.7935H108.645C108.263 45.3926 107.747 45.8836 107.098 46.2664C106.465 46.6492 105.7 46.8406 104.801 46.8406C104.202 46.8406 103.636 46.7657 103.103 46.6159C102.587 46.4661 102.13 46.2498 101.73 45.9668C101.347 45.6673 101.039 45.3011 100.806 44.8684C100.573 44.4357 100.457 43.9364 100.457 43.3705C100.457 42.4052 100.707 41.648 101.206 41.0987C101.705 40.5495 102.321 40.1418 103.053 39.8755C103.802 39.6092 104.601 39.4428 105.45 39.3762C106.315 39.3096 107.106 39.2763 107.821 39.2763H108.57V38.9268C108.57 38.078 108.312 37.4373 107.797 37.0046C107.297 36.5718 106.59 36.3555 105.675 36.3555C105.042 36.3555 104.418 36.4637 103.802 36.68C103.203 36.8797 102.67 37.196 102.204 37.6287L100.981 36.3555ZM106.623 40.924C105.375 40.924 104.385 41.0987 103.652 41.4482C102.92 41.7978 102.554 42.3719 102.554 43.1708C102.554 43.9031 102.795 44.4274 103.278 44.7436C103.777 45.0431 104.393 45.1929 105.125 45.1929C105.691 45.1929 106.182 45.1014 106.598 44.9183C107.031 44.7186 107.389 44.4606 107.672 44.1444C107.955 43.8282 108.171 43.4621 108.321 43.046C108.471 42.6133 108.554 42.1556 108.57 41.6729V40.924H106.623ZM114.251 27.6678H116.198V46.541H114.251V27.6678ZM137.582 43.9946C136.866 44.8934 136.101 45.5924 135.285 46.0917C134.47 46.5909 133.471 46.8406 132.289 46.8406C131.541 46.8406 130.825 46.7324 130.143 46.5161C129.46 46.283 128.861 45.9502 128.345 45.5175C127.846 45.0848 127.438 44.5605 127.122 43.9447C126.822 43.3123 126.672 42.5966 126.672 41.7978C126.672 41.182 126.772 40.6161 126.972 40.1002C127.188 39.5676 127.471 39.0933 127.821 38.6772C128.187 38.2445 128.603 37.87 129.069 37.5538C129.552 37.2209 130.059 36.9297 130.592 36.68C130.009 36.0975 129.51 35.4817 129.094 34.8326C128.678 34.1836 128.47 33.4346 128.47 32.5858C128.47 31.9368 128.595 31.3626 128.844 30.8633C129.094 30.3473 129.427 29.923 129.843 29.5901C130.259 29.2406 130.742 28.9826 131.291 28.8162C131.84 28.6331 132.423 28.5416 133.038 28.5416C133.638 28.5416 134.203 28.6248 134.736 28.7912C135.269 28.9577 135.735 29.2073 136.134 29.5402C136.55 29.8564 136.875 30.2641 137.108 30.7634C137.341 31.2461 137.457 31.8119 137.457 32.461C137.457 33.0102 137.341 33.5178 137.108 33.9839C136.891 34.4332 136.6 34.841 136.234 35.2071C135.884 35.5566 135.485 35.8812 135.036 36.1807C134.603 36.4637 134.162 36.7216 133.712 36.9546L137.457 40.924L139.829 36.9546H142.2L138.805 42.3969L142.849 46.541H139.979L137.582 43.9946ZM132.414 35.6814C132.747 35.4984 133.088 35.307 133.438 35.1073C133.787 34.9075 134.104 34.6829 134.386 34.4332C134.669 34.1836 134.902 33.8923 135.086 33.5595C135.269 33.2266 135.36 32.8438 135.36 32.4111C135.36 31.762 135.135 31.2544 134.686 30.8882C134.253 30.5221 133.729 30.339 133.113 30.339C132.414 30.339 131.815 30.5554 131.316 30.9881C130.817 31.4042 130.567 31.9784 130.567 32.7107C130.567 33.1933 130.692 33.626 130.941 34.0088C131.208 34.375 131.491 34.7161 131.79 35.0324L132.414 35.6814ZM131.89 37.9532C131.507 38.1529 131.133 38.3776 130.767 38.6273C130.4 38.8603 130.068 39.1265 129.768 39.4261C129.468 39.7257 129.227 40.0669 129.044 40.4497C128.861 40.8325 128.769 41.2569 128.769 41.7229C128.769 42.2055 128.861 42.6465 129.044 43.046C129.227 43.4454 129.477 43.7949 129.793 44.0945C130.109 44.3941 130.475 44.6271 130.891 44.7935C131.308 44.9599 131.749 45.0431 132.215 45.0431C132.664 45.0431 133.08 44.9766 133.463 44.8434C133.846 44.7103 134.195 44.5355 134.511 44.3192C134.844 44.0862 135.152 43.8282 135.435 43.5453C135.735 43.2457 136.026 42.9295 136.309 42.5966L131.89 37.9532ZM152.336 28.8661H163.295V30.8134H154.433V36.6551H162.671V38.6023H154.433V46.541H152.336V28.8661ZM166.033 34.8576H167.98V46.541H166.033V34.8576ZM165.584 30.2891C165.584 29.9063 165.717 29.5734 165.983 29.2905C166.266 29.0076 166.607 28.8661 167.007 28.8661C167.406 28.8661 167.739 29.0076 168.005 29.2905C168.288 29.5734 168.43 29.9063 168.43 30.2891C168.43 30.7052 168.297 31.0464 168.03 31.3126C167.764 31.5789 167.423 31.7121 167.007 31.7121C166.591 31.7121 166.25 31.5789 165.983 31.3126C165.717 31.0464 165.584 30.7052 165.584 30.2891ZM171.856 37.6287C171.856 37.0961 171.839 36.5968 171.806 36.1308C171.773 35.6648 171.756 35.2404 171.756 34.8576H173.603C173.603 35.1738 173.612 35.49 173.628 35.8063C173.645 36.1225 173.653 36.447 173.653 36.7799H173.703C173.836 36.4969 174.019 36.2223 174.252 35.956C174.502 35.6898 174.793 35.4568 175.126 35.257C175.459 35.0407 175.833 34.8743 176.249 34.7578C176.666 34.6246 177.115 34.558 177.598 34.558C178.363 34.558 179.021 34.6745 179.57 34.9075C180.136 35.1405 180.602 35.4651 180.968 35.8812C181.334 36.2972 181.6 36.8048 181.767 37.404C181.95 37.9865 182.041 38.6273 182.041 39.3263V46.541H180.094V39.526C180.094 38.544 179.878 37.7701 179.445 37.2043C179.012 36.6384 178.338 36.3555 177.423 36.3555C176.79 36.3555 176.241 36.4637 175.775 36.68C175.326 36.8964 174.951 37.2043 174.652 37.6037C174.369 38.0031 174.152 38.4775 174.003 39.0267C173.87 39.5759 173.803 40.1834 173.803 40.8491V46.541H171.856V37.6287ZM185.578 36.3555C186.177 35.7397 186.884 35.2903 187.7 35.0074C188.532 34.7078 189.372 34.558 190.221 34.558C191.952 34.558 193.2 34.9658 193.966 35.7813C194.732 36.5968 195.114 37.8367 195.114 39.501V44.5189C195.114 44.8517 195.131 45.2013 195.164 45.5674C195.198 45.9169 195.239 46.2414 195.289 46.541H193.417C193.35 46.2747 193.309 45.9835 193.292 45.6673C193.292 45.3344 193.292 45.0431 193.292 44.7935H193.242C192.859 45.3926 192.343 45.8836 191.694 46.2664C191.062 46.6492 190.296 46.8406 189.397 46.8406C188.798 46.8406 188.232 46.7657 187.7 46.6159C187.184 46.4661 186.726 46.2498 186.327 45.9668C185.944 45.6673 185.636 45.3011 185.403 44.8684C185.17 44.4357 185.054 43.9364 185.054 43.3705C185.054 42.4052 185.303 41.648 185.803 41.0987C186.302 40.5495 186.918 40.1418 187.65 39.8755C188.399 39.6092 189.198 39.4428 190.046 39.3762C190.912 39.3096 191.702 39.2763 192.418 39.2763H193.167V38.9268C193.167 38.078 192.909 37.4373 192.393 37.0046C191.894 36.5718 191.187 36.3555 190.271 36.3555C189.639 36.3555 189.015 36.4637 188.399 36.68C187.8 36.8797 187.267 37.196 186.801 37.6287L185.578 36.3555ZM191.22 40.924C189.972 40.924 188.981 41.0987 188.249 41.4482C187.517 41.7978 187.151 42.3719 187.151 43.1708C187.151 43.9031 187.392 44.4274 187.875 44.7436C188.374 45.0431 188.99 45.1929 189.722 45.1929C190.288 45.1929 190.779 45.1014 191.195 44.9183C191.628 44.7186 191.985 44.4606 192.268 44.1444C192.551 43.8282 192.768 43.4621 192.917 43.046C193.067 42.6133 193.15 42.1556 193.167 41.6729V40.924H191.22ZM198.848 27.6678H200.795V46.541H198.848V27.6678ZM211.644 28.8661H218.434C219.016 28.8661 219.632 28.9327 220.281 29.0658C220.93 29.199 221.571 29.4153 222.204 29.7149C222.853 29.9978 223.468 30.3723 224.051 30.8383C224.65 31.3043 225.174 31.8702 225.624 32.5359C226.073 33.185 226.431 33.9422 226.697 34.8077C226.963 35.6565 227.097 36.6218 227.097 37.7036C227.097 38.7854 226.963 39.759 226.697 40.6244C226.431 41.4732 226.073 42.2305 225.624 42.8962C225.174 43.5453 224.65 44.1028 224.051 44.5688C223.468 45.0348 222.853 45.4176 222.204 45.7172C221.571 46.0001 220.93 46.2082 220.281 46.3413C219.632 46.4744 219.016 46.541 218.434 46.541H211.644V28.8661ZM213.741 44.5938H217.735C218.75 44.5938 219.69 44.4606 220.556 44.1943C221.421 43.9281 222.17 43.5203 222.803 42.9711C223.435 42.4052 223.934 41.6896 224.301 40.8241C224.667 39.9587 224.85 38.9185 224.85 37.7036C224.85 36.4886 224.667 35.4484 224.301 34.583C223.934 33.7176 223.435 33.0102 222.803 32.461C222.17 31.8952 221.421 31.4791 220.556 31.2128C219.69 30.9465 218.75 30.8134 217.735 30.8134H213.741V44.5938ZM240.558 44.419C239.859 45.3178 239.093 45.9502 238.261 46.3163C237.429 46.6658 236.464 46.8406 235.365 46.8406C234.45 46.8406 233.626 46.6825 232.894 46.3663C232.161 46.0334 231.537 45.5924 231.021 45.0431C230.522 44.4939 230.131 43.8448 229.848 43.0959C229.582 42.347 229.449 41.5481 229.449 40.6993C229.449 39.8006 229.598 38.9768 229.898 38.2278C230.197 37.4622 230.614 36.8132 231.146 36.2806C231.679 35.7314 232.311 35.307 233.043 35.0074C233.776 34.7078 234.575 34.558 235.44 34.558C236.256 34.558 237.004 34.6995 237.687 34.9824C238.369 35.2487 238.952 35.6482 239.434 36.1807C239.934 36.6967 240.316 37.3374 240.583 38.103C240.849 38.8519 240.982 39.7091 240.982 40.6743V41.2985H231.546C231.579 41.7978 231.695 42.2804 231.895 42.7464C232.111 43.1958 232.386 43.5952 232.719 43.9447C233.052 44.2776 233.443 44.5439 233.892 44.7436C234.342 44.9433 234.833 45.0431 235.365 45.0431C236.214 45.0431 236.93 44.8934 237.512 44.5938C238.095 44.2942 238.619 43.8532 239.085 43.2707L240.558 44.419ZM238.885 39.6508C238.852 38.6522 238.527 37.8534 237.912 37.2542C237.296 36.6551 236.447 36.3555 235.365 36.3555C234.283 36.3555 233.41 36.6551 232.744 37.2542C232.078 37.8534 231.679 38.6522 231.546 39.6508H238.885ZM244.244 43.4704C244.627 43.953 245.043 44.3358 245.492 44.6187C245.958 44.9017 246.541 45.0431 247.24 45.0431C247.539 45.0431 247.839 45.0099 248.139 44.9433C248.455 44.8767 248.738 44.7685 248.987 44.6187C249.237 44.469 249.437 44.2859 249.587 44.0695C249.736 43.8365 249.811 43.5619 249.811 43.2457C249.811 42.9295 249.736 42.6715 249.587 42.4718C249.453 42.2721 249.27 42.1056 249.037 41.9725C248.804 41.8227 248.538 41.7062 248.238 41.623C247.939 41.5398 247.631 41.4649 247.315 41.3983C246.766 41.2818 246.241 41.1487 245.742 40.9989C245.243 40.8491 244.802 40.6577 244.419 40.4247C244.053 40.1751 243.753 39.8588 243.52 39.4761C243.304 39.0933 243.196 38.6023 243.196 38.0031C243.196 37.4373 243.32 36.938 243.57 36.5053C243.82 36.0726 244.153 35.7147 244.569 35.4318C244.985 35.1489 245.451 34.9325 245.967 34.7827C246.483 34.6329 247.015 34.558 247.564 34.558C248.397 34.558 249.162 34.7245 249.861 35.0573C250.577 35.3902 251.134 35.9311 251.534 36.68L249.911 37.7535C249.661 37.3374 249.329 37.0046 248.912 36.7549C248.513 36.4886 248.022 36.3555 247.44 36.3555C247.173 36.3555 246.899 36.3888 246.616 36.4553C246.349 36.5219 246.108 36.6218 245.892 36.7549C245.675 36.8881 245.492 37.0628 245.343 37.2792C245.209 37.4789 245.143 37.7119 245.143 37.9782C245.143 38.2278 245.218 38.4442 245.368 38.6273C245.534 38.7937 245.75 38.9435 246.017 39.0766C246.3 39.2098 246.616 39.3263 246.965 39.4261C247.331 39.526 247.706 39.6092 248.089 39.6758C248.605 39.7756 249.096 39.9088 249.562 40.0752C250.028 40.225 250.435 40.433 250.785 40.6993C251.134 40.9656 251.409 41.2985 251.609 41.6979C251.808 42.0973 251.908 42.5883 251.908 43.1708C251.908 43.8365 251.775 44.4024 251.509 44.8684C251.243 45.3344 250.885 45.7172 250.435 46.0168C250.003 46.2997 249.503 46.5077 248.937 46.6409C248.388 46.774 247.822 46.8406 247.24 46.8406C246.241 46.8406 245.376 46.6908 244.644 46.3912C243.928 46.075 243.279 45.5008 242.696 44.6687L244.244 43.4704ZM254.799 34.8576H256.746V46.541H254.799V34.8576ZM254.349 30.2891C254.349 29.9063 254.482 29.5734 254.749 29.2905C255.032 29.0076 255.373 28.8661 255.772 28.8661C256.172 28.8661 256.505 29.0076 256.771 29.2905C257.054 29.5734 257.195 29.9063 257.195 30.2891C257.195 30.7052 257.062 31.0464 256.796 31.3126C256.53 31.5789 256.188 31.7121 255.772 31.7121C255.356 31.7121 255.015 31.5789 254.749 31.3126C254.482 31.0464 254.349 30.7052 254.349 30.2891ZM272.28 46.0168C272.28 48.1471 271.73 49.7614 270.632 50.8599C269.55 51.975 267.977 52.5325 265.914 52.5325C264.765 52.5325 263.725 52.3661 262.793 52.0332C261.878 51.7004 261.004 51.1262 260.172 50.3107L261.57 48.7129C262.186 49.3787 262.835 49.8779 263.517 50.2108C264.216 50.5603 265.015 50.7351 265.914 50.7351C266.779 50.7351 267.495 50.6019 268.061 50.3356C268.643 50.086 269.101 49.7365 269.434 49.2871C269.767 48.8544 270 48.3551 270.133 47.7892C270.266 47.2234 270.332 46.6326 270.332 46.0168V44.5189H270.283C269.817 45.2678 269.209 45.817 268.46 46.1665C267.711 46.5161 266.946 46.6908 266.163 46.6908C265.248 46.6908 264.408 46.541 263.642 46.2414C262.876 45.9419 262.219 45.5258 261.67 44.9932C261.121 44.4606 260.696 43.8282 260.397 43.0959C260.097 42.3636 259.947 41.5648 259.947 40.6993C259.947 39.7507 260.097 38.8935 260.397 38.128C260.696 37.3624 261.112 36.7216 261.645 36.2057C262.194 35.6731 262.851 35.2654 263.617 34.9824C264.383 34.6995 265.231 34.558 266.163 34.558C266.563 34.558 266.962 34.608 267.362 34.7078C267.761 34.791 268.144 34.9325 268.51 35.1322C268.893 35.3153 269.234 35.5566 269.534 35.8562C269.833 36.1391 270.083 36.472 270.283 36.8548H270.332V34.8576H272.28V46.0168ZM262.044 40.6993C262.044 41.2985 262.152 41.856 262.369 42.3719C262.585 42.8712 262.876 43.3123 263.243 43.6951C263.625 44.0612 264.066 44.3525 264.566 44.5688C265.065 44.7852 265.598 44.8934 266.163 44.8934C266.829 44.8934 267.42 44.7769 267.936 44.5439C268.452 44.3108 268.885 44.003 269.234 43.6202C269.6 43.2207 269.875 42.7714 270.058 42.2721C270.241 41.7561 270.332 41.2152 270.332 40.6494C270.332 40.0169 270.233 39.4428 270.033 38.9268C269.833 38.3943 269.55 37.9366 269.184 37.5538C268.818 37.171 268.377 36.8797 267.861 36.68C267.345 36.4637 266.779 36.3555 266.163 36.3555C265.548 36.3555 264.982 36.472 264.466 36.705C263.967 36.9213 263.534 37.2292 263.168 37.6287C262.818 38.0115 262.544 38.4691 262.344 39.0017C262.144 39.5177 262.044 40.0835 262.044 40.6993ZM275.883 37.6287C275.883 37.0961 275.866 36.5968 275.833 36.1308C275.8 35.6648 275.783 35.2404 275.783 34.8576H277.63C277.63 35.1738 277.639 35.49 277.655 35.8063C277.672 36.1225 277.68 36.447 277.68 36.7799H277.73C277.863 36.4969 278.046 36.2223 278.279 35.956C278.529 35.6898 278.82 35.4568 279.153 35.257C279.486 35.0407 279.86 34.8743 280.277 34.7578C280.693 34.6246 281.142 34.558 281.625 34.558C282.39 34.558 283.048 34.6745 283.597 34.9075C284.163 35.1405 284.629 35.4651 284.995 35.8812C285.361 36.2972 285.627 36.8048 285.794 37.404C285.977 37.9865 286.068 38.6273 286.068 39.3263V46.541H284.121V39.526C284.121 38.544 283.905 37.7701 283.472 37.2043C283.039 36.6384 282.365 36.3555 281.45 36.3555C280.817 36.3555 280.268 36.4637 279.802 36.68C279.353 36.8964 278.978 37.2043 278.679 37.6037C278.396 38.0031 278.18 38.4775 278.03 39.0267C277.897 39.5759 277.83 40.1834 277.83 40.8491V46.541H275.883V37.6287ZM290.004 43.4704C290.387 43.953 290.803 44.3358 291.253 44.6187C291.719 44.9017 292.301 45.0431 293 45.0431C293.3 45.0431 293.599 45.0099 293.899 44.9433C294.215 44.8767 294.498 44.7685 294.748 44.6187C294.997 44.469 295.197 44.2859 295.347 44.0695C295.497 43.8365 295.571 43.5619 295.571 43.2457C295.571 42.9295 295.497 42.6715 295.347 42.4718C295.214 42.2721 295.031 42.1056 294.798 41.9725C294.565 41.8227 294.298 41.7062 293.999 41.623C293.699 41.5398 293.391 41.4649 293.075 41.3983C292.526 41.2818 292.002 41.1487 291.502 40.9989C291.003 40.8491 290.562 40.6577 290.179 40.4247C289.813 40.1751 289.513 39.8588 289.28 39.4761C289.064 39.0933 288.956 38.6023 288.956 38.0031C288.956 37.4373 289.081 36.938 289.33 36.5053C289.58 36.0726 289.913 35.7147 290.329 35.4318C290.745 35.1489 291.211 34.9325 291.727 34.7827C292.243 34.6329 292.775 34.558 293.325 34.558C294.157 34.558 294.922 34.7245 295.621 35.0573C296.337 35.3902 296.895 35.9311 297.294 36.68L295.671 37.7535C295.422 37.3374 295.089 37.0046 294.673 36.7549C294.273 36.4886 293.782 36.3555 293.2 36.3555C292.934 36.3555 292.659 36.3888 292.376 36.4553C292.11 36.5219 291.868 36.6218 291.652 36.7549C291.436 36.8881 291.253 37.0628 291.103 37.2792C290.97 37.4789 290.903 37.7119 290.903 37.9782C290.903 38.2278 290.978 38.4442 291.128 38.6273C291.294 38.7937 291.511 38.9435 291.777 39.0766C292.06 39.2098 292.376 39.3263 292.725 39.4261C293.092 39.526 293.466 39.6092 293.849 39.6758C294.365 39.7756 294.856 39.9088 295.322 40.0752C295.788 40.225 296.196 40.433 296.545 40.6993C296.895 40.9656 297.169 41.2985 297.369 41.6979C297.569 42.0973 297.668 42.5883 297.668 43.1708C297.668 43.8365 297.535 44.4024 297.269 44.8684C297.003 45.3344 296.645 45.7172 296.196 46.0168C295.763 46.2997 295.264 46.5077 294.698 46.6409C294.148 46.774 293.583 46.8406 293 46.8406C292.002 46.8406 291.136 46.6908 290.404 46.3912C289.688 46.075 289.039 45.5008 288.457 44.6687L290.004 43.4704Z" fill="black"/>
<rect x="29.458" y="54.4941" width="128.817" height="4.49362" fill="#98BC61" fill-opacity="0.45"/>
<path d="M132.94 101.958C132.175 101.958 131.538 101.829 131.031 101.571C130.523 101.313 130.14 100.968 129.882 100.535C129.633 100.111 129.508 99.6446 129.508 99.137C129.508 98.6793 129.583 98.284 129.732 97.9512C129.891 97.6266 130.099 97.3562 130.357 97.1398C130.648 96.8985 130.989 96.7154 131.38 96.5906C131.771 96.4658 132.2 96.3826 132.666 96.341C133.132 96.291 133.614 96.2661 134.114 96.2661H135.225C135.857 96.2661 136.415 96.2453 136.897 96.2037C137.38 96.1537 137.796 96.0747 138.146 95.9665C138.495 95.8583 138.778 95.7044 138.994 95.5046C139.202 95.3133 139.352 95.0761 139.444 94.7932C139.544 94.5102 139.593 94.1732 139.593 93.7821C139.593 93.3411 139.514 92.9749 139.356 92.6837C139.198 92.3924 138.982 92.1719 138.707 92.0221C138.433 91.8723 138.125 91.7974 137.784 91.7974C137.542 91.7974 137.326 91.8349 137.134 91.9098C136.951 91.9763 136.789 92.0887 136.648 92.2468C136.49 92.4382 136.377 92.6628 136.311 92.9208C136.244 93.1705 136.211 93.52 136.211 93.9693V95.3923H135.125V94.2439C135.125 93.8695 135.087 93.5324 135.012 93.2329C134.938 92.925 134.813 92.6628 134.638 92.4465C134.472 92.2218 134.247 92.0512 133.964 91.9347C133.689 91.8182 133.344 91.76 132.928 91.76C132.67 91.76 132.47 91.7724 132.329 91.7974C132.187 91.8141 132.033 91.8515 131.867 91.9098L131.43 92.0845C131.205 92.201 131.022 92.3425 130.881 92.5089C130.748 92.667 130.648 92.8418 130.581 93.0332C130.523 93.2162 130.494 93.4076 130.494 93.6073C130.494 93.9652 130.581 94.2564 130.756 94.4811C130.939 94.6975 131.235 94.8056 131.642 94.8056C131.967 94.8056 132.229 94.7141 132.429 94.531C132.637 94.348 132.741 94.0942 132.741 93.7696C132.741 93.4784 132.662 93.2287 132.504 93.0207C132.354 92.8043 132.142 92.642 131.867 92.5339C131.601 92.4174 131.293 92.3591 130.943 92.3591L131.742 91.7849C132.125 91.8182 132.466 91.9181 132.766 92.0845C133.074 92.2426 133.315 92.459 133.49 92.7336C133.673 92.9999 133.764 93.3161 133.764 93.6822C133.764 94.2814 133.569 94.7599 133.178 95.1177C132.795 95.4755 132.287 95.6544 131.655 95.6544C131.189 95.6544 130.793 95.5671 130.469 95.3923C130.153 95.2092 129.911 94.9679 129.745 94.6683C129.587 94.3604 129.508 94.0193 129.508 93.6448C129.508 93.0623 129.662 92.5672 129.97 92.1594C130.278 91.7433 130.685 91.4271 131.193 91.2107C131.709 90.9944 132.262 90.8862 132.853 90.8862C133.461 90.8862 133.952 90.9653 134.326 91.1234C134.709 91.2815 135.004 91.4812 135.212 91.7225C135.429 91.9638 135.591 92.2135 135.699 92.4715L135.474 92.5838C135.599 92.226 135.766 91.9222 135.974 91.6726C136.19 91.4146 136.452 91.2191 136.76 91.0859C137.068 90.9528 137.422 90.8862 137.821 90.8862C138.445 90.8862 138.969 91.011 139.394 91.2607C139.818 91.502 140.139 91.839 140.355 92.2717C140.58 92.7045 140.692 93.2037 140.692 93.7696C140.692 94.3272 140.609 94.8015 140.442 95.1926C140.276 95.5837 140.043 95.9082 139.743 96.1662C139.427 96.4408 139.044 96.6489 138.595 96.7903C138.154 96.9318 137.667 97.0316 137.134 97.0899C136.61 97.1398 136.061 97.1648 135.487 97.1648H134.313C133.764 97.1648 133.277 97.1814 132.853 97.2147C132.437 97.248 132.079 97.3146 131.78 97.4144C131.488 97.5143 131.247 97.6599 131.056 97.8513C130.898 98.0094 130.781 98.1925 130.706 98.4005C130.64 98.6086 130.606 98.8457 130.606 99.112C130.606 99.5614 130.71 99.9275 130.918 100.21C131.135 100.493 131.422 100.701 131.78 100.835C132.137 100.976 132.533 101.047 132.965 101.047C133.315 101.047 133.619 101.009 133.877 100.934C134.143 100.868 134.368 100.756 134.551 100.597C134.767 100.406 134.917 100.181 135 99.9234C135.083 99.6654 135.125 99.3117 135.125 98.8624V98.0885H136.211V98.5378C136.211 98.8707 136.232 99.1744 136.273 99.449C136.315 99.7237 136.386 99.965 136.485 100.173C136.627 100.456 136.822 100.672 137.072 100.822C137.33 100.972 137.663 101.047 138.071 101.047C138.337 101.047 138.587 100.989 138.82 100.872C139.053 100.764 139.24 100.581 139.381 100.323C139.531 100.065 139.606 99.7112 139.606 99.2618C139.606 99.0288 139.577 98.7667 139.519 98.4754C139.46 98.1842 139.385 97.9429 139.294 97.7515L140.355 97.3895C140.463 97.6724 140.546 97.9595 140.605 98.2507C140.663 98.542 140.692 98.8915 140.692 99.2993C140.692 99.8734 140.575 100.356 140.342 100.747C140.118 101.147 139.806 101.446 139.406 101.646C139.015 101.854 138.574 101.958 138.083 101.958C137.542 101.958 137.101 101.875 136.76 101.708C136.427 101.542 136.165 101.334 135.974 101.084C135.791 100.835 135.653 100.585 135.562 100.335L135.786 100.285C135.653 100.643 135.454 100.947 135.187 101.197C134.921 101.446 134.596 101.633 134.214 101.758C133.839 101.891 133.415 101.958 132.94 101.958ZM144.492 92.459C144.118 92.459 143.777 92.3758 143.469 92.2093C143.169 92.0346 142.932 91.7974 142.757 91.4978C142.583 91.1983 142.495 90.8612 142.495 90.4868C142.495 90.1123 142.583 89.7753 142.757 89.4757C142.932 89.1761 143.169 88.939 143.469 88.7642C143.777 88.5895 144.118 88.5021 144.492 88.5021C144.875 88.5021 145.216 88.5895 145.516 88.7642C145.815 88.939 146.053 89.1761 146.227 89.4757C146.402 89.7753 146.489 90.1123 146.489 90.4868C146.489 90.8612 146.402 91.1983 146.227 91.4978C146.053 91.7974 145.815 92.0346 145.516 92.2093C145.216 92.3758 144.875 92.459 144.492 92.459ZM144.48 91.6851C144.813 91.6851 145.1 91.5769 145.341 91.3605C145.582 91.1359 145.703 90.8446 145.703 90.4868C145.703 90.1206 145.582 89.8294 145.341 89.613C145.1 89.3883 144.813 89.276 144.48 89.276C144.147 89.276 143.864 89.3883 143.631 89.613C143.398 89.8294 143.282 90.1206 143.282 90.4868C143.282 90.8446 143.398 91.1359 143.631 91.3605C143.864 91.5769 144.147 91.6851 144.48 91.6851ZM148.791 97.9512V96.5781H149.79V97.9512H148.791ZM148.791 92.6337V91.2607H149.79V92.6337H148.791ZM153.399 94.918C154.46 94.918 155.309 95.7668 155.309 96.8153C155.309 97.8638 154.46 98.7126 153.399 98.7126C152.363 98.7126 151.502 97.8638 151.502 96.8153C151.502 95.7668 152.363 94.918 153.399 94.918ZM153.399 98.076C154.111 98.076 154.672 97.5143 154.672 96.8153C154.672 96.1163 154.111 95.5546 153.399 95.5546C152.713 95.5546 152.138 96.1163 152.138 96.8153C152.138 97.5143 152.713 98.076 153.399 98.076ZM211.483 94.918C212.544 94.918 213.393 95.7668 213.393 96.8153C213.393 97.8638 212.544 98.7126 211.483 98.7126C210.447 98.7126 209.586 97.8638 209.586 96.8153C209.586 95.7668 210.447 94.918 211.483 94.918ZM211.483 98.076C212.195 98.076 212.756 97.5143 212.756 96.8153C212.756 96.1163 212.195 95.5546 211.483 95.5546C210.797 95.5546 210.222 96.1163 210.222 96.8153C210.222 97.5143 210.797 98.076 211.483 98.076ZM216.688 97.9512V96.5781H217.687V97.9512H216.688ZM216.688 92.6337V91.2607H217.687V92.6337H216.688ZM221.982 92.459C221.608 92.459 221.267 92.3758 220.959 92.2093C220.659 92.0346 220.422 91.7974 220.247 91.4978C220.073 91.1983 219.985 90.8612 219.985 90.4868C219.985 90.1123 220.073 89.7753 220.247 89.4757C220.422 89.1761 220.659 88.939 220.959 88.7642C221.267 88.5895 221.608 88.5021 221.982 88.5021C222.365 88.5021 222.706 88.5895 223.006 88.7642C223.305 88.939 223.543 89.1761 223.717 89.4757C223.892 89.7753 223.979 90.1123 223.979 90.4868C223.979 90.8612 223.892 91.1983 223.717 91.4978C223.543 91.7974 223.305 92.0346 223.006 92.2093C222.706 92.3758 222.365 92.459 221.982 92.459ZM221.97 91.6851C222.303 91.6851 222.59 91.5769 222.831 91.3605C223.072 91.1359 223.193 90.8446 223.193 90.4868C223.193 90.1206 223.072 89.8294 222.831 89.613C222.59 89.3883 222.303 89.276 221.97 89.276C221.637 89.276 221.354 89.3883 221.121 89.613C220.888 89.8294 220.772 90.1206 220.772 90.4868C220.772 90.8446 220.888 91.1359 221.121 91.3605C221.354 91.5769 221.637 91.6851 221.97 91.6851ZM229.215 101.958C228.449 101.958 227.813 101.829 227.305 101.571C226.797 101.313 226.415 100.968 226.157 100.535C225.907 100.111 225.782 99.6446 225.782 99.137C225.782 98.6793 225.857 98.284 226.007 97.9512C226.165 97.6266 226.373 97.3562 226.631 97.1398C226.922 96.8985 227.263 96.7154 227.655 96.5906C228.046 96.4658 228.474 96.3826 228.94 96.341C229.406 96.291 229.889 96.2661 230.388 96.2661H231.499C232.132 96.2661 232.689 96.2453 233.172 96.2037C233.654 96.1537 234.07 96.0747 234.42 95.9665C234.769 95.8583 235.052 95.7044 235.269 95.5046C235.477 95.3133 235.627 95.0761 235.718 94.7932C235.818 94.5102 235.868 94.1732 235.868 93.7821C235.868 93.3411 235.789 92.9749 235.631 92.6837C235.473 92.3924 235.256 92.1719 234.982 92.0221C234.707 91.8723 234.399 91.7974 234.058 91.7974C233.817 91.7974 233.6 91.8349 233.409 91.9098C233.226 91.9763 233.064 92.0887 232.922 92.2468C232.764 92.4382 232.652 92.6628 232.585 92.9208C232.518 93.1705 232.485 93.52 232.485 93.9693V95.3923H231.399V94.2439C231.399 93.8695 231.362 93.5324 231.287 93.2329C231.212 92.925 231.087 92.6628 230.912 92.4465C230.746 92.2218 230.521 92.0512 230.238 91.9347C229.964 91.8182 229.618 91.76 229.202 91.76C228.944 91.76 228.745 91.7724 228.603 91.7974C228.462 91.8141 228.308 91.8515 228.141 91.9098L227.704 92.0845C227.48 92.201 227.297 92.3425 227.155 92.5089C227.022 92.667 226.922 92.8418 226.856 93.0332C226.797 93.2162 226.768 93.4076 226.768 93.6073C226.768 93.9652 226.856 94.2564 227.03 94.4811C227.214 94.6975 227.509 94.8056 227.917 94.8056C228.241 94.8056 228.503 94.7141 228.703 94.531C228.911 94.348 229.015 94.0942 229.015 93.7696C229.015 93.4784 228.936 93.2287 228.778 93.0207C228.628 92.8043 228.416 92.642 228.141 92.5339C227.875 92.4174 227.567 92.3591 227.218 92.3591L228.017 91.7849C228.399 91.8182 228.741 91.9181 229.04 92.0845C229.348 92.2426 229.589 92.459 229.764 92.7336C229.947 92.9999 230.039 93.3161 230.039 93.6822C230.039 94.2814 229.843 94.7599 229.452 95.1177C229.069 95.4755 228.562 95.6544 227.929 95.6544C227.463 95.6544 227.068 95.5671 226.743 95.3923C226.427 95.2092 226.186 94.9679 226.019 94.6683C225.861 94.3604 225.782 94.0193 225.782 93.6448C225.782 93.0623 225.936 92.5672 226.244 92.1594C226.552 91.7433 226.96 91.4271 227.467 91.2107C227.983 90.9944 228.537 90.8862 229.127 90.8862C229.735 90.8862 230.226 90.9653 230.6 91.1234C230.983 91.2815 231.279 91.4812 231.487 91.7225C231.703 91.9638 231.865 92.2135 231.973 92.4715L231.749 92.5838C231.874 92.226 232.04 91.9222 232.248 91.6726C232.464 91.4146 232.727 91.2191 233.034 91.0859C233.342 90.9528 233.696 90.8862 234.095 90.8862C234.72 90.8862 235.244 91.011 235.668 91.2607C236.093 91.502 236.413 91.839 236.629 92.2717C236.854 92.7045 236.966 93.2037 236.966 93.7696C236.966 94.3272 236.883 94.8015 236.717 95.1926C236.55 95.5837 236.317 95.9082 236.018 96.1662C235.701 96.4408 235.319 96.6489 234.869 96.7903C234.428 96.9318 233.941 97.0316 233.409 97.0899C232.885 97.1398 232.335 97.1648 231.761 97.1648H230.588C230.039 97.1648 229.552 97.1814 229.127 97.2147C228.711 97.248 228.354 97.3146 228.054 97.4144C227.763 97.5143 227.521 97.6599 227.33 97.8513C227.172 98.0094 227.055 98.1925 226.981 98.4005C226.914 98.6086 226.881 98.8457 226.881 99.112C226.881 99.5614 226.985 99.9275 227.193 100.21C227.409 100.493 227.696 100.701 228.054 100.835C228.412 100.976 228.807 101.047 229.24 101.047C229.589 101.047 229.893 101.009 230.151 100.934C230.417 100.868 230.642 100.756 230.825 100.597C231.041 100.406 231.191 100.181 231.274 99.9234C231.358 99.6654 231.399 99.3117 231.399 98.8624V98.0885H232.485V98.5378C232.485 98.8707 232.506 99.1744 232.548 99.449C232.589 99.7237 232.66 99.965 232.76 100.173C232.901 100.456 233.097 100.672 233.346 100.822C233.604 100.972 233.937 101.047 234.345 101.047C234.611 101.047 234.861 100.989 235.094 100.872C235.327 100.764 235.514 100.581 235.656 100.323C235.805 100.065 235.88 99.7112 235.88 99.2618C235.88 99.0288 235.851 98.7667 235.793 98.4754C235.735 98.1842 235.66 97.9429 235.568 97.7515L236.629 97.3895C236.737 97.6724 236.821 97.9595 236.879 98.2507C236.937 98.542 236.966 98.8915 236.966 99.2993C236.966 99.8734 236.85 100.356 236.617 100.747C236.392 101.147 236.08 101.446 235.681 101.646C235.29 101.854 234.848 101.958 234.358 101.958C233.817 101.958 233.376 101.875 233.034 101.708C232.702 101.542 232.439 101.334 232.248 101.084C232.065 100.835 231.928 100.585 231.836 100.335L232.061 100.285C231.928 100.643 231.728 100.947 231.462 101.197C231.195 101.446 230.871 101.633 230.488 101.758C230.114 101.891 229.689 101.958 229.215 101.958Z" fill="black"/>
<path d="M160.476 97.9512V88.6519H163.521C164.462 88.6519 165.281 88.8433 165.98 89.2261C166.679 89.6089 167.22 90.1498 167.603 90.8488C167.986 91.5394 168.177 92.355 168.177 93.2953C168.177 94.2273 167.986 95.0428 167.603 95.7418C167.22 96.4408 166.679 96.9859 165.98 97.377C165.281 97.7598 164.462 97.9512 163.521 97.9512H160.476ZM161.699 96.8278H163.534C164.224 96.8278 164.819 96.6821 165.319 96.3909C165.826 96.0996 166.217 95.6919 166.492 95.1676C166.767 94.635 166.904 94.0109 166.904 93.2953C166.904 92.5713 166.762 91.9472 166.48 91.4229C166.205 90.8987 165.814 90.4951 165.306 90.2122C164.807 89.9209 164.216 89.7753 163.534 89.7753H161.699V96.8278ZM169.728 97.9512V88.6519H175.781V89.7753H170.951V92.7211H175.532V93.8445H170.951V96.8278H175.781V97.9512H169.728ZM180.493 98.101C179.902 98.101 179.361 97.9928 178.87 97.7764C178.379 97.5517 177.963 97.248 177.622 96.8652C177.281 96.4824 177.035 96.0539 176.885 95.5795L177.946 95.1427C178.171 95.7418 178.504 96.2037 178.945 96.5282C179.394 96.8444 179.919 97.0025 180.518 97.0025C180.884 97.0025 181.204 96.9443 181.479 96.8278C181.754 96.7113 181.966 96.549 182.116 96.341C182.274 96.1246 182.353 95.875 182.353 95.592C182.353 95.2009 182.24 94.893 182.016 94.6683C181.799 94.4353 181.479 94.2606 181.055 94.1441L179.344 93.6198C178.67 93.4118 178.154 93.0831 177.797 92.6337C177.439 92.1844 177.26 91.6684 177.26 91.0859C177.26 90.5783 177.381 90.1331 177.622 89.7503C177.872 89.3592 178.213 89.0555 178.645 88.8391C179.086 88.6144 179.586 88.5021 180.143 88.5021C180.701 88.5021 181.204 88.602 181.654 88.8017C182.111 89.0014 182.498 89.2718 182.815 89.613C183.131 89.9459 183.364 90.3287 183.514 90.7614L182.465 91.1983C182.265 90.674 181.966 90.2787 181.566 90.0124C181.167 89.7378 180.697 89.6005 180.156 89.6005C179.823 89.6005 179.528 89.6588 179.27 89.7753C179.02 89.8835 178.824 90.0457 178.683 90.2621C178.55 90.4701 178.483 90.7198 178.483 91.011C178.483 91.3522 178.591 91.6559 178.808 91.9222C179.024 92.1885 179.353 92.3924 179.794 92.5339L181.354 92.9957C182.086 93.2204 182.64 93.5408 183.014 93.9568C183.389 94.3729 183.576 94.8889 183.576 95.5046C183.576 96.0123 183.443 96.4616 183.177 96.8527C182.919 97.2438 182.557 97.5517 182.091 97.7764C181.633 97.9928 181.1 98.101 180.493 98.101ZM185.367 97.9512V88.6519H186.59V97.9512H185.367ZM192.952 98.101C192.295 98.101 191.687 97.9845 191.13 97.7515C190.572 97.5101 190.089 97.1731 189.682 96.7404C189.274 96.3077 188.954 95.8001 188.721 95.2176C188.496 94.635 188.384 93.9985 188.384 93.3078C188.384 92.6088 188.496 91.968 188.721 91.3855C188.945 90.803 189.261 90.2954 189.669 89.8627C190.077 89.4299 190.56 89.0971 191.117 88.8641C191.675 88.6228 192.282 88.5021 192.94 88.5021C193.58 88.5021 194.155 88.6144 194.662 88.8391C195.178 89.0638 195.611 89.355 195.96 89.7129C196.318 90.0707 196.572 90.4535 196.722 90.8612L195.623 91.398C195.407 90.8571 195.07 90.4285 194.612 90.1123C194.155 89.7961 193.597 89.638 192.94 89.638C192.291 89.638 191.712 89.7919 191.205 90.0998C190.705 90.4077 190.314 90.8363 190.031 91.3855C189.748 91.9347 189.607 92.5755 189.607 93.3078C189.607 94.0317 189.748 94.6683 190.031 95.2176C190.322 95.7668 190.718 96.1953 191.217 96.5032C191.725 96.8111 192.303 96.9651 192.952 96.9651C193.518 96.9651 194.03 96.8444 194.487 96.6031C194.945 96.3618 195.307 96.0289 195.573 95.6045C195.84 95.1801 195.973 94.6891 195.973 94.1316V93.5574L196.534 94.0817H192.94V93.0207H197.209V93.8445C197.209 94.4936 197.096 95.0802 196.872 95.6045C196.647 96.1288 196.339 96.5781 195.948 96.9526C195.557 97.3187 195.103 97.6017 194.587 97.8014C194.071 98.0011 193.526 98.101 192.952 98.101ZM198.861 97.9512V88.6519H199.885L205.227 96.1662L204.765 96.2161V88.6519H206.001V97.9512H204.977L199.66 90.3869L200.084 90.337V97.9512H198.861Z" fill="#FFAA52"/>
</svg>
