<svg width="352" height="104" viewBox="0 0 352 104" fill="none" xmlns="http://www.w3.org/2000/svg">
<path d="M14.9787 0.322888H328.533C336.668 0.322888 343.262 6.91732 343.262 15.052V53.4973C343.262 61.632 336.668 68.2264 328.533 68.2264H14.9788C6.8441 68.2264 0.249645 61.632 0.249645 53.4973V15.052C0.249645 6.91732 6.84408 0.322888 14.9787 0.322888Z" stroke="#FFAA52" stroke-width="0.499291"/>
<path d="M28.9592 16.3004H337.022C345.156 16.3004 351.751 22.8949 351.751 31.0295V63.4834C351.751 71.6181 345.156 78.2125 337.022 78.2125H28.9592C20.8246 78.2125 14.2301 71.618 14.2301 63.4834V31.0295C14.2301 22.8949 20.8245 16.3004 28.9592 16.3004Z" stroke="#98BC61" stroke-width="0.499291"/>
<path d="M113.324 47.543L107.981 28.9444H110.003L114.622 45.5957H114.198L118.941 28.9444H121.063L125.781 45.5957H125.332L129.975 28.9444H131.997L126.655 47.543H124.533L119.765 30.8167H120.214L115.446 47.543H113.324ZM134.203 47.543V34.162H136.076V47.543H134.203ZM134.203 31.6905V28.9444H136.076V31.6905H134.203ZM139.908 47.543V34.162H141.781V36.3589L141.531 36.0343C141.847 35.4019 142.322 34.9026 142.954 34.5364C143.603 34.1703 144.385 33.9872 145.301 33.9872H146.149V35.8596H144.976C144.011 35.8596 143.237 36.1591 142.654 36.7583C142.072 37.3574 141.781 38.2062 141.781 39.3047V47.543H139.908ZM154.435 47.8425C153.187 47.8425 152.055 47.543 151.04 46.9438C150.041 46.328 149.251 45.4876 148.668 44.4224C148.086 43.3572 147.794 42.1506 147.794 40.8025C147.794 39.4545 148.077 38.2645 148.643 37.2326C149.209 36.1841 149.975 35.3603 150.94 34.7611C151.922 34.162 153.02 33.8624 154.235 33.8624C155.2 33.8624 156.058 34.0455 156.807 34.4116C157.572 34.7611 158.221 35.2438 158.754 35.8596C159.286 36.4587 159.694 37.1411 159.977 37.9067C160.26 38.6556 160.401 39.4295 160.401 40.2284C160.401 40.3948 160.393 40.5862 160.376 40.8025C160.36 41.0023 160.335 41.2103 160.302 41.4267H148.993V39.6791H159.228L158.329 40.4281C158.479 39.5127 158.371 38.6972 158.005 37.9816C157.655 37.2493 157.148 36.6751 156.482 36.259C155.816 35.8263 155.067 35.6099 154.235 35.6099C153.403 35.6099 152.629 35.8263 151.913 36.259C151.214 36.6917 150.665 37.2992 150.266 38.0814C149.866 38.847 149.708 39.7624 149.791 40.8275C149.708 41.8927 149.875 42.8247 150.291 43.6235C150.723 44.4058 151.306 45.0132 152.038 45.4459C152.787 45.8787 153.586 46.095 154.435 46.095C155.417 46.095 156.241 45.862 156.906 45.396C157.572 44.93 158.113 44.3475 158.529 43.6485L160.127 44.4973C159.861 45.0964 159.453 45.654 158.904 46.1699C158.354 46.6692 157.697 47.077 156.931 47.3932C156.182 47.6928 155.35 47.8425 154.435 47.8425ZM165.076 47.543V36.0343H162.404V34.162H165.076V32.9637C165.076 32.0317 165.284 31.2494 165.7 30.617C166.116 29.9679 166.665 29.477 167.347 29.1441C168.03 28.8112 168.762 28.6448 169.544 28.6448C169.711 28.6448 169.902 28.6615 170.118 28.6947C170.335 28.7114 170.51 28.7363 170.643 28.7696V30.4672C170.526 30.4339 170.368 30.4173 170.168 30.4173C169.969 30.4007 169.827 30.3923 169.744 30.3923C168.945 30.3923 168.279 30.5837 167.747 30.9665C167.214 31.3493 166.948 32.015 166.948 32.9637V34.162H170.218V36.0343H166.948V47.543H165.076ZM173.259 47.543V34.162H175.132V36.3589L174.882 36.0343C175.198 35.4019 175.673 34.9026 176.305 34.5364C176.954 34.1703 177.736 33.9872 178.652 33.9872H179.5V35.8596H178.327C177.362 35.8596 176.588 36.1591 176.005 36.7583C175.423 37.3574 175.132 38.2062 175.132 39.3047V47.543H173.259ZM185.564 47.8425C184.715 47.8425 183.958 47.6844 183.292 47.3682C182.627 47.0354 182.102 46.586 181.72 46.0201C181.337 45.4543 181.145 44.8052 181.145 44.0729C181.145 43.3739 181.295 42.7415 181.595 42.1756C181.894 41.5931 182.36 41.1021 182.993 40.7027C183.625 40.3033 184.432 40.0203 185.414 39.8539L190.657 38.9801V40.6777L185.864 41.4766C184.898 41.643 184.199 41.9509 183.767 42.4003C183.351 42.8496 183.143 43.3822 183.143 43.998C183.143 44.5972 183.376 45.1048 183.842 45.5208C184.324 45.9369 184.94 46.145 185.689 46.145C186.604 46.145 187.403 45.9536 188.086 45.5708C188.768 45.1713 189.3 44.6388 189.683 43.973C190.066 43.3073 190.257 42.5667 190.257 41.7512V38.356C190.257 37.5572 189.966 36.9081 189.384 36.4088C188.801 35.9095 188.044 35.6598 187.112 35.6598C186.296 35.6598 185.581 35.8679 184.965 36.284C184.349 36.6834 183.891 37.2076 183.592 37.8567L181.894 36.933C182.144 36.3672 182.535 35.8512 183.068 35.3852C183.617 34.9192 184.241 34.5531 184.94 34.2868C185.639 34.0039 186.363 33.8624 187.112 33.8624C188.094 33.8624 188.959 34.0538 189.708 34.4366C190.474 34.8194 191.065 35.352 191.481 36.0343C191.913 36.7 192.13 37.4739 192.13 38.356V47.543H190.257V44.8718L190.532 45.1464C190.299 45.6457 189.933 46.1033 189.434 46.5194C188.951 46.9189 188.377 47.2434 187.711 47.493C187.062 47.726 186.346 47.8425 185.564 47.8425ZM195.981 47.543V34.162H197.853V36.7084L197.554 36.3339C197.92 35.5517 198.461 34.9442 199.176 34.5115C199.909 34.0788 200.708 33.8624 201.573 33.8624C202.605 33.8624 203.537 34.1537 204.369 34.7362C205.201 35.3187 205.792 36.0759 206.142 37.0079L205.617 37.0329C205.95 36.001 206.524 35.2188 207.34 34.6862C208.172 34.137 209.087 33.8624 210.086 33.8624C210.985 33.8624 211.808 34.0788 212.557 34.5115C213.323 34.9442 213.93 35.5433 214.38 36.3089C214.846 37.0579 215.079 37.9067 215.079 38.8553V47.543H213.206V39.5793C213.206 38.7638 213.057 38.0731 212.757 37.5072C212.474 36.9414 212.083 36.5086 211.584 36.2091C211.085 35.8929 210.51 35.7347 209.861 35.7347C209.229 35.7347 208.655 35.8929 208.139 36.2091C207.623 36.5086 207.215 36.9497 206.915 37.5322C206.616 38.0981 206.466 38.7804 206.466 39.5793V47.543H204.594V39.5793C204.594 38.7638 204.444 38.0731 204.144 37.5072C203.861 36.9414 203.47 36.5086 202.971 36.2091C202.472 35.8929 201.898 35.7347 201.248 35.7347C200.599 35.7347 200.017 35.8929 199.501 36.2091C199.002 36.5086 198.602 36.9497 198.303 37.5322C198.003 38.0981 197.853 38.7804 197.853 39.5793V47.543H195.981ZM224.745 47.8425C223.497 47.8425 222.365 47.543 221.35 46.9438C220.351 46.328 219.561 45.4876 218.978 44.4224C218.396 43.3572 218.105 42.1506 218.105 40.8025C218.105 39.4545 218.388 38.2645 218.953 37.2326C219.519 36.1841 220.285 35.3603 221.25 34.7611C222.232 34.162 223.331 33.8624 224.545 33.8624C225.511 33.8624 226.368 34.0455 227.117 34.4116C227.882 34.7611 228.531 35.2438 229.064 35.8596C229.597 36.4587 230.004 37.1411 230.287 37.9067C230.57 38.6556 230.712 39.4295 230.712 40.2284C230.712 40.3948 230.703 40.5862 230.687 40.8025C230.67 41.0023 230.645 41.2103 230.612 41.4267H219.303V39.6791H229.538L228.64 40.4281C228.789 39.5127 228.681 38.6972 228.315 37.9816C227.966 37.2493 227.458 36.6751 226.792 36.259C226.127 35.8263 225.378 35.6099 224.545 35.6099C223.713 35.6099 222.939 35.8263 222.224 36.259C221.525 36.6917 220.976 37.2992 220.576 38.0814C220.177 38.847 220.019 39.7624 220.102 40.8275C220.019 41.8927 220.185 42.8247 220.601 43.6235C221.034 44.4058 221.616 45.0132 222.349 45.4459C223.098 45.8787 223.896 46.095 224.745 46.095C225.727 46.095 226.551 45.862 227.217 45.396C227.882 44.93 228.423 44.3475 228.839 43.6485L230.437 44.4973C230.171 45.0964 229.763 45.654 229.214 46.1699C228.665 46.6692 228.007 47.077 227.242 47.3932C226.493 47.6928 225.661 47.8425 224.745 47.8425ZM238.656 47.8425C237.375 47.8425 236.251 47.518 235.286 46.8689C234.321 46.2198 233.622 45.3378 233.189 44.2227L234.762 43.4737C235.145 44.2893 235.677 44.9383 236.36 45.421C237.059 45.9036 237.824 46.145 238.656 46.145C239.455 46.145 240.129 45.9536 240.678 45.5708C241.228 45.1713 241.502 44.6554 241.502 44.023C241.502 43.557 241.369 43.1908 241.103 42.9245C240.837 42.6416 240.529 42.4252 240.179 42.2755C239.83 42.1257 239.522 42.0175 239.255 41.9509L237.333 41.4017C236.102 41.0522 235.211 40.5612 234.662 39.9288C234.113 39.2963 233.838 38.5641 233.838 37.7319C233.838 36.9497 234.038 36.2673 234.437 35.6848C234.837 35.1023 235.378 34.6529 236.06 34.3367C236.742 34.0205 237.5 33.8624 238.332 33.8624C239.463 33.8624 240.487 34.162 241.402 34.7611C242.334 35.3436 242.992 36.1591 243.375 37.2076L241.777 37.9566C241.444 37.2076 240.961 36.6251 240.329 36.2091C239.713 35.7763 239.022 35.56 238.257 35.56C237.508 35.56 236.909 35.7514 236.459 36.1342C236.01 36.517 235.785 36.9996 235.785 37.5821C235.785 38.0315 235.902 38.3893 236.135 38.6556C236.368 38.9219 236.634 39.1216 236.934 39.2547C237.25 39.3879 237.525 39.4877 237.758 39.5543L239.979 40.2034C241.061 40.5196 241.902 41.0106 242.501 41.6763C243.117 42.342 243.425 43.1242 243.425 44.023C243.425 44.7553 243.216 45.4127 242.8 45.9952C242.401 46.5777 241.843 47.0354 241.128 47.3682C240.412 47.6844 239.588 47.8425 238.656 47.8425Z" fill="black"/>
<rect x="67.9033" y="54.4971" width="132.312" height="4.49362" fill="#98BC61" fill-opacity="0.45"/>
<path d="M131.977 89.9755L133.749 89.3764L133.987 90.1004L132.227 90.6995L133.338 92.1849L132.726 92.6592L131.602 91.1239L130.517 92.6592L129.892 92.1849L130.978 90.6995L129.218 90.1004L129.456 89.3764L131.228 89.9755V88.1157H131.977V89.9755ZM136.113 95.5301C136.321 95.5301 136.496 95.605 136.637 95.7548C136.787 95.8963 136.862 96.071 136.862 96.2791C136.862 96.4871 136.783 96.666 136.625 96.8158C136.475 96.9573 136.304 97.028 136.113 97.028C135.921 97.028 135.747 96.9573 135.589 96.8158C135.439 96.666 135.364 96.4871 135.364 96.2791C135.364 96.071 135.435 95.8963 135.576 95.7548C135.726 95.605 135.905 95.5301 136.113 95.5301ZM143.007 97.4774C142.832 96.4039 142.058 95.0683 140.61 93.9699C139.886 93.4206 139.175 93.0711 138.488 92.9338V92.4096C139.874 92.0975 141.247 91.1239 142.146 89.8507C142.595 89.2141 142.882 88.565 143.007 87.891H143.531C143.743 89.1642 144.742 90.5497 146.053 91.4859C146.702 91.9477 147.376 92.2598 148.075 92.4096V92.9338C146.664 93.2209 145.054 94.4442 144.268 95.7049C143.868 96.3415 143.619 96.9282 143.531 97.4774H143.007ZM143.182 97.1778H143.356C143.481 95.8796 143.868 94.4692 144.305 93.7327C145.141 93.2584 146.652 92.8589 147.75 92.784V92.6093C146.652 92.5219 145.079 92.0975 144.305 91.6357C143.868 90.8867 143.481 89.5137 143.356 88.2155H143.182C143.082 89.3889 142.707 90.7994 142.233 91.6357C141.434 92.0975 139.936 92.5219 138.788 92.6093V92.784C139.924 92.8714 141.384 93.2584 142.233 93.7327C142.695 94.544 143.082 95.9795 143.182 97.1778ZM207.076 97.4774C206.901 96.4039 206.127 95.0683 204.68 93.9699C203.956 93.4206 203.244 93.0711 202.558 92.9338V92.4096C203.943 92.0975 205.316 91.1239 206.215 89.8507C206.664 89.2141 206.951 88.565 207.076 87.891H207.6C207.813 89.1642 208.811 90.5497 210.122 91.4859C210.771 91.9477 211.445 92.2598 212.144 92.4096V92.9338C210.733 93.2209 209.123 94.4442 208.337 95.7049C207.937 96.3415 207.688 96.9282 207.6 97.4774H207.076ZM207.251 97.1778H207.426C207.55 95.8796 207.937 94.4692 208.374 93.7327C209.211 93.2584 210.721 92.8589 211.819 92.784V92.6093C210.721 92.5219 209.148 92.0975 208.374 91.6357C207.937 90.8867 207.55 89.5137 207.426 88.2155H207.251C207.151 89.3889 206.777 90.7994 206.302 91.6357C205.503 92.0975 204.005 92.5219 202.857 92.6093V92.784C203.993 92.8714 205.453 93.2584 206.302 93.7327C206.764 94.544 207.151 95.9795 207.251 97.1778ZM214.517 95.5301C214.725 95.5301 214.9 95.605 215.041 95.7548C215.191 95.8963 215.266 96.071 215.266 96.2791C215.266 96.4871 215.187 96.666 215.029 96.8158C214.879 96.9573 214.708 97.028 214.517 97.028C214.326 97.028 214.151 96.9573 213.993 96.8158C213.843 96.666 213.768 96.4871 213.768 96.2791C213.768 96.071 213.839 95.8963 213.98 95.7548C214.13 95.605 214.309 95.5301 214.517 95.5301ZM219.402 89.9755L221.174 89.3764L221.411 90.1004L219.651 90.6995L220.762 92.1849L220.151 92.6592L219.027 91.1239L217.941 92.6592L217.317 92.1849L218.403 90.6995L216.643 90.1004L216.88 89.3764L218.653 89.9755V88.1157H219.402V89.9755Z" fill="black"/>
<path d="M153.123 88.1157H156.518C156.81 88.1157 157.117 88.149 157.442 88.2155C157.766 88.2821 158.087 88.3903 158.403 88.5401C158.728 88.6815 159.036 88.8688 159.327 89.1018C159.626 89.3348 159.888 89.6177 160.113 89.9506C160.338 90.2751 160.517 90.6537 160.65 91.0865C160.783 91.5109 160.85 91.9935 160.85 92.5344C160.85 93.0753 160.783 93.5621 160.65 93.9948C160.517 94.4192 160.338 94.7979 160.113 95.1307C159.888 95.4553 159.626 95.734 159.327 95.967C159.036 96.2 158.728 96.3914 158.403 96.5412C158.087 96.6827 157.766 96.7867 157.442 96.8533C157.117 96.9198 156.81 96.9531 156.518 96.9531H153.123V88.1157ZM154.172 95.9795H156.169C156.676 95.9795 157.147 95.9129 157.579 95.7798C158.012 95.6466 158.386 95.4428 158.703 95.1682C159.019 94.8852 159.269 94.5274 159.452 94.0947C159.635 93.662 159.726 93.1419 159.726 92.5344C159.726 91.9269 159.635 91.4068 159.452 90.9741C159.269 90.5414 159.019 90.1877 158.703 89.9131C158.386 89.6302 158.012 89.4222 157.579 89.289C157.147 89.1559 156.676 89.0893 156.169 89.0893H154.172V95.9795ZM162.537 88.1157H168.092V89.0893H163.586V91.8604H167.792V92.834H163.586V95.9795H168.317V96.9531H162.537V88.1157ZM174.131 89.676C173.956 89.393 173.723 89.1892 173.432 89.0643C173.14 88.9312 172.837 88.8646 172.52 88.8646C172.287 88.8646 172.058 88.8937 171.834 88.952C171.609 89.0102 171.405 89.0976 171.222 89.2141C171.047 89.3306 170.906 89.4846 170.798 89.676C170.69 89.8674 170.636 90.092 170.636 90.35C170.636 90.5497 170.665 90.7286 170.723 90.8867C170.789 91.0365 170.893 91.1738 171.035 91.2987C171.176 91.4235 171.368 91.54 171.609 91.6482C171.85 91.7563 172.146 91.8645 172.495 91.9727C172.837 92.0809 173.165 92.1974 173.481 92.3222C173.806 92.447 174.089 92.6051 174.33 92.7965C174.58 92.9879 174.775 93.2292 174.917 93.5205C175.067 93.8034 175.142 94.1613 175.142 94.594C175.142 95.035 175.054 95.4178 174.879 95.7423C174.705 96.0669 174.472 96.3373 174.18 96.5537C173.898 96.7617 173.569 96.9157 173.194 97.0155C172.82 97.1237 172.433 97.1778 172.034 97.1778C171.776 97.1778 171.518 97.1528 171.26 97.1029C171.002 97.0613 170.752 96.9947 170.511 96.9032C170.278 96.8033 170.057 96.6785 169.849 96.5287C169.641 96.3706 169.462 96.1792 169.312 95.9545L170.211 95.2181C170.403 95.5426 170.669 95.7881 171.01 95.9545C171.351 96.121 171.713 96.2042 172.096 96.2042C172.321 96.2042 172.545 96.1709 172.77 96.1043C173.003 96.0378 173.211 95.9421 173.394 95.8172C173.577 95.6841 173.727 95.5218 173.843 95.3304C173.96 95.139 174.018 94.9185 174.018 94.6689C174.018 94.3943 173.972 94.1737 173.881 94.0073C173.789 93.8326 173.648 93.6828 173.457 93.5579C173.265 93.4331 173.024 93.3208 172.733 93.2209C172.441 93.1211 172.1 93.0046 171.709 92.8714C171.393 92.7716 171.102 92.6592 170.835 92.5344C170.569 92.4013 170.336 92.2431 170.136 92.0601C169.945 91.8687 169.791 91.644 169.674 91.386C169.566 91.1197 169.512 90.8035 169.512 90.4374C169.512 90.013 169.595 89.6427 169.762 89.3265C169.928 89.0102 170.153 88.7481 170.436 88.5401C170.719 88.3237 171.039 88.1614 171.397 88.0533C171.755 87.9451 172.129 87.891 172.52 87.891C173.02 87.891 173.473 87.9701 173.881 88.1282C174.297 88.2779 174.667 88.5442 174.992 88.927L174.131 89.676ZM176.872 88.1157H177.921V96.9531H176.872V88.1157ZM187.629 96.354C187.122 96.6369 186.585 96.8449 186.019 96.9781C185.461 97.1112 184.896 97.1778 184.321 97.1778C183.631 97.1778 182.998 97.0655 182.424 96.8408C181.85 96.6161 181.351 96.2999 180.926 95.8921C180.51 95.4844 180.186 94.9976 179.953 94.4317C179.72 93.8575 179.603 93.2251 179.603 92.5344C179.603 91.8354 179.724 91.203 179.965 90.6371C180.215 90.0629 180.556 89.5761 180.989 89.1767C181.421 88.7689 181.925 88.4527 182.499 88.228C183.073 88.0033 183.693 87.891 184.359 87.891C184.941 87.891 185.499 87.9784 186.032 88.1531C186.572 88.3279 187.055 88.6275 187.479 89.0518L186.693 89.8757C186.393 89.5511 186.027 89.3015 185.595 89.1267C185.17 88.952 184.733 88.8646 184.284 88.8646C183.776 88.8646 183.306 88.9562 182.873 89.1392C182.441 89.3223 182.062 89.5761 181.738 89.9006C181.421 90.2252 181.172 90.6121 180.989 91.0615C180.814 91.5109 180.727 92.0018 180.727 92.5344C180.727 93.0587 180.814 93.5455 180.989 93.9948C181.172 94.4442 181.421 94.8353 181.738 95.1682C182.062 95.4927 182.449 95.7465 182.898 95.9296C183.348 96.1127 183.843 96.2042 184.384 96.2042C184.742 96.2042 185.116 96.1626 185.507 96.0794C185.898 95.9878 186.256 95.8588 186.581 95.6924V92.9838H184.546V92.0101H187.629V96.354ZM189.83 88.1157H191.153L196.271 95.4553H196.296V88.1157H197.344V96.9531H196.021L190.904 89.6136H190.879V96.9531H189.83V88.1157Z" fill="#FFAA52"/>
</svg>
