<svg width="199" height="64" viewBox="0 0 199 64" fill="none" xmlns="http://www.w3.org/2000/svg">
<path d="M28.371 36.6415C27.5816 36.6415 26.9736 36.4282 26.547 36.0015C26.1203 35.5749 25.907 34.9722 25.907 34.1935V26.3055H27.043V34.1295C27.043 34.6202 27.1656 34.9989 27.411 35.2655C27.667 35.5322 28.0296 35.6655 28.499 35.6655C29.0003 35.6655 29.4163 35.5215 29.747 35.2335L30.147 36.0495C29.923 36.2522 29.651 36.4015 29.331 36.4975C29.0216 36.5935 28.7016 36.6415 28.371 36.6415ZM24.403 29.1055V28.1615H29.603V29.1055H24.403ZM37.479 36.5615V34.7055L37.431 34.4015V31.2975C37.431 30.5829 37.2283 30.0335 36.823 29.6495C36.4283 29.2655 35.8363 29.0735 35.047 29.0735C34.503 29.0735 33.9856 29.1642 33.495 29.3455C33.0043 29.5269 32.5883 29.7669 32.247 30.0655L31.735 29.2175C32.1616 28.8549 32.6736 28.5775 33.271 28.3855C33.8683 28.1829 34.4976 28.0815 35.159 28.0815C36.247 28.0815 37.0843 28.3535 37.671 28.8975C38.2683 29.4309 38.567 30.2469 38.567 31.3455V36.5615H37.479ZM34.583 36.6415C33.9536 36.6415 33.4043 36.5402 32.935 36.3375C32.4763 36.1242 32.1243 35.8362 31.879 35.4735C31.6336 35.1002 31.511 34.6735 31.511 34.1935C31.511 33.7562 31.6123 33.3615 31.815 33.0095C32.0283 32.6469 32.3696 32.3589 32.839 32.1455C33.319 31.9215 33.959 31.8095 34.759 31.8095H37.655V32.6575H34.791C33.9803 32.6575 33.415 32.8015 33.095 33.0895C32.7856 33.3775 32.631 33.7349 32.631 34.1615C32.631 34.6415 32.8176 35.0255 33.191 35.3135C33.5643 35.6015 34.087 35.7455 34.759 35.7455C35.399 35.7455 35.9483 35.6015 36.407 35.3135C36.8763 35.0149 37.2176 34.5882 37.431 34.0335L37.687 34.8175C37.4736 35.3722 37.1003 35.8149 36.567 36.1455C36.0443 36.4762 35.383 36.6415 34.583 36.6415ZM43.9085 36.6415C43.2151 36.6415 42.5591 36.5455 41.9405 36.3535C41.3218 36.1509 40.8365 35.9002 40.4845 35.6015L40.9965 34.7055C41.3378 34.9615 41.7751 35.1855 42.3085 35.3775C42.8418 35.5589 43.4018 35.6495 43.9885 35.6495C44.7885 35.6495 45.3645 35.5269 45.7165 35.2815C46.0685 35.0255 46.2445 34.6895 46.2445 34.2735C46.2445 33.9642 46.1431 33.7242 45.9405 33.5535C45.7485 33.3722 45.4925 33.2389 45.1725 33.1535C44.8525 33.0575 44.4951 32.9775 44.1005 32.9135C43.7058 32.8495 43.3111 32.7749 42.9165 32.6895C42.5325 32.6042 42.1805 32.4815 41.8605 32.3215C41.5405 32.1509 41.2791 31.9215 41.0765 31.6335C40.8845 31.3455 40.7885 30.9615 40.7885 30.4815C40.7885 30.0229 40.9165 29.6122 41.1725 29.2495C41.4285 28.8869 41.8018 28.6042 42.2925 28.4015C42.7938 28.1882 43.4018 28.0815 44.1165 28.0815C44.6605 28.0815 45.2045 28.1562 45.7485 28.3055C46.2925 28.4442 46.7405 28.6309 47.0925 28.8655L46.5965 29.7775C46.2231 29.5215 45.8231 29.3402 45.3965 29.2335C44.9698 29.1162 44.5431 29.0575 44.1165 29.0575C43.3591 29.0575 42.7991 29.1909 42.4365 29.4575C42.0845 29.7135 41.9085 30.0442 41.9085 30.4495C41.9085 30.7695 42.0045 31.0202 42.1965 31.2015C42.3991 31.3829 42.6605 31.5269 42.9805 31.6335C43.3111 31.7295 43.6685 31.8095 44.0525 31.8735C44.4471 31.9375 44.8365 32.0175 45.2205 32.1135C45.6151 32.1989 45.9725 32.3215 46.2925 32.4815C46.6231 32.6309 46.8845 32.8495 47.0765 33.1375C47.2791 33.4149 47.3805 33.7829 47.3805 34.2415C47.3805 34.7322 47.2418 35.1589 46.9645 35.5215C46.6978 35.8735 46.3031 36.1509 45.7805 36.3535C45.2685 36.5455 44.6445 36.6415 43.9085 36.6415ZM53.753 28.0815C54.4356 28.0815 55.033 28.2149 55.545 28.4815C56.0676 28.7375 56.473 29.1322 56.761 29.6655C57.0596 30.1989 57.209 30.8709 57.209 31.6815V36.5615H56.073V31.7935C56.073 30.9082 55.849 30.2415 55.401 29.7935C54.9636 29.3349 54.345 29.1055 53.545 29.1055C52.9476 29.1055 52.425 29.2282 51.977 29.4735C51.5396 29.7082 51.1983 30.0549 50.953 30.5135C50.7183 30.9615 50.601 31.5055 50.601 32.1455V36.5615H49.465V28.1615H50.553V30.4655L50.377 30.0335C50.6436 29.4255 51.0703 28.9509 51.657 28.6095C52.2436 28.2575 52.9423 28.0815 53.753 28.0815ZM63.8455 36.6415C62.9708 36.6415 62.2028 36.4602 61.5415 36.0975C60.8801 35.7242 60.3628 35.2175 59.9895 34.5775C59.6161 33.9269 59.4295 33.1855 59.4295 32.3535C59.4295 31.5215 59.6055 30.7855 59.9575 30.1455C60.3201 29.5055 60.8108 29.0042 61.4295 28.6415C62.0588 28.2682 62.7628 28.0815 63.5415 28.0815C64.3308 28.0815 65.0295 28.2629 65.6375 28.6255C66.2561 28.9775 66.7415 29.4789 67.0935 30.1295C67.4455 30.7695 67.6215 31.5109 67.6215 32.3535C67.6215 32.4069 67.6161 32.4655 67.6055 32.5295C67.6055 32.5829 67.6055 32.6415 67.6055 32.7055H60.2935V31.8575H66.9975L66.5495 32.1935C66.5495 31.5855 66.4161 31.0469 66.1495 30.5775C65.8935 30.0975 65.5415 29.7242 65.0935 29.4575C64.6455 29.1909 64.1281 29.0575 63.5415 29.0575C62.9655 29.0575 62.4481 29.1909 61.9895 29.4575C61.5308 29.7242 61.1735 30.0975 60.9175 30.5775C60.6615 31.0575 60.5335 31.6069 60.5335 32.2255V32.4015C60.5335 33.0415 60.6721 33.6069 60.9495 34.0975C61.2375 34.5775 61.6321 34.9562 62.1335 35.2335C62.6455 35.5002 63.2268 35.6335 63.8775 35.6335C64.3895 35.6335 64.8641 35.5429 65.3015 35.3615C65.7495 35.1802 66.1335 34.9029 66.4535 34.5295L67.0935 35.2655C66.7201 35.7135 66.2508 36.0549 65.6855 36.2895C65.1308 36.5242 64.5175 36.6415 63.8455 36.6415ZM73.5017 36.6415C72.6271 36.6415 71.8591 36.4602 71.1977 36.0975C70.5364 35.7242 70.0191 35.2175 69.6457 34.5775C69.2724 33.9269 69.0857 33.1855 69.0857 32.3535C69.0857 31.5215 69.2617 30.7855 69.6137 30.1455C69.9764 29.5055 70.4671 29.0042 71.0857 28.6415C71.7151 28.2682 72.4191 28.0815 73.1977 28.0815C73.9871 28.0815 74.6857 28.2629 75.2937 28.6255C75.9124 28.9775 76.3977 29.4789 76.7497 30.1295C77.1017 30.7695 77.2777 31.5109 77.2777 32.3535C77.2777 32.4069 77.2724 32.4655 77.2617 32.5295C77.2617 32.5829 77.2617 32.6415 77.2617 32.7055H69.9497V31.8575H76.6537L76.2057 32.1935C76.2057 31.5855 76.0724 31.0469 75.8057 30.5775C75.5497 30.0975 75.1977 29.7242 74.7497 29.4575C74.3017 29.1909 73.7844 29.0575 73.1977 29.0575C72.6217 29.0575 72.1044 29.1909 71.6457 29.4575C71.1871 29.7242 70.8297 30.0975 70.5737 30.5775C70.3177 31.0575 70.1897 31.6069 70.1897 32.2255V32.4015C70.1897 33.0415 70.3284 33.6069 70.6057 34.0975C70.8937 34.5775 71.2884 34.9562 71.7897 35.2335C72.3017 35.5002 72.8831 35.6335 73.5337 35.6335C74.0457 35.6335 74.5204 35.5429 74.9577 35.3615C75.4057 35.1802 75.7897 34.9029 76.1097 34.5295L76.7497 35.2655C76.3764 35.7135 75.9071 36.0549 75.3417 36.2895C74.7871 36.5242 74.1737 36.6415 73.5017 36.6415ZM90.086 28.0815C90.7686 28.0815 91.3606 28.2149 91.862 28.4815C92.374 28.7375 92.7686 29.1322 93.046 29.6655C93.334 30.1989 93.478 30.8709 93.478 31.6815V36.5615H92.342V31.7935C92.342 30.9082 92.1286 30.2415 91.702 29.7935C91.286 29.3349 90.694 29.1055 89.926 29.1055C89.35 29.1055 88.8486 29.2282 88.422 29.4735C88.006 29.7082 87.6806 30.0549 87.446 30.5135C87.222 30.9615 87.11 31.5055 87.11 32.1455V36.5615H85.974V31.7935C85.974 30.9082 85.7606 30.2415 85.334 29.7935C84.9073 29.3349 84.31 29.1055 83.542 29.1055C82.9766 29.1055 82.4806 29.2282 82.054 29.4735C81.6273 29.7082 81.2966 30.0549 81.062 30.5135C80.838 30.9615 80.726 31.5055 80.726 32.1455V36.5615H79.59V28.1615H80.678V30.4335L80.502 30.0335C80.758 29.4255 81.1686 28.9509 81.734 28.6095C82.31 28.2575 82.9873 28.0815 83.766 28.0815C84.5873 28.0815 85.286 28.2895 85.862 28.7055C86.438 29.1109 86.8113 29.7242 86.982 30.5455L86.534 30.3695C86.7793 29.6869 87.2113 29.1375 87.83 28.7215C88.4593 28.2949 89.2113 28.0815 90.086 28.0815ZM106.664 22.8125H108.037L104.67 32.062C104.503 32.5259 104.357 32.9959 104.234 33.4722C104.116 33.9422 104.057 34.3721 104.057 34.7617C104.057 35.0153 104.085 35.2472 104.141 35.4575C104.203 35.6678 104.292 35.8472 104.41 35.9956C104.533 36.144 104.685 36.2616 104.864 36.3481C105.05 36.4285 105.266 36.4688 105.514 36.4688C105.934 36.4688 106.367 36.3481 106.813 36.1069C107.264 35.8595 107.709 35.5256 108.149 35.105C108.594 34.6782 109.03 34.1772 109.457 33.6021C109.89 33.0269 110.295 32.4084 110.672 31.7466C111.055 31.0848 111.408 30.3952 111.73 29.6777C112.057 28.9541 112.339 28.2367 112.574 27.5254C112.809 26.8079 112.991 26.109 113.121 25.4287C113.251 24.7484 113.316 24.1175 113.316 23.5361C113.316 23.1279 113.288 22.7847 113.233 22.5063C113.177 22.2218 113.112 21.9837 113.038 21.792C112.97 21.6003 112.908 21.4456 112.852 21.3281C112.797 21.2106 112.769 21.1147 112.769 21.0405C112.769 20.9601 112.806 20.8735 112.88 20.7808C112.96 20.688 113.075 20.6416 113.223 20.6416C113.366 20.6416 113.486 20.7004 113.585 20.8179C113.684 20.9292 113.761 21.0807 113.817 21.2725C113.879 21.458 113.922 21.6714 113.947 21.9126C113.972 22.1538 113.984 22.4043 113.984 22.6641C113.984 23.3011 113.916 23.9938 113.78 24.7422C113.65 25.4844 113.464 26.2513 113.223 27.043C112.982 27.8285 112.691 28.6201 112.351 29.418C112.017 30.2096 111.646 30.9704 111.238 31.7002C110.83 32.43 110.387 33.1134 109.911 33.7505C109.441 34.3875 108.95 34.9411 108.436 35.4111C107.929 35.8812 107.406 36.2523 106.868 36.5244C106.336 36.7904 105.801 36.9233 105.263 36.9233C104.861 36.9233 104.512 36.846 104.215 36.6914C103.918 36.543 103.671 36.342 103.473 36.0884C103.281 35.8286 103.139 35.5317 103.046 35.1978C102.953 34.8576 102.907 34.4989 102.907 34.1216C102.907 33.7876 102.944 33.4474 103.018 33.1011C102.684 33.6639 102.335 34.1803 101.97 34.6504C101.605 35.1143 101.231 35.5163 100.847 35.8564C100.464 36.1904 100.074 36.4502 99.6783 36.6357C99.2825 36.8275 98.8867 36.9233 98.4908 36.9233C98.1878 36.9233 97.8909 36.8646 97.6002 36.7471C97.3095 36.6357 97.0498 36.4749 96.8209 36.2646C96.5983 36.0482 96.4189 35.7884 96.2828 35.4854C96.1468 35.1761 96.0787 34.8267 96.0787 34.437C96.0787 34.0968 96.1313 33.7103 96.2365 33.2773C96.3416 32.8382 96.4777 32.3713 96.6447 31.8765C96.8178 31.3817 97.0127 30.8683 97.2291 30.3364C97.4518 29.7983 97.6775 29.2572 97.9064 28.7129C98.1414 28.1624 98.3671 27.6213 98.5836 27.0894C98.8063 26.5575 99.0011 26.0472 99.1681 25.5586C99.3413 25.07 99.4804 24.6154 99.5856 24.1948C99.6907 23.7681 99.7433 23.3908 99.7433 23.063C99.7433 22.9146 99.7278 22.7754 99.6969 22.6455C99.6722 22.5094 99.6289 22.395 99.567 22.3022C99.5052 22.2033 99.4186 22.126 99.3073 22.0703C99.2021 22.0146 99.0722 21.9868 98.9176 21.9868C98.6517 21.9868 98.3671 22.0765 98.0641 22.2559C97.7672 22.429 97.4611 22.6981 97.1456 23.063C96.8302 23.4279 96.5086 23.8918 96.1808 24.4546C95.8592 25.0112 95.5406 25.6699 95.2252 26.4307L94.9747 26.2637C95.3273 25.404 95.6767 24.6803 96.0231 24.0928C96.3756 23.499 96.7312 23.0228 97.09 22.6641C97.4487 22.2992 97.8105 22.0363 98.1754 21.8755C98.5403 21.7147 98.9114 21.6343 99.2887 21.6343C99.8515 21.6343 100.288 21.7858 100.597 22.0889C100.912 22.3919 101.07 22.8156 101.07 23.3599C101.07 23.6815 101.017 24.0618 100.912 24.501C100.807 24.9339 100.665 25.4071 100.485 25.9204C100.312 26.4276 100.114 26.9626 99.8917 27.5254C99.6691 28.082 99.4402 28.6479 99.2052 29.2231C98.9764 29.7922 98.7506 30.355 98.528 30.9116C98.3053 31.4683 98.1043 31.9971 97.9249 32.498C97.7517 32.9928 97.6126 33.4505 97.5074 33.8711C97.4023 34.2917 97.3497 34.6504 97.3497 34.9473C97.3497 35.1699 97.3807 35.374 97.4425 35.5596C97.5105 35.7451 97.6033 35.9059 97.7208 36.042C97.8383 36.1781 97.9806 36.2832 98.1476 36.3574C98.3146 36.4316 98.5001 36.4688 98.7042 36.4688C99.1186 36.4688 99.5516 36.3172 100.003 36.0142C100.455 35.7111 100.9 35.2998 101.339 34.7803C101.778 34.2607 102.205 33.6577 102.619 32.9712C103.034 32.2847 103.414 31.5579 103.76 30.791L106.664 22.8125ZM117.609 36.6415C116.809 36.6415 116.089 36.4602 115.449 36.0975C114.819 35.7349 114.323 35.2335 113.961 34.5935C113.598 33.9429 113.417 33.1962 113.417 32.3535C113.417 31.5002 113.598 30.7535 113.961 30.1135C114.323 29.4735 114.819 28.9775 115.449 28.6255C116.089 28.2629 116.809 28.0815 117.609 28.0815C118.345 28.0815 119.001 28.2469 119.577 28.5775C120.163 28.9082 120.627 29.3935 120.969 30.0335C121.321 30.6629 121.497 31.4362 121.497 32.3535C121.497 33.2602 121.326 34.0335 120.985 34.6735C120.643 35.3135 120.179 35.8042 119.593 36.1455C119.017 36.4762 118.355 36.6415 117.609 36.6415ZM117.689 35.6335C118.286 35.6335 118.819 35.5002 119.289 35.2335C119.769 34.9562 120.142 34.5722 120.409 34.0815C120.686 33.5802 120.825 33.0042 120.825 32.3535C120.825 31.6922 120.686 31.1162 120.409 30.6255C120.142 30.1349 119.769 29.7562 119.289 29.4895C118.819 29.2122 118.286 29.0735 117.689 29.0735C117.102 29.0735 116.574 29.2122 116.105 29.4895C115.635 29.7562 115.262 30.1349 114.985 30.6255C114.707 31.1162 114.569 31.6922 114.569 32.3535C114.569 33.0042 114.707 33.5802 114.985 34.0815C115.262 34.5722 115.635 34.9562 116.105 35.2335C116.574 35.5002 117.102 35.6335 117.689 35.6335ZM120.857 36.5615V34.0335L120.969 32.3375L120.809 30.6415V24.6895H121.945V36.5615H120.857ZM128.677 36.6415C127.802 36.6415 127.034 36.4602 126.373 36.0975C125.711 35.7242 125.194 35.2175 124.821 34.5775C124.447 33.9269 124.261 33.1855 124.261 32.3535C124.261 31.5215 124.437 30.7855 124.789 30.1455C125.151 29.5055 125.642 29.0042 126.261 28.6415C126.89 28.2682 127.594 28.0815 128.373 28.0815C129.162 28.0815 129.861 28.2629 130.469 28.6255C131.087 28.9775 131.573 29.4789 131.925 30.1295C132.277 30.7695 132.453 31.5109 132.453 32.3535C132.453 32.4069 132.447 32.4655 132.437 32.5295C132.437 32.5829 132.437 32.6415 132.437 32.7055H125.125V31.8575H131.829L131.381 32.1935C131.381 31.5855 131.247 31.0469 130.981 30.5775C130.725 30.0975 130.373 29.7242 129.925 29.4575C129.477 29.1909 128.959 29.0575 128.373 29.0575C127.797 29.0575 127.279 29.1909 126.821 29.4575C126.362 29.7242 126.005 30.0975 125.749 30.5775C125.493 31.0575 125.365 31.6069 125.365 32.2255V32.4015C125.365 33.0415 125.503 33.6069 125.781 34.0975C126.069 34.5775 126.463 34.9562 126.965 35.2335C127.477 35.5002 128.058 35.6335 128.709 35.6335C129.221 35.6335 129.695 35.5429 130.133 35.3615C130.581 35.1802 130.965 34.9029 131.285 34.5295L131.925 35.2655C131.551 35.7135 131.082 36.0549 130.517 36.2895C129.962 36.5242 129.349 36.6415 128.677 36.6415ZM137.021 36.6415C136.327 36.6415 135.671 36.5455 135.053 36.3535C134.434 36.1509 133.949 35.9002 133.597 35.6015L134.109 34.7055C134.45 34.9615 134.887 35.1855 135.421 35.3775C135.954 35.5589 136.514 35.6495 137.101 35.6495C137.901 35.6495 138.477 35.5269 138.829 35.2815C139.181 35.0255 139.357 34.6895 139.357 34.2735C139.357 33.9642 139.255 33.7242 139.053 33.5535C138.861 33.3722 138.605 33.2389 138.285 33.1535C137.965 33.0575 137.607 32.9775 137.213 32.9135C136.818 32.8495 136.423 32.7749 136.029 32.6895C135.645 32.6042 135.293 32.4815 134.973 32.3215C134.653 32.1509 134.391 31.9215 134.189 31.6335C133.997 31.3455 133.901 30.9615 133.901 30.4815C133.901 30.0229 134.029 29.6122 134.285 29.2495C134.541 28.8869 134.914 28.6042 135.405 28.4015C135.906 28.1882 136.514 28.0815 137.229 28.0815C137.773 28.0815 138.317 28.1562 138.861 28.3055C139.405 28.4442 139.853 28.6309 140.205 28.8655L139.709 29.7775C139.335 29.5215 138.935 29.3402 138.509 29.2335C138.082 29.1162 137.655 29.0575 137.229 29.0575C136.471 29.0575 135.911 29.1909 135.549 29.4575C135.197 29.7135 135.021 30.0442 135.021 30.4495C135.021 30.7695 135.117 31.0202 135.309 31.2015C135.511 31.3829 135.773 31.5269 136.093 31.6335C136.423 31.7295 136.781 31.8095 137.165 31.8735C137.559 31.9375 137.949 32.0175 138.333 32.1135C138.727 32.1989 139.085 32.3215 139.405 32.4815C139.735 32.6309 139.997 32.8495 140.189 33.1375C140.391 33.4149 140.493 33.7829 140.493 34.2415C140.493 34.7322 140.354 35.1589 140.077 35.5215C139.81 35.8735 139.415 36.1509 138.893 36.3535C138.381 36.5455 137.757 36.6415 137.021 36.6415ZM142.577 36.5615V28.1615H143.713V36.5615H142.577ZM143.153 26.3055C142.919 26.3055 142.721 26.2255 142.561 26.0655C142.401 25.9055 142.321 25.7135 142.321 25.4895C142.321 25.2655 142.401 25.0789 142.561 24.9295C142.721 24.7695 142.919 24.6895 143.153 24.6895C143.388 24.6895 143.585 24.7642 143.745 24.9135C143.905 25.0629 143.985 25.2495 143.985 25.4735C143.985 25.7082 143.905 25.9055 143.745 26.0655C143.596 26.2255 143.399 26.3055 143.153 26.3055ZM150.458 39.7455C149.69 39.7455 148.954 39.6335 148.25 39.4095C147.546 39.1855 146.975 38.8655 146.538 38.4495L147.114 37.5855C147.509 37.9375 147.994 38.2149 148.57 38.4175C149.157 38.6309 149.775 38.7375 150.426 38.7375C151.493 38.7375 152.277 38.4869 152.778 37.9855C153.279 37.4949 153.53 36.7269 153.53 35.6815V33.5855L153.69 32.1455L153.578 30.7055V28.1615H154.666V35.5375C154.666 36.9882 154.309 38.0495 153.594 38.7215C152.89 39.4042 151.845 39.7455 150.458 39.7455ZM150.25 36.2415C149.45 36.2415 148.73 36.0709 148.09 35.7295C147.45 35.3775 146.943 34.8922 146.57 34.2735C146.207 33.6549 146.026 32.9455 146.026 32.1455C146.026 31.3455 146.207 30.6415 146.57 30.0335C146.943 29.4149 147.45 28.9349 148.09 28.5935C148.73 28.2522 149.45 28.0815 150.25 28.0815C150.997 28.0815 151.669 28.2362 152.266 28.5455C152.863 28.8549 153.338 29.3135 153.69 29.9215C154.042 30.5295 154.218 31.2709 154.218 32.1455C154.218 33.0202 154.042 33.7615 153.69 34.3695C153.338 34.9775 152.863 35.4415 152.266 35.7615C151.669 36.0815 150.997 36.2415 150.25 36.2415ZM150.362 35.2335C150.981 35.2335 151.53 35.1055 152.01 34.8495C152.49 34.5829 152.869 34.2202 153.146 33.7615C153.423 33.2922 153.562 32.7535 153.562 32.1455C153.562 31.5375 153.423 31.0042 153.146 30.5455C152.869 30.0869 152.49 29.7295 152.01 29.4735C151.53 29.2069 150.981 29.0735 150.362 29.0735C149.754 29.0735 149.205 29.2069 148.714 29.4735C148.234 29.7295 147.855 30.0869 147.578 30.5455C147.311 31.0042 147.178 31.5375 147.178 32.1455C147.178 32.7535 147.311 33.2922 147.578 33.7615C147.855 34.2202 148.234 34.5829 148.714 34.8495C149.205 35.1055 149.754 35.2335 150.362 35.2335ZM162.115 28.0815C162.798 28.0815 163.395 28.2149 163.907 28.4815C164.43 28.7375 164.835 29.1322 165.123 29.6655C165.422 30.1989 165.571 30.8709 165.571 31.6815V36.5615H164.435V31.7935C164.435 30.9082 164.211 30.2415 163.763 29.7935C163.326 29.3349 162.707 29.1055 161.907 29.1055C161.31 29.1055 160.787 29.2282 160.339 29.4735C159.902 29.7082 159.561 30.0549 159.315 30.5135C159.081 30.9615 158.963 31.5055 158.963 32.1455V36.5615H157.827V28.1615H158.915V30.4655L158.739 30.0335C159.006 29.4255 159.433 28.9509 160.019 28.6095C160.606 28.2575 161.305 28.0815 162.115 28.0815ZM170.896 36.6415C170.202 36.6415 169.546 36.5455 168.928 36.3535C168.309 36.1509 167.824 35.9002 167.472 35.6015L167.984 34.7055C168.325 34.9615 168.762 35.1855 169.296 35.3775C169.829 35.5589 170.389 35.6495 170.976 35.6495C171.776 35.6495 172.352 35.5269 172.704 35.2815C173.056 35.0255 173.232 34.6895 173.232 34.2735C173.232 33.9642 173.13 33.7242 172.928 33.5535C172.736 33.3722 172.48 33.2389 172.16 33.1535C171.84 33.0575 171.482 32.9775 171.088 32.9135C170.693 32.8495 170.298 32.7749 169.904 32.6895C169.52 32.6042 169.168 32.4815 168.848 32.3215C168.528 32.1509 168.266 31.9215 168.064 31.6335C167.872 31.3455 167.776 30.9615 167.776 30.4815C167.776 30.0229 167.904 29.6122 168.16 29.2495C168.416 28.8869 168.789 28.6042 169.28 28.4015C169.781 28.1882 170.389 28.0815 171.104 28.0815C171.648 28.0815 172.192 28.1562 172.736 28.3055C173.28 28.4442 173.728 28.6309 174.08 28.8655L173.584 29.7775C173.21 29.5215 172.81 29.3402 172.384 29.2335C171.957 29.1162 171.53 29.0575 171.104 29.0575C170.346 29.0575 169.786 29.1909 169.424 29.4575C169.072 29.7135 168.896 30.0442 168.896 30.4495C168.896 30.7695 168.992 31.0202 169.184 31.2015C169.386 31.3829 169.648 31.5269 169.968 31.6335C170.298 31.7295 170.656 31.8095 171.04 31.8735C171.434 31.9375 171.824 32.0175 172.208 32.1135C172.602 32.1989 172.96 32.3215 173.28 32.4815C173.61 32.6309 173.872 32.8495 174.064 33.1375C174.266 33.4149 174.368 33.7829 174.368 34.2415C174.368 34.7322 174.229 35.1589 173.952 35.5215C173.685 35.8735 173.29 36.1509 172.768 36.3535C172.256 36.5455 171.632 36.6415 170.896 36.6415Z" fill="#FFFFF0"/>
<rect x="9.27407" y="7.26821" width="180.955" height="49.1234" stroke="#FFFFF0" stroke-width="0.501259"/>
<path d="M20.1804 12.4113C20.1027 12.3662 20.0173 12.323 19.9291 12.2808C20.0173 12.2386 20.1027 12.1954 20.1804 12.1503C20.6204 11.9002 21.0066 11.5655 21.3167 11.1655C21.6268 10.7655 21.8547 10.3081 21.9873 9.81963C22.1199 9.33119 22.1546 8.82134 22.0894 8.31943C22.0241 7.81753 21.8603 7.33349 21.6072 6.89517C21.3541 6.45686 21.0168 6.07293 20.6148 5.76549C20.2127 5.45806 19.7539 5.23318 19.2645 5.10381C18.7752 4.97445 18.2652 4.94315 17.7637 5.01171C17.2622 5.08028 16.7793 5.24735 16.3427 5.50332C16.265 5.54842 16.1844 5.59927 16.1047 5.65587C16.1124 5.55993 16.1172 5.46399 16.1172 5.36804C16.1172 4.3502 15.7129 3.37405 14.9931 2.65433C14.2734 1.93461 13.2973 1.53027 12.2794 1.53027C11.2616 1.53027 10.2854 1.93461 9.56572 2.65433C8.846 3.37405 8.44167 4.3502 8.44167 5.36804C8.44167 5.45823 8.44167 5.55417 8.45414 5.65587C8.37451 5.60119 8.29391 5.54842 8.2162 5.50332C7.77957 5.24735 7.29663 5.08028 6.79517 5.01171C6.29371 4.94315 5.78364 4.97445 5.29433 5.10381C4.80502 5.23318 4.34612 5.45806 3.94407 5.76549C3.54202 6.07293 3.20476 6.45686 2.95169 6.89517C2.69862 7.33349 2.53475 7.81753 2.46951 8.31943C2.40428 8.82134 2.43896 9.33119 2.57157 9.81963C2.70418 10.3081 2.93209 10.7655 3.24219 11.1655C3.55229 11.5655 3.93845 11.9002 4.37843 12.1503C4.45615 12.1954 4.54154 12.2386 4.6298 12.2808C4.54154 12.323 4.45615 12.3662 4.37843 12.4113C3.93845 12.6615 3.55229 12.9962 3.24219 13.3962C2.93209 13.7962 2.70418 14.2536 2.57157 14.742C2.43896 15.2305 2.40428 15.7403 2.46951 16.2422C2.53475 16.7441 2.69862 17.2282 2.95169 17.6665C3.20476 18.1048 3.54202 18.4887 3.94407 18.7961C4.34612 19.1036 4.80502 19.3285 5.29433 19.4578C5.78364 19.5872 6.29371 19.6185 6.79517 19.5499C7.29663 19.4814 7.77957 19.3143 8.2162 19.0583C8.29391 19.0132 8.37451 18.9624 8.45414 18.9058C8.44646 19.0017 8.44167 19.0977 8.44167 19.1888C8.44167 20.2066 8.846 21.1828 9.56572 21.9025C10.2854 22.6222 11.2616 23.0266 12.2794 23.0266C13.2973 23.0266 14.2734 22.6222 14.9931 21.9025C15.7129 21.1828 16.1172 20.2066 16.1172 19.1888C16.1172 19.0986 16.1124 19.0027 16.1047 18.9058C16.1844 18.9605 16.265 19.0132 16.3427 19.0583C16.924 19.3951 17.5839 19.5725 18.2558 19.5726C18.5934 19.5721 18.9295 19.5276 19.2555 19.4402C19.9887 19.2437 20.6472 18.8342 21.1476 18.2634C21.648 17.6927 21.968 16.9864 22.067 16.2338C22.166 15.4812 22.0396 14.7162 21.7038 14.0354C21.368 13.3547 20.8379 12.7888 20.1804 12.4094V12.4113ZM12.2794 14.9673C11.7481 14.9673 11.2287 14.8097 10.7869 14.5145C10.3451 14.2193 10.0008 13.7998 9.79749 13.3089C9.59416 12.818 9.54096 12.2778 9.64462 11.7567C9.74827 11.2356 10.0041 10.7569 10.3798 10.3812C10.7555 10.0055 11.2342 9.74966 11.7553 9.646C12.2765 9.54235 12.8166 9.59555 13.3075 9.79888C13.7984 10.0022 14.2179 10.3465 14.5131 10.7883C14.8083 11.2301 14.9659 11.7495 14.9659 12.2808C14.9659 12.9933 14.6828 13.6766 14.179 14.1804C13.6752 14.6842 12.9919 14.9673 12.2794 14.9673Z" fill="#F480A6"/>
<path d="M194.618 51.009C194.54 50.9639 194.455 50.9207 194.367 50.8785C194.455 50.8363 194.54 50.7931 194.618 50.748C195.058 50.4978 195.444 50.1631 195.754 49.7631C196.064 49.3631 196.292 48.9057 196.425 48.4173C196.557 47.9288 196.592 47.419 196.527 46.9171C196.462 46.4152 196.298 45.9311 196.045 45.4928C195.792 45.0545 195.454 44.6706 195.052 44.3632C194.65 44.0557 194.191 43.8308 193.702 43.7015C193.213 43.5721 192.703 43.5408 192.201 43.6094C191.7 43.6779 191.217 43.845 190.78 44.101C190.702 44.1461 190.622 44.1969 190.542 44.2535C190.55 44.1576 190.555 44.0616 190.555 43.9657C190.555 42.9479 190.15 41.9717 189.431 41.252C188.711 40.5323 187.735 40.1279 186.717 40.1279C185.699 40.1279 184.723 40.5323 184.003 41.252C183.284 41.9717 182.879 42.9479 182.879 43.9657C182.879 44.0559 182.879 44.1518 182.892 44.2535C182.812 44.1988 182.731 44.1461 182.654 44.101C182.217 43.845 181.734 43.6779 181.233 43.6094C180.731 43.5408 180.221 43.5721 179.732 43.7015C179.243 43.8308 178.784 44.0557 178.382 44.3632C177.98 44.6706 177.642 45.0545 177.389 45.4928C177.136 45.9311 176.972 46.4152 176.907 46.9171C176.842 47.419 176.876 47.9288 177.009 48.4173C177.142 48.9057 177.37 49.3631 177.68 49.7631C177.99 50.1631 178.376 50.4978 178.816 50.748C178.894 50.7931 178.979 50.8363 179.067 50.8785C178.979 50.9207 178.894 50.9639 178.816 51.009C178.376 51.2591 177.99 51.5938 177.68 51.9938C177.37 52.3938 177.142 52.8512 177.009 53.3397C176.876 53.8281 176.842 54.338 176.907 54.8399C176.972 55.3418 177.136 55.8258 177.389 56.2641C177.642 56.7024 177.98 57.0864 178.382 57.3938C178.784 57.7012 179.243 57.9261 179.732 58.0555C180.221 58.1848 180.731 58.2162 181.233 58.1476C181.734 58.079 182.217 57.9119 182.654 57.656C182.731 57.6109 182.812 57.56 182.892 57.5034C182.884 57.5994 182.879 57.6953 182.879 57.7865C182.879 58.8043 183.284 59.7804 184.003 60.5002C184.723 61.2199 185.699 61.6242 186.717 61.6242C187.735 61.6242 188.711 61.2199 189.431 60.5002C190.15 59.7804 190.555 58.8043 190.555 57.7865C190.555 57.6963 190.55 57.6003 190.542 57.5034C190.622 57.5581 190.702 57.6109 190.78 57.656C191.362 57.9928 192.021 58.1701 192.693 58.1702C193.031 58.1698 193.367 58.1253 193.693 58.0378C194.426 57.8413 195.085 57.4318 195.585 56.8611C196.086 56.2903 196.405 55.584 196.504 54.8314C196.603 54.0789 196.477 53.3138 196.141 52.6331C195.805 51.9524 195.275 51.3865 194.618 51.007V51.009ZM186.717 53.5649C186.186 53.5649 185.666 53.4074 185.224 53.1122C184.783 52.817 184.438 52.3974 184.235 51.9065C184.032 51.4156 183.978 50.8755 184.082 50.3544C184.186 49.8333 184.442 49.3546 184.817 48.9789C185.193 48.6032 185.672 48.3473 186.193 48.2437C186.714 48.14 187.254 48.1932 187.745 48.3965C188.236 48.5999 188.655 48.9442 188.951 49.386C189.246 49.8278 189.403 50.3471 189.403 50.8785C189.403 51.591 189.12 52.2743 188.617 52.7781C188.113 53.2819 187.429 53.5649 186.717 53.5649Z" fill="#F480A6"/>
</svg>
