<svg width="199" height="64" viewBox="0 0 199 64" fill="none" xmlns="http://www.w3.org/2000/svg">
<path d="M22.5734 29.1228C22.667 28.9942 22.8132 28.8772 23.012 28.7719C23.2226 28.655 23.4506 28.5965 23.6963 28.5965H24.2577V26.0702C24.4448 25.9181 24.6612 25.807 24.9068 25.7368C25.1641 25.6549 25.4097 25.614 25.6436 25.614V28.5965H29.0823C29.0706 28.7953 29.0121 28.9649 28.9068 29.1053C28.8133 29.2339 28.6905 29.2983 28.5384 29.2983H25.6436V35.0527C25.6436 35.427 25.6846 35.7311 25.7665 35.965C25.86 36.1872 25.9828 36.3627 26.1349 36.4913C26.2869 36.62 26.4624 36.7077 26.6612 36.7545C26.86 36.8013 27.0647 36.8247 27.2752 36.8247C27.6612 36.8247 27.9829 36.7486 28.2402 36.5966C28.4975 36.4446 28.708 36.2867 28.8718 36.1229C29.0355 36.1697 29.1408 36.2691 29.1876 36.4212C29.1291 36.5147 29.0355 36.6375 28.9068 36.7896C28.7782 36.9416 28.6086 37.0937 28.3981 37.2457C28.1875 37.3861 27.9361 37.5089 27.6437 37.6142C27.3513 37.7194 27.0238 37.7721 26.6612 37.7721C26.3337 37.7721 26.0238 37.7311 25.7314 37.6492C25.439 37.5674 25.1817 37.4329 24.9594 37.2457C24.7489 37.0586 24.5793 36.8071 24.4506 36.4913C24.322 36.1755 24.2577 35.7837 24.2577 35.3159V29.2983H22.5734V29.1228ZM39.0255 36.9124C38.9904 36.9709 38.932 37.041 38.8501 37.1229C38.7799 37.2048 38.698 37.2867 38.6045 37.3685C38.5109 37.4387 38.4056 37.503 38.2887 37.5615C38.1834 37.62 38.084 37.6609 37.9904 37.6843C37.6162 37.6609 37.3004 37.5206 37.043 37.2633C36.7857 36.9943 36.6454 36.6434 36.622 36.2106C36.5284 36.3861 36.3881 36.5732 36.2009 36.772C36.0138 36.9592 35.7857 37.1346 35.5167 37.2984C35.2594 37.4504 34.9612 37.5732 34.622 37.6668C34.2828 37.7721 33.9144 37.8247 33.5167 37.8247C32.6863 37.8247 32.0254 37.6142 31.5342 37.1931C31.0547 36.772 30.8149 36.2106 30.8149 35.5089C30.8149 34.7837 31.0898 34.1755 31.6395 33.6843C32.1892 33.193 33.1307 32.8305 34.4641 32.5965L36.5518 32.2281V31.5439C36.5518 30.7018 36.353 30.0585 35.9553 29.6141C35.5693 29.1696 34.9904 28.9474 34.2185 28.9474C33.7389 28.9474 33.3296 29.0702 32.9904 29.3158C32.6629 29.5497 32.4991 29.9006 32.4991 30.3684C32.4991 30.579 32.5693 30.7661 32.7097 30.9299C32.6044 31.0702 32.4348 31.1989 32.2009 31.3158C31.967 31.4328 31.7272 31.503 31.4816 31.5264C31.4231 31.4679 31.3529 31.3802 31.271 31.2632C31.1892 31.1462 31.1482 30.9883 31.1482 30.7895C31.1482 30.4269 31.2535 30.0877 31.464 29.772C31.6746 29.4562 31.9494 29.1871 32.2886 28.9649C32.6278 28.731 33.0196 28.5497 33.4641 28.4211C33.9085 28.2924 34.3705 28.2281 34.85 28.2281C35.9729 28.2281 36.7682 28.4854 37.236 29C37.7039 29.5029 37.9378 30.2106 37.9378 31.1228V35.5264C37.9378 36.0059 38.0431 36.3393 38.2536 36.5264C38.4641 36.7019 38.7097 36.8071 38.9904 36.8422L39.0255 36.9124ZM34.0781 36.8948C34.6863 36.8948 35.2009 36.7545 35.622 36.4738C36.0547 36.1931 36.3647 35.8305 36.5518 35.3861V32.8597L34.2009 33.2808C33.5693 33.3977 33.0839 33.5966 32.7448 33.8773C32.4173 34.158 32.2535 34.5615 32.2535 35.0878C32.2535 35.6726 32.429 36.1229 32.7798 36.4387C33.1424 36.7428 33.5752 36.8948 34.0781 36.8948ZM40.386 35.7019C40.4796 35.5381 40.6316 35.3861 40.8422 35.2457C41.0644 35.1054 41.2983 35.0235 41.5439 35.0001C41.6258 35.5966 41.9124 36.0937 42.4036 36.4913C42.9065 36.8773 43.544 37.0703 44.3159 37.0703C45.0527 37.0703 45.5966 36.9124 45.9475 36.5966C46.3101 36.2691 46.4914 35.8656 46.4914 35.3861C46.4914 34.9065 46.3218 34.5322 45.9826 34.2632C45.6551 33.9942 45.0878 33.7603 44.2808 33.5615L43.2457 33.2983C42.8714 33.2047 42.5322 33.0995 42.2281 32.9825C41.9357 32.8656 41.6784 32.7252 41.4562 32.5615C41.2457 32.386 41.0819 32.1813 40.965 31.9474C40.848 31.7135 40.7895 31.4269 40.7895 31.0878C40.7895 30.7252 40.8831 30.3743 41.0702 30.0351C41.2574 29.6842 41.5147 29.3743 41.8422 29.1053C42.1814 28.8363 42.5673 28.6257 43.0001 28.4737C43.4445 28.3099 43.9241 28.2281 44.4387 28.2281C44.965 28.2281 45.4095 28.2924 45.7721 28.4211C46.1346 28.538 46.4329 28.6901 46.6668 28.8772C46.9124 29.0526 47.0879 29.2456 47.1931 29.4562C47.3101 29.6667 47.3744 29.8538 47.3861 30.0176C47.3042 30.1813 47.1639 30.3275 46.9651 30.4562C46.7662 30.5731 46.5498 30.6433 46.3159 30.6667C46.234 30.2222 46.006 29.8363 45.6317 29.5088C45.2574 29.1813 44.696 29.0176 43.9475 29.0176C43.7019 29.0176 43.4562 29.0526 43.2106 29.1228C42.9767 29.1813 42.7662 29.2749 42.579 29.4035C42.3919 29.5322 42.2398 29.6901 42.1229 29.8772C42.0059 30.0527 41.9474 30.2632 41.9474 30.5088C41.9474 30.9065 42.0878 31.2281 42.3685 31.4737C42.6492 31.7076 43.1404 31.9065 43.8422 32.0702L44.9124 32.3334C45.9299 32.5907 46.6551 32.9182 47.0879 33.3159C47.5323 33.7018 47.7545 34.1989 47.7545 34.8071C47.7545 35.1931 47.6668 35.5732 47.4914 35.9475C47.3159 36.31 47.0586 36.6375 46.7194 36.9299C46.3802 37.2106 45.965 37.4329 45.4738 37.5966C44.9826 37.7721 44.4212 37.8598 43.7896 37.8598C43.2399 37.8598 42.7603 37.7896 42.351 37.6492C41.9416 37.5206 41.5907 37.351 41.2983 37.1405C41.0176 36.9299 40.8012 36.7019 40.6492 36.4562C40.4971 36.1989 40.4094 35.9475 40.386 35.7019ZM56.7468 32.0878C56.7468 31.0936 56.5422 30.3685 56.1328 29.9123C55.7234 29.4445 55.1445 29.2105 54.3959 29.2105C54.1269 29.2105 53.8579 29.2632 53.5889 29.3684C53.3316 29.462 53.0801 29.5907 52.8345 29.7544C52.6006 29.9182 52.3784 30.1111 52.1678 30.3334C51.9573 30.5439 51.7702 30.7661 51.6064 31V37.4212C51.4427 37.5147 51.2263 37.5791 50.9573 37.6142C50.7 37.6609 50.4544 37.6843 50.2204 37.6843V28.7018C50.6064 28.5029 51.0392 28.4035 51.5187 28.4035V30.1404C51.6707 29.9415 51.8637 29.731 52.0977 29.5088C52.3433 29.2749 52.6123 29.0643 52.9047 28.8772C53.2088 28.6901 53.5363 28.538 53.8871 28.4211C54.2497 28.2924 54.6357 28.2281 55.0451 28.2281C55.9924 28.2281 56.741 28.5146 57.2907 29.0877C57.8521 29.6608 58.1328 30.4796 58.1328 31.5439V37.4212C57.9691 37.5147 57.7527 37.5791 57.4837 37.6142C57.2264 37.6609 56.9808 37.6843 56.7468 37.6843V32.0878ZM62.0945 33.0352C62.1296 33.6667 62.2407 34.2223 62.4278 34.7018C62.6267 35.1697 62.8781 35.5615 63.1822 35.8773C63.4863 36.1931 63.8372 36.4329 64.2349 36.5966C64.6442 36.7486 65.077 36.8247 65.5331 36.8247C66.1062 36.8247 66.5975 36.7486 67.0068 36.5966C67.4279 36.4446 67.808 36.2048 68.1472 35.8773C68.3109 35.9124 68.4221 36.0235 68.4805 36.2106C68.3987 36.3393 68.2642 36.4972 68.077 36.6843C67.9016 36.8715 67.6618 37.0527 67.3577 37.2282C67.0653 37.4036 66.7086 37.5498 66.2875 37.6668C65.8782 37.7954 65.3986 37.8598 64.8489 37.8598C64.2641 37.8598 63.7202 37.7545 63.2173 37.544C62.7144 37.3335 62.2758 37.0294 61.9015 36.6317C61.5272 36.234 61.229 35.7428 61.0068 35.158C60.7962 34.5732 60.691 33.9124 60.691 33.1755C60.691 32.4971 60.8079 31.8597 61.0418 31.2632C61.2758 30.655 61.5916 30.1287 61.9892 29.6842C62.3986 29.2398 62.8723 28.8889 63.4103 28.6316C63.96 28.3626 64.5448 28.2281 65.1647 28.2281C65.8314 28.2281 66.3811 28.3392 66.8138 28.5614C67.2466 28.7836 67.5858 29.0702 67.8314 29.4211C68.0887 29.772 68.2642 30.1579 68.3577 30.579C68.463 31 68.5156 31.4094 68.5156 31.8071C68.4221 31.9474 68.2934 32.0702 68.1297 32.1755C67.9776 32.2808 67.808 32.3626 67.6209 32.4211L62.0945 33.0352ZM64.7086 29.0176C64.346 29.0176 64.0068 29.0819 63.691 29.2105C63.3752 29.3392 63.1004 29.538 62.8664 29.807C62.6325 30.076 62.4395 30.4211 62.2875 30.8421C62.1471 31.2632 62.0711 31.772 62.0594 32.3685L67.0068 31.8597C67.0185 31.8012 67.0244 31.7427 67.0244 31.6843C67.0244 31.6258 67.0244 31.5731 67.0244 31.5264C67.0244 31.1638 66.9776 30.8304 66.884 30.5263C66.7905 30.2222 66.6443 29.9591 66.4454 29.7369C66.2583 29.5146 66.0185 29.3392 65.7261 29.2105C65.4454 29.0819 65.1062 29.0176 64.7086 29.0176ZM71.8431 33.0352C71.8782 33.6667 71.9893 34.2223 72.1764 34.7018C72.3753 35.1697 72.6267 35.5615 72.9308 35.8773C73.2349 36.1931 73.5858 36.4329 73.9835 36.5966C74.3928 36.7486 74.8256 36.8247 75.2817 36.8247C75.8549 36.8247 76.3461 36.7486 76.7554 36.5966C77.1765 36.4446 77.5566 36.2048 77.8958 35.8773C78.0596 35.9124 78.1707 36.0235 78.2292 36.2106C78.1473 36.3393 78.0128 36.4972 77.8256 36.6843C77.6502 36.8715 77.4104 37.0527 77.1063 37.2282C76.8139 37.4036 76.4572 37.5498 76.0361 37.6668C75.6268 37.7954 75.1472 37.8598 74.5975 37.8598C74.0127 37.8598 73.4689 37.7545 72.9659 37.544C72.463 37.3335 72.0244 37.0294 71.6501 36.6317C71.2758 36.234 70.9776 35.7428 70.7554 35.158C70.5448 34.5732 70.4396 33.9124 70.4396 33.1755C70.4396 32.4971 70.5565 31.8597 70.7905 31.2632C71.0244 30.655 71.3402 30.1287 71.7378 29.6842C72.1472 29.2398 72.6209 28.8889 73.1589 28.6316C73.7086 28.3626 74.2934 28.2281 74.9133 28.2281C75.58 28.2281 76.1297 28.3392 76.5625 28.5614C76.9952 28.7836 77.3344 29.0702 77.58 29.4211C77.8373 29.772 78.0128 30.1579 78.1063 30.579C78.2116 31 78.2642 31.4094 78.2642 31.8071C78.1707 31.9474 78.042 32.0702 77.8783 32.1755C77.7262 32.2808 77.5566 32.3626 77.3695 32.4211L71.8431 33.0352ZM74.4572 29.0176C74.0946 29.0176 73.7554 29.0819 73.4396 29.2105C73.1238 29.3392 72.849 29.538 72.615 29.807C72.3811 30.076 72.1881 30.4211 72.0361 30.8421C71.8957 31.2632 71.8197 31.772 71.808 32.3685L76.7554 31.8597C76.7671 31.8012 76.773 31.7427 76.773 31.6843C76.773 31.6258 76.773 31.5731 76.773 31.5264C76.773 31.1638 76.7262 30.8304 76.6326 30.5263C76.5391 30.2222 76.3929 29.9591 76.194 29.7369C76.0069 29.5146 75.7671 29.3392 75.4747 29.2105C75.194 29.0819 74.8548 29.0176 74.4572 29.0176ZM86.9602 32.0527C86.9602 31.0936 86.7672 30.386 86.3813 29.9298C86.007 29.462 85.4631 29.2281 84.7497 29.2281C84.1882 29.2281 83.6853 29.3977 83.2409 29.7369C82.7964 30.076 82.4514 30.4796 82.2058 30.9474V37.4212C82.042 37.5147 81.8256 37.5791 81.5566 37.6142C81.2993 37.6609 81.0537 37.6843 80.8198 37.6843V28.7018C81.2058 28.5029 81.6385 28.4035 82.118 28.4035V30.0351C82.2467 29.8363 82.4104 29.6316 82.6093 29.4211C82.8198 29.1988 83.0596 29 83.3286 28.8246C83.6093 28.6491 83.9192 28.5088 84.2584 28.4035C84.5976 28.2866 84.966 28.2281 85.3637 28.2281C86.0889 28.2281 86.6795 28.4211 87.1357 28.807C87.6035 29.1813 87.9193 29.6374 88.083 30.1755C88.2234 29.9883 88.3988 29.7836 88.6094 29.5614C88.8316 29.3275 89.083 29.1111 89.3638 28.9123C89.6445 28.7135 89.9544 28.5497 90.2936 28.4211C90.6445 28.2924 91.0187 28.2281 91.4164 28.2281C92.3053 28.2281 93.0246 28.5088 93.5743 29.0702C94.1357 29.6199 94.4164 30.4328 94.4164 31.5088V37.4212C94.2527 37.5147 94.0363 37.5791 93.7673 37.6142C93.51 37.6609 93.2644 37.6843 93.0305 37.6843V32.0527C93.0305 30.1696 92.2995 29.2281 90.8375 29.2281C90.3579 29.2281 89.8901 29.3918 89.4339 29.7193C88.9895 30.0351 88.6269 30.4328 88.3462 30.9123V37.4212C88.1824 37.5147 87.9661 37.5791 87.6971 37.6142C87.4397 37.6609 87.1941 37.6843 86.9602 37.6843V32.0527ZM101.274 37.3335C101.157 37.4387 100.969 37.5206 100.712 37.5791C100.455 37.6492 100.203 37.6843 99.9578 37.6843C99.5835 36.7136 99.2268 35.7019 98.8876 34.6492C98.5484 33.5849 98.2326 32.5205 97.9402 31.4562C97.6595 30.3801 97.3963 29.3158 97.1507 28.2632C96.9051 27.2105 96.6887 26.1988 96.5016 25.228C96.7004 25.1228 96.9226 25.0467 97.1683 25C97.4139 24.9415 97.6536 24.9122 97.8876 24.9122C98.0396 25.7544 98.2209 26.6433 98.4314 27.5789C98.642 28.5146 98.87 29.4737 99.1157 30.4562C99.373 31.4269 99.6478 32.4036 99.9402 33.386C100.233 34.3568 100.543 35.31 100.87 36.2457C101.151 35.5323 101.431 34.7545 101.712 33.9124C102.005 33.0585 102.279 32.2047 102.537 31.3509C102.806 30.4854 103.046 29.6433 103.256 28.8246C103.478 28.0058 103.66 27.269 103.8 26.614C104.163 26.4152 104.595 26.3158 105.098 26.3158C105.484 28.0234 105.946 29.7252 106.484 31.4211C107.022 33.117 107.613 34.8013 108.256 36.4738C108.56 35.5966 108.841 34.6784 109.098 33.7194C109.356 32.7486 109.589 31.772 109.8 30.7895C110.022 29.807 110.215 28.8304 110.379 27.8596C110.543 26.8889 110.683 25.9649 110.8 25.0877C111.057 24.9707 111.35 24.9122 111.677 24.9122C111.876 24.9122 112.022 24.9239 112.116 24.9473C111.975 25.7894 111.782 26.731 111.537 27.7719C111.303 28.8012 111.034 29.8655 110.73 30.9649C110.437 32.0644 110.11 33.1638 109.747 34.2632C109.396 35.351 109.034 36.3802 108.66 37.351C108.531 37.4446 108.35 37.5206 108.116 37.5791C107.894 37.6492 107.648 37.6843 107.379 37.6843C107.075 36.9826 106.771 36.234 106.467 35.4387C106.174 34.6317 105.888 33.8188 105.607 33.0001C105.338 32.1813 105.086 31.3743 104.853 30.579C104.619 29.7836 104.42 29.0409 104.256 28.3509C104.081 29.0409 103.876 29.7778 103.642 30.5614C103.42 31.3334 103.174 32.1112 102.905 32.8948C102.648 33.6784 102.379 34.4504 102.098 35.2106C101.829 35.9709 101.554 36.6785 101.274 37.3335ZM120.172 36.351C120.043 36.5264 119.885 36.7019 119.698 36.8773C119.511 37.0527 119.283 37.2106 119.014 37.351C118.757 37.4913 118.459 37.6083 118.119 37.7019C117.78 37.7954 117.4 37.8422 116.979 37.8422C116.464 37.8422 115.973 37.7487 115.505 37.5615C115.037 37.3744 114.616 37.0995 114.242 36.737C113.88 36.3627 113.587 35.9065 113.365 35.3685C113.154 34.8188 113.049 34.1872 113.049 33.4738C113.049 32.772 113.178 32.1053 113.435 31.4737C113.704 30.8304 114.067 30.269 114.523 29.7895C114.979 29.31 115.511 28.9298 116.119 28.6491C116.739 28.3684 117.4 28.2281 118.102 28.2281C118.57 28.2281 118.967 28.2866 119.295 28.4035C119.634 28.5088 119.926 28.6433 120.172 28.807V24.3157C120.371 24.2105 120.587 24.1345 120.821 24.0877C121.067 24.0409 121.312 24.0175 121.558 24.0175V37.4212C121.394 37.5147 121.178 37.5791 120.909 37.6142C120.652 37.6609 120.406 37.6843 120.172 37.6843V36.351ZM117.628 36.8422C118.283 36.8422 118.821 36.6902 119.242 36.3861C119.675 36.0703 119.985 35.7077 120.172 35.2983V30.5439C120.078 30.3568 119.956 30.1755 119.804 30C119.663 29.8129 119.488 29.6491 119.277 29.5088C119.067 29.3567 118.821 29.2398 118.54 29.1579C118.271 29.0643 117.967 29.0176 117.628 29.0176C117.242 29.0176 116.862 29.0936 116.488 29.2456C116.113 29.3977 115.774 29.6316 115.47 29.9474C115.178 30.2515 114.938 30.6433 114.751 31.1228C114.575 31.6024 114.488 32.1638 114.488 32.8071C114.488 33.5439 114.581 34.1697 114.768 34.6843C114.967 35.1872 115.213 35.6024 115.505 35.9299C115.809 36.2457 116.149 36.4796 116.523 36.6317C116.897 36.772 117.266 36.8422 117.628 36.8422ZM125.572 33.0352C125.607 33.6667 125.718 34.2223 125.905 34.7018C126.104 35.1697 126.355 35.5615 126.66 35.8773C126.964 36.1931 127.315 36.4329 127.712 36.5966C128.122 36.7486 128.554 36.8247 129.01 36.8247C129.584 36.8247 130.075 36.7486 130.484 36.5966C130.905 36.4446 131.285 36.2048 131.625 35.8773C131.788 35.9124 131.899 36.0235 131.958 36.2106C131.876 36.3393 131.742 36.4972 131.554 36.6843C131.379 36.8715 131.139 37.0527 130.835 37.2282C130.543 37.4036 130.186 37.5498 129.765 37.6668C129.356 37.7954 128.876 37.8598 128.326 37.8598C127.741 37.8598 127.198 37.7545 126.695 37.544C126.192 37.3335 125.753 37.0294 125.379 36.6317C125.005 36.234 124.706 35.7428 124.484 35.158C124.274 34.5732 124.168 33.9124 124.168 33.1755C124.168 32.4971 124.285 31.8597 124.519 31.2632C124.753 30.655 125.069 30.1287 125.467 29.6842C125.876 29.2398 126.35 28.8889 126.888 28.6316C127.437 28.3626 128.022 28.2281 128.642 28.2281C129.309 28.2281 129.858 28.3392 130.291 28.5614C130.724 28.7836 131.063 29.0702 131.309 29.4211C131.566 29.772 131.742 30.1579 131.835 30.579C131.94 31 131.993 31.4094 131.993 31.8071C131.899 31.9474 131.771 32.0702 131.607 32.1755C131.455 32.2808 131.285 32.3626 131.098 32.4211L125.572 33.0352ZM128.186 29.0176C127.823 29.0176 127.484 29.0819 127.168 29.2105C126.853 29.3392 126.578 29.538 126.344 29.807C126.11 30.076 125.917 30.4211 125.765 30.8421C125.624 31.2632 125.548 31.772 125.537 32.3685L130.484 31.8597C130.496 31.8012 130.502 31.7427 130.502 31.6843C130.502 31.6258 130.502 31.5731 130.502 31.5264C130.502 31.1638 130.455 30.8304 130.361 30.5263C130.268 30.2222 130.122 29.9591 129.923 29.7369C129.736 29.5146 129.496 29.3392 129.203 29.2105C128.923 29.0819 128.584 29.0176 128.186 29.0176ZM133.812 35.7019C133.905 35.5381 134.057 35.3861 134.268 35.2457C134.49 35.1054 134.724 35.0235 134.97 35.0001C135.051 35.5966 135.338 36.0937 135.829 36.4913C136.332 36.8773 136.97 37.0703 137.742 37.0703C138.478 37.0703 139.022 36.9124 139.373 36.5966C139.736 36.2691 139.917 35.8656 139.917 35.3861C139.917 34.9065 139.747 34.5322 139.408 34.2632C139.081 33.9942 138.513 33.7603 137.706 33.5615L136.671 33.2983C136.297 33.2047 135.958 33.0995 135.654 32.9825C135.361 32.8656 135.104 32.7252 134.882 32.5615C134.671 32.386 134.508 32.1813 134.391 31.9474C134.274 31.7135 134.215 31.4269 134.215 31.0878C134.215 30.7252 134.309 30.3743 134.496 30.0351C134.683 29.6842 134.94 29.3743 135.268 29.1053C135.607 28.8363 135.993 28.6257 136.426 28.4737C136.87 28.3099 137.35 28.2281 137.864 28.2281C138.391 28.2281 138.835 28.2924 139.198 28.4211C139.56 28.538 139.859 28.6901 140.092 28.8772C140.338 29.0526 140.514 29.2456 140.619 29.4562C140.736 29.6667 140.8 29.8538 140.812 30.0176C140.73 30.1813 140.59 30.3275 140.391 30.4562C140.192 30.5731 139.975 30.6433 139.742 30.6667C139.66 30.2222 139.432 29.8363 139.057 29.5088C138.683 29.1813 138.122 29.0176 137.373 29.0176C137.128 29.0176 136.882 29.0526 136.636 29.1228C136.402 29.1813 136.192 29.2749 136.005 29.4035C135.818 29.5322 135.665 29.6901 135.549 29.8772C135.432 30.0527 135.373 30.2632 135.373 30.5088C135.373 30.9065 135.513 31.2281 135.794 31.4737C136.075 31.7076 136.566 31.9065 137.268 32.0702L138.338 32.3334C139.356 32.5907 140.081 32.9182 140.514 33.3159C140.958 33.7018 141.18 34.1989 141.18 34.8071C141.18 35.1931 141.092 35.5732 140.917 35.9475C140.742 36.31 140.484 36.6375 140.145 36.9299C139.806 37.2106 139.391 37.4329 138.899 37.5966C138.408 37.7721 137.847 37.8598 137.215 37.8598C136.666 37.8598 136.186 37.7896 135.777 37.6492C135.367 37.5206 135.016 37.351 134.724 37.1405C134.443 36.9299 134.227 36.7019 134.075 36.4562C133.923 36.1989 133.835 35.9475 133.812 35.7019ZM145.523 25.6491C145.418 25.8362 145.254 26.0351 145.032 26.2456C144.81 26.4444 144.611 26.5848 144.436 26.6666C144.26 26.5848 144.061 26.4444 143.839 26.2456C143.617 26.0351 143.447 25.8362 143.33 25.6491C143.447 25.4503 143.617 25.2456 143.839 25.035C144.061 24.8245 144.26 24.6725 144.436 24.5789C144.611 24.6725 144.81 24.8245 145.032 25.035C145.266 25.2456 145.43 25.4503 145.523 25.6491ZM143.699 28.7018C143.898 28.5965 144.114 28.5205 144.348 28.4737C144.593 28.4269 144.839 28.4035 145.085 28.4035V37.4212C144.921 37.5147 144.705 37.5791 144.436 37.6142C144.178 37.6609 143.933 37.6843 143.699 37.6843V28.7018ZM151.27 34.5966C151.095 34.5966 150.925 34.5907 150.762 34.579C150.61 34.5556 150.452 34.5322 150.288 34.5089C149.984 34.6258 149.738 34.7779 149.551 34.965C149.364 35.1404 149.27 35.3393 149.27 35.5615C149.27 35.9007 149.446 36.1346 149.797 36.2633C150.148 36.3919 150.662 36.4738 151.341 36.5089L153.183 36.5966C153.732 36.62 154.194 36.7077 154.569 36.8598C154.955 37.0118 155.265 37.2048 155.498 37.4387C155.732 37.6609 155.902 37.9124 156.007 38.1931C156.113 38.4738 156.165 38.7545 156.165 39.0352C156.165 39.5148 156.042 39.9534 155.797 40.351C155.551 40.7487 155.206 41.0879 154.762 41.3686C154.329 41.6493 153.808 41.8657 153.2 42.0177C152.592 42.1815 151.925 42.2633 151.2 42.2633C150.65 42.2633 150.148 42.2166 149.691 42.123C149.235 42.0294 148.838 41.8832 148.498 41.6844C148.171 41.4972 147.914 41.2633 147.726 40.9826C147.539 40.7136 147.446 40.392 147.446 40.0177C147.446 39.7253 147.498 39.468 147.604 39.2458C147.721 39.0235 147.867 38.8305 148.042 38.6668C148.229 38.5031 148.434 38.3627 148.656 38.2457C148.879 38.1405 149.101 38.0586 149.323 38.0001C149.381 38.0235 149.428 38.0703 149.463 38.1405C149.498 38.2107 149.522 38.275 149.533 38.3335C149.323 38.4504 149.142 38.6083 148.99 38.8072C148.838 39.006 148.762 39.2867 148.762 39.6493C148.762 39.9534 148.838 40.2165 148.99 40.4388C149.153 40.6727 149.376 40.8657 149.656 41.0177C149.937 41.1698 150.27 41.2809 150.656 41.351C151.054 41.4212 151.487 41.4563 151.955 41.4563C152.949 41.4563 153.691 41.2809 154.183 40.93C154.686 40.5791 154.937 40.1405 154.937 39.6142C154.937 39.0879 154.75 38.661 154.376 38.3335C154.001 38.006 153.352 37.813 152.428 37.7545L150.604 37.6492C149.726 37.5908 149.083 37.4446 148.674 37.2106C148.264 36.965 148.06 36.5966 148.06 36.1054C148.06 35.8948 148.101 35.696 148.183 35.5089C148.276 35.3217 148.393 35.1521 148.533 35.0001C148.686 34.848 148.849 34.7135 149.025 34.5966C149.212 34.4679 149.393 34.3627 149.569 34.2808C149.054 34.0586 148.65 33.7311 148.358 33.2983C148.066 32.8539 147.919 32.3158 147.919 31.6843C147.919 31.2047 148.019 30.7544 148.218 30.3334C148.428 29.9123 148.715 29.5497 149.077 29.2456C149.44 28.9298 149.861 28.6842 150.341 28.5088C150.832 28.3216 151.358 28.2281 151.919 28.2281C152.118 28.2281 152.305 28.2398 152.481 28.2632C152.656 28.2866 152.826 28.3158 152.99 28.3509C153.048 28.3626 153.107 28.3684 153.165 28.3684C153.235 28.3684 153.317 28.3684 153.411 28.3684C153.925 28.3684 154.276 28.2866 154.463 28.1228C154.662 27.9474 154.762 27.731 154.762 27.4737C154.762 27.3216 154.732 27.193 154.674 27.0877C154.615 26.9707 154.539 26.8713 154.446 26.7895C154.808 26.4503 155.241 26.2807 155.744 26.2807C155.849 26.3742 155.937 26.5029 156.007 26.6666C156.077 26.8187 156.113 26.9941 156.113 27.193C156.113 27.6842 155.914 28.0643 155.516 28.3333C155.13 28.5906 154.621 28.731 153.99 28.7544C154.434 29.0468 154.75 29.4152 154.937 29.8597C155.136 30.3041 155.235 30.7486 155.235 31.193C155.235 31.7076 155.13 32.1755 154.92 32.5965C154.709 33.0059 154.422 33.3626 154.06 33.6667C153.709 33.9591 153.288 34.1872 152.797 34.351C152.317 34.5147 151.808 34.5966 151.27 34.5966ZM151.481 28.9298C151.188 28.9298 150.914 28.9825 150.656 29.0877C150.411 29.1813 150.188 29.3275 149.99 29.5263C149.803 29.7135 149.65 29.9474 149.533 30.2281C149.428 30.5088 149.376 30.8363 149.376 31.2106C149.376 31.6316 149.434 32.0117 149.551 32.3509C149.668 32.6784 149.826 32.9591 150.025 33.193C150.235 33.4153 150.481 33.5907 150.762 33.7194C151.042 33.8363 151.341 33.8948 151.656 33.8948C151.949 33.8948 152.224 33.8539 152.481 33.772C152.738 33.6901 152.96 33.5615 153.148 33.386C153.346 33.2106 153.498 32.9825 153.604 32.7018C153.721 32.4211 153.779 32.0819 153.779 31.6843C153.779 31.3217 153.727 30.9766 153.621 30.6492C153.528 30.3217 153.381 30.0293 153.183 29.772C152.996 29.5146 152.756 29.31 152.463 29.1579C152.183 29.0059 151.855 28.9298 151.481 28.9298ZM164.753 32.0878C164.753 31.0936 164.548 30.3685 164.139 29.9123C163.729 29.4445 163.15 29.2105 162.402 29.2105C162.133 29.2105 161.864 29.2632 161.595 29.3684C161.337 29.462 161.086 29.5907 160.84 29.7544C160.606 29.9182 160.384 30.1111 160.174 30.3334C159.963 30.5439 159.776 30.7661 159.612 31V37.4212C159.448 37.5147 159.232 37.5791 158.963 37.6142C158.706 37.6609 158.46 37.6843 158.226 37.6843V28.7018C158.612 28.5029 159.045 28.4035 159.524 28.4035V30.1404C159.676 29.9415 159.869 29.731 160.103 29.5088C160.349 29.2749 160.618 29.0643 160.91 28.8772C161.215 28.6901 161.542 28.538 161.893 28.4211C162.255 28.2924 162.641 28.2281 163.051 28.2281C163.998 28.2281 164.747 28.5146 165.296 29.0877C165.858 29.6608 166.139 30.4796 166.139 31.5439V37.4212C165.975 37.5147 165.758 37.5791 165.489 37.6142C165.232 37.6609 164.986 37.6843 164.753 37.6843V32.0878ZM168.591 35.7019C168.685 35.5381 168.837 35.3861 169.048 35.2457C169.27 35.1054 169.504 35.0235 169.749 35.0001C169.831 35.5966 170.118 36.0937 170.609 36.4913C171.112 36.8773 171.749 37.0703 172.521 37.0703C173.258 37.0703 173.802 36.9124 174.153 36.5966C174.515 36.2691 174.697 35.8656 174.697 35.3861C174.697 34.9065 174.527 34.5322 174.188 34.2632C173.861 33.9942 173.293 33.7603 172.486 33.5615L171.451 33.2983C171.077 33.2047 170.738 33.0995 170.434 32.9825C170.141 32.8656 169.884 32.7252 169.662 32.5615C169.451 32.386 169.287 32.1813 169.17 31.9474C169.053 31.7135 168.995 31.4269 168.995 31.0878C168.995 30.7252 169.089 30.3743 169.276 30.0351C169.463 29.6842 169.72 29.3743 170.048 29.1053C170.387 28.8363 170.773 28.6257 171.206 28.4737C171.65 28.3099 172.129 28.2281 172.644 28.2281C173.17 28.2281 173.615 28.2924 173.977 28.4211C174.34 28.538 174.638 28.6901 174.872 28.8772C175.118 29.0526 175.293 29.2456 175.399 29.4562C175.516 29.6667 175.58 29.8538 175.592 30.0176C175.51 30.1813 175.369 30.3275 175.17 30.4562C174.972 30.5731 174.755 30.6433 174.521 30.6667C174.439 30.2222 174.211 29.8363 173.837 29.5088C173.463 29.1813 172.901 29.0176 172.153 29.0176C171.907 29.0176 171.662 29.0526 171.416 29.1228C171.182 29.1813 170.972 29.2749 170.784 29.4035C170.597 29.5322 170.445 29.6901 170.328 29.8772C170.211 30.0527 170.153 30.2632 170.153 30.5088C170.153 30.9065 170.293 31.2281 170.574 31.4737C170.855 31.7076 171.346 31.9065 172.048 32.0702L173.118 32.3334C174.135 32.5907 174.861 32.9182 175.293 33.3159C175.738 33.7018 175.96 34.1989 175.96 34.8071C175.96 35.1931 175.872 35.5732 175.697 35.9475C175.521 36.31 175.264 36.6375 174.925 36.9299C174.586 37.2106 174.17 37.4329 173.679 37.5966C173.188 37.7721 172.627 37.8598 171.995 37.8598C171.445 37.8598 170.966 37.7896 170.556 37.6492C170.147 37.5206 169.796 37.351 169.504 37.1405C169.223 36.9299 169.007 36.7019 168.855 36.4562C168.703 36.1989 168.615 35.9475 168.591 35.7019Z" fill="#FFFFF0"/>
<rect x="9.27407" y="7.26821" width="180.955" height="49.1234" stroke="#FFFFF0" stroke-width="0.501259"/>
<path d="M20.1804 12.4113C20.1027 12.3662 20.0173 12.323 19.9291 12.2808C20.0173 12.2386 20.1027 12.1954 20.1804 12.1503C20.6204 11.9002 21.0066 11.5655 21.3167 11.1655C21.6268 10.7655 21.8547 10.3081 21.9873 9.81963C22.1199 9.33119 22.1546 8.82134 22.0894 8.31943C22.0241 7.81753 21.8603 7.33349 21.6072 6.89517C21.3541 6.45686 21.0168 6.07293 20.6148 5.76549C20.2127 5.45806 19.7539 5.23318 19.2645 5.10381C18.7752 4.97445 18.2652 4.94315 17.7637 5.01171C17.2622 5.08028 16.7793 5.24735 16.3427 5.50332C16.265 5.54842 16.1844 5.59927 16.1047 5.65587C16.1124 5.55993 16.1172 5.46399 16.1172 5.36804C16.1172 4.3502 15.7129 3.37405 14.9931 2.65433C14.2734 1.93461 13.2973 1.53027 12.2794 1.53027C11.2616 1.53027 10.2854 1.93461 9.56572 2.65433C8.846 3.37405 8.44167 4.3502 8.44167 5.36804C8.44167 5.45823 8.44167 5.55417 8.45414 5.65587C8.37451 5.60119 8.29391 5.54842 8.2162 5.50332C7.77957 5.24735 7.29663 5.08028 6.79517 5.01171C6.29371 4.94315 5.78364 4.97445 5.29433 5.10381C4.80502 5.23318 4.34612 5.45806 3.94407 5.76549C3.54202 6.07293 3.20476 6.45686 2.95169 6.89517C2.69862 7.33349 2.53475 7.81753 2.46951 8.31943C2.40428 8.82134 2.43896 9.33119 2.57157 9.81963C2.70418 10.3081 2.93209 10.7655 3.24219 11.1655C3.55229 11.5655 3.93845 11.9002 4.37843 12.1503C4.45615 12.1954 4.54154 12.2386 4.6298 12.2808C4.54154 12.323 4.45615 12.3662 4.37843 12.4113C3.93845 12.6615 3.55229 12.9962 3.24219 13.3962C2.93209 13.7962 2.70418 14.2536 2.57157 14.742C2.43896 15.2305 2.40428 15.7403 2.46951 16.2422C2.53475 16.7441 2.69862 17.2282 2.95169 17.6665C3.20476 18.1048 3.54202 18.4887 3.94407 18.7961C4.34612 19.1036 4.80502 19.3285 5.29433 19.4578C5.78364 19.5872 6.29371 19.6185 6.79517 19.5499C7.29663 19.4814 7.77957 19.3143 8.2162 19.0583C8.29391 19.0132 8.37451 18.9624 8.45414 18.9058C8.44646 19.0017 8.44167 19.0977 8.44167 19.1888C8.44167 20.2066 8.846 21.1828 9.56572 21.9025C10.2854 22.6222 11.2616 23.0266 12.2794 23.0266C13.2973 23.0266 14.2734 22.6222 14.9931 21.9025C15.7129 21.1828 16.1172 20.2066 16.1172 19.1888C16.1172 19.0986 16.1124 19.0027 16.1047 18.9058C16.1844 18.9605 16.265 19.0132 16.3427 19.0583C16.924 19.3951 17.5839 19.5725 18.2558 19.5726C18.5934 19.5721 18.9295 19.5276 19.2555 19.4402C19.9887 19.2437 20.6472 18.8342 21.1476 18.2634C21.648 17.6927 21.968 16.9864 22.067 16.2338C22.166 15.4812 22.0396 14.7162 21.7038 14.0354C21.368 13.3547 20.8379 12.7888 20.1804 12.4094V12.4113ZM12.2794 14.9673C11.7481 14.9673 11.2287 14.8097 10.7869 14.5145C10.3451 14.2193 10.0008 13.7998 9.79749 13.3089C9.59416 12.818 9.54096 12.2778 9.64462 11.7567C9.74827 11.2356 10.0041 10.7569 10.3798 10.3812C10.7555 10.0055 11.2342 9.74966 11.7553 9.646C12.2765 9.54234 12.8166 9.59555 13.3075 9.79888C13.7984 10.0022 14.2179 10.3465 14.5131 10.7883C14.8083 11.2301 14.9659 11.7495 14.9659 12.2808C14.9659 12.9933 14.6828 13.6766 14.179 14.1804C13.6752 14.6842 12.9919 14.9673 12.2794 14.9673Z" fill="#F480A6"/>
<path d="M194.618 51.009C194.54 50.9639 194.455 50.9207 194.367 50.8785C194.455 50.8363 194.54 50.7931 194.618 50.748C195.058 50.4978 195.444 50.1631 195.754 49.7631C196.064 49.3631 196.292 48.9057 196.425 48.4173C196.557 47.9288 196.592 47.419 196.527 46.9171C196.462 46.4152 196.298 45.9311 196.045 45.4928C195.792 45.0545 195.454 44.6706 195.052 44.3632C194.65 44.0557 194.191 43.8308 193.702 43.7015C193.213 43.5721 192.703 43.5408 192.201 43.6094C191.7 43.6779 191.217 43.845 190.78 44.101C190.702 44.1461 190.622 44.1969 190.542 44.2535C190.55 44.1576 190.555 44.0616 190.555 43.9657C190.555 42.9479 190.15 41.9717 189.431 41.252C188.711 40.5323 187.735 40.1279 186.717 40.1279C185.699 40.1279 184.723 40.5323 184.003 41.252C183.284 41.9717 182.879 42.9479 182.879 43.9657C182.879 44.0559 182.879 44.1518 182.892 44.2535C182.812 44.1988 182.731 44.1461 182.654 44.101C182.217 43.845 181.734 43.6779 181.233 43.6094C180.731 43.5408 180.221 43.5721 179.732 43.7015C179.243 43.8308 178.784 44.0557 178.382 44.3632C177.98 44.6706 177.642 45.0545 177.389 45.4928C177.136 45.9311 176.972 46.4152 176.907 46.9171C176.842 47.419 176.876 47.9288 177.009 48.4173C177.142 48.9057 177.37 49.3631 177.68 49.7631C177.99 50.1631 178.376 50.4978 178.816 50.748C178.894 50.7931 178.979 50.8363 179.067 50.8785C178.979 50.9207 178.894 50.9639 178.816 51.009C178.376 51.2591 177.99 51.5938 177.68 51.9938C177.37 52.3938 177.142 52.8512 177.009 53.3397C176.876 53.8281 176.842 54.338 176.907 54.8399C176.972 55.3418 177.136 55.8258 177.389 56.2641C177.642 56.7024 177.98 57.0864 178.382 57.3938C178.784 57.7012 179.243 57.9261 179.732 58.0555C180.221 58.1848 180.731 58.2161 181.233 58.1476C181.734 58.079 182.217 57.9119 182.654 57.656C182.731 57.6109 182.812 57.56 182.892 57.5034C182.884 57.5994 182.879 57.6953 182.879 57.7865C182.879 58.8043 183.284 59.7804 184.003 60.5002C184.723 61.2199 185.699 61.6242 186.717 61.6242C187.735 61.6242 188.711 61.2199 189.431 60.5002C190.15 59.7804 190.555 58.8043 190.555 57.7865C190.555 57.6963 190.55 57.6003 190.542 57.5034C190.622 57.5581 190.702 57.6109 190.78 57.656C191.362 57.9928 192.021 58.1701 192.693 58.1702C193.031 58.1698 193.367 58.1253 193.693 58.0378C194.426 57.8413 195.085 57.4318 195.585 56.8611C196.086 56.2903 196.405 55.584 196.504 54.8314C196.603 54.0789 196.477 53.3138 196.141 52.6331C195.805 51.9524 195.275 51.3865 194.618 51.007V51.009ZM186.717 53.5649C186.186 53.5649 185.666 53.4074 185.224 53.1122C184.783 52.817 184.438 52.3974 184.235 51.9065C184.032 51.4156 183.978 50.8755 184.082 50.3544C184.186 49.8333 184.442 49.3546 184.817 48.9789C185.193 48.6032 185.672 48.3473 186.193 48.2437C186.714 48.14 187.254 48.1932 187.745 48.3965C188.236 48.5999 188.655 48.9442 188.951 49.386C189.246 49.8278 189.403 50.3471 189.403 50.8785C189.403 51.591 189.12 52.2743 188.617 52.7781C188.113 53.2819 187.429 53.5649 186.717 53.5649Z" fill="#F480A6"/>
</svg>
